#VRML V2.0 utf8
# 3D model generated by easyeda2kicad.py (https://github.com/uPesy/easyeda2kicad.py)

Shape{
    appearance Appearance {
        material  Material 	{
            diffuseColor 0.14901960784313725 0.14901960784313725 0.14901960784313725
            specularColor 0.07450980392156863 0.07450980392156863 0.07450980392156863
            ambientIntensity 0.149
            transparency 0.0
            shininess 0.5
        }
    }
    geometry IndexedFaceSet {
        ccw TRUE
        solid FALSE
        coord DEF co Coordinate {
            point [
                -2.5856 -0.005 0.315, -3.0729 -0.005 0.315, -3.0729 0.6625 0.315, -1.6051 0.3937 0.315, -1.7868 0.0 0.315, -1.8442 -0.005 0.315, -0.747 0.3937 0.315, -0.9691 0.3937 0.315, -1.0044 0.6625 0.315, -1.388 -1.3443 0.315, -1.8442 -1.3443 0.315, -1.2559 0.0136 0.315, -1.2306 0.0078 0.315, -1.2306 -0.005 0.315, -0.0858 0.3937 0.315, -0.0858 0.0404 0.315, -0.1678 0.0404 0.315, -2.5856 -1.3058 0.315, -3.0729 -1.3058 0.315, 2.3622 1.3058 0.315, 3.0729 1.3058 0.315, 3.0729 0.6625 0.315, 1.9016 -1.0787 0.315, 2.0984 -1.0787 0.315, 2.3622 -1.3058 0.315, 2.0984 -0.9213 0.315, 3.0729 -1.3058 0.315, 3.0729 -0.005 0.315, 1.5 -0.005 0.315, 1.9016 -0.9213 0.315, 1.5 -1.3443 0.315, 2.3622 -1.3443 0.315, 2.0984 1.0787 0.315, 1.9016 1.0787 0.315, 1.5 1.6099 0.315, 1.5 0.6625 0.315, 1.9016 0.9213 0.315, 2.0984 0.9213 0.315, 2.3622 1.6099 0.315, -2.5856 0.6625 0.315, -2.5856 1.3058 0.315, -2.3622 1.3058 0.315, -2.0984 0.9213 0.315, -1.9016 0.9213 0.315, -1.8442 0.6625 0.315, -1.8442 1.6099 0.315, -1.9016 1.0787 0.315, -2.0984 1.0787 0.315, -3.0729 1.3058 0.315, -1.9016 -0.9213 0.315, -2.0984 -0.9213 0.315, -2.3622 -1.3443 0.315, -2.3622 -1.3058 0.315, -2.0984 -1.0787 0.315, -1.0984 -0.9213 0.315, -1.0044 -0.9213 0.315, -1.0044 -0.005 0.315, -0.9016 -0.9213 0.315, -0.7066 -0.005 0.315, -0.7066 -1.3443 0.315, -1.2306 -1.3443 0.315, -1.0984 -1.0787 0.315, -1.0044 -1.3443 0.315, -1.0044 -1.0787 0.315, -0.9016 -1.0787 0.315, -0.0505 0.0 0.315, -0.0505 0.3937 0.315, 0.5 0.6625 0.315, -0.1678 0.6625 0.315, -0.2599 0.6625 0.315, -0.2372 0.0404 0.315, -0.2599 -0.005 0.315, -0.2372 0.0 0.315, -0.1678 -0.005 0.315, -0.6315 0.0361 0.315, -0.5907 0.0103 0.315, -0.3864 0.0151 0.315, -0.4335 -0.0031 0.315, -0.4509 -0.005 0.315, -0.3323 0.3334 0.315, -0.3733 0.3693 0.315, -0.3189 0.2149 0.315, -0.318 0.1965 0.315, -0.4923 0.3634 0.315, -0.6353 0.0959 0.315, -0.6663 0.0725 0.315, -0.6663 0.3215 0.315, -0.3273 0.2532 0.315, -0.3484 0.0424 0.315, -0.3326 0.0588 0.315, -0.304 0.1019 0.315, -0.3052 0.2946 0.315, -0.3568 0.0896 0.315, -0.3853 0.0635 0.315, -0.6306 0.3589 0.315, -0.7066 0.6625 0.315, -0.5877 0.3849 0.315, -0.5518 0.3972 0.315, -0.6547 0.336 0.315, -0.6353 0.2978 0.315, -0.6038 0.3284 0.315, -0.6136 0.0739 0.315, -0.5668 0.3493 0.315, -0.5787 0.0501 0.315, -0.5408 0.0357 0.315, -0.4457 0.3577 0.315, -0.4055 0.3421 0.315, -0.3232 0.1531 0.315, -0.3356 0.1204 0.315, -0.5495 0.3554 0.315, -0.506 0.3629 0.315, -0.4634 0.0324 0.315, -0.4234 0.0427 0.315, -0.2882 0.1472 0.315, -0.2827 0.1991 0.315, -0.2892 0.2529 0.315, -0.415 0.3905 0.315, -0.463 0.4019 0.315, -0.4945 0.4038 0.315, -0.4947 0.0303 0.315, -0.3693 0.3167 0.315, -0.3449 0.2881 0.315, -0.495 -0.0101 0.315, -0.2599 -1.3443 0.315, -0.5146 -0.0094 0.315, -0.5447 -0.005 0.315, -0.546 -0.0049 0.315, -1.2306 1.6099 0.315, -1.0044 1.6099 0.315, -1.0044 1.0787 0.315, -1.0984 1.0787 0.315, -1.0984 0.9213 0.315, -1.2306 0.6625 0.315, -0.9016 1.0787 0.315, -0.7066 1.6099 0.315, -0.9016 0.9213 0.315, -1.0398 0.0 0.315, -1.1618 0.0 0.315, -1.2079 0.0026 0.315, -1.0398 0.3937 0.315, -1.1193 0.3937 0.315, -1.1823 0.3913 0.315, -1.2306 0.3821 0.315, -1.388 0.6625 0.315, -1.2442 0.3795 0.315, -1.3573 0.1392 0.315, -1.3419 0.0954 0.315, -1.388 -0.005 0.315, -1.315 0.0549 0.315, -1.2856 0.0289 0.315, -1.284 0.3594 0.315, -1.3128 0.3344 0.315, -1.3379 0.2989 0.315, -1.3543 0.2578 0.315, -1.3623 0.2101 0.315, -1.3628 0.1919 0.315, 2.3622 -1.6099 0.315, 1.5 -1.6099 0.315, 0.5 -1.3443 0.315, 0.5 -1.6099 0.315, -0.1678 -1.3443 0.315, -0.1678 -1.6099 0.315, -0.2599 -1.6099 0.315, -0.7066 -1.6099 0.315, -1.0044 -1.6099 0.315, -2.3622 -1.6099 0.315, -1.8442 -1.6099 0.315, -1.388 -1.6099 0.315, -1.2306 -1.6099 0.315, 1.0984 -1.0787 0.315, 0.9016 -1.0787 0.315, 0.9016 -0.9213 0.315, 0.5 -0.005 0.315, 1.0984 -0.9213 0.315, 0.0984 -0.9213 0.315, 0.0984 -1.0787 0.315, -0.0984 -1.0787 0.315, -0.0984 -0.9213 0.315, -0.1678 0.0 0.315, -0.9691 0.3533 0.315, -0.9691 0.1918 0.315, -0.7824 0.1918 0.315, -0.7824 0.0404 0.315, -0.9691 0.0404 0.315, -0.9691 0.2322 0.315, -0.7824 0.2322 0.315, -0.7824 0.3533 0.315, -0.9691 0.0 0.315, -0.747 0.0 0.315, -1.0044 0.9213 0.315, -1.7484 0.0 0.315, -1.6 0.3937 0.315, -1.4133 0.0 0.315, -1.4519 0.0 0.315, -1.5117 0.1262 0.315, -1.6902 0.1262 0.315, -2.3622 1.6099 0.315, -1.9016 -1.0787 0.315, 1.0984 1.0787 0.315, 1.0984 0.9213 0.315, 0.9016 0.9213 0.315, 0.9016 1.0787 0.315, 0.5 1.6099 0.315, -0.0984 1.0787 0.315, -0.0984 0.9213 0.315, 0.0984 0.9213 0.315, 0.0984 1.0787 0.315, -0.1678 1.6099 0.315, -0.2599 1.6099 0.315, -1.388 1.6099 0.315, -1.6063 0.9213 2.874, -1.5669 0.4569 2.874, -1.5669 1.4173 2.874, 2.4331 -0.4569 2.874, 2.9783 -0.4569 2.874, 2.9783 0.0 2.874, 3.563 -0.4569 2.874, 3.563 0.0 2.874, 1.6063 -0.9213 2.874, 1.5669 -0.4569 2.874, 1.5669 -1.2463 2.874, 2.3937 -0.9213 2.874, 1.5 0.0 2.874, 1.5 -0.4569 2.874, 1.4331 -0.4569 2.874, 2.4331 -1.4139 2.874, 2.4331 -1.2463 2.874, 1.5669 -1.4139 2.874, 0.6063 -0.9213 2.874, 0.5669 -0.4569 2.874, 0.5669 -1.2463 2.874, 1.4331 -1.4139 2.874, 1.4331 -1.2463 2.874, 0.5669 -1.4139 2.874, 1.3937 -0.9213 2.874, 0.5 0.0 2.874, 0.5 -0.4569 2.874, 0.4331 -0.4569 2.874, -0.3937 -0.9213 2.874, -0.4331 -0.4569 2.874, -0.4331 -1.2463 2.874, 0.4331 -1.4139 2.874, 0.4331 -1.2463 2.874, -0.4331 -1.4139 2.874, 0.3937 -0.9213 2.874, -0.5 0.0 2.874, -0.5 -0.4569 2.874, -0.5669 -0.4569 2.874, -1.3937 -0.9213 2.874, -1.4331 -0.4569 2.874, -1.4331 -1.2463 2.874, -0.5669 -1.4139 2.874, -0.5669 -1.2463 2.874, -1.4331 -1.4139 2.874, -0.6063 -0.9213 2.874, -1.5 0.0 2.874, -1.5 -0.4569 2.874, -1.5669 -0.4569 2.874, -1.6063 -1.0787 2.874, -1.5669 -1.2463 2.874, -1.6063 -0.9213 2.874, -2.3937 -1.0787 2.874, -2.4331 -1.2463 2.874, -2.3937 -0.9213 2.874, -2.4331 -0.4569 2.874, -3.563 0.0 2.874, -3.563 -0.4569 2.874, -2.4331 -1.4139 2.874, -1.5669 -1.4139 2.874, -2.4331 0.4569 2.874, -3.563 0.4569 2.874, -2.3937 0.9213 2.874, -2.4331 1.4173 2.874, -2.3937 1.0787 2.874, -1.6063 1.0787 2.874, -1.5 0.4569 2.874, -1.4331 0.4569 2.874, -0.5669 0.4569 2.874, -0.5669 1.4173 2.874, -0.6063 0.9213 2.874, -0.6063 1.0787 2.874, -1.3937 1.0787 2.874, -1.4331 1.4173 2.874, -1.3937 0.9213 2.874, -0.6063 -1.0787 2.874, -1.3937 -1.0787 2.874, -0.5 0.4569 2.874, -0.4331 0.4569 2.874, 0.4331 0.4569 2.874, 0.4331 1.4173 2.874, 0.3937 0.9213 2.874, 0.3937 1.0787 2.874, -0.3937 1.0787 2.874, -0.4331 1.4173 2.874, -0.3937 0.9213 2.874, 0.3937 -1.0787 2.874, -0.3937 -1.0787 2.874, 0.5 0.4569 2.874, 0.5669 0.4569 2.874, 1.4331 0.4569 2.874, 1.4331 1.4173 2.874, 1.3937 0.9213 2.874, 1.3937 1.0787 2.874, 0.6063 1.0787 2.874, 0.5669 1.4173 2.874, 0.6063 0.9213 2.874, 1.3937 -1.0787 2.874, 0.6063 -1.0787 2.874, 1.5 0.4569 2.874, 1.5669 0.4569 2.874, 1.6063 0.9213 2.874, 2.4331 0.4569 2.874, 2.9783 0.4569 2.874, 2.3937 0.9213 2.874, 2.4331 1.4173 2.874, 2.3937 1.0787 2.874, 1.6063 1.0787 2.874, 1.5669 1.4173 2.874, 2.3937 -1.0787 2.874, 1.6063 -1.0787 2.874, 3.563 0.4569 2.874, 3.563 -0.4569 6.0236, 3.7992 -1.6142 6.0236, 3.7992 0.0 6.0236, 2.753 -1.3273 6.0236, 2.753 -0.7365 6.0236, 2.4331 -0.4569 6.0236, 3.3832 -0.7365 6.0236, 3.3832 -1.3273 6.0236, 3.7925 -1.6651 6.0236, 0.0 -1.811 6.0236, 3.6024 -1.811 6.0236, 1.5669 -1.4139 6.0236, 2.4331 -1.4139 6.0236, 3.7008 -1.7847 6.0236, 3.7416 -1.7534 6.0236, 3.7728 -1.7126 6.0236, 0.5669 -1.4139 6.0236, 1.4331 -1.4139 6.0236, 1.4331 -0.4569 6.0236, 1.5669 -0.4569 6.0236, 3.6533 -1.8043 6.0236, -0.4331 -1.4139 6.0236, -3.6024 -1.811 6.0236, 0.5669 -0.4569 6.0236, 0.4331 -0.4569 6.0236, 0.4331 -1.4139 6.0236, 0.0 -1.4139 6.0236, -1.4331 -1.4139 6.0236, -1.4331 -0.4569 6.0236, -1.5669 -0.4569 6.0236, -1.5669 -1.4139 6.0236, -2.4331 -1.4139 6.0236, -0.5669 -1.4139 6.0236, -0.5669 -0.4569 6.0236, -0.4331 -0.4569 6.0236, -2.753 -1.3273 6.0236, -3.3832 -1.3273 6.0236, -3.6533 -1.8043 6.0236, -3.7008 -1.7847 6.0236, -3.7925 -1.6651 6.0236, -3.7728 -1.7126 6.0236, -3.7416 -1.7534 6.0236, -2.753 -0.7365 6.0236, -2.4331 -0.4569 6.0236, -3.3832 -0.7365 6.0236, -3.563 -0.4569 6.0236, -3.563 0.4569 6.0236, -3.7992 1.6142 6.0236, -3.7992 0.0 6.0236, -3.7992 -1.6142 6.0236, -3.563 0.0 6.0236, -2.753 1.3273 6.0236, -2.753 0.7365 6.0236, -2.4331 0.4569 6.0236, -3.3832 0.7365 6.0236, -3.3832 1.3273 6.0236, -3.7925 1.6651 6.0236, -3.7008 1.7847 6.0236, -3.7416 1.7534 6.0236, -3.7728 1.7126 6.0236, 0.0 1.811 6.0236, -3.6024 1.811 6.0236, -1.5669 1.4173 6.0236, -2.4331 1.4173 6.0236, -0.5669 1.4173 6.0236, -1.4331 1.4173 6.0236, -1.4331 0.4569 6.0236, -1.5669 0.4569 6.0236, -3.6533 1.8043 6.0236, 0.4331 1.4173 6.0236, 3.6024 1.811 6.0236, -0.5669 0.4569 6.0236, -0.4331 0.4569 6.0236, -0.4331 1.4173 6.0236, 0.0 1.4173 6.0236, 1.4331 1.4173 6.0236, 1.4331 0.4569 6.0236, 1.5669 0.4569 6.0236, 1.5669 1.4173 6.0236, 2.4331 1.4173 6.0236, 0.5669 1.4173 6.0236, 0.5669 0.4569 6.0236, 0.4331 0.4569 6.0236, 3.7992 1.6142 6.0236, 3.563 0.4569 6.0236, 3.563 0.0 6.0236, 3.7925 1.6651 6.0236, 3.7728 1.7126 6.0236, 3.3832 1.3273 6.0236, 3.7416 1.7534 6.0236, 3.7008 1.7847 6.0236, 3.6533 1.8043 6.0236, 2.753 1.3273 6.0236, 2.753 0.7365 6.0236, 2.4331 0.4569 6.0236, 3.3832 0.7365 6.0236, -3.0729 1.3058 0.0394, -3.0729 1.6099 0.0394, -2.3622 1.3058 0.0394, -2.3622 1.6099 0.0394, 2.3622 1.3058 0.0394, 2.3622 1.6099 0.0394, 3.0729 1.3058 0.0394, 3.0729 1.6099 0.0394, -2.3622 -1.3058 0.0394, -2.3622 -1.6099 0.0394, -3.0729 -1.3058 0.0394, -3.0729 -1.6099 0.0394, 3.7992 -1.6142 2.2835, 3.7992 1.6099 2.2792, 3.7992 1.6142 2.2835, 3.7992 1.6099 2.0866, 3.7992 -1.6099 2.2792, 3.7992 -1.6099 2.0866, -3.6024 1.811 2.4803, 3.6024 1.811 2.4803, -3.7992 1.6142 2.2835, -3.7992 1.6099 2.2792, -3.7992 -1.6142 2.2835, -3.7992 1.6099 2.0866, -3.7992 -1.6099 2.0866, -3.7992 -1.6099 2.2792, -3.6024 -1.811 2.4803, 3.6024 -1.811 2.4803, 3.0729 -1.3058 0.0394, 3.0729 -1.6099 0.0394, 2.3622 -1.3058 0.0394, 2.3622 -1.6099 0.0394, 3.0729 -1.6099 2.0866, 3.0729 1.6099 2.0866, -3.0729 -1.6099 2.0866, -3.0729 1.6099 2.0866, 3.6777 1.796 2.4653, 3.7008 1.7847 2.4539, 3.6533 1.8043 2.4736, 3.7222 1.7703 2.4396, 3.7416 1.7534 2.4227, 3.7925 1.6651 2.3344, 3.7728 1.7126 2.3819, -3.7222 1.7703 2.4396, -3.7416 1.7534 2.4227, -3.7925 1.6651 2.3344, -3.7728 1.7126 2.3819, -3.7008 1.7847 2.4539, -3.6777 1.796 2.4653, -3.6533 1.8043 2.4736, 3.6281 1.8093 2.4786, -3.6281 1.8093 2.4786, -3.6777 -1.796 2.4653, -3.7008 -1.7847 2.4539, -3.6533 -1.8043 2.4736, -3.7222 -1.7703 2.4396, -3.7416 -1.7534 2.4227, -3.7925 -1.6651 2.3344, -3.7728 -1.7126 2.3819, 3.7222 -1.7703 2.4396, 3.7416 -1.7534 2.4227, 3.7925 -1.6651 2.3344, 3.7728 -1.7126 2.3819, 3.7008 -1.7847 2.4539, 3.6777 -1.796 2.4653, 3.6533 -1.8043 2.4736, -3.6281 -1.8093 2.4786, 3.6281 -1.8093 2.4786
            ]
        }
        coordIndex [
            0,1,2,-1,3,4,5,-1,6,7,8,-1,9,10,5,-1,11,12,13,-1,14,15,16,-1,17,18,1,-1,19,20,21,-1,22,23,24,-1,24,23,25,-1,26,24,27,-1,27,24,25,-1,27,25,28,-1,28,25,29,-1,28,29,30,-1,30,29,22,-1,30,22,31,-1,31,22,24,-1,32,33,34,-1,34,33,35,-1,33,36,35,-1,35,36,37,-1,35,37,21,-1,21,37,32,-1,21,32,19,-1,19,32,34,-1,19,34,38,-1,39,40,41,-1,42,43,44,-1,45,46,47,-1,40,39,48,-1,49,50,0,-1,10,51,52,-1,1,0,17,-1,17,0,50,-1,17,50,52,-1,52,50,53,-1,52,53,10,-1,54,13,55,-1,55,13,56,-1,55,56,57,-1,57,56,58,-1,57,58,59,-1,60,61,62,-1,62,61,63,-1,62,63,59,-1,59,63,64,-1,59,64,57,-1,65,66,67,-1,67,66,68,-1,66,14,68,-1,68,14,16,-1,68,16,69,-1,69,16,70,-1,69,70,71,-1,71,70,72,-1,71,72,73,-1,58,74,75,-1,76,71,77,-1,77,71,78,-1,79,80,69,-1,81,82,83,-1,84,85,86,-1,81,83,87,-1,76,88,71,-1,71,88,89,-1,71,89,90,-1,79,69,91,-1,83,92,93,-1,94,95,96,-1,96,95,97,-1,94,98,95,-1,95,98,86,-1,95,86,58,-1,58,86,85,-1,58,85,74,-1,86,99,84,-1,84,99,100,-1,84,100,101,-1,101,100,102,-1,101,102,103,-1,103,102,104,-1,83,105,106,-1,82,107,83,-1,83,107,108,-1,83,108,92,-1,109,110,111,-1,111,110,83,-1,111,83,112,-1,112,83,93,-1,90,113,71,-1,71,113,114,-1,71,114,69,-1,69,114,115,-1,69,115,91,-1,80,116,69,-1,69,116,117,-1,69,117,95,-1,95,117,118,-1,95,118,97,-1,109,111,102,-1,102,111,119,-1,102,119,104,-1,106,120,83,-1,83,120,121,-1,83,121,87,-1,122,123,124,-1,124,123,59,-1,124,59,125,-1,125,59,58,-1,125,58,126,-1,126,58,75,-1,127,128,129,-1,130,131,132,-1,129,128,133,-1,133,128,134,-1,133,134,135,-1,136,56,137,-1,137,56,13,-1,137,13,138,-1,138,13,12,-1,131,8,132,-1,132,8,139,-1,132,139,140,-1,140,141,132,-1,132,141,142,-1,132,142,143,-1,143,142,144,-1,145,146,147,-1,147,146,148,-1,147,148,149,-1,144,150,143,-1,143,150,151,-1,143,151,152,-1,152,153,143,-1,143,153,154,-1,143,154,147,-1,147,154,155,-1,147,155,145,-1,31,156,30,-1,30,156,157,-1,30,157,158,-1,158,157,159,-1,158,159,160,-1,160,159,161,-1,160,161,123,-1,123,161,162,-1,123,162,59,-1,59,162,163,-1,59,163,62,-1,62,163,164,-1,62,164,60,-1,165,51,166,-1,166,51,10,-1,166,10,167,-1,167,10,9,-1,167,9,168,-1,169,30,170,-1,170,30,158,-1,170,158,171,-1,171,158,172,-1,171,172,173,-1,173,172,28,-1,173,28,169,-1,169,28,30,-1,73,172,174,-1,174,172,175,-1,175,172,158,-1,175,158,176,-1,176,158,160,-1,176,160,177,-1,122,78,123,-1,123,78,71,-1,123,71,160,-1,160,71,73,-1,160,73,177,-1,177,73,174,-1,149,11,147,-1,147,11,13,-1,147,13,60,-1,60,13,54,-1,60,54,61,-1,72,178,73,-1,73,178,65,-1,73,65,172,-1,172,65,67,-1,172,67,28,-1,28,67,35,-1,28,35,27,-1,27,35,21,-1,136,139,56,-1,56,139,8,-1,56,8,179,-1,179,8,7,-1,180,181,182,-1,182,183,180,-1,180,183,56,-1,180,56,184,-1,184,56,179,-1,184,179,185,-1,185,179,186,-1,183,187,56,-1,56,187,188,-1,56,188,58,-1,58,188,6,-1,58,6,95,-1,95,6,8,-1,95,8,189,-1,189,8,131,-1,164,168,60,-1,60,168,9,-1,60,9,147,-1,147,9,5,-1,147,5,190,-1,190,5,4,-1,3,44,191,-1,191,44,143,-1,191,143,192,-1,192,143,147,-1,192,147,193,-1,193,147,190,-1,193,190,194,-1,194,190,195,-1,3,5,44,-1,44,5,39,-1,44,39,42,-1,42,39,41,-1,42,41,47,-1,47,41,196,-1,47,196,45,-1,53,197,10,-1,10,197,49,-1,10,49,5,-1,5,49,0,-1,5,0,39,-1,39,0,2,-1,39,2,48,-1,198,34,199,-1,199,34,35,-1,199,35,200,-1,200,35,67,-1,200,67,201,-1,201,67,202,-1,201,202,198,-1,198,202,34,-1,203,204,68,-1,68,204,67,-1,67,204,205,-1,67,205,202,-1,202,205,206,-1,202,206,207,-1,189,135,95,-1,95,135,134,-1,95,134,69,-1,69,134,208,-1,69,208,68,-1,68,208,207,-1,68,207,203,-1,203,207,206,-1,43,46,44,-1,44,46,45,-1,44,45,143,-1,143,45,209,-1,143,209,132,-1,132,209,127,-1,132,127,130,-1,130,127,129,-1,210,211,212,-1,213,214,215,-1,214,216,217,-1,218,219,220,-1,218,221,219,-1,219,221,222,-1,219,222,223,-1,223,222,224,-1,225,226,227,-1,227,226,220,-1,228,229,230,-1,231,232,233,-1,233,232,230,-1,228,234,229,-1,229,234,235,-1,229,235,236,-1,236,235,237,-1,238,239,240,-1,241,242,243,-1,243,242,240,-1,238,244,239,-1,239,244,245,-1,239,245,246,-1,246,245,247,-1,248,249,250,-1,251,252,253,-1,253,252,250,-1,248,254,249,-1,249,254,255,-1,249,255,256,-1,256,255,257,-1,258,259,260,-1,260,259,257,-1,258,261,262,-1,262,261,263,-1,262,263,264,-1,265,266,264,-1,258,262,259,-1,259,262,267,-1,259,267,268,-1,269,270,265,-1,263,260,264,-1,264,260,257,-1,264,257,265,-1,265,257,255,-1,265,255,269,-1,269,255,271,-1,269,271,272,-1,272,271,273,-1,272,273,212,-1,212,273,274,-1,212,274,210,-1,210,271,211,-1,211,271,255,-1,211,255,275,-1,275,255,276,-1,277,278,279,-1,279,278,280,-1,280,278,281,-1,281,278,282,-1,281,282,283,-1,283,282,276,-1,283,276,245,-1,245,276,255,-1,245,255,247,-1,247,255,254,-1,247,254,252,-1,252,254,284,-1,252,284,250,-1,250,284,285,-1,250,285,248,-1,279,283,277,-1,277,283,245,-1,277,245,286,-1,286,245,287,-1,288,289,290,-1,290,289,291,-1,291,289,292,-1,292,289,293,-1,292,293,294,-1,294,293,287,-1,294,287,235,-1,235,287,245,-1,235,245,237,-1,237,245,244,-1,237,244,242,-1,242,244,295,-1,242,295,240,-1,240,295,296,-1,240,296,238,-1,290,294,288,-1,288,294,235,-1,288,235,297,-1,297,235,298,-1,299,300,301,-1,301,300,302,-1,302,300,303,-1,303,300,304,-1,303,304,305,-1,305,304,298,-1,305,298,222,-1,222,298,235,-1,222,235,224,-1,224,235,234,-1,224,234,232,-1,232,234,306,-1,232,306,230,-1,230,306,307,-1,230,307,228,-1,301,305,299,-1,299,305,222,-1,299,222,308,-1,308,222,309,-1,310,215,311,-1,311,215,312,-1,310,311,313,-1,313,311,314,-1,313,314,315,-1,315,314,316,-1,316,314,317,-1,316,317,310,-1,310,317,309,-1,310,309,215,-1,215,309,222,-1,215,222,213,-1,213,222,221,-1,213,221,226,-1,226,221,318,-1,226,318,220,-1,220,318,319,-1,220,319,218,-1,214,217,215,-1,215,217,320,-1,215,320,312,-1,321,322,323,-1,324,325,326,-1,326,325,321,-1,321,325,327,-1,321,327,322,-1,322,327,328,-1,322,328,329,-1,330,331,332,-1,332,331,333,-1,334,335,328,-1,328,335,336,-1,328,336,329,-1,337,330,338,-1,338,330,332,-1,338,332,339,-1,339,332,340,-1,326,333,324,-1,324,333,331,-1,324,331,328,-1,328,331,341,-1,328,341,334,-1,342,343,330,-1,344,345,337,-1,337,345,346,-1,337,346,330,-1,330,346,347,-1,330,347,342,-1,348,349,350,-1,351,352,343,-1,350,351,348,-1,348,351,343,-1,348,343,353,-1,353,343,342,-1,353,342,354,-1,354,342,355,-1,356,357,358,-1,358,357,359,-1,360,361,357,-1,357,361,362,-1,357,362,359,-1,358,343,356,-1,356,343,352,-1,356,352,363,-1,363,352,364,-1,363,364,365,-1,365,364,366,-1,365,366,357,-1,367,368,369,-1,360,357,370,-1,370,357,366,-1,370,366,369,-1,369,366,371,-1,369,371,367,-1,372,373,374,-1,374,373,367,-1,367,373,375,-1,367,375,368,-1,368,375,376,-1,368,376,377,-1,378,379,376,-1,376,379,380,-1,376,380,377,-1,381,382,383,-1,383,382,384,-1,385,381,386,-1,386,381,383,-1,386,383,387,-1,387,383,388,-1,374,384,372,-1,372,384,382,-1,372,382,376,-1,376,382,389,-1,376,389,378,-1,390,391,381,-1,392,393,385,-1,385,393,394,-1,385,394,381,-1,381,394,395,-1,381,395,390,-1,396,397,398,-1,399,400,391,-1,398,399,396,-1,396,399,391,-1,396,391,401,-1,401,391,390,-1,401,390,402,-1,402,390,403,-1,404,405,323,-1,323,405,406,-1,323,406,321,-1,407,408,409,-1,409,408,410,-1,410,411,409,-1,409,411,412,-1,409,412,413,-1,412,391,413,-1,413,391,400,-1,413,400,414,-1,414,400,415,-1,414,415,416,-1,416,415,405,-1,416,405,409,-1,409,405,404,-1,409,404,407,-1,257,350,256,-1,256,350,349,-1,256,349,249,-1,247,354,246,-1,246,354,355,-1,246,355,239,-1,237,345,236,-1,236,345,344,-1,236,344,229,-1,224,339,223,-1,223,339,340,-1,223,340,219,-1,276,387,275,-1,275,387,388,-1,275,388,211,-1,287,393,286,-1,286,393,392,-1,286,392,277,-1,298,402,297,-1,297,402,403,-1,297,403,288,-1,309,398,308,-1,308,398,397,-1,308,397,299,-1,264,266,364,-1,364,266,366,-1,374,367,269,-1,269,367,270,-1,417,418,419,-1,419,418,420,-1,421,422,423,-1,423,422,424,-1,419,420,41,-1,41,420,196,-1,19,38,421,-1,421,38,422,-1,425,426,427,-1,427,426,428,-1,323,322,429,-1,430,431,404,-1,404,323,430,-1,430,323,429,-1,430,429,432,-1,432,429,433,-1,432,433,434,-1,435,382,436,-1,436,382,381,-1,436,381,391,-1,368,437,369,-1,369,437,438,-1,369,438,370,-1,370,438,439,-1,440,441,438,-1,438,441,442,-1,438,442,439,-1,343,443,330,-1,330,443,444,-1,330,444,331,-1,445,446,447,-1,447,446,448,-1,52,165,425,-1,425,165,426,-1,447,448,24,-1,24,448,156,-1,449,450,434,-1,434,450,432,-1,446,445,26,-1,423,424,20,-1,20,424,450,-1,20,450,26,-1,26,450,449,-1,26,449,446,-1,441,440,451,-1,451,440,452,-1,418,417,48,-1,427,428,18,-1,18,428,451,-1,18,451,48,-1,48,451,452,-1,48,452,418,-1,440,438,452,-1,452,438,430,-1,452,430,450,-1,450,430,432,-1,420,418,196,-1,196,418,452,-1,196,452,38,-1,38,452,450,-1,38,450,422,-1,422,450,424,-1,435,436,430,-1,453,454,431,-1,453,431,455,-1,454,456,431,-1,431,456,457,-1,431,457,458,-1,458,457,459,-1,460,437,461,-1,461,437,462,-1,461,462,463,-1,460,464,437,-1,437,464,465,-1,437,465,466,-1,430,436,431,-1,431,436,467,-1,431,467,455,-1,430,438,435,-1,435,438,437,-1,435,437,468,-1,468,437,466,-1,449,434,433,-1,442,441,451,-1,428,426,451,-1,451,426,165,-1,451,165,156,-1,448,446,156,-1,156,446,449,-1,156,449,451,-1,451,449,433,-1,451,433,442,-1,444,443,442,-1,469,470,439,-1,469,439,471,-1,470,472,439,-1,439,472,473,-1,439,473,474,-1,474,473,475,-1,476,429,477,-1,477,429,478,-1,477,478,479,-1,476,480,429,-1,429,480,481,-1,429,481,482,-1,442,443,439,-1,439,443,483,-1,439,483,471,-1,442,433,444,-1,444,433,429,-1,444,429,484,-1,484,429,482,-1,417,419,48,-1,48,419,41,-1,18,52,427,-1,427,52,425,-1,19,421,20,-1,20,421,423,-1,26,445,24,-1,24,445,447,-1,320,216,405,-1,405,216,321,-1,213,326,214,-1,214,326,321,-1,214,321,216,-1,266,270,366,-1,366,270,367,-1,320,405,312,-1,312,405,415,-1,312,415,311,-1,212,211,383,-1,383,211,388,-1,384,374,272,-1,272,374,269,-1,272,212,384,-1,384,212,383,-1,267,264,352,-1,352,264,364,-1,351,350,268,-1,268,350,257,-1,268,267,351,-1,351,267,352,-1,
        ]
    }
}
Shape{
    appearance Appearance {
        material  Material 	{
            diffuseColor 0.7529411764705882 0.7529411764705882 0.7529411764705882
            specularColor 0.3764705882352941 0.3764705882352941 0.3764705882352941
            ambientIntensity 0.7529
            transparency 0.0
            shininess 0.5
        }
    }
    geometry IndexedFaceSet {
        ccw TRUE
        solid FALSE
        coord DEF co Coordinate {
            point [
                -2.3937 0.671 5.4478, -2.3937 0.9213 4.6989, -1.6063 0.671 5.4478, -1.6063 0.9213 4.6989, -2.3937 1.0987 5.7969, -1.6063 1.0987 5.7969, -2.3937 1.1647 5.9852, -1.6063 1.1647 5.9852, -2.3937 1.3177 5.9852, -1.6063 1.3177 5.9852, -2.3937 1.0787 5.3621, -1.6063 1.0787 5.3621, -1.6063 0.9213 2.874, -1.6063 1.0787 2.874, -2.3937 0.9213 2.874, -2.3937 1.0787 2.874, -2.0984 1.0787 0.315, -1.9016 1.0787 0.315, -2.0984 1.0787 -1.2992, -1.9016 1.0787 -1.2992, -2.0984 0.9213 -1.2992, -1.9016 0.9213 -1.2992, -2.0984 0.9213 0.315, -1.9016 0.9213 0.315, -2.3937 -1.3177 5.9852, -2.3937 -1.0787 5.3621, -1.6063 -1.3177 5.9852, -1.6063 -1.0787 5.3621, -2.3937 -1.1647 5.9852, -1.6063 -1.1647 5.9852, -2.3937 -1.0987 5.7969, -1.6063 -1.0987 5.7969, -2.3937 -0.671 5.4478, -1.6063 -0.671 5.4478, -2.3937 -0.9213 4.6989, -1.6063 -0.9213 4.6989, -1.6063 -0.9213 2.874, -1.6063 -1.0787 2.874, -2.3937 -0.9213 2.874, -2.3937 -1.0787 2.874, -2.0984 -0.9213 0.315, -1.9016 -0.9213 0.315, -2.0984 -0.9213 -1.2992, -1.9016 -0.9213 -1.2992, -2.0984 -1.0787 -1.2992, -1.9016 -1.0787 -1.2992, -2.0984 -1.0787 0.315, -1.9016 -1.0787 0.315
            ]
        }
        coordIndex [
            0,1,2,-1,2,1,3,-1,4,0,5,-1,5,0,2,-1,6,4,7,-1,7,4,5,-1,8,6,9,-1,9,6,7,-1,10,8,11,-1,11,8,9,-1,11,9,5,-1,5,9,7,-1,12,13,3,-1,3,13,11,-1,3,11,2,-1,2,11,5,-1,0,4,1,-1,1,4,14,-1,15,14,10,-1,10,14,4,-1,10,4,8,-1,8,4,6,-1,12,3,14,-1,14,3,1,-1,15,10,13,-1,13,10,11,-1,16,17,18,-1,18,17,19,-1,20,21,22,-1,22,21,23,-1,18,19,20,-1,20,19,21,-1,24,25,26,-1,26,25,27,-1,28,24,29,-1,29,24,26,-1,30,28,31,-1,31,28,29,-1,32,30,33,-1,33,30,31,-1,34,32,35,-1,35,32,33,-1,33,31,35,-1,35,31,36,-1,37,36,27,-1,27,36,31,-1,27,31,26,-1,26,31,29,-1,25,24,30,-1,30,24,28,-1,38,39,34,-1,34,39,25,-1,34,25,32,-1,32,25,30,-1,37,27,39,-1,39,27,25,-1,38,34,36,-1,36,34,35,-1,40,41,42,-1,42,41,43,-1,44,45,46,-1,46,45,47,-1,42,43,44,-1,44,43,45,-1,
        ]
    }
}
Shape{
    appearance Appearance {
        material  Material 	{
            diffuseColor 0.14901960784313725 0.14901960784313725 0.14901960784313725
            specularColor 0.07450980392156863 0.07450980392156863 0.07450980392156863
            ambientIntensity 0.149
            transparency 0.0
            shininess 0.5
        }
    }
    geometry IndexedFaceSet {
        ccw TRUE
        solid FALSE
        coord DEF co Coordinate {
            point [
                -3.3832 -1.3273 2.874, -3.3832 -0.7365 2.874, -3.3832 -1.3273 6.0236, -3.3832 -0.7365 6.0236, -2.753 -0.7365 2.874, -2.753 -0.7365 6.0236, -2.753 -1.3273 2.874, -2.753 -1.3273 6.0236, -3.3832 0.7365 2.874, -3.3832 1.3273 2.874, -3.3832 0.7365 6.0236, -3.3832 1.3273 6.0236, -2.753 1.3273 2.874, -2.753 1.3273 6.0236, -2.753 0.7365 2.874, -2.753 0.7365 6.0236
            ]
        }
        coordIndex [
            0,1,2,-1,2,1,3,-1,1,4,3,-1,3,4,5,-1,4,6,5,-1,5,6,7,-1,6,0,7,-1,7,0,2,-1,6,4,0,-1,0,4,1,-1,8,9,10,-1,10,9,11,-1,9,12,11,-1,11,12,13,-1,12,14,13,-1,13,14,15,-1,14,8,15,-1,15,8,10,-1,14,12,8,-1,8,12,9,-1,
        ]
    }
}
Shape{
    appearance Appearance {
        material  Material 	{
            diffuseColor 0.7529411764705882 0.7529411764705882 0.7529411764705882
            specularColor 0.3764705882352941 0.3764705882352941 0.3764705882352941
            ambientIntensity 0.7529
            transparency 0.0
            shininess 0.5
        }
    }
    geometry IndexedFaceSet {
        ccw TRUE
        solid FALSE
        coord DEF co Coordinate {
            point [
                -1.9016 -1.0787 -1.2992, -1.9016 -0.9213 -1.2992, -1.9016 -1.0787 0.315, -1.9016 -0.9213 0.315, -2.0984 -1.0787 0.315, -2.0984 -0.9213 0.315, -2.0984 -1.0787 -1.2992, -2.0984 -0.9213 -1.2992, -1.9016 1.0787 0.315, -1.9016 0.9213 0.315, -1.9016 1.0787 -1.2992, -1.9016 0.9213 -1.2992, -2.0984 1.0787 -1.2992, -2.0984 0.9213 -1.2992, -2.0984 1.0787 0.315, -2.0984 0.9213 0.315
            ]
        }
        coordIndex [
            0,1,2,-1,2,1,3,-1,4,5,6,-1,6,5,7,-1,8,9,10,-1,10,9,11,-1,12,13,14,-1,14,13,15,-1,
        ]
    }
}
Shape{
    appearance Appearance {
        material  Material 	{
            diffuseColor 0.14901960784313725 0.14901960784313725 0.14901960784313725
            specularColor 0.07450980392156863 0.07450980392156863 0.07450980392156863
            ambientIntensity 0.149
            transparency 0.0
            shininess 0.5
        }
    }
    geometry IndexedFaceSet {
        ccw TRUE
        solid FALSE
        coord DEF co Coordinate {
            point [
                3.6024 1.811 2.4803, 3.6024 1.811 6.0236, 3.6281 1.8093 2.4786, 3.6533 1.8043 6.0236, 3.6533 1.8043 2.4736, 3.6777 1.796 2.4653, 3.7008 1.7847 6.0236, 3.7008 1.7847 2.4539, 3.7222 1.7703 2.4396, 3.7416 1.7534 6.0236, 3.7416 1.7534 2.4227, 3.7728 1.7126 6.0236, 3.7728 1.7126 2.3819, 3.7925 1.6651 6.0236, 3.7925 1.6651 2.3344, 3.7992 1.6142 6.0236, 3.7992 1.6142 2.2835, 3.7992 -1.6142 2.2835, 3.7992 -1.6142 6.0236, 3.7925 -1.6651 6.0236, 3.7925 -1.6651 2.3344, 3.7728 -1.7126 6.0236, 3.7728 -1.7126 2.3819, 3.7416 -1.7534 6.0236, 3.7416 -1.7534 2.4227, 3.7008 -1.7847 6.0236, 3.7008 -1.7847 2.4539, 3.7222 -1.7703 2.4396, 3.6533 -1.8043 6.0236, 3.6024 -1.811 6.0236, 3.6024 -1.811 2.4803, 3.6281 -1.8093 2.4786, 3.6533 -1.8043 2.4736, 3.6777 -1.796 2.4653, -3.6024 -1.811 2.4803, -3.6024 -1.811 6.0236, -3.6281 -1.8093 2.4786, -3.6533 -1.8043 6.0236, -3.6533 -1.8043 2.4736, -3.6777 -1.796 2.4653, -3.7008 -1.7847 6.0236, -3.7008 -1.7847 2.4539, -3.7222 -1.7703 2.4396, -3.7416 -1.7534 6.0236, -3.7416 -1.7534 2.4227, -3.7728 -1.7126 6.0236, -3.7728 -1.7126 2.3819, -3.7925 -1.6651 6.0236, -3.7925 -1.6651 2.3344, -3.7992 -1.6142 6.0236, -3.7992 -1.6142 2.2835, -3.7992 1.6142 2.2835, -3.7992 1.6142 6.0236, -3.7925 1.6651 6.0236, -3.7925 1.6651 2.3344, -3.7728 1.7126 6.0236, -3.7728 1.7126 2.3819, -3.7416 1.7534 6.0236, -3.7416 1.7534 2.4227, -3.7008 1.7847 6.0236, -3.7008 1.7847 2.4539, -3.7222 1.7703 2.4396, -3.6533 1.8043 6.0236, -3.6024 1.811 6.0236, -3.6024 1.811 2.4803, -3.6281 1.8093 2.4786, -3.6533 1.8043 2.4736, -3.6777 1.796 2.4653, 2.4331 1.4173 2.874, 2.4331 0.4569 2.874, 2.4331 1.4173 6.0236, 2.4331 0.4569 6.0236, 1.5669 1.4173 6.0236, 1.5669 0.4569 6.0236, 1.5669 1.4173 2.874, 1.5669 0.4569 2.874, 1.4331 1.4173 2.874, 1.4331 0.4569 2.874, 1.4331 1.4173 6.0236, 1.4331 0.4569 6.0236, 0.5669 1.4173 6.0236, 0.5669 0.4569 6.0236, 0.5669 1.4173 2.874, 0.5669 0.4569 2.874, 0.4331 1.4173 2.874, 0.4331 0.4569 2.874, 0.4331 1.4173 6.0236, 0.4331 0.4569 6.0236, -0.4331 1.4173 6.0236, -0.4331 0.4569 6.0236, -0.4331 1.4173 2.874, -0.4331 0.4569 2.874, 0.0 1.4173 6.0236, -0.5669 1.4173 2.874, -0.5669 0.4569 2.874, -0.5669 1.4173 6.0236, -0.5669 0.4569 6.0236, -1.4331 1.4173 6.0236, -1.4331 0.4569 6.0236, -1.4331 1.4173 2.874, -1.4331 0.4569 2.874, 1.5669 -0.4569 2.874, 1.5669 -0.4569 6.0236, 1.5669 -1.2463 2.874, 1.5669 -1.4139 6.0236, 1.5669 -1.4139 2.874, 2.4331 -1.4139 2.874, 2.4331 -1.4139 6.0236, 2.4331 -1.2463 2.874, 2.4331 -0.4569 6.0236, 2.4331 -0.4569 2.874, 0.5669 -0.4569 2.874, 0.5669 -0.4569 6.0236, 0.5669 -1.2463 2.874, 0.5669 -1.4139 6.0236, 0.5669 -1.4139 2.874, 1.4331 -1.4139 2.874, 1.4331 -1.4139 6.0236, 1.4331 -1.2463 2.874, 1.4331 -0.4569 6.0236, 1.4331 -0.4569 2.874, -0.4331 -0.4569 2.874, -0.4331 -0.4569 6.0236, -0.4331 -1.2463 2.874, -0.4331 -1.4139 6.0236, -0.4331 -1.4139 2.874, 0.4331 -1.4139 2.874, 0.4331 -1.4139 6.0236, 0.4331 -1.2463 2.874, 0.4331 -0.4569 6.0236, 0.4331 -0.4569 2.874, 0.0 -1.4139 6.0236, -1.4331 -0.4569 2.874, -1.4331 -0.4569 6.0236, -1.4331 -1.2463 2.874, -1.4331 -1.4139 6.0236, -1.4331 -1.4139 2.874, -0.5669 -1.4139 2.874, -0.5669 -1.4139 6.0236, -0.5669 -1.2463 2.874, -0.5669 -0.4569 6.0236, -0.5669 -0.4569 2.874, 3.3832 -0.7365 2.874, 3.3832 -1.3273 2.874, 3.3832 -0.7365 6.0236, 3.3832 -1.3273 6.0236, 2.753 -1.3273 2.874, 2.753 -1.3273 6.0236, 2.753 -0.7365 2.874, 2.753 -0.7365 6.0236, 3.3832 1.3273 2.874, 3.3832 0.7365 2.874, 3.3832 1.3273 6.0236, 3.3832 0.7365 6.0236, 2.753 0.7365 2.874, 2.753 0.7365 6.0236, 2.753 1.3273 2.874, 2.753 1.3273 6.0236
            ]
        }
        coordIndex [
            0,1,2,-1,2,1,3,-1,2,3,4,-1,4,3,5,-1,5,3,6,-1,5,6,7,-1,7,6,8,-1,8,6,9,-1,8,9,10,-1,10,9,11,-1,10,11,12,-1,12,11,13,-1,12,13,14,-1,14,13,15,-1,14,15,16,-1,17,18,19,-1,17,19,20,-1,20,19,21,-1,20,21,22,-1,22,21,23,-1,22,23,24,-1,25,26,23,-1,23,26,27,-1,23,27,24,-1,28,29,30,-1,30,31,28,-1,28,31,32,-1,28,32,25,-1,25,32,33,-1,25,33,26,-1,34,35,36,-1,36,35,37,-1,36,37,38,-1,38,37,39,-1,39,37,40,-1,39,40,41,-1,41,40,42,-1,42,40,43,-1,42,43,44,-1,44,43,45,-1,44,45,46,-1,46,45,47,-1,46,47,48,-1,48,47,49,-1,48,49,50,-1,51,52,53,-1,51,53,54,-1,54,53,55,-1,54,55,56,-1,56,55,57,-1,56,57,58,-1,59,60,57,-1,57,60,61,-1,57,61,58,-1,62,63,64,-1,64,65,62,-1,62,65,66,-1,62,66,59,-1,59,66,67,-1,59,67,60,-1,68,69,70,-1,70,69,71,-1,72,73,74,-1,74,73,75,-1,74,68,72,-1,72,68,70,-1,76,77,78,-1,78,77,79,-1,80,81,82,-1,82,81,83,-1,82,76,80,-1,80,76,78,-1,84,85,86,-1,86,85,87,-1,88,89,90,-1,90,89,91,-1,88,90,92,-1,92,90,84,-1,92,84,86,-1,93,94,95,-1,95,94,96,-1,97,98,99,-1,99,98,100,-1,99,93,97,-1,97,93,95,-1,101,102,103,-1,103,102,104,-1,103,104,105,-1,106,107,108,-1,108,107,109,-1,108,109,110,-1,106,105,107,-1,107,105,104,-1,111,112,113,-1,113,112,114,-1,113,114,115,-1,116,117,118,-1,118,117,119,-1,118,119,120,-1,116,115,117,-1,117,115,114,-1,121,122,123,-1,123,122,124,-1,123,124,125,-1,126,127,128,-1,128,127,129,-1,128,129,130,-1,127,126,131,-1,131,126,125,-1,131,125,124,-1,132,133,134,-1,134,133,135,-1,134,135,136,-1,137,138,139,-1,139,138,140,-1,139,140,141,-1,137,136,138,-1,138,136,135,-1,142,143,144,-1,144,143,145,-1,143,146,145,-1,145,146,147,-1,146,148,147,-1,147,148,149,-1,148,142,149,-1,149,142,144,-1,148,146,142,-1,142,146,143,-1,150,151,152,-1,152,151,153,-1,151,154,153,-1,153,154,155,-1,154,156,155,-1,155,156,157,-1,156,150,157,-1,157,150,152,-1,156,154,150,-1,150,154,151,-1,
        ]
    }
}
Shape{
    appearance Appearance {
        material  Material 	{
            diffuseColor 0.7529411764705882 0.7529411764705882 0.7529411764705882
            specularColor 0.3764705882352941 0.3764705882352941 0.3764705882352941
            ambientIntensity 0.7529
            transparency 0.0
            shininess 0.5
        }
    }
    geometry IndexedFaceSet {
        ccw TRUE
        solid FALSE
        coord DEF co Coordinate {
            point [
                -1.6 0.3937 0.3543, -1.6051 0.3937 0.3543, -1.6 0.3937 0.315, -1.6051 0.3937 0.315, -1.7868 0.0 0.3543, -1.7868 0.0 0.315, -1.7484 0.0 0.3543, -1.7484 0.0 0.315, -1.6902 0.1262 0.3543, -1.6902 0.1262 0.315, -1.5117 0.1262 0.3543, -1.5117 0.1262 0.315, -1.4519 -0.0 0.3543, -1.4519 0.0 0.315, -1.4133 0.0 0.3543, -1.4133 0.0 0.315, -1.6716 0.1666 0.3543, -1.5309 0.1666 0.3543, -1.6022 0.317 0.3543, -1.6716 0.1666 0.315, -1.6022 0.317 0.315, -1.5309 0.1666 0.315, -1.1618 0.0 0.3543, -1.0398 0.0 0.3543, -1.1618 0.0 0.315, -1.0398 0.0 0.315, -1.0398 0.3937 0.3543, -1.0398 0.3937 0.315, -1.1193 0.3937 0.3543, -1.1193 0.3937 0.315, -1.1823 0.3913 0.3543, -1.2442 0.3795 0.3543, -1.2442 0.3795 0.315, -1.2306 0.3821 0.315, -1.1823 0.3913 0.315, -1.3628 0.1919 0.3543, -1.3628 0.1919 0.315, -1.3623 0.2101 0.315, -1.3623 0.2101 0.3543, -1.3543 0.2578 0.315, -1.3543 0.2578 0.3543, -1.3379 0.2989 0.315, -1.3379 0.2989 0.3543, -1.3128 0.3344 0.315, -1.3128 0.3344 0.3543, -1.284 0.3594 0.315, -1.284 0.3594 0.3543, -1.2079 0.0026 0.315, -1.2079 0.0026 0.3543, -1.2306 0.0078 0.315, -1.2559 0.0136 0.3543, -1.2559 0.0136 0.315, -1.2856 0.0289 0.315, -1.2856 0.0289 0.3543, -1.315 0.0549 0.315, -1.315 0.0549 0.3543, -1.3419 0.0954 0.315, -1.3419 0.0954 0.3543, -1.3573 0.1392 0.315, -1.3573 0.1392 0.3543, -1.1637 0.3515 0.3543, -1.2238 0.3423 0.3543, -1.2414 0.3359 0.3543, -1.2708 0.3187 0.3543, -1.2936 0.2964 0.3543, -1.3117 0.2676 0.3543, -1.3232 0.2337 0.3543, -1.3275 0.192 0.3543, -1.3272 0.181 0.3543, -1.3202 0.1394 0.3543, -1.3072 0.1096 0.3543, -1.2876 0.0838 0.3543, -1.2642 0.0649 0.3543, -1.2328 0.0504 0.3543, -1.1769 0.042 0.3543, -1.1203 0.0404 0.3543, -1.0751 0.0404 0.3543, -1.0751 0.3533 0.3543, -1.1028 0.3533 0.3543, -1.0751 0.3533 0.315, -1.0751 0.0404 0.315, -1.1028 0.3533 0.315, -1.1637 0.3515 0.315, -1.2238 0.3423 0.315, -1.2414 0.3359 0.315, -1.2708 0.3187 0.315, -1.2936 0.2964 0.315, -1.3117 0.2676 0.315, -1.3232 0.2337 0.315, -1.3275 0.192 0.315, -1.3272 0.181 0.315, -1.3202 0.1394 0.315, -1.3072 0.1096 0.315, -1.2876 0.0838 0.315, -1.2642 0.0649 0.315, -1.2328 0.0504 0.315, -1.1769 0.042 0.315, -1.1203 0.0404 0.315, -0.747 0.0 0.3543, -0.747 0.3937 0.3543, -0.747 0.0 0.315, -0.747 0.3937 0.315, -0.9691 0.3937 0.3543, -0.9691 0.3937 0.315, -0.9691 0.3533 0.3543, -0.9691 0.3533 0.315, -0.7824 0.3533 0.3543, -0.7824 0.3533 0.315, -0.7824 0.2322 0.3543, -0.7824 0.2322 0.315, -0.9691 0.2322 0.3543, -0.9691 0.2322 0.315, -0.9691 0.1918 0.3543, -0.9691 0.1918 0.315, -0.7824 0.1918 0.3543, -0.7824 0.1918 0.315, -0.7824 0.0404 0.3543, -0.7824 0.0404 0.315, -0.9691 0.0404 0.3543, -0.9691 0.0404 0.315, -0.9691 0.0 0.3543, -0.9691 0.0 0.315, -0.6663 0.3215 0.3543, -0.6663 0.3215 0.315, -0.6547 0.336 0.315, -0.6547 0.336 0.3543, -0.6306 0.3589 0.315, -0.6306 0.3589 0.3543, -0.5877 0.3849 0.315, -0.5877 0.3849 0.3543, -0.5518 0.3972 0.315, -0.5518 0.3972 0.3543, -0.4945 0.4038 0.315, -0.4945 0.4038 0.3543, -0.6353 0.2978 0.3543, -0.6353 0.2978 0.315, -0.4923 0.3634 0.3543, -0.4923 0.3634 0.315, -0.506 0.3629 0.315, -0.506 0.3629 0.3543, -0.5495 0.3554 0.315, -0.5495 0.3554 0.3543, -0.5668 0.3493 0.315, -0.5668 0.3493 0.3543, -0.6038 0.3284 0.315, -0.6038 0.3284 0.3543, -0.318 0.1965 0.3543, -0.318 0.1965 0.315, -0.3189 0.2149 0.315, -0.3189 0.2149 0.3543, -0.3273 0.2532 0.315, -0.3273 0.2532 0.3543, -0.3449 0.2881 0.315, -0.3449 0.2881 0.3543, -0.3693 0.3167 0.315, -0.3693 0.3167 0.3543, -0.4055 0.3421 0.315, -0.4055 0.3421 0.3543, -0.4457 0.3577 0.315, -0.4457 0.3577 0.3543, -0.4947 0.0303 0.3543, -0.4947 0.0303 0.315, -0.4634 0.0324 0.315, -0.4634 0.0324 0.3543, -0.4234 0.0427 0.315, -0.4234 0.0427 0.3543, -0.3853 0.0635 0.315, -0.3853 0.0635 0.3543, -0.3568 0.0896 0.315, -0.3568 0.0896 0.3543, -0.3356 0.1204 0.315, -0.3356 0.1204 0.3543, -0.3232 0.1531 0.315, -0.3232 0.1531 0.3543, -0.6353 0.0959 0.3543, -0.6353 0.0959 0.315, -0.6136 0.0739 0.315, -0.6136 0.0739 0.3543, -0.5787 0.0501 0.315, -0.5787 0.0501 0.3543, -0.5408 0.0357 0.315, -0.5408 0.0357 0.3543, -0.6663 0.0725 0.3543, -0.6663 0.0725 0.315, -0.495 -0.0101 0.3543, -0.495 -0.0101 0.315, -0.5146 -0.0094 0.315, -0.5146 -0.0094 0.3543, -0.5447 -0.005 0.315, -0.546 -0.0049 0.3543, -0.546 -0.0049 0.315, -0.5907 0.0103 0.315, -0.5907 0.0103 0.3543, -0.6315 0.0361 0.315, -0.6315 0.0361 0.3543, -0.4509 -0.005 0.315, -0.4335 -0.0031 0.3543, -0.4335 -0.0031 0.315, -0.3864 0.0151 0.3543, -0.3864 0.0151 0.315, -0.3484 0.0424 0.3543, -0.3484 0.0424 0.315, -0.3326 0.0588 0.3543, -0.3326 0.0588 0.315, -0.2827 0.1991 0.3543, -0.2827 0.1991 0.315, -0.2882 0.1472 0.315, -0.2882 0.1472 0.3543, -0.304 0.1019 0.315, -0.304 0.1019 0.3543, -0.463 0.4019 0.315, -0.463 0.4019 0.3543, -0.415 0.3905 0.315, -0.415 0.3905 0.3543, -0.3733 0.3693 0.315, -0.3733 0.3693 0.3543, -0.3323 0.3334 0.315, -0.3323 0.3334 0.3543, -0.3052 0.2946 0.315, -0.3052 0.2946 0.3543, -0.2892 0.2529 0.315, -0.2892 0.2529 0.3543, -0.0505 0.0 0.3543, -0.0505 0.3937 0.3543, -0.0505 0.0 0.315, -0.0505 0.3937 0.315, -0.0858 0.3937 0.3543, -0.0858 0.3937 0.315, -0.0858 0.0404 0.3543, -0.0858 0.0404 0.315, -0.1678 0.0404 0.315, -0.2372 0.0404 0.3543, -0.2372 0.0404 0.315, -0.2372 0.0 0.3543, -0.2372 0.0 0.315, -0.1678 0.0 0.315
            ]
        }
        coordIndex [
            0,1,2,-1,2,1,3,-1,1,4,3,-1,3,4,5,-1,4,6,5,-1,5,6,7,-1,6,8,7,-1,7,8,9,-1,8,10,9,-1,9,10,11,-1,10,12,11,-1,11,12,13,-1,12,14,13,-1,13,14,15,-1,14,0,15,-1,15,0,2,-1,16,4,1,-1,0,17,1,-1,1,17,18,-1,1,18,16,-1,14,12,10,-1,6,4,8,-1,8,4,16,-1,8,16,10,-1,10,16,17,-1,10,17,14,-1,14,17,0,-1,16,18,19,-1,19,18,20,-1,17,16,21,-1,21,16,19,-1,18,17,20,-1,20,17,21,-1,22,23,24,-1,24,23,25,-1,23,26,25,-1,25,26,27,-1,26,28,27,-1,27,28,29,-1,29,28,30,-1,31,32,33,-1,31,33,30,-1,30,33,34,-1,30,34,29,-1,35,36,37,-1,35,37,38,-1,38,37,39,-1,38,39,40,-1,40,39,41,-1,40,41,42,-1,42,41,43,-1,42,43,44,-1,44,43,45,-1,44,45,46,-1,46,45,32,-1,46,32,31,-1,22,24,47,-1,22,47,48,-1,48,47,49,-1,48,49,50,-1,49,51,50,-1,50,51,52,-1,50,52,53,-1,53,52,54,-1,53,54,55,-1,55,54,56,-1,55,56,57,-1,57,56,58,-1,57,58,59,-1,59,58,36,-1,59,36,35,-1,60,61,31,-1,31,61,62,-1,31,62,46,-1,46,62,63,-1,46,63,44,-1,44,63,64,-1,44,64,42,-1,42,64,65,-1,42,65,40,-1,40,65,66,-1,40,66,38,-1,38,66,67,-1,38,67,35,-1,35,67,68,-1,35,68,59,-1,59,68,69,-1,59,69,57,-1,57,69,70,-1,57,70,55,-1,55,70,71,-1,55,71,53,-1,53,71,72,-1,53,72,50,-1,50,72,73,-1,50,73,48,-1,48,73,74,-1,48,74,22,-1,22,74,75,-1,22,75,23,-1,23,75,76,-1,23,76,26,-1,26,76,77,-1,26,77,28,-1,28,77,78,-1,28,78,30,-1,30,78,60,-1,30,60,31,-1,77,76,79,-1,79,76,80,-1,78,77,81,-1,81,77,79,-1,78,81,82,-1,78,82,60,-1,60,82,83,-1,60,83,61,-1,61,83,84,-1,61,84,62,-1,62,84,85,-1,62,85,63,-1,63,85,86,-1,63,86,64,-1,64,86,87,-1,64,87,65,-1,65,87,88,-1,65,88,66,-1,66,88,89,-1,66,89,67,-1,67,89,90,-1,67,90,68,-1,68,90,91,-1,68,91,69,-1,69,91,92,-1,69,92,70,-1,70,92,93,-1,70,93,71,-1,71,93,94,-1,71,94,72,-1,72,94,95,-1,72,95,73,-1,73,95,96,-1,73,96,74,-1,74,96,97,-1,74,97,75,-1,76,75,80,-1,80,75,97,-1,98,99,100,-1,100,99,101,-1,99,102,101,-1,101,102,103,-1,102,104,103,-1,103,104,105,-1,104,106,105,-1,105,106,107,-1,106,108,107,-1,107,108,109,-1,108,110,109,-1,109,110,111,-1,110,112,111,-1,111,112,113,-1,112,114,113,-1,113,114,115,-1,114,116,115,-1,115,116,117,-1,116,118,117,-1,117,118,119,-1,118,120,119,-1,119,120,121,-1,120,98,121,-1,121,98,100,-1,98,120,118,-1,118,116,98,-1,98,116,114,-1,98,114,99,-1,104,102,106,-1,106,102,99,-1,106,99,108,-1,108,99,114,-1,108,114,110,-1,110,114,112,-1,122,123,124,-1,122,124,125,-1,125,124,126,-1,125,126,127,-1,127,126,128,-1,127,128,129,-1,129,128,130,-1,129,130,131,-1,131,130,132,-1,131,132,133,-1,122,134,123,-1,123,134,135,-1,136,137,138,-1,136,138,139,-1,139,138,140,-1,139,140,141,-1,141,140,142,-1,141,142,143,-1,143,142,144,-1,143,144,145,-1,145,144,135,-1,145,135,134,-1,146,147,148,-1,146,148,149,-1,149,148,150,-1,149,150,151,-1,151,150,152,-1,151,152,153,-1,153,152,154,-1,153,154,155,-1,155,154,156,-1,155,156,157,-1,157,156,158,-1,157,158,159,-1,159,158,137,-1,159,137,136,-1,160,161,162,-1,160,162,163,-1,163,162,164,-1,163,164,165,-1,165,164,166,-1,165,166,167,-1,167,166,168,-1,167,168,169,-1,169,168,170,-1,169,170,171,-1,171,170,172,-1,171,172,173,-1,173,172,147,-1,173,147,146,-1,174,175,176,-1,174,176,177,-1,177,176,178,-1,177,178,179,-1,179,178,180,-1,179,180,181,-1,181,180,161,-1,181,161,160,-1,174,182,175,-1,175,182,183,-1,184,185,186,-1,184,186,187,-1,187,186,188,-1,187,188,189,-1,188,190,189,-1,189,190,191,-1,189,191,192,-1,192,191,193,-1,192,193,194,-1,194,193,183,-1,194,183,182,-1,185,184,195,-1,195,184,196,-1,195,196,197,-1,197,196,198,-1,197,198,199,-1,199,198,200,-1,199,200,201,-1,201,200,202,-1,201,202,203,-1,204,205,206,-1,204,206,207,-1,207,206,208,-1,207,208,209,-1,209,208,203,-1,209,203,202,-1,133,132,210,-1,133,210,211,-1,211,210,212,-1,211,212,213,-1,213,212,214,-1,213,214,215,-1,215,214,216,-1,215,216,217,-1,217,216,218,-1,217,218,219,-1,219,218,220,-1,219,220,221,-1,221,220,205,-1,221,205,204,-1,134,122,125,-1,182,174,194,-1,194,174,177,-1,194,177,192,-1,192,177,179,-1,192,179,189,-1,189,179,181,-1,189,181,187,-1,187,181,160,-1,134,125,145,-1,145,125,127,-1,145,127,143,-1,143,127,129,-1,143,129,141,-1,141,129,131,-1,141,131,139,-1,139,131,133,-1,139,133,136,-1,136,133,211,-1,136,211,159,-1,159,211,213,-1,159,213,157,-1,157,213,215,-1,157,215,155,-1,155,215,217,-1,155,217,153,-1,153,217,219,-1,153,219,151,-1,151,219,221,-1,151,221,149,-1,149,221,204,-1,149,204,146,-1,146,204,173,-1,173,204,207,-1,173,207,171,-1,171,207,209,-1,171,209,169,-1,169,209,202,-1,169,202,167,-1,167,202,200,-1,167,200,165,-1,165,200,198,-1,165,198,163,-1,163,198,196,-1,163,196,160,-1,160,196,184,-1,160,184,187,-1,222,223,224,-1,224,223,225,-1,223,226,225,-1,225,226,227,-1,226,228,227,-1,227,228,229,-1,229,228,230,-1,230,228,231,-1,230,231,232,-1,231,233,232,-1,232,233,234,-1,222,224,233,-1,233,224,235,-1,233,235,234,-1,226,223,228,-1,228,223,222,-1,228,222,231,-1,231,222,233,-1,
        ]
    }
}
Shape{
    appearance Appearance {
        material  Material 	{
            diffuseColor 0.14901960784313725 0.14901960784313725 0.14901960784313725
            specularColor 0.07450980392156863 0.07450980392156863 0.07450980392156863
            ambientIntensity 0.149
            transparency 0.0
            shininess 0.5
        }
    }
    geometry IndexedFaceSet {
        ccw TRUE
        solid FALSE
        coord DEF co Coordinate {
            point [
                -1.6022 0.317 0.315, -1.5309 0.1666 0.315, -1.6716 0.1666 0.315, -1.0751 0.3533 0.315, -1.0751 0.0404 0.315, -1.1028 0.3533 0.315, -1.1203 0.0404 0.315, -1.1637 0.3515 0.315, -1.1769 0.042 0.315, -1.2238 0.3423 0.315, -1.3072 0.1096 0.315, -1.3202 0.1394 0.315, -1.3272 0.181 0.315, -1.3275 0.192 0.315, -1.2328 0.0504 0.315, -1.2642 0.0649 0.315, -1.2876 0.0838 0.315, -1.3232 0.2337 0.315, -1.3117 0.2676 0.315, -1.2936 0.2964 0.315, -1.2708 0.3187 0.315, -1.2414 0.3359 0.315
            ]
        }
        coordIndex [
            0,1,2,-1,3,4,5,-1,5,4,6,-1,5,6,7,-1,7,6,8,-1,7,8,9,-1,10,11,8,-1,8,11,12,-1,8,12,13,-1,14,15,8,-1,8,15,16,-1,8,16,10,-1,13,17,8,-1,8,17,18,-1,8,18,19,-1,19,20,8,-1,8,20,21,-1,8,21,9,-1,
        ]
    }
}
Shape{
    appearance Appearance {
        material  Material 	{
            diffuseColor 0.7529411764705882 0.7529411764705882 0.7529411764705882
            specularColor 0.3764705882352941 0.3764705882352941 0.3764705882352941
            ambientIntensity 0.7529
            transparency 0.0
            shininess 0.5
        }
    }
    geometry IndexedFaceSet {
        ccw TRUE
        solid FALSE
        coord DEF co Coordinate {
            point [
                -1.3937 0.671 5.4478, -1.3937 0.9213 4.6989, -0.6063 0.671 5.4478, -0.6063 0.9213 4.6989, -1.3937 1.0987 5.7969, -0.6063 1.0987 5.7969, -1.3937 1.1647 5.9852, -0.6063 1.1647 5.9852, -1.3937 1.3177 5.9852, -0.6063 1.3177 5.9852, -1.3937 1.0787 5.3621, -0.6063 1.0787 5.3621, -0.6063 0.9213 2.874, -0.6063 1.0787 2.874, -1.3937 0.9213 2.874, -1.3937 1.0787 2.874, -0.9016 1.0787 0.315, -0.9016 1.0787 -1.2992, -1.0044 1.0787 0.315, -1.0984 1.0787 -1.2992, -1.0984 1.0787 0.315, -1.0984 0.9213 0.315, -1.0984 0.9213 -1.2992, -1.0044 0.9213 0.315, -0.9016 0.9213 -1.2992, -0.9016 0.9213 0.315, -1.3937 -1.3177 5.9852, -1.3937 -1.0787 5.3621, -0.6063 -1.3177 5.9852, -0.6063 -1.0787 5.3621, -1.3937 -1.1647 5.9852, -0.6063 -1.1647 5.9852, -1.3937 -1.0987 5.7969, -0.6063 -1.0987 5.7969, -1.3937 -0.671 5.4478, -0.6063 -0.671 5.4478, -1.3937 -0.9213 4.6989, -0.6063 -0.9213 4.6989, -0.6063 -0.9213 2.874, -0.6063 -1.0787 2.874, -1.3937 -0.9213 2.874, -1.3937 -1.0787 2.874, -0.9016 -0.9213 0.315, -0.9016 -0.9213 -1.2992, -1.0044 -0.9213 0.315, -1.0984 -0.9213 -1.2992, -1.0984 -0.9213 0.315, -1.0984 -1.0787 0.315, -1.0984 -1.0787 -1.2992, -1.0044 -1.0787 0.315, -0.9016 -1.0787 -1.2992, -0.9016 -1.0787 0.315, -0.3937 0.671 5.4478, -0.3937 0.9213 4.6989, 0.3937 0.671 5.4478, 0.3937 0.9213 4.6989, -0.3937 1.0987 5.7969, 0.3937 1.0987 5.7969, -0.3937 1.1647 5.9852, 0.3937 1.1647 5.9852, -0.3937 1.3177 5.9852, 0.3937 1.3177 5.9852, -0.3937 1.0787 5.3621, 0.3937 1.0787 5.3621, 0.3937 0.9213 2.874, 0.3937 1.0787 2.874, -0.3937 0.9213 2.874, -0.3937 1.0787 2.874, -0.0984 1.0787 0.315, 0.0984 1.0787 0.315, -0.0984 1.0787 -1.2992, 0.0984 1.0787 -1.2992, -0.0984 0.9213 -1.2992, 0.0984 0.9213 -1.2992, -0.0984 0.9213 0.315, 0.0984 0.9213 0.315, -0.3937 -1.3177 5.9852, -0.3937 -1.0787 5.3621, 0.3937 -1.3177 5.9852, 0.3937 -1.0787 5.3621, -0.3937 -1.1647 5.9852, 0.3937 -1.1647 5.9852, -0.3937 -1.0987 5.7969, 0.3937 -1.0987 5.7969, -0.3937 -0.671 5.4478, 0.3937 -0.671 5.4478, -0.3937 -0.9213 4.6989, 0.3937 -0.9213 4.6989, 0.3937 -0.9213 2.874, 0.3937 -1.0787 2.874, -0.3937 -0.9213 2.874, -0.3937 -1.0787 2.874, -0.0984 -0.9213 0.315, 0.0984 -0.9213 0.315, -0.0984 -0.9213 -1.2992, 0.0984 -0.9213 -1.2992, -0.0984 -1.0787 -1.2992, 0.0984 -1.0787 -1.2992, -0.0984 -1.0787 0.315, 0.0984 -1.0787 0.315, 0.6063 0.671 5.4478, 0.6063 0.9213 4.6989, 1.3937 0.671 5.4478, 1.3937 0.9213 4.6989, 0.6063 1.0987 5.7969, 1.3937 1.0987 5.7969, 0.6063 1.1647 5.9852, 1.3937 1.1647 5.9852, 0.6063 1.3177 5.9852, 1.3937 1.3177 5.9852, 0.6063 1.0787 5.3621, 1.3937 1.0787 5.3621, 1.3937 0.9213 2.874, 1.3937 1.0787 2.874, 0.6063 0.9213 2.874, 0.6063 1.0787 2.874, 0.9016 1.0787 0.315, 1.0984 1.0787 0.315, 0.9016 1.0787 -1.2992, 1.0984 1.0787 -1.2992, 0.9016 0.9213 -1.2992, 1.0984 0.9213 -1.2992, 0.9016 0.9213 0.315, 1.0984 0.9213 0.315, 0.6063 -1.3177 5.9852, 0.6063 -1.0787 5.3621, 1.3937 -1.3177 5.9852, 1.3937 -1.0787 5.3621, 0.6063 -1.1647 5.9852, 1.3937 -1.1647 5.9852, 0.6063 -1.0987 5.7969, 1.3937 -1.0987 5.7969, 0.6063 -0.671 5.4478, 1.3937 -0.671 5.4478, 0.6063 -0.9213 4.6989, 1.3937 -0.9213 4.6989, 1.3937 -0.9213 2.874, 1.3937 -1.0787 2.874, 0.6063 -0.9213 2.874, 0.6063 -1.0787 2.874, 0.9016 -0.9213 0.315, 1.0984 -0.9213 0.315, 0.9016 -0.9213 -1.2992, 1.0984 -0.9213 -1.2992, 0.9016 -1.0787 -1.2992, 1.0984 -1.0787 -1.2992, 0.9016 -1.0787 0.315, 1.0984 -1.0787 0.315, 1.6063 0.671 5.4478, 1.6063 0.9213 4.6989, 2.3937 0.671 5.4478, 2.3937 0.9213 4.6989, 1.6063 1.0987 5.7969, 2.3937 1.0987 5.7969, 1.6063 1.1647 5.9852, 2.3937 1.1647 5.9852, 1.6063 1.3177 5.9852, 2.3937 1.3177 5.9852, 1.6063 1.0787 5.3621, 2.3937 1.0787 5.3621, 2.3937 0.9213 2.874, 2.3937 1.0787 2.874, 1.6063 0.9213 2.874, 1.6063 1.0787 2.874, 1.9016 1.0787 0.315, 2.0984 1.0787 0.315, 1.9016 1.0787 -1.2992, 2.0984 1.0787 -1.2992, 1.9016 0.9213 -1.2992, 2.0984 0.9213 -1.2992, 1.9016 0.9213 0.315, 2.0984 0.9213 0.315, 1.6063 -1.3177 5.9852, 1.6063 -1.0787 5.3621, 2.3937 -1.3177 5.9852, 2.3937 -1.0787 5.3621, 1.6063 -1.1647 5.9852, 2.3937 -1.1647 5.9852, 1.6063 -1.0987 5.7969, 2.3937 -1.0987 5.7969, 1.6063 -0.671 5.4478, 2.3937 -0.671 5.4478, 1.6063 -0.9213 4.6989, 2.3937 -0.9213 4.6989, 2.3937 -0.9213 2.874, 2.3937 -1.0787 2.874, 1.6063 -0.9213 2.874, 1.6063 -1.0787 2.874, 1.9016 -0.9213 0.315, 2.0984 -0.9213 0.315, 1.9016 -0.9213 -1.2992, 2.0984 -0.9213 -1.2992, 1.9016 -1.0787 -1.2992, 2.0984 -1.0787 -1.2992, 1.9016 -1.0787 0.315, 2.0984 -1.0787 0.315
            ]
        }
        coordIndex [
            0,1,2,-1,2,1,3,-1,4,0,5,-1,5,0,2,-1,6,4,7,-1,7,4,5,-1,8,6,9,-1,9,6,7,-1,10,8,11,-1,11,8,9,-1,11,9,5,-1,5,9,7,-1,12,13,3,-1,3,13,11,-1,3,11,2,-1,2,11,5,-1,0,4,1,-1,1,4,14,-1,15,14,10,-1,10,14,4,-1,10,4,8,-1,8,4,6,-1,12,3,14,-1,14,3,1,-1,15,10,13,-1,13,10,11,-1,16,17,18,-1,18,17,19,-1,18,19,20,-1,21,22,23,-1,23,22,24,-1,23,24,25,-1,19,17,22,-1,22,17,24,-1,26,27,28,-1,28,27,29,-1,30,26,31,-1,31,26,28,-1,32,30,33,-1,33,30,31,-1,34,32,35,-1,35,32,33,-1,36,34,37,-1,37,34,35,-1,35,33,37,-1,37,33,38,-1,39,38,29,-1,29,38,33,-1,29,33,28,-1,28,33,31,-1,27,26,32,-1,32,26,30,-1,40,41,36,-1,36,41,27,-1,36,27,34,-1,34,27,32,-1,39,29,41,-1,41,29,27,-1,40,36,38,-1,38,36,37,-1,42,43,44,-1,44,43,45,-1,44,45,46,-1,47,48,49,-1,49,48,50,-1,49,50,51,-1,45,43,48,-1,48,43,50,-1,52,53,54,-1,54,53,55,-1,56,52,57,-1,57,52,54,-1,58,56,59,-1,59,56,57,-1,60,58,61,-1,61,58,59,-1,62,60,63,-1,63,60,61,-1,63,61,57,-1,57,61,59,-1,64,65,55,-1,55,65,63,-1,55,63,54,-1,54,63,57,-1,52,56,53,-1,53,56,66,-1,67,66,62,-1,62,66,56,-1,62,56,60,-1,60,56,58,-1,64,55,66,-1,66,55,53,-1,67,62,65,-1,65,62,63,-1,68,69,70,-1,70,69,71,-1,72,73,74,-1,74,73,75,-1,70,71,72,-1,72,71,73,-1,76,77,78,-1,78,77,79,-1,80,76,81,-1,81,76,78,-1,82,80,83,-1,83,80,81,-1,84,82,85,-1,85,82,83,-1,86,84,87,-1,87,84,85,-1,85,83,87,-1,87,83,88,-1,89,88,79,-1,79,88,83,-1,79,83,78,-1,78,83,81,-1,77,76,82,-1,82,76,80,-1,90,91,86,-1,86,91,77,-1,86,77,84,-1,84,77,82,-1,89,79,91,-1,91,79,77,-1,90,86,88,-1,88,86,87,-1,92,93,94,-1,94,93,95,-1,96,97,98,-1,98,97,99,-1,94,95,96,-1,96,95,97,-1,100,101,102,-1,102,101,103,-1,104,100,105,-1,105,100,102,-1,106,104,107,-1,107,104,105,-1,108,106,109,-1,109,106,107,-1,110,108,111,-1,111,108,109,-1,111,109,105,-1,105,109,107,-1,112,113,103,-1,103,113,111,-1,103,111,102,-1,102,111,105,-1,100,104,101,-1,101,104,114,-1,115,114,110,-1,110,114,104,-1,110,104,108,-1,108,104,106,-1,112,103,114,-1,114,103,101,-1,115,110,113,-1,113,110,111,-1,116,117,118,-1,118,117,119,-1,120,121,122,-1,122,121,123,-1,118,119,120,-1,120,119,121,-1,124,125,126,-1,126,125,127,-1,128,124,129,-1,129,124,126,-1,130,128,131,-1,131,128,129,-1,132,130,133,-1,133,130,131,-1,134,132,135,-1,135,132,133,-1,133,131,135,-1,135,131,136,-1,137,136,127,-1,127,136,131,-1,127,131,126,-1,126,131,129,-1,125,124,130,-1,130,124,128,-1,138,139,134,-1,134,139,125,-1,134,125,132,-1,132,125,130,-1,137,127,139,-1,139,127,125,-1,138,134,136,-1,136,134,135,-1,140,141,142,-1,142,141,143,-1,144,145,146,-1,146,145,147,-1,142,143,144,-1,144,143,145,-1,148,149,150,-1,150,149,151,-1,152,148,153,-1,153,148,150,-1,154,152,155,-1,155,152,153,-1,156,154,157,-1,157,154,155,-1,158,156,159,-1,159,156,157,-1,159,157,153,-1,153,157,155,-1,160,161,151,-1,151,161,159,-1,151,159,150,-1,150,159,153,-1,148,152,149,-1,149,152,162,-1,163,162,158,-1,158,162,152,-1,158,152,156,-1,156,152,154,-1,160,151,162,-1,162,151,149,-1,163,158,161,-1,161,158,159,-1,164,165,166,-1,166,165,167,-1,168,169,170,-1,170,169,171,-1,166,167,168,-1,168,167,169,-1,172,173,174,-1,174,173,175,-1,176,172,177,-1,177,172,174,-1,178,176,179,-1,179,176,177,-1,180,178,181,-1,181,178,179,-1,182,180,183,-1,183,180,181,-1,181,179,183,-1,183,179,184,-1,185,184,175,-1,175,184,179,-1,175,179,174,-1,174,179,177,-1,173,172,178,-1,178,172,176,-1,186,187,182,-1,182,187,173,-1,182,173,180,-1,180,173,178,-1,185,175,187,-1,187,175,173,-1,186,182,184,-1,184,182,183,-1,188,189,190,-1,190,189,191,-1,192,193,194,-1,194,193,195,-1,190,191,192,-1,192,191,193,-1,193,191,195,-1,195,191,189,-1,194,188,192,-1,192,188,190,-1,165,171,167,-1,167,171,169,-1,166,168,164,-1,164,168,170,-1,145,143,147,-1,147,143,141,-1,146,140,144,-1,144,140,142,-1,117,123,119,-1,119,123,121,-1,118,120,116,-1,116,120,122,-1,97,95,99,-1,99,95,93,-1,98,92,96,-1,96,92,94,-1,69,75,71,-1,71,75,73,-1,70,72,68,-1,68,72,74,-1,50,43,51,-1,51,43,42,-1,47,46,48,-1,48,46,45,-1,16,25,17,-1,17,25,24,-1,19,22,20,-1,20,22,21,-1,
        ]
    }
}