#VRML V2.0 utf8
# 3D model generated by easyeda2kicad.py (https://github.com/uPesy/easyeda2kicad.py)

Shape{
    appearance Appearance {
        material  Material 	{
            diffuseColor 0.7529411764705882 0.7529411764705882 0.7529411764705882
            specularColor 0.3764705882352941 0.3764705882352941 0.3764705882352941
            ambientIntensity 0.7529
            transparency 0.0
            shininess 0.5
        }
    }
    geometry IndexedFaceSet {
        ccw TRUE
        solid FALSE
        coord DEF co Coordinate {
            point [
                -0.8465 -0.5256 0.0, -1.0827 -0.5256 0.0, -0.8465 0.1043 0.0, -1.0827 1.0256 0.0, 1.0827 1.0256 0.0, 1.0827 -0.5256 0.0, 0.8465 0.1043 0.0, 0.8465 -0.5256 0.0, 0.2953 0.1043 0.0, 0.2624 0.1043 0.0, 0.2624 1.0256 0.0, -0.2953 0.1043 0.0, -0.4921 0.1043 0.0, 0.5849 1.0256 0.0, 0.4921 0.1043 0.0, 0.5681 1.0226 0.0, 0.5383 1.0256 0.0, 0.5562 1.0231 0.0, 0.2836 1.2407 0.0, 0.3956 1.2407 0.0, 0.3956 1.168 0.0, 0.2836 1.168 0.0, 0.2836 1.1438 0.0, 0.2836 1.2649 0.0, 0.2624 2.4665 0.0, 0.4168 1.2649 0.0, 0.8348 1.2649 0.0, 0.8348 1.0287 0.0, 0.7227 1.0287 0.0, 0.6216 1.0322 0.0, 0.6446 1.0448 0.0, 0.8136 1.2649 0.0, 1.0827 2.4665 0.0, 0.4168 1.0287 0.0, 0.5375 1.0258 0.0, 0.658 1.056 0.0, 0.6655 1.0639 0.0, 0.7227 1.0529 0.0, 0.6883 1.1032 0.0, 0.6955 1.1482 0.0, 0.8136 1.0529 0.0, 0.3956 1.1438 0.0, 0.3956 1.0529 0.0, 0.2836 1.0529 0.0, 0.2836 1.0287 0.0, 0.622 1.2338 0.0, 0.6586 1.2008 0.0, 0.5697 1.2467 0.0, 0.6739 1.1561 0.0, 0.6743 1.1465 0.0, 0.662 1.0979 0.0, 0.6295 1.0637 0.0, 0.5831 1.0476 0.0, 0.6802 1.2085 0.0, 0.6398 1.2511 0.0, 0.5788 1.2706 0.0, 0.4653 1.0722 0.0, 0.4653 1.2216 0.0, 0.4838 1.0862 0.0, 0.4838 1.2074 0.0, 0.5215 1.0569 0.0, 0.5221 1.237 0.0, 0.5682 1.0468 0.0, 0.5444 1.2442 0.0, 0.5599 1.2464 0.0, 0.5684 1.271 0.0, 0.5107 1.2588 0.0, 0.4865 1.2439 0.0, 0.4727 1.2308 0.0, 0.5106 1.0349 0.0, -0.0061 1.0287 0.0, 0.0171 1.0287 0.0, -0.184 1.0287 0.0, -0.1491 1.1044 0.0, -0.042 1.1044 0.0, 0.1185 1.2564 0.0, 0.076 1.2277 0.0, -0.095 1.2649 0.0, 0.0949 1.0452 0.0, 0.1425 1.03 0.0, 0.168 1.0287 0.0, 0.1556 1.2635 0.0, -1.0827 2.4665 0.0, -0.098 1.2649 0.0, -0.207 1.0287 0.0, 0.0518 1.181 0.0, 0.0474 1.1438 0.0, 0.0607 1.0844 0.0, 0.2412 1.0287 0.0, 0.2412 1.2649 0.0, 0.1935 1.2649 0.0, -1.1509 2.4665 1.8504, -0.9843 2.4665 1.7126, -1.1614 2.4665 1.811, -0.9843 2.4665 1.323, -1.1614 2.4665 1.323, -0.1457 2.4665 1.8898, -0.1457 2.4665 1.7126, -1.0827 2.4665 1.8898, -1.122 2.4665 1.8792, -0.9252 1.5877 1.6535, -0.9252 2.4075 1.6535, -0.5987 1.5877 1.6535, -0.1457 2.4075 1.6535, -0.5987 0.5768 1.6535, -0.1457 0.5768 1.6535, 0.5987 0.1043 1.6535, 0.5987 0.1043 1.8898, -0.5987 0.1043 1.8898, 0.4921 0.1043 1.2719, 0.9277 0.1043 1.6535, 0.2953 0.1043 1.2719, -0.5987 0.1043 1.6535, 1.0827 0.1043 1.8898, 0.9277 0.1043 1.8898, -0.8465 0.1043 1.4206, -1.1614 0.1043 1.4206, -0.9277 0.1043 1.6535, -1.0827 0.1043 1.8898, -1.122 0.1043 1.8792, -1.1509 0.1043 1.8504, -0.2953 0.1043 1.2719, -0.9277 0.1043 1.8898, -1.1614 0.1043 1.811, -0.4921 0.1043 1.2719, 1.1509 0.1043 1.8504, 1.122 0.1043 1.8792, 1.1614 0.1043 1.811, 1.1614 0.1043 1.4206, 0.8465 0.1043 1.4206, -0.4921 0.5768 1.2719, -0.4921 0.5768 1.0751, -0.9252 0.5768 0.2362, 0.2953 0.5768 1.0751, -0.2953 0.5768 1.0751, -0.2953 0.5768 1.2719, 0.2953 0.5768 1.2719, -0.9252 0.5768 1.6535, 0.9252 0.5768 0.2362, 0.4921 0.5768 1.0751, 0.9252 0.5768 1.6535, 0.4921 0.5768 1.2719, 0.5987 0.5768 1.6535, 0.1457 0.5768 1.6535, 0.1457 0.5768 1.8898, -0.1457 0.5768 1.8898, 0.1457 2.4665 1.7126, 0.1457 2.4665 1.8898, 0.9843 2.4665 1.7126, 1.0827 2.4665 1.8898, 1.1614 2.4665 1.323, 0.9843 2.4665 1.323, 1.1614 2.4665 1.811, 1.1509 2.4665 1.8504, 1.122 2.4665 1.8792, -1.1614 -0.5256 0.0787, -1.1509 -0.5256 0.0394, -1.122 -0.5256 0.0106, -0.8465 -0.5256 0.9449, -1.1614 -0.5256 0.9449, 1.1614 -0.5256 0.9449, 1.1614 -0.5256 0.0787, 1.1614 2.4665 0.0787, 1.1614 1.7115 1.3019, 1.1614 1.7903 1.323, 1.1614 2.4665 0.9377, 1.1614 1.7903 0.9377, 1.1614 1.73 0.9496, 1.1614 1.6789 0.9838, 1.1614 1.6448 1.0349, 1.1614 1.6328 1.0951, 1.1614 1.6328 1.1655, 1.1614 1.6539 1.2443, 1.1509 2.4665 0.0394, 1.122 2.4665 0.0106, 0.9843 2.4665 0.1772, 0.9843 2.4665 0.9377, -1.1614 2.4665 0.9377, -0.9843 2.4665 0.9377, -1.1614 2.4665 0.0787, -0.9843 2.4665 0.1772, -1.1509 2.4665 0.0394, -1.122 2.4665 0.0106, -1.1614 1.7903 1.323, -1.1614 1.6328 1.0951, -1.1614 1.6448 1.0349, -1.1614 1.7115 1.3019, -1.1614 1.6539 1.2443, -1.1614 1.6328 1.1655, -1.1614 1.6789 0.9838, -1.1614 1.73 0.9496, -1.1614 1.7903 0.9377, 0.8465 -0.5256 0.9449, 1.1509 -0.5256 0.0394, 1.122 -0.5256 0.0106, -0.9277 1.5877 1.8898, 0.9277 1.5877 1.8898, 0.5987 1.5877 1.8898, -0.5987 1.5877 1.8898, 0.9252 1.5877 1.6535, 0.9252 2.4075 1.6535, 0.9252 2.4075 1.323, 0.9252 1.7903 1.323, 0.9252 1.7115 1.3019, 0.9252 1.6539 1.2443, 0.9252 1.6789 0.9838, 0.9252 1.73 0.9496, 0.9252 2.4075 0.2362, 0.9252 1.7903 0.9377, 0.9252 2.4075 0.9377, 0.9252 1.6328 1.1655, 0.9252 1.6328 1.0951, 0.9252 1.6448 1.0349, 0.5987 1.5877 1.6535, 0.1457 2.4075 1.6535, -0.9252 1.6328 1.1655, -0.9252 1.6539 1.2443, -0.9252 2.4075 1.323, -0.9252 1.7903 1.323, -0.9252 1.7115 1.3019, -0.9252 1.73 0.9496, -0.9252 1.7903 0.9377, -0.9252 2.4075 0.2362, -0.9252 2.4075 0.9377, -0.9252 1.6789 0.9838, -0.9252 1.6448 1.0349, -0.9252 1.6328 1.0951
            ]
        }
        coordIndex [
            0,1,2,-1,2,1,3,-1,4,5,6,-1,6,5,7,-1,8,9,10,-1,10,9,11,-1,10,11,3,-1,3,11,12,-1,3,12,2,-1,4,6,13,-1,13,6,14,-1,13,14,15,-1,8,16,14,-1,14,16,17,-1,14,17,15,-1,18,19,20,-1,21,22,10,-1,20,21,18,-1,18,21,10,-1,18,10,23,-1,23,10,24,-1,23,24,25,-1,26,4,27,-1,27,4,13,-1,27,13,28,-1,28,13,29,-1,28,29,30,-1,31,24,26,-1,26,24,32,-1,26,32,4,-1,8,10,16,-1,16,10,33,-1,16,33,34,-1,30,35,28,-1,28,35,36,-1,28,36,37,-1,36,38,37,-1,37,38,39,-1,37,39,40,-1,41,42,22,-1,22,42,43,-1,22,43,10,-1,10,43,44,-1,10,44,33,-1,45,46,47,-1,47,46,48,-1,47,48,49,-1,49,50,47,-1,47,50,51,-1,47,51,52,-1,40,39,31,-1,31,39,53,-1,31,53,24,-1,24,53,54,-1,24,54,55,-1,56,57,58,-1,58,57,59,-1,58,59,60,-1,60,59,61,-1,60,61,62,-1,62,61,63,-1,62,63,52,-1,52,63,64,-1,52,64,47,-1,55,65,24,-1,24,65,66,-1,24,66,67,-1,67,68,24,-1,24,68,57,-1,24,57,25,-1,25,57,56,-1,25,56,33,-1,33,56,69,-1,33,69,34,-1,70,71,10,-1,72,73,74,-1,75,76,77,-1,78,79,71,-1,71,79,80,-1,71,80,10,-1,81,75,24,-1,24,75,77,-1,24,77,82,-1,82,77,83,-1,82,83,3,-1,3,83,84,-1,3,84,10,-1,10,84,72,-1,10,72,70,-1,70,72,74,-1,76,85,77,-1,77,85,86,-1,77,86,71,-1,71,86,87,-1,71,87,78,-1,80,88,10,-1,10,88,89,-1,10,89,24,-1,24,89,90,-1,24,90,81,-1,91,92,93,-1,93,92,94,-1,93,94,95,-1,96,97,98,-1,98,97,92,-1,98,92,99,-1,99,92,91,-1,100,101,102,-1,102,101,103,-1,102,103,104,-1,104,103,105,-1,106,107,108,-1,109,110,111,-1,111,110,106,-1,111,106,112,-1,112,106,108,-1,113,114,110,-1,115,112,116,-1,116,112,117,-1,118,119,120,-1,121,11,9,-1,117,122,116,-1,116,122,118,-1,116,118,123,-1,123,118,120,-1,2,12,115,-1,115,12,124,-1,115,124,112,-1,112,124,121,-1,112,121,111,-1,111,121,9,-1,111,9,8,-1,125,126,127,-1,127,126,113,-1,127,113,128,-1,128,113,110,-1,128,110,129,-1,129,110,109,-1,129,109,6,-1,6,109,14,-1,130,131,132,-1,133,134,135,-1,133,135,136,-1,132,137,130,-1,130,137,104,-1,130,104,135,-1,135,104,105,-1,135,105,136,-1,131,134,132,-1,132,134,133,-1,132,133,138,-1,138,133,139,-1,138,139,140,-1,140,139,141,-1,140,141,142,-1,142,141,136,-1,142,136,143,-1,143,136,105,-1,143,105,144,-1,144,105,145,-1,146,147,148,-1,148,147,149,-1,150,151,152,-1,152,151,148,-1,152,148,153,-1,153,148,149,-1,153,149,154,-1,155,156,157,-1,158,159,0,-1,0,159,155,-1,0,155,1,-1,1,155,157,-1,115,116,158,-1,158,116,159,-1,160,161,128,-1,128,161,162,-1,127,163,152,-1,152,163,164,-1,152,164,150,-1,165,166,162,-1,162,166,167,-1,162,167,128,-1,128,167,168,-1,128,168,169,-1,169,170,128,-1,128,170,171,-1,128,171,127,-1,127,171,172,-1,127,172,163,-1,173,174,162,-1,162,174,175,-1,162,175,165,-1,165,175,176,-1,177,178,179,-1,179,178,180,-1,179,180,181,-1,182,181,82,-1,82,181,180,-1,82,180,24,-1,24,180,175,-1,24,175,32,-1,32,175,174,-1,155,159,179,-1,179,159,116,-1,93,95,183,-1,93,183,123,-1,184,185,116,-1,183,186,123,-1,123,186,187,-1,123,187,116,-1,116,187,188,-1,116,188,184,-1,185,189,116,-1,116,189,190,-1,116,190,179,-1,179,190,191,-1,179,191,177,-1,192,7,5,-1,160,192,161,-1,161,192,5,-1,161,5,193,-1,193,5,194,-1,118,122,195,-1,114,113,196,-1,196,113,149,-1,196,149,197,-1,197,149,147,-1,197,147,107,-1,107,147,144,-1,107,144,108,-1,108,144,145,-1,108,145,198,-1,198,145,96,-1,198,96,195,-1,195,96,98,-1,195,98,118,-1,192,160,129,-1,129,160,128,-1,199,200,201,-1,201,202,199,-1,199,202,203,-1,199,203,140,-1,140,203,204,-1,205,206,138,-1,138,206,207,-1,207,206,208,-1,207,208,209,-1,204,210,140,-1,140,210,211,-1,140,211,138,-1,138,211,212,-1,138,212,205,-1,142,143,213,-1,213,143,214,-1,213,214,199,-1,199,214,200,-1,215,216,137,-1,137,216,100,-1,217,101,218,-1,218,101,100,-1,218,100,219,-1,219,100,216,-1,220,132,221,-1,221,132,222,-1,221,222,223,-1,220,224,132,-1,132,224,225,-1,132,225,137,-1,137,225,226,-1,137,226,215,-1,222,132,207,-1,207,132,138,-1,2,115,0,-1,0,115,158,-1,7,192,6,-1,6,192,129,-1,183,218,186,-1,186,218,219,-1,186,219,187,-1,187,219,216,-1,187,216,188,-1,188,216,215,-1,188,215,184,-1,184,215,226,-1,184,226,185,-1,185,226,225,-1,185,225,189,-1,189,225,224,-1,189,224,190,-1,190,224,220,-1,190,220,191,-1,191,220,221,-1,221,223,191,-1,191,223,178,-1,191,178,177,-1,217,218,94,-1,94,218,183,-1,94,183,95,-1,202,201,164,-1,164,201,151,-1,164,151,150,-1,209,208,176,-1,176,208,166,-1,176,166,165,-1,211,170,212,-1,212,170,169,-1,212,169,205,-1,205,169,168,-1,205,168,206,-1,206,168,167,-1,206,167,208,-1,208,167,166,-1,170,211,171,-1,171,211,210,-1,202,164,203,-1,203,164,163,-1,203,163,204,-1,204,163,172,-1,204,172,210,-1,210,172,171,-1,
        ]
    }
}
Shape{
    appearance Appearance {
        material  Material 	{
            diffuseColor 0.5019607843137255 0.5019607843137255 0.0
            specularColor 0.25098039215686274 0.25098039215686274 0.0
            ambientIntensity 0.4447
            transparency 0.0
            shininess 0.5
        }
    }
    geometry IndexedFaceSet {
        ccw TRUE
        solid FALSE
        coord DEF co Coordinate {
            point [
                -0.3543 2.003 1.2129, -0.3543 2.003 1.1341, -0.4331 2.003 1.2129, -0.4331 2.003 1.1341, -0.4921 1.944 1.0751, -0.4921 0.5768 1.0751, -0.4921 1.944 1.2719, -0.4921 0.5768 1.2719, -0.2953 1.944 1.2719, -0.2953 0.5768 1.2719, -0.2953 1.944 1.0751, -0.2953 0.5768 1.0751, -0.4921 0.1043 -1.2795, -0.4921 0.1043 0.0, -0.2953 0.1043 -1.2795, -0.2953 0.1043 0.0, -0.4921 -0.0349 1.2143, -0.4921 0.029 1.2569, -0.4921 -0.0775 1.1504, -0.4921 0.1043 1.2719, -0.4921 -0.0925 1.0751, -0.4921 -0.0925 -1.2795, -0.2953 -0.0349 1.2143, -0.2953 -0.0775 1.1504, -0.2953 -0.0925 1.0751, -0.2953 0.029 1.2569, -0.2953 0.1043 1.2719, -0.2953 -0.0925 -1.2795, -0.3543 0.0453 -1.3386, -0.3543 -0.0335 -1.3386, -0.4331 0.0453 -1.3386, -0.4331 -0.0335 -1.3386, 0.2953 -0.0925 1.0751, 0.4921 -0.0925 1.0751, 0.4921 -0.0775 1.1504, 0.2953 -0.0775 1.1504, 0.4921 -0.0349 1.2143, 0.2953 -0.0349 1.2143, 0.4921 0.029 1.2569, 0.2953 0.029 1.2569, 0.4921 0.1043 1.2719, 0.2953 0.1043 1.2719, 0.4921 -0.0925 -1.2795, 0.2953 -0.0925 -1.2795, 0.4331 0.0453 -1.3386, 0.4331 -0.0335 -1.3386, 0.3543 0.0453 -1.3386, 0.3543 -0.0335 -1.3386, 0.4921 0.1043 0.0, 0.4921 0.1043 -1.2795, 0.2953 0.1043 0.0, 0.2953 0.1043 -1.2795, 0.4331 2.003 1.2129, 0.4331 2.003 1.1341, 0.3543 2.003 1.2129, 0.3543 2.003 1.1341, 0.4921 1.944 1.0751, 0.4921 0.5768 1.0751, 0.2953 1.944 1.0751, 0.2953 0.5768 1.0751, 0.2953 1.944 1.2719, 0.2953 0.5768 1.2719, 0.4921 1.944 1.2719, 0.4921 0.5768 1.2719
            ]
        }
        coordIndex [
            0,1,2,-1,2,1,3,-1,4,5,6,-1,6,5,7,-1,8,9,10,-1,10,9,11,-1,6,7,8,-1,8,7,9,-1,10,11,4,-1,4,11,5,-1,12,13,14,-1,14,13,15,-1,16,17,18,-1,18,17,19,-1,18,19,20,-1,20,19,13,-1,20,13,21,-1,21,13,12,-1,22,23,24,-1,25,22,26,-1,26,22,24,-1,26,24,15,-1,15,24,27,-1,15,27,14,-1,28,29,30,-1,30,29,31,-1,27,24,21,-1,21,24,20,-1,20,24,23,-1,20,23,18,-1,18,23,22,-1,18,22,16,-1,16,22,25,-1,16,25,17,-1,17,25,26,-1,17,26,19,-1,4,3,10,-1,10,3,1,-1,6,2,4,-1,4,2,3,-1,0,8,1,-1,1,8,10,-1,8,0,6,-1,6,0,2,-1,21,31,27,-1,27,31,29,-1,12,30,21,-1,21,30,31,-1,28,14,29,-1,29,14,27,-1,14,28,12,-1,12,28,30,-1,32,33,34,-1,32,34,35,-1,35,34,36,-1,35,36,37,-1,37,36,38,-1,37,38,39,-1,39,38,40,-1,39,40,41,-1,42,33,43,-1,43,33,32,-1,44,45,46,-1,46,45,47,-1,36,34,33,-1,38,36,40,-1,40,36,33,-1,40,33,48,-1,48,33,42,-1,48,42,49,-1,37,39,35,-1,35,39,41,-1,35,41,32,-1,32,41,50,-1,32,50,43,-1,43,50,51,-1,51,50,49,-1,49,50,48,-1,52,53,54,-1,54,53,55,-1,56,57,58,-1,58,57,59,-1,60,61,62,-1,62,61,63,-1,58,59,60,-1,60,59,61,-1,62,63,56,-1,56,63,57,-1,58,55,56,-1,56,55,53,-1,60,54,58,-1,58,54,55,-1,52,62,53,-1,53,62,56,-1,62,52,60,-1,60,52,54,-1,43,47,42,-1,42,47,45,-1,51,46,43,-1,43,46,47,-1,44,49,45,-1,45,49,42,-1,49,44,51,-1,51,44,46,-1,
        ]
    }
}
Shape{
    appearance Appearance {
        material  Material 	{
            diffuseColor 0.7529411764705882 0.7529411764705882 0.7529411764705882
            specularColor 0.3764705882352941 0.3764705882352941 0.3764705882352941
            ambientIntensity 0.7529
            transparency 0.0
            shininess 0.5
        }
    }
    geometry IndexedFaceSet {
        ccw TRUE
        solid FALSE
        coord DEF co Coordinate {
            point [
                -0.9277 1.5877 1.8898, -0.9277 0.1043 1.8898, -0.9277 1.5877 1.6535, -0.9277 0.1043 1.6535, -0.5987 1.5877 1.6535, -0.5987 1.5877 1.8898, -0.9252 1.5877 1.6535, -0.5987 0.1043 1.8898, -0.5987 0.5768 1.6535, -0.5987 0.1043 1.6535, -0.9252 0.5768 1.6535, -0.1457 2.4665 1.7126, -0.1457 2.4665 1.8898, -0.1457 2.4075 1.6535, -0.1457 0.5768 1.8898, -0.1457 0.5768 1.6535, 0.1457 2.4075 1.6535, 0.1457 0.5768 1.6535, 0.1457 2.4665 1.7126, 0.1457 0.5768 1.8898, 0.1457 2.4665 1.8898, 0.9277 0.1043 1.8898, 0.9277 1.5877 1.8898, 0.9277 0.1043 1.6535, 0.9277 1.5877 1.6535, 0.5987 1.5877 1.6535, 0.5987 1.5877 1.8898, 0.5987 0.5768 1.6535, 0.5987 0.1043 1.8898, 0.5987 0.1043 1.6535, 0.9252 1.5877 1.6535, 0.9252 0.5768 1.6535, 1.0827 1.0256 0.0, 1.0827 2.4665 0.0, 1.122 2.4665 0.0106, 1.122 -0.5256 0.0106, 1.0827 -0.5256 0.0, 1.1509 2.4665 0.0394, 1.1509 -0.5256 0.0394, 1.1614 2.4665 0.0787, 1.1614 -0.5256 0.0787, 1.0827 2.4665 1.8898, 1.0827 0.1043 1.8898, 1.122 0.1043 1.8792, 1.122 2.4665 1.8792, 1.1509 0.1043 1.8504, 1.1509 2.4665 1.8504, 1.1614 0.1043 1.811, 1.1614 2.4665 1.811, -1.0827 0.1043 1.8898, -1.0827 2.4665 1.8898, -1.122 2.4665 1.8792, -1.122 0.1043 1.8792, -1.1509 2.4665 1.8504, -1.1509 0.1043 1.8504, -1.1614 2.4665 1.811, -1.1614 0.1043 1.811, -1.0827 1.0256 0.0, -1.0827 -0.5256 0.0, -1.122 -0.5256 0.0106, -1.122 2.4665 0.0106, -1.0827 2.4665 0.0, -1.1509 -0.5256 0.0394, -1.1509 2.4665 0.0394, -1.1614 -0.5256 0.0787, -1.1614 2.4665 0.0787, -0.9252 2.4075 1.6535, -0.9843 2.4665 1.7126, -0.9843 2.4665 1.323, -0.9252 2.4075 1.323, 0.9252 2.4075 1.6535, 0.9843 2.4665 1.7126, 0.9252 2.4075 1.323, 0.9843 2.4665 1.323, -0.9252 2.4075 0.2362, -0.9843 2.4665 0.1772, -0.9252 2.4075 0.9377, -0.9843 2.4665 0.9377, 0.9252 2.4075 0.2362, 0.9843 2.4665 0.1772, 0.9843 2.4665 0.9377, 0.9252 2.4075 0.9377, -0.095 1.2649 0.0394, -0.098 1.2649 0.0394, -0.095 1.2649 0.0, -0.098 1.2649 0.0, -0.207 1.0287 0.0394, -0.207 1.0287 0.0, -0.184 1.0287 0.0394, -0.184 1.0287 0.0, -0.1491 1.1044 0.0394, -0.1491 1.1044 0.0, -0.042 1.1044 0.0394, -0.042 1.1044 0.0, -0.0061 1.0287 0.0394, -0.0061 1.0287 0.0, 0.0171 1.0287 0.0394, 0.0171 1.0287 0.0, -0.1379 1.1286 0.0394, -0.0535 1.1286 0.0394, -0.0963 1.2189 0.0394, -0.1379 1.1286 0.0, -0.0963 1.2189 0.0, -0.0535 1.1286 0.0, 0.168 1.0287 0.0394, 0.2412 1.0287 0.0394, 0.168 1.0287 0.0, 0.2412 1.0287 0.0, 0.2412 1.2649 0.0394, 0.2412 1.2649 0.0, 0.1935 1.2649 0.0394, 0.1935 1.2649 0.0, 0.1185 1.2564 0.0394, 0.1185 1.2564 0.0, 0.1556 1.2635 0.0, 0.1556 1.2635 0.0394, 0.0474 1.1438 0.0394, 0.0474 1.1438 0.0, 0.0518 1.181 0.0, 0.0518 1.181 0.0394, 0.076 1.2277 0.0, 0.076 1.2277 0.0394, 0.1425 1.03 0.0, 0.1425 1.03 0.0394, 0.0949 1.0452 0.0, 0.0949 1.0452 0.0394, 0.0607 1.0844 0.0, 0.0607 1.0844 0.0394, 0.0723 1.1144 0.0394, 0.0916 1.0799 0.0394, 0.1253 1.0589 0.0394, 0.1589 1.0539 0.0394, 0.1929 1.0529 0.0394, 0.22 1.0529 0.0394, 0.22 1.2407 0.0394, 0.2034 1.2407 0.0394, 0.1669 1.2396 0.0394, 0.1308 1.234 0.0394, 0.1047 1.2215 0.0394, 0.0789 1.191 0.0394, 0.0686 1.1439 0.0394, 0.22 1.2407 0.0, 0.22 1.0529 0.0, 0.2034 1.2407 0.0, 0.1669 1.2396 0.0, 0.1308 1.234 0.0, 0.1047 1.2215 0.0, 0.0789 1.191 0.0, 0.0686 1.1439 0.0, 0.0723 1.1144 0.0, 0.0916 1.0799 0.0, 0.1253 1.0589 0.0, 0.1589 1.0539 0.0, 0.1929 1.0529 0.0, 0.4168 1.0287 0.0394, 0.4168 1.2649 0.0394, 0.4168 1.0287 0.0, 0.4168 1.2649 0.0, 0.2836 1.2649 0.0394, 0.2836 1.2649 0.0, 0.2836 1.2407 0.0394, 0.2836 1.2407 0.0, 0.3956 1.2407 0.0394, 0.3956 1.2407 0.0, 0.3956 1.168 0.0394, 0.3956 1.168 0.0, 0.2836 1.168 0.0394, 0.2836 1.168 0.0, 0.2836 1.1438 0.0394, 0.2836 1.1438 0.0, 0.3956 1.1438 0.0394, 0.3956 1.1438 0.0, 0.3956 1.0529 0.0394, 0.3956 1.0529 0.0, 0.2836 1.0529 0.0394, 0.2836 1.0529 0.0, 0.2836 1.0287 0.0394, 0.2836 1.0287 0.0, 0.4653 1.2216 0.0394, 0.4653 1.2216 0.0, 0.4727 1.2308 0.0, 0.4727 1.2308 0.0394, 0.4865 1.2439 0.0, 0.4865 1.2439 0.0394, 0.5107 1.2588 0.0, 0.5107 1.2588 0.0394, 0.5684 1.271 0.0, 0.5684 1.271 0.0394, 0.4838 1.2074 0.0394, 0.4838 1.2074 0.0, 0.5697 1.2467 0.0394, 0.5697 1.2467 0.0, 0.5599 1.2464 0.0, 0.5599 1.2464 0.0394, 0.5444 1.2442 0.0, 0.5444 1.2442 0.0394, 0.5221 1.237 0.0, 0.5221 1.237 0.0394, 0.6743 1.1465 0.0394, 0.6743 1.1465 0.0, 0.6739 1.1561 0.0, 0.6739 1.1561 0.0394, 0.6586 1.2008 0.0, 0.6586 1.2008 0.0394, 0.622 1.2338 0.0, 0.622 1.2338 0.0394, 0.5682 1.0468 0.0394, 0.5682 1.0468 0.0, 0.5831 1.0476 0.0, 0.5831 1.0476 0.0394, 0.6295 1.0637 0.0, 0.6295 1.0637 0.0394, 0.662 1.0979 0.0, 0.662 1.0979 0.0394, 0.4838 1.0862 0.0394, 0.4838 1.0862 0.0, 0.5215 1.0569 0.0, 0.5215 1.0569 0.0394, 0.4653 1.0722 0.0394, 0.4653 1.0722 0.0, 0.5681 1.0226 0.0394, 0.5681 1.0226 0.0, 0.5562 1.0231 0.0, 0.5562 1.0231 0.0394, 0.5383 1.0256 0.0, 0.5375 1.0258 0.0394, 0.5375 1.0258 0.0, 0.5106 1.0349 0.0, 0.5106 1.0349 0.0394, 0.5849 1.0256 0.0, 0.6216 1.0322 0.0394, 0.6216 1.0322 0.0, 0.6446 1.0448 0.0394, 0.6446 1.0448 0.0, 0.658 1.056 0.0394, 0.658 1.056 0.0, 0.6655 1.0639 0.0394, 0.6655 1.0639 0.0, 0.6955 1.1482 0.0394, 0.6955 1.1482 0.0, 0.6883 1.1032 0.0, 0.6883 1.1032 0.0394, 0.5788 1.2706 0.0, 0.5788 1.2706 0.0394, 0.6398 1.2511 0.0, 0.6398 1.2511 0.0394, 0.6802 1.2085 0.0, 0.6802 1.2085 0.0394, 0.8348 1.0287 0.0394, 0.8348 1.2649 0.0394, 0.8348 1.0287 0.0, 0.8348 1.2649 0.0, 0.8136 1.2649 0.0394, 0.8136 1.2649 0.0, 0.8136 1.0529 0.0394, 0.8136 1.0529 0.0, 0.7227 1.0529 0.0394, 0.7227 1.0529 0.0, 0.7227 1.0287 0.0394, 0.7227 1.0287 0.0
            ]
        }
        coordIndex [
            0,1,2,-1,2,1,3,-1,4,5,6,-1,6,5,0,-1,6,0,2,-1,5,4,7,-1,7,4,8,-1,7,8,9,-1,6,2,10,-1,10,2,3,-1,10,3,8,-1,8,3,9,-1,11,12,13,-1,13,12,14,-1,13,14,15,-1,16,17,18,-1,18,17,19,-1,18,19,20,-1,21,22,23,-1,23,22,24,-1,25,26,27,-1,27,26,28,-1,27,28,29,-1,24,22,30,-1,30,22,26,-1,30,26,25,-1,24,30,31,-1,27,29,31,-1,31,29,23,-1,31,23,24,-1,32,33,34,-1,35,36,32,-1,32,34,35,-1,35,34,37,-1,35,37,38,-1,38,37,39,-1,38,39,40,-1,41,42,43,-1,41,43,44,-1,44,43,45,-1,44,45,46,-1,46,45,47,-1,46,47,48,-1,49,50,51,-1,49,51,52,-1,52,51,53,-1,52,53,54,-1,54,53,55,-1,54,55,56,-1,57,58,59,-1,60,61,57,-1,57,59,60,-1,60,59,62,-1,60,62,63,-1,63,62,64,-1,63,64,65,-1,66,67,13,-1,13,67,11,-1,67,66,68,-1,68,66,69,-1,70,71,72,-1,72,71,73,-1,71,70,18,-1,18,70,16,-1,74,75,76,-1,76,75,77,-1,78,79,74,-1,74,79,75,-1,79,78,80,-1,80,78,81,-1,82,83,84,-1,84,83,85,-1,83,86,85,-1,85,86,87,-1,86,88,87,-1,87,88,89,-1,88,90,89,-1,89,90,91,-1,90,92,91,-1,91,92,93,-1,92,94,93,-1,93,94,95,-1,94,96,95,-1,95,96,97,-1,96,82,97,-1,97,82,84,-1,98,86,83,-1,82,99,83,-1,83,99,100,-1,83,100,98,-1,96,94,92,-1,88,86,90,-1,90,86,98,-1,90,98,92,-1,92,98,99,-1,92,99,96,-1,96,99,82,-1,98,100,101,-1,101,100,102,-1,99,98,103,-1,103,98,101,-1,100,99,102,-1,102,99,103,-1,104,105,106,-1,106,105,107,-1,105,108,107,-1,107,108,109,-1,108,110,109,-1,109,110,111,-1,112,113,114,-1,112,114,115,-1,115,114,111,-1,115,111,110,-1,116,117,118,-1,116,118,119,-1,119,118,120,-1,119,120,121,-1,121,120,113,-1,121,113,112,-1,104,106,122,-1,104,122,123,-1,123,122,124,-1,123,124,125,-1,125,124,126,-1,125,126,127,-1,127,126,117,-1,127,117,116,-1,128,129,125,-1,125,129,130,-1,125,130,123,-1,123,130,131,-1,123,131,104,-1,104,131,132,-1,104,132,105,-1,105,132,133,-1,105,133,108,-1,108,133,134,-1,108,134,110,-1,110,134,135,-1,110,135,115,-1,115,135,136,-1,115,136,112,-1,112,136,137,-1,112,137,121,-1,121,137,138,-1,121,138,119,-1,119,138,139,-1,119,139,116,-1,116,139,140,-1,116,140,127,-1,127,140,128,-1,127,128,125,-1,134,133,141,-1,141,133,142,-1,135,134,143,-1,143,134,141,-1,135,143,144,-1,135,144,136,-1,136,144,145,-1,136,145,137,-1,137,145,146,-1,137,146,138,-1,138,146,147,-1,138,147,139,-1,139,147,148,-1,139,148,140,-1,140,148,149,-1,140,149,128,-1,128,149,150,-1,128,150,129,-1,129,150,151,-1,129,151,130,-1,130,151,152,-1,130,152,131,-1,131,152,153,-1,131,153,132,-1,133,132,142,-1,142,132,153,-1,154,155,156,-1,156,155,157,-1,155,158,157,-1,157,158,159,-1,158,160,159,-1,159,160,161,-1,160,162,161,-1,161,162,163,-1,162,164,163,-1,163,164,165,-1,164,166,165,-1,165,166,167,-1,166,168,167,-1,167,168,169,-1,168,170,169,-1,169,170,171,-1,170,172,171,-1,171,172,173,-1,172,174,173,-1,173,174,175,-1,174,176,175,-1,175,176,177,-1,176,154,177,-1,177,154,156,-1,154,176,174,-1,174,172,154,-1,154,172,170,-1,154,170,155,-1,160,158,162,-1,162,158,155,-1,162,155,164,-1,164,155,170,-1,164,170,166,-1,166,170,168,-1,178,179,180,-1,178,180,181,-1,181,180,182,-1,181,182,183,-1,183,182,184,-1,183,184,185,-1,185,184,186,-1,185,186,187,-1,178,188,179,-1,179,188,189,-1,190,191,192,-1,190,192,193,-1,193,192,194,-1,193,194,195,-1,195,194,196,-1,195,196,197,-1,197,196,189,-1,197,189,188,-1,198,199,200,-1,198,200,201,-1,201,200,202,-1,201,202,203,-1,203,202,204,-1,203,204,205,-1,205,204,191,-1,205,191,190,-1,206,207,208,-1,206,208,209,-1,209,208,210,-1,209,210,211,-1,211,210,212,-1,211,212,213,-1,213,212,199,-1,213,199,198,-1,214,215,216,-1,214,216,217,-1,217,216,207,-1,217,207,206,-1,214,218,215,-1,215,218,219,-1,220,221,222,-1,220,222,223,-1,223,222,224,-1,223,224,225,-1,224,226,225,-1,225,226,227,-1,225,227,228,-1,228,227,219,-1,228,219,218,-1,221,220,229,-1,229,220,230,-1,229,230,231,-1,231,230,232,-1,231,232,233,-1,233,232,234,-1,233,234,235,-1,235,234,236,-1,235,236,237,-1,238,239,240,-1,238,240,241,-1,241,240,237,-1,241,237,236,-1,187,186,242,-1,187,242,243,-1,243,242,244,-1,243,244,245,-1,245,244,246,-1,245,246,247,-1,247,246,239,-1,247,239,238,-1,218,214,228,-1,228,214,217,-1,238,241,213,-1,213,241,211,-1,211,241,236,-1,211,236,234,-1,188,178,181,-1,188,181,197,-1,197,181,183,-1,197,183,185,-1,234,232,211,-1,211,232,230,-1,211,230,209,-1,209,230,220,-1,209,220,206,-1,206,220,223,-1,206,223,217,-1,217,223,225,-1,217,225,228,-1,213,198,238,-1,238,198,201,-1,238,201,247,-1,247,201,203,-1,247,203,245,-1,245,203,205,-1,245,205,243,-1,243,205,190,-1,243,190,187,-1,187,190,193,-1,187,193,185,-1,185,193,195,-1,185,195,197,-1,248,249,250,-1,250,249,251,-1,249,252,251,-1,251,252,253,-1,252,254,253,-1,253,254,255,-1,254,256,255,-1,255,256,257,-1,256,258,257,-1,257,258,259,-1,258,248,259,-1,259,248,250,-1,252,249,254,-1,254,249,248,-1,254,248,256,-1,256,248,258,-1,102,103,101,-1,141,142,143,-1,143,142,153,-1,143,153,144,-1,144,153,152,-1,144,152,145,-1,151,150,152,-1,152,150,149,-1,152,149,148,-1,148,147,152,-1,152,147,146,-1,152,146,145,-1,
        ]
    }
}