#VRML V2.0 utf8
# 3D model generated by easyeda2kicad.py (https://github.com/uPesy/easyeda2kicad.py)

Shape{
    appearance Appearance {
        material  Material 	{
            diffuseColor 0.25098039215686274 0.25098039215686274 0.25098039215686274
            specularColor 0.12549019607843137 0.12549019607843137 0.12549019607843137
            ambientIntensity 0.251
            transparency 0.0
            shininess 0.5
        }
    }
    geometry IndexedFaceSet {
        ccw TRUE
        solid FALSE
        coord DEF co Coordinate {
            point [
                0.2953 -0.0385 0.0313, 0.2953 -0.0385 0.0433, 0.2953 -0.2953 0.1969, 0.2953 0.2953 0.1969, 0.2953 0.1554 0.0079, 0.2953 0.1731 0.0079, 0.2953 0.193 0.0079, 0.2953 0.2953 0.0079, 0.2953 -0.2953 0.0079, 0.2953 0.0385 0.0313, 0.2953 0.0385 0.0433, -0.0394 0.2461 0.0079, -0.0394 0.2953 0.0079, -0.0282 0.2953 0.0079, -0.0505 -0.2283 0.0079, -0.0282 -0.1378 0.0079, -0.0468 -0.2307 0.0079, -0.0437 -0.2338 0.0079, -0.0394 -0.2461 0.0079, -0.0399 -0.2417 0.0079, -0.0413 -0.2375 0.0079, -0.1028 -0.2269 0.0079, -0.107 -0.2283 0.0079, -0.1513 -0.1378 0.0079, -0.1107 -0.2307 0.0079, -0.1138 -0.2338 0.0079, -0.1162 -0.2375 0.0079, -0.1176 -0.2417 0.0079, -0.1513 -0.2953 0.0079, -0.1181 -0.2461 0.0079, -0.1181 -0.2953 0.0079, -0.0547 -0.2269 0.0079, -0.0591 -0.2264 0.0079, -0.0984 -0.2264 0.0079, 0.0394 -0.2461 0.0079, 0.0394 -0.2953 0.0079, 0.0221 -0.2953 0.0079, 0.2713 -0.2338 0.0079, 0.2682 -0.2307 0.0079, 0.2559 -0.0394 0.0079, 0.2362 -0.0984 0.0079, 0.2362 -0.0394 0.0079, 0.2559 0.0394 0.0079, 0.2011 -0.2338 0.0079, 0.1988 -0.2375 0.0079, 0.0221 -0.1378 0.0079, 0.2056 0.1368 0.0079, 0.1969 0.1378 0.0079, 0.2352 0.1072 0.0079, 0.2323 0.1155 0.0079, 0.2276 0.123 0.0079, 0.2756 -0.2953 0.0079, 0.2756 -0.2461 0.0079, 0.2751 -0.2417 0.0079, 0.2736 -0.2375 0.0079, 0.2214 -0.1292 0.0079, 0.2603 -0.2269 0.0079, 0.2139 -0.1339 0.0079, 0.2559 -0.2264 0.0079, 0.2056 -0.1368 0.0079, 0.2165 -0.2264 0.0079, 0.1969 -0.1378 0.0079, 0.2122 -0.2269 0.0079, 0.208 -0.2283 0.0079, 0.2043 -0.2307 0.0079, 0.2362 0.0394 0.0079, 0.2362 0.0984 0.0079, 0.2214 0.1292 0.0079, 0.2139 0.1339 0.0079, 0.2276 -0.123 0.0079, 0.2323 -0.1155 0.0079, 0.2352 -0.1072 0.0079, 0.2644 -0.2283 0.0079, 0.1973 -0.2417 0.0079, 0.1162 -0.2375 0.0079, 0.1138 -0.2338 0.0079, 0.0505 -0.2283 0.0079, 0.0468 -0.2307 0.0079, 0.1107 -0.2307 0.0079, 0.107 -0.2283 0.0079, 0.1028 -0.2269 0.0079, 0.0984 -0.2264 0.0079, 0.0437 -0.2338 0.0079, 0.0413 -0.2375 0.0079, 0.0399 -0.2417 0.0079, 0.0591 -0.2264 0.0079, 0.0547 -0.2269 0.0079, 0.1969 -0.2953 0.0079, 0.1181 -0.2953 0.0079, 0.1969 -0.2461 0.0079, 0.1181 -0.2461 0.0079, 0.1176 -0.2417 0.0079, 0.2559 0.2264 0.0079, 0.2603 0.2269 0.0079, 0.2644 0.2283 0.0079, 0.2682 0.2307 0.0079, 0.2713 0.2338 0.0079, 0.2736 0.2375 0.0079, 0.1973 0.2417 0.0079, 0.1988 0.2375 0.0079, 0.0221 0.193 0.0079, 0.2011 0.2338 0.0079, 0.2043 0.2307 0.0079, 0.0468 0.2307 0.0079, 0.0505 0.2283 0.0079, 0.0547 0.2269 0.0079, 0.0591 0.2264 0.0079, 0.1162 0.2375 0.0079, 0.1138 0.2338 0.0079, 0.1107 0.2307 0.0079, 0.208 0.2283 0.0079, 0.2122 0.2269 0.0079, 0.2165 0.2264 0.0079, 0.2756 0.2953 0.0079, 0.2756 0.2461 0.0079, 0.2751 0.2417 0.0079, 0.0399 0.2417 0.0079, 0.0413 0.2375 0.0079, 0.0437 0.2338 0.0079, 0.0984 0.2264 0.0079, 0.1028 0.2269 0.0079, 0.107 0.2283 0.0079, 0.1181 0.2461 0.0079, 0.1181 0.2953 0.0079, 0.1969 0.2953 0.0079, 0.0221 0.2953 0.0079, 0.0394 0.2953 0.0079, 0.0394 0.2461 0.0079, 0.1176 0.2417 0.0079, 0.1969 0.2461 0.0079, -0.0591 0.2264 0.0079, -0.0547 0.2269 0.0079, -0.0282 0.193 0.0079, -0.0505 0.2283 0.0079, -0.0468 0.2307 0.0079, -0.1176 0.2417 0.0079, -0.1162 0.2375 0.0079, -0.1513 0.193 0.0079, -0.1138 0.2338 0.0079, -0.1107 0.2307 0.0079, -0.0437 0.2338 0.0079, -0.0413 0.2375 0.0079, -0.0399 0.2417 0.0079, -0.107 0.2283 0.0079, -0.1028 0.2269 0.0079, -0.0984 0.2264 0.0079, -0.1513 0.2953 0.0079, -0.1181 0.2953 0.0079, -0.1181 0.2461 0.0079, -0.2953 0.193 0.0079, -0.2603 0.2269 0.0079, -0.2559 0.2264 0.0079, -0.208 0.2283 0.0079, -0.2043 0.2307 0.0079, -0.2011 0.2338 0.0079, -0.1988 0.2375 0.0079, -0.2751 0.2417 0.0079, -0.2736 0.2375 0.0079, -0.2713 0.2338 0.0079, -0.2165 0.2264 0.0079, -0.2122 0.2269 0.0079, -0.2953 0.2953 0.0079, -0.2756 0.2953 0.0079, -0.2756 0.2461 0.0079, -0.2682 0.2307 0.0079, -0.2644 0.2283 0.0079, -0.1969 0.2953 0.0079, -0.1969 0.2461 0.0079, -0.1973 0.2417 0.0079, -0.1513 0.1554 0.0079, -0.1513 0.1378 0.0079, -0.1969 0.1378 0.0079, -0.2056 0.1368 0.0079, -0.2139 0.1339 0.0079, -0.2953 0.1554 0.0079, -0.2214 0.1292 0.0079, -0.2276 0.123 0.0079, -0.2323 0.1155 0.0079, -0.2352 0.1072 0.0079, -0.2362 0.0984 0.0079, -0.2559 -0.0394 0.0079, -0.2362 -0.0394 0.0079, -0.2362 -0.0787 0.0079, -0.1969 -0.2953 0.0079, -0.1969 -0.2461 0.0079, -0.1988 -0.2375 0.0079, -0.2011 -0.2338 0.0079, -0.2756 -0.2953 0.0079, -0.2953 -0.2953 0.0079, -0.2756 -0.2461 0.0079, -0.2751 -0.2417 0.0079, -0.1973 -0.2417 0.0079, -0.2165 -0.2264 0.0079, -0.2122 -0.2269 0.0079, -0.1772 -0.1378 0.0079, -0.208 -0.2283 0.0079, -0.2043 -0.2307 0.0079, -0.2559 -0.2264 0.0079, -0.2603 -0.2269 0.0079, -0.2644 -0.2283 0.0079, -0.2682 -0.2307 0.0079, -0.2713 -0.2338 0.0079, -0.2736 -0.2375 0.0079, -0.2559 0.0394 0.0079, -0.2362 0.0394 0.0079, -0.0394 -0.2953 0.0079, -0.0282 -0.2953 0.0079, -0.0097 -0.2953 0.0079, -0.0097 -0.1378 0.0079, 0.0047 -0.2953 0.0079, 0.0047 -0.1378 0.0079, -0.0282 0.1378 0.0079, -0.0282 0.1554 0.0079, -0.0097 0.1378 0.0079, -0.0097 0.1554 0.0079, 0.0047 0.1378 0.0079, 0.0047 0.1554 0.0079, 0.0221 0.1378 0.0079, 0.0047 0.193 0.0079, 0.0066 0.1764 0.0079, 0.0047 0.1731 0.0079, 0.0066 0.1742 0.0079, 0.0087 0.1734 0.0079, 0.0095 0.193 0.0079, 0.0089 0.193 0.0079, 0.0066 0.1924 0.0079, 0.0066 0.1897 0.0079, 0.0088 0.1907 0.0079, 0.007 0.1762 0.0079, 0.0112 0.191 0.0079, 0.0132 0.1908 0.0079, 0.0147 0.1902 0.0079, 0.016 0.1893 0.0079, 0.0172 0.188 0.0079, 0.0186 0.1828 0.0079, 0.0184 0.1807 0.0079, 0.0179 0.179 0.0079, 0.0135 0.1753 0.0079, 0.0117 0.1751 0.0079, 0.015 0.1759 0.0079, 0.0162 0.1767 0.0079, 0.0171 0.1777 0.0079, 0.0091 0.1754 0.0079, 0.018 0.1865 0.0079, 0.0185 0.1844 0.0079, 0.0127 0.193 0.0079, 0.0113 0.1931 0.0079, 0.0047 0.2953 0.0079, 0.0164 0.1739 0.0079, 0.018 0.1749 0.0079, 0.0221 0.1731 0.0079, 0.0194 0.1764 0.0079, 0.0205 0.1783 0.0079, 0.0202 0.1877 0.0079, 0.0191 0.1896 0.0079, 0.0173 0.1913 0.0079, 0.0154 0.1923 0.0079, 0.0132 0.193 0.0079, 0.0211 0.1804 0.0079, 0.0213 0.1827 0.0079, 0.021 0.1855 0.0079, 0.0107 0.1731 0.0079, 0.0115 0.173 0.0079, 0.012 0.173 0.0079, 0.0132 0.1731 0.0079, 0.0221 0.1554 0.0079, 0.0145 0.1732 0.0079, -0.1513 0.1731 0.0079, -0.0282 0.1731 0.0079, -0.0097 0.1731 0.0079, 0.023 0.1754 0.0079, 0.023 0.1732 0.0079, 0.033 0.1732 0.0079, 0.0304 0.1754 0.0079, 0.0304 0.1929 0.0079, 0.033 0.1929 0.0079, -0.0073 0.1929 0.0079, -0.0097 0.193 0.0079, -0.0073 0.1907 0.0079, -0.0078 0.1754 0.0079, -0.0078 0.1732 0.0079, 0.0028 0.1732 0.0079, 0.0028 0.1929 0.0079, 0.0001 0.1821 0.0079, 0.0001 0.1754 0.0079, -0.0068 0.1821 0.0079, -0.0068 0.1843 0.0079, 0.0001 0.1843 0.0079, 0.0001 0.1907 0.0079, -0.0265 0.1786 0.0079, -0.0253 0.1768 0.0079, -0.0237 0.1753 0.0079, -0.0217 0.1741 0.0079, -0.0172 0.1929 0.0079, -0.02 0.1926 0.0079, -0.0223 0.1918 0.0079, -0.0245 0.1903 0.0079, -0.0245 0.1903 0.0079, -0.0259 0.1888 0.0079, -0.0268 0.1871 0.0079, -0.0194 0.1734 0.0079, -0.017 0.1732 0.0079, -0.0116 0.1732 0.0079, -0.0116 0.1929 0.0079, -0.0273 0.1852 0.0079, -0.0275 0.1833 0.0079, -0.0272 0.1807 0.0079, -0.0418 0.1787 0.0079, -0.0337 0.1787 0.0079, -0.0318 0.1732 0.0079, -0.0438 0.1732 0.0079, -0.0467 0.1732 0.0079, -0.039 0.1929 0.0079, -0.0289 0.1732 0.0079, -0.0363 0.1929 0.0079, -0.2953 0.1731 0.0079, -0.0097 0.2953 0.0079
            ]
        }
        coordIndex [
            0,1,2,-1,2,1,3,-1,4,5,3,-1,3,5,6,-1,3,6,7,-1,2,8,0,-1,0,8,4,-1,0,4,9,-1,9,4,3,-1,9,3,10,-1,10,3,1,-1,11,12,13,-1,14,15,16,-1,16,15,17,-1,18,19,15,-1,15,19,20,-1,15,20,17,-1,21,22,23,-1,23,22,24,-1,23,24,25,-1,25,26,23,-1,23,26,27,-1,23,27,28,-1,28,27,29,-1,28,29,30,-1,14,31,15,-1,15,31,32,-1,15,32,23,-1,23,32,33,-1,23,33,21,-1,34,35,36,-1,37,38,39,-1,40,41,39,-1,42,4,39,-1,39,4,8,-1,43,44,45,-1,4,46,47,-1,48,49,4,-1,4,49,50,-1,51,52,8,-1,8,52,53,-1,8,53,39,-1,39,53,54,-1,39,54,37,-1,55,56,57,-1,57,56,58,-1,57,58,59,-1,59,58,60,-1,59,60,61,-1,60,62,61,-1,61,62,63,-1,61,63,45,-1,45,63,64,-1,45,64,43,-1,42,65,4,-1,4,65,66,-1,4,66,48,-1,50,67,4,-1,4,67,68,-1,4,68,46,-1,55,69,56,-1,56,69,70,-1,56,70,71,-1,38,72,39,-1,39,72,56,-1,39,56,40,-1,40,56,71,-1,73,74,75,-1,45,76,77,-1,75,78,73,-1,73,78,79,-1,73,79,44,-1,44,79,45,-1,45,79,80,-1,45,80,81,-1,77,82,45,-1,45,82,83,-1,45,83,84,-1,81,85,45,-1,45,85,86,-1,45,86,76,-1,87,88,89,-1,89,88,90,-1,89,90,73,-1,73,90,91,-1,73,91,74,-1,92,93,6,-1,6,93,94,-1,94,95,6,-1,6,95,96,-1,6,96,97,-1,98,99,100,-1,100,99,101,-1,100,101,102,-1,103,104,100,-1,100,104,105,-1,100,105,106,-1,107,98,108,-1,108,98,109,-1,102,110,100,-1,100,110,111,-1,100,111,6,-1,6,111,112,-1,6,112,92,-1,113,7,114,-1,114,7,6,-1,114,6,115,-1,115,6,97,-1,116,117,100,-1,100,117,118,-1,100,118,103,-1,106,119,100,-1,100,119,120,-1,100,120,98,-1,98,120,121,-1,98,121,109,-1,122,123,124,-1,125,126,100,-1,100,126,127,-1,100,127,116,-1,107,128,98,-1,98,128,122,-1,98,122,129,-1,129,122,124,-1,130,131,132,-1,132,131,133,-1,132,133,134,-1,135,136,137,-1,137,136,138,-1,137,138,139,-1,134,140,132,-1,132,140,141,-1,132,141,142,-1,139,143,137,-1,137,143,144,-1,137,144,145,-1,146,147,137,-1,137,147,148,-1,137,148,135,-1,149,150,151,-1,152,153,137,-1,137,153,154,-1,137,154,155,-1,156,157,149,-1,149,157,158,-1,151,159,137,-1,137,159,160,-1,137,160,152,-1,161,162,149,-1,149,162,163,-1,149,163,156,-1,158,164,149,-1,149,164,165,-1,149,165,150,-1,166,146,167,-1,167,146,137,-1,167,137,168,-1,168,137,155,-1,169,170,171,-1,172,173,174,-1,174,173,175,-1,174,175,176,-1,176,177,174,-1,174,177,178,-1,174,178,179,-1,180,181,182,-1,28,183,184,-1,185,186,23,-1,187,188,189,-1,189,188,190,-1,28,184,23,-1,23,184,191,-1,23,191,185,-1,192,182,193,-1,193,182,194,-1,193,194,195,-1,195,194,23,-1,195,23,196,-1,196,23,186,-1,192,197,182,-1,182,197,198,-1,182,198,199,-1,199,200,182,-1,182,200,201,-1,182,201,202,-1,202,190,182,-1,182,190,188,-1,182,188,180,-1,180,188,174,-1,180,174,203,-1,203,174,179,-1,203,179,204,-1,205,18,206,-1,206,18,15,-1,206,15,207,-1,207,15,208,-1,207,208,209,-1,209,208,210,-1,209,210,36,-1,36,210,45,-1,36,45,34,-1,34,45,84,-1,170,169,211,-1,211,169,212,-1,211,212,213,-1,213,212,214,-1,213,214,215,-1,215,214,216,-1,215,216,217,-1,218,219,220,-1,220,219,221,-1,220,221,222,-1,218,223,224,-1,224,225,218,-1,218,225,226,-1,218,226,219,-1,219,226,227,-1,219,227,228,-1,228,227,229,-1,228,229,230,-1,230,231,228,-1,228,231,232,-1,228,232,233,-1,234,235,228,-1,228,235,236,-1,237,238,239,-1,239,238,240,-1,236,241,228,-1,228,241,240,-1,228,240,242,-1,242,240,238,-1,233,243,228,-1,228,243,244,-1,228,244,234,-1,245,246,247,-1,248,249,250,-1,250,249,251,-1,250,251,252,-1,253,254,100,-1,100,254,255,-1,100,255,256,-1,247,125,245,-1,245,125,100,-1,245,100,257,-1,257,100,256,-1,252,258,250,-1,250,258,259,-1,250,259,100,-1,100,259,260,-1,100,260,253,-1,261,262,216,-1,216,262,263,-1,216,263,264,-1,217,216,265,-1,265,216,264,-1,265,264,250,-1,250,264,266,-1,250,266,248,-1,169,267,212,-1,212,267,268,-1,212,268,214,-1,214,268,269,-1,214,269,216,-1,216,269,220,-1,216,220,261,-1,261,220,222,-1,100,270,250,-1,250,270,271,-1,250,271,272,-1,273,270,274,-1,274,270,100,-1,274,100,275,-1,275,100,6,-1,275,6,272,-1,272,6,5,-1,272,5,250,-1,250,5,4,-1,250,4,265,-1,265,4,47,-1,265,47,217,-1,276,277,218,-1,276,278,277,-1,277,278,279,-1,277,279,269,-1,269,279,280,-1,269,280,220,-1,220,280,281,-1,220,281,218,-1,218,281,282,-1,218,282,276,-1,283,284,285,-1,285,284,279,-1,285,279,286,-1,286,279,278,-1,286,278,287,-1,287,278,288,-1,289,290,268,-1,268,290,291,-1,268,291,292,-1,293,132,277,-1,293,294,132,-1,132,294,295,-1,132,295,296,-1,296,297,132,-1,132,297,298,-1,132,298,299,-1,292,300,268,-1,268,300,301,-1,268,301,269,-1,269,301,302,-1,269,302,277,-1,277,302,303,-1,277,303,293,-1,299,304,132,-1,132,304,305,-1,132,305,268,-1,268,305,306,-1,268,306,289,-1,307,308,309,-1,307,309,310,-1,310,268,311,-1,311,268,267,-1,311,267,312,-1,312,267,137,-1,312,137,132,-1,132,137,145,-1,132,145,130,-1,310,309,268,-1,268,309,313,-1,268,313,132,-1,132,313,314,-1,132,314,312,-1,151,137,149,-1,149,137,267,-1,149,267,315,-1,315,267,169,-1,315,169,174,-1,174,169,171,-1,174,171,172,-1,142,11,132,-1,132,11,13,-1,132,13,277,-1,277,13,316,-1,277,316,218,-1,218,316,247,-1,218,247,223,-1,223,247,246,-1,
        ]
    }
}
Shape{
    appearance Appearance {
        material  Material 	{
            diffuseColor 1.0 1.0 1.0
            specularColor 0.5019607843137255 0.5019607843137255 0.5019607843137255
            ambientIntensity 1.0
            transparency 0.0
            shininess 0.5
        }
    }
    geometry IndexedFaceSet {
        ccw TRUE
        solid FALSE
        coord DEF co Coordinate {
            point [
                0.2362 0.0984 0.0, 0.2362 0.0984 0.0079, 0.2362 0.0394 0.0, 0.2362 0.0394 0.0079, 0.2362 -0.0984 0.0079, 0.2362 -0.0984 0.0, 0.2362 -0.0394 0.0079, 0.2362 -0.0394 0.0, -0.2362 0.0984 0.0079, -0.2362 0.0984 0.0, -0.2362 0.0394 0.0079, -0.2362 0.0394 0.0, -0.2362 -0.0787 0.0, -0.2362 -0.0787 0.0079, -0.2362 -0.0394 0.0, -0.2362 -0.0394 0.0079
            ]
        }
        coordIndex [
            0,1,2,-1,2,1,3,-1,4,5,6,-1,6,5,7,-1,8,9,10,-1,10,9,11,-1,12,13,14,-1,14,13,15,-1,
        ]
    }
}
Shape{
    appearance Appearance {
        material  Material 	{
            diffuseColor 0.25098039215686274 0.25098039215686274 0.25098039215686274
            specularColor 0.12549019607843137 0.12549019607843137 0.12549019607843137
            ambientIntensity 0.251
            transparency 0.0
            shininess 0.5
        }
    }
    geometry IndexedFaceSet {
        ccw TRUE
        solid FALSE
        coord DEF co Coordinate {
            point [
                0.1181 -0.2953 0.0579, 0.1181 -0.2953 0.0079, 0.1969 -0.2953 0.0079, -0.2953 -0.2953 0.0079, -0.2756 -0.2953 0.0079, -0.2756 -0.2953 0.0579, 0.2756 -0.2953 0.0079, 0.2953 -0.2953 0.0079, 0.2756 -0.2953 0.0579, 0.2953 -0.2953 0.1969, 0.1969 -0.2953 0.0579, -0.1969 -0.2953 0.0579, -0.1969 -0.2953 0.0079, -0.1181 -0.2953 0.0579, -0.1513 -0.2953 0.0079, -0.1181 -0.2953 0.0079, -0.2953 -0.2953 0.1969, -0.0394 -0.2953 0.0579, 0.0221 -0.2953 0.0079, 0.0394 -0.2953 0.0079, 0.0394 -0.2953 0.0579, -0.0394 -0.2953 0.0079, -0.0282 -0.2953 0.0079, -0.0097 -0.2953 0.0079, 0.0047 -0.2953 0.0079, -0.2756 0.2953 0.0079, -0.2953 0.2953 0.0079, -0.2756 0.2953 0.0579, -0.2953 0.2953 0.1969, -0.1969 0.2953 0.0579, 0.2953 0.2953 0.1969, 0.0394 0.2953 0.0579, 0.0394 0.2953 0.0079, 0.0221 0.2953 0.0079, 0.1969 0.2953 0.0579, 0.2756 0.2953 0.0579, 0.2953 0.2953 0.0079, 0.2756 0.2953 0.0079, -0.1181 0.2953 0.0579, -0.1181 0.2953 0.0079, -0.1513 0.2953 0.0079, 0.1969 0.2953 0.0079, 0.1181 0.2953 0.0079, 0.1181 0.2953 0.0579, 0.0047 0.2953 0.0079, -0.0097 0.2953 0.0079, -0.0394 0.2953 0.0579, -0.0282 0.2953 0.0079, -0.0394 0.2953 0.0079, -0.1969 0.2953 0.0079, -0.2953 0.193 0.0079, -0.2953 0.1731 0.0079, -0.2953 0.1554 0.0079, -0.2953 0.0385 0.0433, -0.2953 -0.0385 0.0433, -0.2953 -0.0385 0.0313, -0.2953 0.0385 0.0313, -0.2202 -0.2332 0.1969, -0.221 -0.2397 0.1969, -0.2235 -0.2458 0.1969, -0.2276 -0.251 0.1969, -0.252 -0.2576 0.1969, -0.2581 -0.2551 0.1969, -0.252 -0.2088 0.1969, -0.2581 -0.2113 0.1969, -0.2633 -0.2153 0.1969, -0.2633 -0.251 0.1969, -0.2673 -0.2458 0.1969, -0.2698 -0.2397 0.1969, -0.2328 -0.2551 0.1969, -0.2389 -0.2576 0.1969, -0.2454 -0.2584 0.1969, -0.2707 -0.2332 0.1969, -0.2698 -0.2266 0.1969, -0.2673 -0.2205 0.1969, -0.2454 -0.2079 0.1969, -0.2389 -0.2088 0.1969, -0.2328 -0.2113 0.1969, -0.2276 -0.2153 0.1969, -0.2235 -0.2205 0.1969, -0.221 -0.2266 0.1969
            ]
        }
        coordIndex [
            0,1,2,-1,3,4,5,-1,6,7,8,-1,8,7,9,-1,8,9,10,-1,11,12,13,-1,13,12,14,-1,13,14,15,-1,3,5,16,-1,16,5,11,-1,16,11,9,-1,9,11,13,-1,9,13,17,-1,18,19,20,-1,2,10,0,-1,0,10,9,-1,0,9,20,-1,20,9,17,-1,21,22,17,-1,17,22,23,-1,17,23,20,-1,20,23,24,-1,20,24,18,-1,25,26,27,-1,27,26,28,-1,27,28,29,-1,29,28,30,-1,31,32,33,-1,34,30,35,-1,35,30,36,-1,35,36,37,-1,38,39,40,-1,41,42,34,-1,34,42,43,-1,34,43,30,-1,30,43,31,-1,44,45,46,-1,46,45,47,-1,46,47,48,-1,33,44,31,-1,31,44,46,-1,31,46,30,-1,30,46,38,-1,30,38,29,-1,29,38,40,-1,29,40,49,-1,26,50,28,-1,28,50,51,-1,51,52,28,-1,28,52,53,-1,28,53,16,-1,16,53,54,-1,16,54,3,-1,3,54,55,-1,3,55,52,-1,52,55,56,-1,52,56,53,-1,57,58,9,-1,9,58,59,-1,9,59,60,-1,61,62,16,-1,63,28,64,-1,64,28,65,-1,62,66,16,-1,16,66,67,-1,16,67,68,-1,60,69,9,-1,9,69,70,-1,9,70,16,-1,16,70,71,-1,16,71,61,-1,68,72,16,-1,16,72,73,-1,16,73,28,-1,28,73,74,-1,28,74,65,-1,63,75,28,-1,28,75,76,-1,28,76,30,-1,30,76,77,-1,77,78,30,-1,30,78,79,-1,30,79,9,-1,9,79,80,-1,9,80,57,-1,
        ]
    }
}
Shape{
    appearance Appearance {
        material  Material 	{
            diffuseColor 0.7529411764705882 0.7529411764705882 0.7529411764705882
            specularColor 0.3764705882352941 0.3764705882352941 0.3764705882352941
            ambientIntensity 0.7529
            transparency 0.0
            shininess 0.5
        }
    }
    geometry IndexedFaceSet {
        ccw TRUE
        solid FALSE
        coord DEF co Coordinate {
            point [
                -0.2202 -0.2332 0.1965, -0.2202 -0.2332 0.1969, -0.221 -0.2266 0.1965, -0.221 -0.2266 0.1969, -0.2235 -0.2205 0.1965, -0.2235 -0.2205 0.1969, -0.2276 -0.2153 0.1965, -0.2276 -0.2153 0.1969, -0.2328 -0.2113 0.1965, -0.2328 -0.2113 0.1969, -0.2389 -0.2088 0.1965, -0.2389 -0.2088 0.1969, -0.2454 -0.2079 0.1965, -0.2454 -0.2079 0.1969, -0.252 -0.2088 0.1965, -0.252 -0.2088 0.1969, -0.2581 -0.2113 0.1965, -0.2581 -0.2113 0.1969, -0.2633 -0.2153 0.1965, -0.2633 -0.2153 0.1969, -0.2673 -0.2205 0.1965, -0.2673 -0.2205 0.1969, -0.2698 -0.2266 0.1965, -0.2698 -0.2266 0.1969, -0.2707 -0.2332 0.1965, -0.2707 -0.2332 0.1969, -0.2698 -0.2397 0.1965, -0.2698 -0.2397 0.1969, -0.2673 -0.2458 0.1965, -0.2673 -0.2458 0.1969, -0.2633 -0.251 0.1965, -0.2633 -0.251 0.1969, -0.2581 -0.2551 0.1965, -0.2581 -0.2551 0.1969, -0.252 -0.2576 0.1965, -0.252 -0.2576 0.1969, -0.2454 -0.2584 0.1965, -0.2454 -0.2584 0.1969, -0.2389 -0.2576 0.1965, -0.2389 -0.2576 0.1969, -0.2328 -0.2551 0.1965, -0.2328 -0.2551 0.1969, -0.2276 -0.251 0.1965, -0.2276 -0.251 0.1969, -0.2235 -0.2458 0.1965, -0.2235 -0.2458 0.1969, -0.221 -0.2397 0.1965, -0.221 -0.2397 0.1969, -0.2454 -0.2332 0.1965
            ]
        }
        coordIndex [
            0,1,2,-1,2,1,3,-1,2,3,4,-1,4,3,5,-1,4,5,6,-1,6,5,7,-1,6,7,8,-1,8,7,9,-1,8,9,10,-1,10,9,11,-1,10,11,12,-1,12,11,13,-1,12,13,14,-1,14,13,15,-1,14,15,16,-1,16,15,17,-1,16,17,18,-1,18,17,19,-1,18,19,20,-1,20,19,21,-1,20,21,22,-1,22,21,23,-1,22,23,24,-1,24,23,25,-1,24,25,26,-1,26,25,27,-1,26,27,28,-1,28,27,29,-1,28,29,30,-1,30,29,31,-1,30,31,32,-1,32,31,33,-1,32,33,34,-1,34,33,35,-1,34,35,36,-1,36,35,37,-1,36,37,38,-1,38,37,39,-1,38,39,40,-1,40,39,41,-1,40,41,42,-1,42,41,43,-1,42,43,44,-1,44,43,45,-1,44,45,46,-1,46,45,47,-1,46,47,0,-1,0,47,1,-1,44,46,48,-1,48,46,0,-1,48,0,2,-1,38,40,48,-1,48,40,42,-1,48,42,44,-1,32,34,48,-1,48,34,36,-1,48,36,38,-1,26,28,48,-1,48,28,30,-1,48,30,32,-1,20,22,48,-1,48,22,24,-1,48,24,26,-1,14,16,48,-1,48,16,18,-1,48,18,20,-1,8,10,48,-1,48,10,12,-1,48,12,14,-1,2,4,48,-1,48,4,6,-1,48,6,8,-1,
        ]
    }
}
Shape{
    appearance Appearance {
        material  Material 	{
            diffuseColor 1.0 1.0 1.0
            specularColor 0.5019607843137255 0.5019607843137255 0.5019607843137255
            ambientIntensity 1.0
            transparency 0.0
            shininess 0.5
        }
    }
    geometry IndexedFaceSet {
        ccw TRUE
        solid FALSE
        coord DEF co Coordinate {
            point [
                0.1181 0.2953 0.0579, 0.1181 0.2992 0.0579, 0.0394 0.2953 0.0579, 0.0394 0.2992 0.0579, 0.1181 0.2461 0.0079, 0.1181 0.2461 0.0, 0.1181 0.2953 0.0079, 0.1181 0.2992 0.0, 0.0394 0.2953 0.0079, 0.0394 0.2992 0.0, 0.0394 0.2461 0.0079, 0.0394 0.2461 0.0, 0.0399 0.2417 0.0, 0.0399 0.2417 0.0079, 0.0413 0.2375 0.0, 0.0413 0.2375 0.0079, 0.0437 0.2338 0.0, 0.0437 0.2338 0.0079, 0.0468 0.2307 0.0, 0.0468 0.2307 0.0079, 0.0505 0.2283 0.0, 0.0505 0.2283 0.0079, 0.0547 0.2269 0.0, 0.0547 0.2269 0.0079, 0.0591 0.2264 0.0, 0.0591 0.2264 0.0079, 0.0984 0.2264 0.0, 0.0984 0.2264 0.0079, 0.1028 0.2269 0.0, 0.1028 0.2269 0.0079, 0.107 0.2283 0.0, 0.107 0.2283 0.0079, 0.1107 0.2307 0.0, 0.1107 0.2307 0.0079, 0.1138 0.2338 0.0, 0.1138 0.2338 0.0079, 0.1162 0.2375 0.0, 0.1162 0.2375 0.0079, 0.1176 0.2417 0.0, 0.1176 0.2417 0.0079
            ]
        }
        coordIndex [
            0,1,2,-1,2,1,3,-1,4,5,6,-1,6,5,7,-1,6,7,0,-1,0,7,1,-1,2,3,8,-1,8,3,9,-1,8,9,10,-1,10,9,11,-1,10,11,12,-1,10,12,13,-1,13,12,14,-1,13,14,15,-1,15,14,16,-1,15,16,17,-1,17,16,18,-1,17,18,19,-1,19,18,20,-1,19,20,21,-1,21,20,22,-1,21,22,23,-1,23,22,24,-1,23,24,25,-1,24,26,25,-1,25,26,27,-1,27,26,28,-1,27,28,29,-1,29,28,30,-1,29,30,31,-1,31,30,32,-1,31,32,33,-1,33,32,34,-1,33,34,35,-1,35,34,36,-1,35,36,37,-1,37,36,38,-1,37,38,39,-1,39,38,5,-1,39,5,4,-1,
        ]
    }
}
Shape{
    appearance Appearance {
        material  Material 	{
            diffuseColor 1.0 1.0 0.0
            specularColor 0.5019607843137255 0.5019607843137255 0.0
            ambientIntensity 0.886
            transparency 0.0
            shininess 0.5
        }
    }
    geometry IndexedFaceSet {
        ccw TRUE
        solid FALSE
        coord DEF co Coordinate {
            point [
                0.0394 0.2992 0.0, 0.0394 0.2992 0.0579, 0.1181 0.2992 0.0, 0.1181 0.2992 0.0579
            ]
        }
        coordIndex [
            0,1,2,-1,2,1,3,-1,
        ]
    }
}
Shape{
    appearance Appearance {
        material  Material 	{
            diffuseColor 1.0 1.0 1.0
            specularColor 0.5019607843137255 0.5019607843137255 0.5019607843137255
            ambientIntensity 1.0
            transparency 0.0
            shininess 0.5
        }
    }
    geometry IndexedFaceSet {
        ccw TRUE
        solid FALSE
        coord DEF co Coordinate {
            point [
                0.0984 0.2264 0.0, 0.1181 0.2992 0.0, 0.1181 0.2461 0.0, 0.0505 0.2283 0.0, 0.0468 0.2307 0.0, 0.0394 0.2461 0.0, 0.1176 0.2417 0.0, 0.1162 0.2375 0.0, 0.1138 0.2338 0.0, 0.1107 0.2307 0.0, 0.107 0.2283 0.0, 0.1028 0.2269 0.0, 0.0394 0.2992 0.0, 0.0591 0.2264 0.0, 0.0547 0.2269 0.0, 0.0437 0.2338 0.0, 0.0413 0.2375 0.0, 0.0399 0.2417 0.0, 0.2756 0.2953 0.0579, 0.2756 0.2992 0.0579, 0.1969 0.2953 0.0579, 0.1969 0.2992 0.0579, 0.2756 0.2461 0.0079, 0.2756 0.2461 0.0, 0.2756 0.2953 0.0079, 0.2756 0.2992 0.0, 0.1969 0.2953 0.0079, 0.1969 0.2992 0.0, 0.1969 0.2461 0.0079, 0.1969 0.2461 0.0, 0.1973 0.2417 0.0, 0.1973 0.2417 0.0079, 0.1988 0.2375 0.0, 0.1988 0.2375 0.0079, 0.2011 0.2338 0.0, 0.2011 0.2338 0.0079, 0.2043 0.2307 0.0, 0.2043 0.2307 0.0079, 0.208 0.2283 0.0, 0.208 0.2283 0.0079, 0.2122 0.2269 0.0, 0.2122 0.2269 0.0079, 0.2165 0.2264 0.0, 0.2165 0.2264 0.0079, 0.2559 0.2264 0.0, 0.2559 0.2264 0.0079, 0.2603 0.2269 0.0, 0.2603 0.2269 0.0079, 0.2644 0.2283 0.0, 0.2644 0.2283 0.0079, 0.2682 0.2307 0.0, 0.2682 0.2307 0.0079, 0.2713 0.2338 0.0, 0.2713 0.2338 0.0079, 0.2736 0.2375 0.0, 0.2736 0.2375 0.0079, 0.2751 0.2417 0.0, 0.2751 0.2417 0.0079
            ]
        }
        coordIndex [
            0,1,2,-1,3,4,5,-1,6,7,8,-1,8,9,6,-1,6,9,10,-1,6,10,2,-1,2,10,11,-1,2,11,0,-1,1,0,12,-1,12,0,13,-1,12,13,5,-1,5,13,14,-1,5,14,3,-1,4,15,5,-1,5,15,16,-1,5,16,17,-1,18,19,20,-1,20,19,21,-1,22,23,24,-1,24,23,25,-1,24,25,18,-1,18,25,19,-1,20,21,26,-1,26,21,27,-1,26,27,28,-1,28,27,29,-1,28,29,30,-1,28,30,31,-1,31,30,32,-1,31,32,33,-1,33,32,34,-1,33,34,35,-1,35,34,36,-1,35,36,37,-1,37,36,38,-1,37,38,39,-1,39,38,40,-1,39,40,41,-1,41,40,42,-1,41,42,43,-1,42,44,43,-1,43,44,45,-1,45,44,46,-1,45,46,47,-1,47,46,48,-1,47,48,49,-1,49,48,50,-1,49,50,51,-1,51,50,52,-1,51,52,53,-1,53,52,54,-1,53,54,55,-1,55,54,56,-1,55,56,57,-1,57,56,23,-1,57,23,22,-1,
        ]
    }
}
Shape{
    appearance Appearance {
        material  Material 	{
            diffuseColor 1.0 1.0 0.0
            specularColor 0.5019607843137255 0.5019607843137255 0.0
            ambientIntensity 0.886
            transparency 0.0
            shininess 0.5
        }
    }
    geometry IndexedFaceSet {
        ccw TRUE
        solid FALSE
        coord DEF co Coordinate {
            point [
                0.1969 0.2992 0.0, 0.1969 0.2992 0.0579, 0.2756 0.2992 0.0, 0.2756 0.2992 0.0579
            ]
        }
        coordIndex [
            0,1,2,-1,2,1,3,-1,
        ]
    }
}
Shape{
    appearance Appearance {
        material  Material 	{
            diffuseColor 1.0 1.0 1.0
            specularColor 0.5019607843137255 0.5019607843137255 0.5019607843137255
            ambientIntensity 1.0
            transparency 0.0
            shininess 0.5
        }
    }
    geometry IndexedFaceSet {
        ccw TRUE
        solid FALSE
        coord DEF co Coordinate {
            point [
                0.1969 0.2992 0.0, 0.2756 0.2992 0.0, 0.1969 0.2461 0.0, 0.2756 0.2461 0.0, 0.2751 0.2417 0.0, 0.2736 0.2375 0.0, 0.2713 0.2338 0.0, 0.2644 0.2283 0.0, 0.2603 0.2269 0.0, 0.2559 0.2264 0.0, 0.2165 0.2264 0.0, 0.2682 0.2307 0.0, 0.2122 0.2269 0.0, 0.208 0.2283 0.0, 0.2043 0.2307 0.0, 0.2011 0.2338 0.0, 0.1988 0.2375 0.0, 0.1973 0.2417 0.0, -0.0394 0.2953 0.0579, -0.0394 0.2992 0.0579, -0.1181 0.2953 0.0579, -0.1181 0.2992 0.0579, -0.0394 0.2461 0.0079, -0.0394 0.2461 0.0, -0.0394 0.2953 0.0079, -0.0394 0.2992 0.0, -0.1181 0.2953 0.0079, -0.1181 0.2992 0.0, -0.1181 0.2461 0.0079, -0.1181 0.2461 0.0, -0.1176 0.2417 0.0, -0.1176 0.2417 0.0079, -0.1162 0.2375 0.0, -0.1162 0.2375 0.0079, -0.1138 0.2338 0.0, -0.1138 0.2338 0.0079, -0.1107 0.2307 0.0, -0.1107 0.2307 0.0079, -0.107 0.2283 0.0, -0.107 0.2283 0.0079, -0.1028 0.2269 0.0, -0.1028 0.2269 0.0079, -0.0984 0.2264 0.0, -0.0984 0.2264 0.0079, -0.0591 0.2264 0.0, -0.0591 0.2264 0.0079, -0.0547 0.2269 0.0, -0.0547 0.2269 0.0079, -0.0505 0.2283 0.0, -0.0505 0.2283 0.0079, -0.0468 0.2307 0.0, -0.0468 0.2307 0.0079, -0.0437 0.2338 0.0, -0.0437 0.2338 0.0079, -0.0413 0.2375 0.0, -0.0413 0.2375 0.0079, -0.0399 0.2417 0.0, -0.0399 0.2417 0.0079
            ]
        }
        coordIndex [
            0,1,2,-1,2,1,3,-1,4,5,6,-1,7,8,3,-1,3,8,9,-1,3,9,2,-1,2,9,10,-1,4,6,3,-1,3,6,11,-1,3,11,7,-1,10,12,2,-1,2,12,13,-1,2,13,14,-1,14,15,2,-1,2,15,16,-1,2,16,17,-1,18,19,20,-1,20,19,21,-1,22,23,24,-1,24,23,25,-1,24,25,18,-1,18,25,19,-1,20,21,26,-1,26,21,27,-1,26,27,28,-1,28,27,29,-1,28,29,30,-1,28,30,31,-1,31,30,32,-1,31,32,33,-1,33,32,34,-1,33,34,35,-1,35,34,36,-1,35,36,37,-1,37,36,38,-1,37,38,39,-1,39,38,40,-1,39,40,41,-1,41,40,42,-1,41,42,43,-1,42,44,43,-1,43,44,45,-1,45,44,46,-1,45,46,47,-1,47,46,48,-1,47,48,49,-1,49,48,50,-1,49,50,51,-1,51,50,52,-1,51,52,53,-1,53,52,54,-1,53,54,55,-1,55,54,56,-1,55,56,57,-1,57,56,23,-1,57,23,22,-1,
        ]
    }
}
Shape{
    appearance Appearance {
        material  Material 	{
            diffuseColor 1.0 1.0 0.0
            specularColor 0.5019607843137255 0.5019607843137255 0.0
            ambientIntensity 0.886
            transparency 0.0
            shininess 0.5
        }
    }
    geometry IndexedFaceSet {
        ccw TRUE
        solid FALSE
        coord DEF co Coordinate {
            point [
                -0.1181 0.2992 0.0, -0.1181 0.2992 0.0579, -0.0394 0.2992 0.0, -0.0394 0.2992 0.0579
            ]
        }
        coordIndex [
            0,1,2,-1,2,1,3,-1,
        ]
    }
}
Shape{
    appearance Appearance {
        material  Material 	{
            diffuseColor 1.0 1.0 1.0
            specularColor 0.5019607843137255 0.5019607843137255 0.5019607843137255
            ambientIntensity 1.0
            transparency 0.0
            shininess 0.5
        }
    }
    geometry IndexedFaceSet {
        ccw TRUE
        solid FALSE
        coord DEF co Coordinate {
            point [
                -0.0399 0.2417 0.0, -0.0413 0.2375 0.0, -0.0437 0.2338 0.0, -0.0591 0.2264 0.0, -0.0394 0.2461 0.0, -0.0547 0.2269 0.0, -0.0505 0.2283 0.0, -0.0468 0.2307 0.0, -0.1028 0.2269 0.0, -0.1181 0.2461 0.0, -0.0984 0.2264 0.0, -0.1181 0.2992 0.0, -0.0394 0.2992 0.0, -0.1107 0.2307 0.0, -0.1138 0.2338 0.0, -0.1162 0.2375 0.0, -0.107 0.2283 0.0, -0.1176 0.2417 0.0, -0.1969 0.2953 0.0579, -0.1969 0.2992 0.0579, -0.2756 0.2953 0.0579, -0.2756 0.2992 0.0579, -0.1969 0.2461 0.0079, -0.1969 0.2461 0.0, -0.1969 0.2953 0.0079, -0.1969 0.2992 0.0, -0.2756 0.2953 0.0079, -0.2756 0.2992 0.0, -0.2756 0.2461 0.0079, -0.2756 0.2461 0.0, -0.2751 0.2417 0.0, -0.2751 0.2417 0.0079, -0.2736 0.2375 0.0, -0.2736 0.2375 0.0079, -0.2713 0.2338 0.0, -0.2713 0.2338 0.0079, -0.2682 0.2307 0.0, -0.2682 0.2307 0.0079, -0.2644 0.2283 0.0, -0.2644 0.2283 0.0079, -0.2603 0.2269 0.0, -0.2603 0.2269 0.0079, -0.2559 0.2264 0.0, -0.2559 0.2264 0.0079, -0.2165 0.2264 0.0, -0.2165 0.2264 0.0079, -0.2122 0.2269 0.0, -0.2122 0.2269 0.0079, -0.208 0.2283 0.0, -0.208 0.2283 0.0079, -0.2043 0.2307 0.0, -0.2043 0.2307 0.0079, -0.2011 0.2338 0.0, -0.2011 0.2338 0.0079, -0.1988 0.2375 0.0, -0.1988 0.2375 0.0079, -0.1973 0.2417 0.0, -0.1973 0.2417 0.0079
            ]
        }
        coordIndex [
            0,1,2,-1,3,4,5,-1,5,4,6,-1,0,2,4,-1,4,2,7,-1,4,7,6,-1,8,9,10,-1,10,9,11,-1,10,11,3,-1,3,11,12,-1,3,12,4,-1,13,14,15,-1,8,16,9,-1,9,16,13,-1,9,13,17,-1,17,13,15,-1,18,19,20,-1,20,19,21,-1,22,23,24,-1,24,23,25,-1,24,25,18,-1,18,25,19,-1,20,21,26,-1,26,21,27,-1,26,27,28,-1,28,27,29,-1,28,29,30,-1,28,30,31,-1,31,30,32,-1,31,32,33,-1,33,32,34,-1,33,34,35,-1,35,34,36,-1,35,36,37,-1,37,36,38,-1,37,38,39,-1,39,38,40,-1,39,40,41,-1,41,40,42,-1,41,42,43,-1,42,44,43,-1,43,44,45,-1,45,44,46,-1,45,46,47,-1,47,46,48,-1,47,48,49,-1,49,48,50,-1,49,50,51,-1,51,50,52,-1,51,52,53,-1,53,52,54,-1,53,54,55,-1,55,54,56,-1,55,56,57,-1,57,56,23,-1,57,23,22,-1,
        ]
    }
}
Shape{
    appearance Appearance {
        material  Material 	{
            diffuseColor 1.0 1.0 0.0
            specularColor 0.5019607843137255 0.5019607843137255 0.0
            ambientIntensity 0.886
            transparency 0.0
            shininess 0.5
        }
    }
    geometry IndexedFaceSet {
        ccw TRUE
        solid FALSE
        coord DEF co Coordinate {
            point [
                -0.2756 0.2992 0.0, -0.2756 0.2992 0.0579, -0.1969 0.2992 0.0, -0.1969 0.2992 0.0579
            ]
        }
        coordIndex [
            0,1,2,-1,2,1,3,-1,
        ]
    }
}
Shape{
    appearance Appearance {
        material  Material 	{
            diffuseColor 1.0 1.0 1.0
            specularColor 0.5019607843137255 0.5019607843137255 0.5019607843137255
            ambientIntensity 1.0
            transparency 0.0
            shininess 0.5
        }
    }
    geometry IndexedFaceSet {
        ccw TRUE
        solid FALSE
        coord DEF co Coordinate {
            point [
                -0.1988 0.2375 0.0, -0.2011 0.2338 0.0, -0.2165 0.2264 0.0, -0.2559 0.2264 0.0, -0.2756 0.2461 0.0, -0.2756 0.2992 0.0, -0.1969 0.2992 0.0, -0.1969 0.2461 0.0, -0.1973 0.2417 0.0, -0.2043 0.2307 0.0, -0.208 0.2283 0.0, -0.2122 0.2269 0.0, -0.2603 0.2269 0.0, -0.2644 0.2283 0.0, -0.2682 0.2307 0.0, -0.2713 0.2338 0.0, -0.2736 0.2375 0.0, -0.2751 0.2417 0.0, 0.0394 -0.2953 0.0579, 0.0394 -0.2992 0.0579, 0.1181 -0.2953 0.0579, 0.1181 -0.2992 0.0579, 0.1181 -0.2953 0.0079, 0.1181 -0.2992 0.0, 0.1181 -0.2461 0.0079, 0.1181 -0.2461 0.0, 0.1176 -0.2417 0.0, 0.1176 -0.2417 0.0079, 0.1162 -0.2375 0.0, 0.1162 -0.2375 0.0079, 0.1138 -0.2338 0.0, 0.1138 -0.2338 0.0079, 0.1107 -0.2307 0.0, 0.1107 -0.2307 0.0079, 0.107 -0.2283 0.0, 0.107 -0.2283 0.0079, 0.1028 -0.2269 0.0, 0.1028 -0.2269 0.0079, 0.0984 -0.2264 0.0, 0.0984 -0.2264 0.0079, 0.0591 -0.2264 0.0079, 0.0591 -0.2264 0.0, 0.0547 -0.2269 0.0, 0.0547 -0.2269 0.0079, 0.0505 -0.2283 0.0, 0.0505 -0.2283 0.0079, 0.0468 -0.2307 0.0, 0.0468 -0.2307 0.0079, 0.0437 -0.2338 0.0, 0.0437 -0.2338 0.0079, 0.0413 -0.2375 0.0, 0.0413 -0.2375 0.0079, 0.0399 -0.2417 0.0, 0.0399 -0.2417 0.0079, 0.0394 -0.2461 0.0, 0.0394 -0.2461 0.0079, 0.0394 -0.2953 0.0079, 0.0394 -0.2992 0.0
            ]
        }
        coordIndex [
            0,1,2,-1,2,3,4,-1,5,6,4,-1,4,6,7,-1,4,7,2,-1,2,7,8,-1,2,8,0,-1,1,9,2,-1,2,9,10,-1,2,10,11,-1,12,13,3,-1,3,13,14,-1,3,14,15,-1,15,16,3,-1,3,16,17,-1,3,17,4,-1,18,19,20,-1,20,19,21,-1,20,21,22,-1,22,21,23,-1,22,23,24,-1,24,23,25,-1,24,25,26,-1,24,26,27,-1,27,26,28,-1,27,28,29,-1,29,28,30,-1,29,30,31,-1,31,30,32,-1,31,32,33,-1,33,32,34,-1,33,34,35,-1,35,34,36,-1,35,36,37,-1,37,36,38,-1,37,38,39,-1,39,38,40,-1,40,38,41,-1,40,41,42,-1,40,42,43,-1,43,42,44,-1,43,44,45,-1,45,44,46,-1,45,46,47,-1,47,46,48,-1,47,48,49,-1,49,48,50,-1,49,50,51,-1,51,50,52,-1,51,52,53,-1,53,52,54,-1,53,54,55,-1,55,54,56,-1,56,54,57,-1,56,57,18,-1,18,57,19,-1,
        ]
    }
}
Shape{
    appearance Appearance {
        material  Material 	{
            diffuseColor 1.0 1.0 0.0
            specularColor 0.5019607843137255 0.5019607843137255 0.0
            ambientIntensity 0.886
            transparency 0.0
            shininess 0.5
        }
    }
    geometry IndexedFaceSet {
        ccw TRUE
        solid FALSE
        coord DEF co Coordinate {
            point [
                0.1181 -0.2992 0.0, 0.1181 -0.2992 0.0579, 0.0394 -0.2992 0.0, 0.0394 -0.2992 0.0579
            ]
        }
        coordIndex [
            0,1,2,-1,2,1,3,-1,
        ]
    }
}
Shape{
    appearance Appearance {
        material  Material 	{
            diffuseColor 1.0 1.0 1.0
            specularColor 0.5019607843137255 0.5019607843137255 0.5019607843137255
            ambientIntensity 1.0
            transparency 0.0
            shininess 0.5
        }
    }
    geometry IndexedFaceSet {
        ccw TRUE
        solid FALSE
        coord DEF co Coordinate {
            point [
                0.0547 -0.2269 0.0, 0.0591 -0.2264 0.0, 0.0394 -0.2461 0.0, 0.0413 -0.2375 0.0, 0.0437 -0.2338 0.0, 0.0468 -0.2307 0.0, 0.0399 -0.2417 0.0, 0.0505 -0.2283 0.0, 0.1028 -0.2269 0.0, 0.1181 -0.2461 0.0, 0.0984 -0.2264 0.0, 0.1181 -0.2992 0.0, 0.0394 -0.2992 0.0, 0.107 -0.2283 0.0, 0.1107 -0.2307 0.0, 0.1176 -0.2417 0.0, 0.1138 -0.2338 0.0, 0.1162 -0.2375 0.0, 0.1969 -0.2953 0.0579, 0.1969 -0.2992 0.0579, 0.2756 -0.2953 0.0579, 0.2756 -0.2992 0.0579, 0.2756 -0.2953 0.0079, 0.2756 -0.2992 0.0, 0.2756 -0.2461 0.0079, 0.2756 -0.2461 0.0, 0.2751 -0.2417 0.0, 0.2751 -0.2417 0.0079, 0.2736 -0.2375 0.0, 0.2736 -0.2375 0.0079, 0.2713 -0.2338 0.0, 0.2713 -0.2338 0.0079, 0.2682 -0.2307 0.0, 0.2682 -0.2307 0.0079, 0.2644 -0.2283 0.0, 0.2644 -0.2283 0.0079, 0.2603 -0.2269 0.0, 0.2603 -0.2269 0.0079, 0.2559 -0.2264 0.0, 0.2559 -0.2264 0.0079, 0.2165 -0.2264 0.0079, 0.2165 -0.2264 0.0, 0.2122 -0.2269 0.0, 0.2122 -0.2269 0.0079, 0.208 -0.2283 0.0, 0.208 -0.2283 0.0079, 0.2043 -0.2307 0.0, 0.2043 -0.2307 0.0079, 0.2011 -0.2338 0.0, 0.2011 -0.2338 0.0079, 0.1988 -0.2375 0.0, 0.1988 -0.2375 0.0079, 0.1973 -0.2417 0.0, 0.1973 -0.2417 0.0079, 0.1969 -0.2461 0.0, 0.1969 -0.2461 0.0079, 0.1969 -0.2953 0.0079, 0.1969 -0.2992 0.0
            ]
        }
        coordIndex [
            0,1,2,-1,3,4,5,-1,3,5,6,-1,6,5,2,-1,2,5,7,-1,2,7,0,-1,8,9,10,-1,10,9,11,-1,10,11,1,-1,1,11,12,-1,1,12,2,-1,8,13,9,-1,9,13,14,-1,9,14,15,-1,15,14,16,-1,15,16,17,-1,18,19,20,-1,20,19,21,-1,20,21,22,-1,22,21,23,-1,22,23,24,-1,24,23,25,-1,24,25,26,-1,24,26,27,-1,27,26,28,-1,27,28,29,-1,29,28,30,-1,29,30,31,-1,31,30,32,-1,31,32,33,-1,33,32,34,-1,33,34,35,-1,35,34,36,-1,35,36,37,-1,37,36,38,-1,37,38,39,-1,39,38,40,-1,40,38,41,-1,40,41,42,-1,40,42,43,-1,43,42,44,-1,43,44,45,-1,45,44,46,-1,45,46,47,-1,47,46,48,-1,47,48,49,-1,49,48,50,-1,49,50,51,-1,51,50,52,-1,51,52,53,-1,53,52,54,-1,53,54,55,-1,55,54,56,-1,56,54,57,-1,56,57,18,-1,18,57,19,-1,
        ]
    }
}
Shape{
    appearance Appearance {
        material  Material 	{
            diffuseColor 1.0 1.0 0.0
            specularColor 0.5019607843137255 0.5019607843137255 0.0
            ambientIntensity 0.886
            transparency 0.0
            shininess 0.5
        }
    }
    geometry IndexedFaceSet {
        ccw TRUE
        solid FALSE
        coord DEF co Coordinate {
            point [
                0.2756 -0.2992 0.0, 0.2756 -0.2992 0.0579, 0.1969 -0.2992 0.0, 0.1969 -0.2992 0.0579
            ]
        }
        coordIndex [
            0,1,2,-1,2,1,3,-1,
        ]
    }
}
Shape{
    appearance Appearance {
        material  Material 	{
            diffuseColor 1.0 1.0 1.0
            specularColor 0.5019607843137255 0.5019607843137255 0.5019607843137255
            ambientIntensity 1.0
            transparency 0.0
            shininess 0.5
        }
    }
    geometry IndexedFaceSet {
        ccw TRUE
        solid FALSE
        coord DEF co Coordinate {
            point [
                0.1988 -0.2375 0.0, 0.2011 -0.2338 0.0, 0.2165 -0.2264 0.0, 0.2559 -0.2264 0.0, 0.2756 -0.2461 0.0, 0.2756 -0.2992 0.0, 0.1969 -0.2992 0.0, 0.1969 -0.2461 0.0, 0.1973 -0.2417 0.0, 0.2043 -0.2307 0.0, 0.208 -0.2283 0.0, 0.2122 -0.2269 0.0, 0.2603 -0.2269 0.0, 0.2644 -0.2283 0.0, 0.2682 -0.2307 0.0, 0.2713 -0.2338 0.0, 0.2736 -0.2375 0.0, 0.2751 -0.2417 0.0, -0.1181 -0.2953 0.0579, -0.1181 -0.2992 0.0579, -0.0394 -0.2953 0.0579, -0.0394 -0.2992 0.0579, -0.0394 -0.2953 0.0079, -0.0394 -0.2992 0.0, -0.0394 -0.2461 0.0079, -0.0394 -0.2461 0.0, -0.0399 -0.2417 0.0, -0.0399 -0.2417 0.0079, -0.0413 -0.2375 0.0, -0.0413 -0.2375 0.0079, -0.0437 -0.2338 0.0, -0.0437 -0.2338 0.0079, -0.0468 -0.2307 0.0, -0.0468 -0.2307 0.0079, -0.0505 -0.2283 0.0, -0.0505 -0.2283 0.0079, -0.0547 -0.2269 0.0, -0.0547 -0.2269 0.0079, -0.0591 -0.2264 0.0, -0.0591 -0.2264 0.0079, -0.0984 -0.2264 0.0079, -0.0984 -0.2264 0.0, -0.1028 -0.2269 0.0, -0.1028 -0.2269 0.0079, -0.107 -0.2283 0.0, -0.107 -0.2283 0.0079, -0.1107 -0.2307 0.0, -0.1107 -0.2307 0.0079, -0.1138 -0.2338 0.0, -0.1138 -0.2338 0.0079, -0.1162 -0.2375 0.0, -0.1162 -0.2375 0.0079, -0.1176 -0.2417 0.0, -0.1176 -0.2417 0.0079, -0.1181 -0.2461 0.0, -0.1181 -0.2461 0.0079, -0.1181 -0.2953 0.0079, -0.1181 -0.2992 0.0
            ]
        }
        coordIndex [
            0,1,2,-1,2,3,4,-1,5,6,4,-1,4,6,7,-1,4,7,2,-1,2,7,8,-1,2,8,0,-1,1,9,2,-1,2,9,10,-1,2,10,11,-1,3,12,4,-1,4,12,13,-1,4,13,14,-1,14,15,4,-1,4,15,16,-1,4,16,17,-1,18,19,20,-1,20,19,21,-1,20,21,22,-1,22,21,23,-1,22,23,24,-1,24,23,25,-1,24,25,26,-1,24,26,27,-1,27,26,28,-1,27,28,29,-1,29,28,30,-1,29,30,31,-1,31,30,32,-1,31,32,33,-1,33,32,34,-1,33,34,35,-1,35,34,36,-1,35,36,37,-1,37,36,38,-1,37,38,39,-1,39,38,40,-1,40,38,41,-1,40,41,42,-1,40,42,43,-1,43,42,44,-1,43,44,45,-1,45,44,46,-1,45,46,47,-1,47,46,48,-1,47,48,49,-1,49,48,50,-1,49,50,51,-1,51,50,52,-1,51,52,53,-1,53,52,54,-1,53,54,55,-1,55,54,56,-1,56,54,57,-1,56,57,18,-1,18,57,19,-1,
        ]
    }
}
Shape{
    appearance Appearance {
        material  Material 	{
            diffuseColor 1.0 1.0 0.0
            specularColor 0.5019607843137255 0.5019607843137255 0.0
            ambientIntensity 0.886
            transparency 0.0
            shininess 0.5
        }
    }
    geometry IndexedFaceSet {
        ccw TRUE
        solid FALSE
        coord DEF co Coordinate {
            point [
                -0.0394 -0.2992 0.0, -0.0394 -0.2992 0.0579, -0.1181 -0.2992 0.0, -0.1181 -0.2992 0.0579
            ]
        }
        coordIndex [
            0,1,2,-1,2,1,3,-1,
        ]
    }
}
Shape{
    appearance Appearance {
        material  Material 	{
            diffuseColor 1.0 1.0 1.0
            specularColor 0.5019607843137255 0.5019607843137255 0.5019607843137255
            ambientIntensity 1.0
            transparency 0.0
            shininess 0.5
        }
    }
    geometry IndexedFaceSet {
        ccw TRUE
        solid FALSE
        coord DEF co Coordinate {
            point [
                -0.1181 -0.2992 0.0, -0.1181 -0.2461 0.0, -0.0984 -0.2264 0.0, -0.1176 -0.2417 0.0, -0.0505 -0.2283 0.0, -0.0468 -0.2307 0.0, -0.0394 -0.2461 0.0, -0.1138 -0.2338 0.0, -0.1107 -0.2307 0.0, -0.107 -0.2283 0.0, -0.1162 -0.2375 0.0, -0.1028 -0.2269 0.0, -0.0394 -0.2992 0.0, -0.0591 -0.2264 0.0, -0.0547 -0.2269 0.0, -0.0437 -0.2338 0.0, -0.0413 -0.2375 0.0, -0.0399 -0.2417 0.0, -0.2756 -0.2953 0.0579, -0.2756 -0.2992 0.0579, -0.1969 -0.2953 0.0579, -0.1969 -0.2992 0.0579, -0.1969 -0.2953 0.0079, -0.1969 -0.2992 0.0, -0.1969 -0.2461 0.0079, -0.1969 -0.2461 0.0, -0.1973 -0.2417 0.0, -0.1973 -0.2417 0.0079, -0.1988 -0.2375 0.0, -0.1988 -0.2375 0.0079, -0.2011 -0.2338 0.0, -0.2011 -0.2338 0.0079, -0.2043 -0.2307 0.0, -0.2043 -0.2307 0.0079, -0.208 -0.2283 0.0, -0.208 -0.2283 0.0079, -0.2122 -0.2269 0.0, -0.2122 -0.2269 0.0079, -0.2165 -0.2264 0.0, -0.2165 -0.2264 0.0079, -0.2559 -0.2264 0.0079, -0.2559 -0.2264 0.0, -0.2603 -0.2269 0.0, -0.2603 -0.2269 0.0079, -0.2644 -0.2283 0.0, -0.2644 -0.2283 0.0079, -0.2682 -0.2307 0.0, -0.2682 -0.2307 0.0079, -0.2713 -0.2338 0.0, -0.2713 -0.2338 0.0079, -0.2736 -0.2375 0.0, -0.2736 -0.2375 0.0079, -0.2751 -0.2417 0.0, -0.2751 -0.2417 0.0079, -0.2756 -0.2461 0.0, -0.2756 -0.2461 0.0079, -0.2756 -0.2953 0.0079, -0.2756 -0.2992 0.0
            ]
        }
        coordIndex [
            0,1,2,-1,2,1,3,-1,4,5,6,-1,7,8,9,-1,3,10,2,-1,2,10,7,-1,2,7,11,-1,11,7,9,-1,0,2,12,-1,12,2,13,-1,12,13,6,-1,6,13,14,-1,6,14,4,-1,5,15,6,-1,6,15,16,-1,6,16,17,-1,18,19,20,-1,20,19,21,-1,20,21,22,-1,22,21,23,-1,22,23,24,-1,24,23,25,-1,24,25,26,-1,24,26,27,-1,27,26,28,-1,27,28,29,-1,29,28,30,-1,29,30,31,-1,31,30,32,-1,31,32,33,-1,33,32,34,-1,33,34,35,-1,35,34,36,-1,35,36,37,-1,37,36,38,-1,37,38,39,-1,39,38,40,-1,40,38,41,-1,40,41,42,-1,40,42,43,-1,43,42,44,-1,43,44,45,-1,45,44,46,-1,45,46,47,-1,47,46,48,-1,47,48,49,-1,49,48,50,-1,49,50,51,-1,51,50,52,-1,51,52,53,-1,53,52,54,-1,53,54,55,-1,55,54,56,-1,56,54,57,-1,56,57,18,-1,18,57,19,-1,
        ]
    }
}
Shape{
    appearance Appearance {
        material  Material 	{
            diffuseColor 1.0 1.0 0.0
            specularColor 0.5019607843137255 0.5019607843137255 0.0
            ambientIntensity 0.886
            transparency 0.0
            shininess 0.5
        }
    }
    geometry IndexedFaceSet {
        ccw TRUE
        solid FALSE
        coord DEF co Coordinate {
            point [
                -0.1969 -0.2992 0.0, -0.1969 -0.2992 0.0579, -0.2756 -0.2992 0.0, -0.2756 -0.2992 0.0579
            ]
        }
        coordIndex [
            0,1,2,-1,2,1,3,-1,
        ]
    }
}
Shape{
    appearance Appearance {
        material  Material 	{
            diffuseColor 1.0 1.0 1.0
            specularColor 0.5019607843137255 0.5019607843137255 0.5019607843137255
            ambientIntensity 1.0
            transparency 0.0
            shininess 0.5
        }
    }
    geometry IndexedFaceSet {
        ccw TRUE
        solid FALSE
        coord DEF co Coordinate {
            point [
                -0.2559 -0.2264 0.0, -0.2756 -0.2992 0.0, -0.2756 -0.2461 0.0, -0.208 -0.2283 0.0, -0.2043 -0.2307 0.0, -0.1969 -0.2461 0.0, -0.2682 -0.2307 0.0, -0.2644 -0.2283 0.0, -0.2713 -0.2338 0.0, -0.2736 -0.2375 0.0, -0.2751 -0.2417 0.0, -0.2603 -0.2269 0.0, -0.1969 -0.2992 0.0, -0.2165 -0.2264 0.0, -0.2122 -0.2269 0.0, -0.2011 -0.2338 0.0, -0.1988 -0.2375 0.0, -0.1973 -0.2417 0.0, -0.2362 0.0984 0.0, -0.2362 0.0984 0.0079, -0.2352 0.1072 0.0079, -0.2352 0.1072 0.0, -0.2323 0.1155 0.0079, -0.2323 0.1155 0.0, -0.2276 0.123 0.0079, -0.2276 0.123 0.0, -0.2214 0.1292 0.0079, -0.2214 0.1292 0.0, -0.2139 0.1339 0.0079, -0.2139 0.1339 0.0, -0.2056 0.1368 0.0079, -0.2056 0.1368 0.0, -0.1969 0.1378 0.0079, -0.1969 0.1378 0.0, -0.1513 0.1378 0.0079, 0.0221 0.1378 0.0079, 0.1969 0.1378 0.0079, 0.1969 0.1378 0.0, -0.0282 0.1378 0.0079, -0.0097 0.1378 0.0079, 0.0047 0.1378 0.0079, 0.2056 0.1368 0.0079, 0.2056 0.1368 0.0, 0.2139 0.1339 0.0079, 0.2139 0.1339 0.0, 0.2214 0.1292 0.0079, 0.2214 0.1292 0.0, 0.2276 0.123 0.0079, 0.2276 0.123 0.0, 0.2323 0.1155 0.0079, 0.2323 0.1155 0.0, 0.2352 0.1072 0.0079, 0.2352 0.1072 0.0, 0.2362 0.0984 0.0079, 0.2362 0.0984 0.0, 0.2362 -0.0984 0.0, 0.2362 -0.0984 0.0079, 0.2352 -0.1072 0.0079, 0.2352 -0.1072 0.0, 0.2323 -0.1155 0.0079, 0.2323 -0.1155 0.0, 0.2276 -0.123 0.0079, 0.2276 -0.123 0.0, 0.2214 -0.1292 0.0079, 0.2214 -0.1292 0.0, 0.2139 -0.1339 0.0079, 0.2139 -0.1339 0.0, 0.2056 -0.1368 0.0079, 0.2056 -0.1368 0.0, 0.1969 -0.1378 0.0079, 0.1969 -0.1378 0.0, 0.0221 -0.1378 0.0079, 0.0047 -0.1378 0.0079, -0.1772 -0.1378 0.0, -0.0097 -0.1378 0.0079, -0.0282 -0.1378 0.0079, -0.1513 -0.1378 0.0079, -0.1772 -0.1378 0.0079, -0.2362 -0.0787 0.0, -0.2362 -0.0787 0.0079, -0.2559 -0.0394 0.0, -0.2559 0.0394 0.0, -0.2362 -0.0394 0.0, -0.2362 0.0394 0.0, 0.2362 0.0394 0.0, 0.2559 0.0394 0.0, 0.2559 -0.0394 0.0, 0.2362 -0.0394 0.0, -0.2362 -0.0394 0.0079, -0.2559 -0.0394 0.0079, -0.2362 0.0394 0.0079, -0.2559 0.0394 0.0079, 0.2362 0.0394 0.0079, 0.2559 0.0394 0.0079, 0.2362 -0.0394 0.0079, 0.2559 -0.0394 0.0079
            ]
        }
        coordIndex [
            0,1,2,-1,3,4,5,-1,6,7,8,-1,8,7,9,-1,2,10,0,-1,0,10,9,-1,0,9,11,-1,11,9,7,-1,1,0,12,-1,12,0,13,-1,12,13,5,-1,5,13,14,-1,5,14,3,-1,4,15,5,-1,5,15,16,-1,5,16,17,-1,18,19,20,-1,18,20,21,-1,21,20,22,-1,21,22,23,-1,23,22,24,-1,23,24,25,-1,25,24,26,-1,25,26,27,-1,27,26,28,-1,27,28,29,-1,29,28,30,-1,29,30,31,-1,31,30,32,-1,31,32,33,-1,33,32,34,-1,35,36,37,-1,34,38,33,-1,33,38,39,-1,33,39,37,-1,37,39,40,-1,37,40,35,-1,37,36,41,-1,37,41,42,-1,42,41,43,-1,42,43,44,-1,44,43,45,-1,44,45,46,-1,46,45,47,-1,46,47,48,-1,48,47,49,-1,48,49,50,-1,50,49,51,-1,50,51,52,-1,52,51,53,-1,52,53,54,-1,55,56,57,-1,55,57,58,-1,58,57,59,-1,58,59,60,-1,60,59,61,-1,60,61,62,-1,62,61,63,-1,62,63,64,-1,64,63,65,-1,64,65,66,-1,66,65,67,-1,66,67,68,-1,68,67,69,-1,68,69,70,-1,69,71,70,-1,70,71,72,-1,70,72,73,-1,73,72,74,-1,74,75,73,-1,73,75,76,-1,73,76,77,-1,78,73,79,-1,79,73,77,-1,80,81,82,-1,82,81,83,-1,82,54,78,-1,78,54,84,-1,78,84,73,-1,42,82,37,-1,37,82,83,-1,37,83,33,-1,42,44,82,-1,82,44,46,-1,82,46,48,-1,48,50,82,-1,82,50,52,-1,82,52,54,-1,85,86,84,-1,84,86,87,-1,84,87,73,-1,73,87,55,-1,73,55,70,-1,70,55,58,-1,70,58,60,-1,29,21,27,-1,27,21,23,-1,27,23,25,-1,60,62,64,-1,83,18,33,-1,33,18,21,-1,33,21,31,-1,31,21,29,-1,64,66,60,-1,60,66,68,-1,60,68,70,-1,88,89,82,-1,82,89,80,-1,83,81,90,-1,90,81,91,-1,81,80,91,-1,91,80,89,-1,92,93,84,-1,84,93,85,-1,87,86,94,-1,94,86,95,-1,86,85,95,-1,95,85,93,-1,
        ]
    }
}
Shape{
    appearance Appearance {
        material  Material 	{
            diffuseColor 0.0 0.0 0.0
            specularColor 0.0 0.0 0.0
            ambientIntensity 0.0
            transparency 0.0
            shininess 0.5
        }
    }
    geometry IndexedFaceSet {
        ccw TRUE
        solid FALSE
        coord DEF co Coordinate {
            point [
                -0.039 0.1929 0.0083, -0.0467 0.1732 0.0083, -0.039 0.1929 0.0079, -0.0467 0.1732 0.0079, -0.0438 0.1732 0.0083, -0.0438 0.1732 0.0079, -0.0418 0.1787 0.0083, -0.0418 0.1787 0.0079, -0.0337 0.1787 0.0083, -0.0337 0.1787 0.0079, -0.0318 0.1732 0.0083, -0.0318 0.1732 0.0079, -0.0289 0.1732 0.0083, -0.0289 0.1732 0.0079, -0.0363 0.1929 0.0083, -0.0363 0.1929 0.0079, -0.0343 0.1809 0.0083, -0.0409 0.1809 0.0083, -0.0373 0.1891 0.0083, -0.0375 0.1898 0.0083, -0.0376 0.1905 0.0083, -0.0376 0.1905 0.0083, -0.0378 0.1898 0.0083, -0.0379 0.1891 0.0083, -0.0343 0.1809 0.0079, -0.0409 0.1809 0.0079, -0.0373 0.1891 0.0079, -0.0375 0.1898 0.0079, -0.0376 0.1905 0.0079, -0.0376 0.1905 0.0079, -0.0378 0.1898 0.0079, -0.0379 0.1891 0.0079, -0.017 0.1732 0.0083, -0.0116 0.1732 0.0083, -0.017 0.1732 0.0079, -0.0116 0.1732 0.0079, -0.0116 0.1929 0.0083, -0.0116 0.1929 0.0079, -0.0172 0.1929 0.0083, -0.0172 0.1929 0.0079, -0.0275 0.1833 0.0083, -0.0275 0.1833 0.0079, -0.0273 0.1852 0.0079, -0.0273 0.1852 0.0083, -0.0268 0.1871 0.0079, -0.0268 0.1871 0.0083, -0.0259 0.1888 0.0079, -0.0259 0.1888 0.0083, -0.0245 0.1903 0.0079, -0.0245 0.1903 0.0083, -0.0245 0.1903 0.0079, -0.0245 0.1903 0.0083, -0.0223 0.1918 0.0079, -0.0223 0.1918 0.0083, -0.02 0.1926 0.0079, -0.02 0.1926 0.0083, -0.0194 0.1734 0.0079, -0.0194 0.1734 0.0083, -0.0217 0.1741 0.0079, -0.0217 0.1741 0.0083, -0.0237 0.1753 0.0079, -0.0237 0.1753 0.0083, -0.0253 0.1768 0.0079, -0.0253 0.1768 0.0083, -0.0265 0.1786 0.0079, -0.0265 0.1786 0.0083, -0.0272 0.1807 0.0079, -0.0272 0.1807 0.0083, -0.0235 0.188 0.0083, -0.0226 0.189 0.0083, -0.0211 0.1899 0.0083, -0.0195 0.1905 0.0083, -0.0172 0.1907 0.0083, -0.0143 0.1907 0.0083, -0.0143 0.1754 0.0083, -0.0171 0.1754 0.0083, -0.0191 0.1756 0.0083, -0.0208 0.1761 0.0083, -0.0221 0.1769 0.0083, -0.0232 0.178 0.0083, -0.0241 0.1793 0.0083, -0.0246 0.1812 0.0083, -0.0248 0.1832 0.0083, -0.0247 0.1852 0.0083, -0.0242 0.1868 0.0083, -0.0172 0.1907 0.0079, -0.0143 0.1907 0.0079, -0.0195 0.1905 0.0079, -0.0211 0.1899 0.0079, -0.0226 0.189 0.0079, -0.0235 0.188 0.0079, -0.0242 0.1868 0.0079, -0.0247 0.1852 0.0079, -0.0248 0.1832 0.0079, -0.0246 0.1812 0.0079, -0.0241 0.1793 0.0079, -0.0232 0.178 0.0079, -0.0221 0.1769 0.0079, -0.0208 0.1761 0.0079, -0.0191 0.1756 0.0079, -0.0171 0.1754 0.0079, -0.0143 0.1754 0.0079, -0.0078 0.1754 0.0083, -0.0078 0.1732 0.0083, -0.0078 0.1754 0.0079, -0.0078 0.1732 0.0079, 0.0028 0.1732 0.0083, 0.0028 0.1732 0.0079, 0.0028 0.1929 0.0083, 0.0028 0.1929 0.0079, -0.0073 0.1929 0.0083, -0.0073 0.1929 0.0079, -0.0073 0.1907 0.0083, -0.0073 0.1907 0.0079, 0.0001 0.1907 0.0083, 0.0001 0.1907 0.0079, 0.0001 0.1843 0.0083, 0.0001 0.1843 0.0079, -0.0068 0.1843 0.0083, -0.0068 0.1843 0.0079, -0.0068 0.1821 0.0083, -0.0068 0.1821 0.0079, 0.0001 0.1821 0.0083, 0.0001 0.1821 0.0079, 0.0001 0.1754 0.0083, 0.0001 0.1754 0.0079, 0.0066 0.1764 0.0083, 0.0066 0.1742 0.0083, 0.0066 0.1764 0.0079, 0.0066 0.1742 0.0079, 0.0087 0.1734 0.0083, 0.012 0.173 0.0083, 0.012 0.173 0.0079, 0.0115 0.173 0.0079, 0.0115 0.173 0.0083, 0.0107 0.1731 0.0079, 0.0087 0.1734 0.0079, 0.0213 0.1827 0.0083, 0.0213 0.1827 0.0079, 0.0211 0.1804 0.0079, 0.0211 0.1804 0.0083, 0.0205 0.1783 0.0079, 0.0205 0.1783 0.0083, 0.0194 0.1764 0.0079, 0.0194 0.1764 0.0083, 0.018 0.1749 0.0079, 0.018 0.1749 0.0083, 0.0164 0.1739 0.0079, 0.0164 0.1739 0.0083, 0.0145 0.1732 0.0079, 0.0145 0.1732 0.0083, 0.0132 0.1731 0.0079, 0.0113 0.1931 0.0083, 0.0113 0.1931 0.0079, 0.0132 0.193 0.0083, 0.0127 0.193 0.0079, 0.0132 0.193 0.0079, 0.0154 0.1923 0.0079, 0.0154 0.1923 0.0083, 0.0173 0.1913 0.0079, 0.0173 0.1913 0.0083, 0.0191 0.1896 0.0079, 0.0191 0.1896 0.0083, 0.0202 0.1877 0.0079, 0.0202 0.1877 0.0083, 0.021 0.1855 0.0079, 0.021 0.1855 0.0083, 0.0095 0.193 0.0079, 0.0089 0.193 0.0083, 0.0089 0.193 0.0079, 0.0066 0.1924 0.0083, 0.0066 0.1924 0.0079, 0.0066 0.1897 0.0083, 0.0066 0.1897 0.0079, 0.0112 0.191 0.0083, 0.0112 0.191 0.0079, 0.0088 0.1907 0.0079, 0.0088 0.1907 0.0083, 0.0186 0.1828 0.0083, 0.0186 0.1828 0.0079, 0.0185 0.1844 0.0079, 0.0185 0.1844 0.0083, 0.018 0.1865 0.0079, 0.018 0.1865 0.0083, 0.0172 0.188 0.0079, 0.0172 0.188 0.0083, 0.016 0.1893 0.0079, 0.016 0.1893 0.0083, 0.0147 0.1902 0.0079, 0.0147 0.1902 0.0083, 0.0132 0.1908 0.0079, 0.0132 0.1908 0.0083, 0.0117 0.1751 0.0083, 0.0117 0.1751 0.0079, 0.0135 0.1753 0.0079, 0.0135 0.1753 0.0083, 0.015 0.1759 0.0079, 0.015 0.1759 0.0083, 0.0162 0.1767 0.0079, 0.0162 0.1767 0.0083, 0.0171 0.1777 0.0079, 0.0171 0.1777 0.0083, 0.0179 0.179 0.0079, 0.0179 0.179 0.0083, 0.0184 0.1807 0.0079, 0.0184 0.1807 0.0083, 0.007 0.1762 0.0079, 0.007 0.1762 0.0083, 0.0091 0.1754 0.0079, 0.0091 0.1754 0.0083, 0.023 0.1754 0.0083, 0.023 0.1732 0.0083, 0.023 0.1754 0.0079, 0.023 0.1732 0.0079, 0.033 0.1732 0.0083, 0.033 0.1732 0.0079, 0.033 0.1929 0.0083, 0.033 0.1929 0.0079, 0.0304 0.1929 0.0083, 0.0304 0.1929 0.0079, 0.0304 0.1754 0.0083, 0.0304 0.1754 0.0079
            ]
        }
        coordIndex [
            0,1,2,-1,2,1,3,-1,1,4,3,-1,3,4,5,-1,4,6,5,-1,5,6,7,-1,6,8,7,-1,7,8,9,-1,8,10,9,-1,9,10,11,-1,10,12,11,-1,11,12,13,-1,12,14,13,-1,13,14,15,-1,14,0,15,-1,15,0,2,-1,16,8,17,-1,17,8,6,-1,18,14,16,-1,16,14,12,-1,16,12,8,-1,8,12,10,-1,18,19,14,-1,14,19,20,-1,14,20,0,-1,0,20,21,-1,0,21,22,-1,22,23,0,-1,0,23,17,-1,0,17,1,-1,1,17,6,-1,1,6,4,-1,16,17,24,-1,24,17,25,-1,18,16,26,-1,26,16,24,-1,18,26,27,-1,18,27,19,-1,19,27,28,-1,19,28,20,-1,21,20,29,-1,29,20,28,-1,21,29,30,-1,21,30,22,-1,22,30,31,-1,22,31,23,-1,17,23,25,-1,25,23,31,-1,32,33,34,-1,34,33,35,-1,33,36,35,-1,35,36,37,-1,36,38,37,-1,37,38,39,-1,40,41,42,-1,40,42,43,-1,43,42,44,-1,43,44,45,-1,45,44,46,-1,45,46,47,-1,47,46,48,-1,47,48,49,-1,49,48,50,-1,49,50,51,-1,51,50,52,-1,51,52,53,-1,53,52,54,-1,53,54,55,-1,55,54,39,-1,55,39,38,-1,32,34,56,-1,32,56,57,-1,57,56,58,-1,57,58,59,-1,59,58,60,-1,59,60,61,-1,61,60,62,-1,61,62,63,-1,63,62,64,-1,63,64,65,-1,65,64,66,-1,65,66,67,-1,67,66,41,-1,67,41,40,-1,45,47,68,-1,68,47,49,-1,68,49,69,-1,69,49,51,-1,69,51,70,-1,70,51,53,-1,70,53,71,-1,71,53,55,-1,71,55,72,-1,72,55,38,-1,72,38,73,-1,73,38,36,-1,73,36,74,-1,74,36,33,-1,74,33,75,-1,75,33,32,-1,75,32,76,-1,76,32,57,-1,76,57,77,-1,77,57,59,-1,77,59,78,-1,78,59,61,-1,78,61,79,-1,79,61,63,-1,79,63,80,-1,80,63,65,-1,80,65,81,-1,81,65,67,-1,81,67,82,-1,82,67,40,-1,82,40,83,-1,83,40,43,-1,83,43,84,-1,84,43,45,-1,84,45,68,-1,72,73,85,-1,85,73,86,-1,72,85,87,-1,72,87,71,-1,71,87,88,-1,71,88,70,-1,70,88,89,-1,70,89,69,-1,69,89,90,-1,69,90,68,-1,68,90,91,-1,68,91,84,-1,84,91,92,-1,84,92,83,-1,83,92,93,-1,83,93,82,-1,82,93,94,-1,82,94,81,-1,81,94,95,-1,81,95,80,-1,80,95,96,-1,80,96,79,-1,79,96,97,-1,79,97,78,-1,78,97,98,-1,78,98,77,-1,77,98,99,-1,77,99,76,-1,76,99,100,-1,76,100,75,-1,74,75,101,-1,101,75,100,-1,73,74,86,-1,86,74,101,-1,102,103,104,-1,104,103,105,-1,103,106,105,-1,105,106,107,-1,106,108,107,-1,107,108,109,-1,108,110,109,-1,109,110,111,-1,110,112,111,-1,111,112,113,-1,112,114,113,-1,113,114,115,-1,114,116,115,-1,115,116,117,-1,116,118,117,-1,117,118,119,-1,118,120,119,-1,119,120,121,-1,120,122,121,-1,121,122,123,-1,122,124,123,-1,123,124,125,-1,124,102,125,-1,125,102,104,-1,106,103,102,-1,102,124,106,-1,106,124,122,-1,106,122,108,-1,112,110,114,-1,114,110,108,-1,114,108,116,-1,116,108,122,-1,116,122,118,-1,118,122,120,-1,126,127,128,-1,128,127,129,-1,129,127,130,-1,131,132,133,-1,131,133,134,-1,134,133,135,-1,134,135,130,-1,130,135,136,-1,130,136,129,-1,137,138,139,-1,137,139,140,-1,140,139,141,-1,140,141,142,-1,142,141,143,-1,142,143,144,-1,144,143,145,-1,144,145,146,-1,146,145,147,-1,146,147,148,-1,148,147,149,-1,148,149,150,-1,150,149,131,-1,131,149,151,-1,131,151,132,-1,152,153,154,-1,154,153,155,-1,155,156,154,-1,154,156,157,-1,154,157,158,-1,158,157,159,-1,158,159,160,-1,160,159,161,-1,160,161,162,-1,162,161,163,-1,162,163,164,-1,164,163,165,-1,164,165,166,-1,166,165,138,-1,166,138,137,-1,153,152,167,-1,167,152,168,-1,167,168,169,-1,169,168,170,-1,169,170,171,-1,170,172,171,-1,171,172,173,-1,174,175,176,-1,174,176,177,-1,177,176,173,-1,177,173,172,-1,178,179,180,-1,178,180,181,-1,181,180,182,-1,181,182,183,-1,183,182,184,-1,183,184,185,-1,185,184,186,-1,185,186,187,-1,187,186,188,-1,187,188,189,-1,189,188,190,-1,189,190,191,-1,191,190,175,-1,191,175,174,-1,192,193,194,-1,192,194,195,-1,195,194,196,-1,195,196,197,-1,197,196,198,-1,197,198,199,-1,199,198,200,-1,199,200,201,-1,201,200,202,-1,201,202,203,-1,203,202,204,-1,203,204,205,-1,205,204,179,-1,205,179,178,-1,126,128,206,-1,126,206,207,-1,207,206,208,-1,207,208,209,-1,209,208,193,-1,209,193,192,-1,195,131,192,-1,192,131,134,-1,192,134,209,-1,209,134,130,-1,209,130,207,-1,207,130,127,-1,207,127,126,-1,172,170,177,-1,177,170,168,-1,177,168,174,-1,174,168,152,-1,174,152,191,-1,191,152,154,-1,191,154,189,-1,189,154,158,-1,189,158,187,-1,187,158,160,-1,187,160,185,-1,185,160,162,-1,185,162,183,-1,183,162,164,-1,183,164,181,-1,181,164,166,-1,181,166,178,-1,178,166,137,-1,178,137,205,-1,205,137,140,-1,205,140,203,-1,203,140,142,-1,203,142,201,-1,201,142,144,-1,201,144,199,-1,199,144,146,-1,199,146,197,-1,197,146,148,-1,197,148,195,-1,195,148,150,-1,195,150,131,-1,210,211,212,-1,212,211,213,-1,211,214,213,-1,213,214,215,-1,214,216,215,-1,215,216,217,-1,216,218,217,-1,217,218,219,-1,218,220,219,-1,219,220,221,-1,220,210,221,-1,221,210,212,-1,218,216,220,-1,220,216,214,-1,220,214,210,-1,210,214,211,-1,
        ]
    }
}
Shape{
    appearance Appearance {
        material  Material 	{
            diffuseColor 0.25098039215686274 0.25098039215686274 0.25098039215686274
            specularColor 0.12549019607843137 0.12549019607843137 0.12549019607843137
            ambientIntensity 0.251
            transparency 0.0
            shininess 0.5
        }
    }
    geometry IndexedFaceSet {
        ccw TRUE
        solid FALSE
        coord DEF co Coordinate {
            point [
                -0.0343 0.1809 0.0079, -0.0409 0.1809 0.0079, -0.0373 0.1891 0.0079, -0.0379 0.1891 0.0079, -0.0375 0.1898 0.0079, -0.0378 0.1898 0.0079, -0.0376 0.1905 0.0079, -0.0376 0.1905 0.0079, -0.0143 0.1907 0.0079, -0.0143 0.1754 0.0079, -0.0172 0.1907 0.0079, -0.0171 0.1754 0.0079, -0.0191 0.1756 0.0079, -0.0248 0.1832 0.0079, -0.0247 0.1852 0.0079, -0.0242 0.1868 0.0079, -0.0195 0.1905 0.0079, -0.0208 0.1761 0.0079, -0.0221 0.1769 0.0079, -0.0232 0.178 0.0079, -0.0241 0.1793 0.0079, -0.0246 0.1812 0.0079, -0.0235 0.188 0.0079, -0.0226 0.189 0.0079, -0.0211 0.1899 0.0079
            ]
        }
        coordIndex [
            0,1,2,-1,2,1,3,-1,2,3,4,-1,4,3,5,-1,4,5,6,-1,6,5,7,-1,8,9,10,-1,10,9,11,-1,10,11,12,-1,13,14,10,-1,10,14,15,-1,10,15,16,-1,12,17,10,-1,10,17,18,-1,10,18,19,-1,19,20,10,-1,10,20,21,-1,10,21,13,-1,22,23,15,-1,15,23,24,-1,15,24,16,-1,
        ]
    }
}
Shape{
    appearance Appearance {
        material  Material 	{
            diffuseColor 1.0 1.0 0.0
            specularColor 0.5019607843137255 0.5019607843137255 0.0
            ambientIntensity 0.886
            transparency 0.0
            shininess 0.5
        }
    }
    geometry IndexedFaceSet {
        ccw TRUE
        solid FALSE
        coord DEF co Coordinate {
            point [
                0.2992 0.0385 0.0313, 0.2992 -0.0385 0.0313, 0.2953 0.0385 0.0313, 0.2953 -0.0385 0.0313, 0.2992 0.0385 0.0433, 0.2953 0.0385 0.0433, 0.2992 -0.0385 0.0433, 0.2953 -0.0385 0.0433, -0.2992 -0.0385 0.0313, -0.2992 0.0385 0.0313, -0.2953 -0.0385 0.0313, -0.2953 0.0385 0.0313, -0.2992 -0.0385 0.0433, -0.2953 -0.0385 0.0433, -0.2992 0.0385 0.0433, -0.2953 0.0385 0.0433
            ]
        }
        coordIndex [
            0,1,2,-1,2,1,3,-1,4,0,5,-1,5,0,2,-1,6,4,7,-1,7,4,5,-1,1,6,3,-1,3,6,7,-1,4,6,0,-1,0,6,1,-1,8,9,10,-1,10,9,11,-1,12,8,13,-1,13,8,10,-1,14,12,15,-1,15,12,13,-1,9,14,11,-1,11,14,15,-1,12,14,8,-1,8,14,9,-1,
        ]
    }
}