#VRML V2.0 utf8
# 3D model generated by easyeda2kicad.py (https://github.com/uPesy/easyeda2kicad.py)

Shape{
    appearance Appearance {
        material  Material 	{
            diffuseColor 0.25098039215686274 0.25098039215686274 0.25098039215686274
            specularColor 0.07450980392156863 0.07450980392156863 0.07450980392156863
            ambientIntensity 0.251
            transparency 0.0
            shininess 0.5
        }
    }
    geometry IndexedFaceSet {
        ccw TRUE
        solid FALSE
        coord DEF co Coordinate {
            point [
                -0.0087 0.3937 0.0079, -0.0049 -0.0155 0.0079, -0.0087 -0.02 0.0079, -0.0049 -0.0198 0.0079, 0.0162 -0.0198 0.0079, -0.0039 0.0153 0.0079, 0.011 0.0153 0.0079, 0.011 0.0023 0.0079, 0.0239 -0.0177 0.0079, 0.0239 -0.0134 0.0079, 0.0162 0.0196 0.0079, 0.011 -0.002 0.0079, 0.011 -0.0155 0.0079, -0.003 -0.002 0.0079, -0.003 0.0023 0.0079, 0.0434 -0.0184 0.0079, 0.0566 -0.0198 0.0079, 0.0396 -0.0198 0.0079, 0.0371 -0.02 0.0079, 0.3937 -0.02 0.0079, 0.0767 -0.0198 0.0079, 0.3937 0.3937 0.0079, 0.0767 0.0196 0.0079, 0.0714 0.0196 0.0079, -0.0039 0.0196 0.0079, 0.037 0.0153 0.0079, 0.04 0.0143 0.0079, 0.0246 -0.0138 0.0079, 0.0427 0.0124 0.0079, 0.0451 0.0098 0.0079, 0.0479 -0.0005 0.0079, 0.0475 -0.0048 0.0079, 0.0465 -0.0082 0.0079, 0.0377 -0.0155 0.0079, 0.034 -0.0159 0.0079, 0.0406 -0.0145 0.0079, 0.043 -0.0128 0.0079, 0.0448 -0.0109 0.0079, 0.0288 -0.0154 0.0079, 0.0467 0.0068 0.0079, 0.0477 0.0026 0.0079, 0.0453 0.0163 0.0079, 0.0488 0.0129 0.0079, 0.0511 0.0092 0.0079, 0.0466 -0.0164 0.0079, 0.0495 -0.0133 0.0079, 0.0566 -0.0155 0.0079, 0.0516 -0.0096 0.0079, 0.0714 -0.0155 0.0079, 0.0528 -0.0054 0.0079, 0.0532 -0.0008 0.0079, 0.0526 0.0048 0.0079, 0.0415 0.0185 0.0079, 0.0371 0.0198 0.0079, 0.0332 0.0201 0.0079, 0.0285 0.0197 0.0079, 0.0239 0.0185 0.0079, 0.0239 0.0132 0.0079, 0.0284 0.0151 0.0079, 0.0331 0.0158 0.0079, 0.0347 -0.0203 0.0079, 0.3937 -0.3937 0.0079, 0.0337 -0.0202 0.0079, -0.0087 -0.3937 0.0079, 0.0321 -0.02 0.0079, -0.3937 -0.3937 0.0079, -0.3937 -0.02 0.0079, 0.0281 -0.0195 0.0079, -0.0471 -0.0198 0.0079, -0.0423 -0.009 0.0079, -0.04 -0.0125 0.0079, -0.0769 -0.0198 0.0079, -0.0827 -0.0198 0.0079, -0.0673 0.0196 0.0079, -0.3937 0.3937 0.0079, -0.062 0.0196 0.0079, -0.0368 -0.0156 0.0079, -0.0327 -0.018 0.0079, -0.0281 -0.0194 0.0079, -0.0233 -0.0198 0.0079, -0.0126 -0.0198 0.0079, -0.0126 0.0196 0.0079, -0.0237 0.0196 0.0079, -0.0383 0.0145 0.0079, -0.0411 0.0114 0.0079, -0.0429 0.008 0.0079, -0.0294 0.019 0.0079, -0.034 0.0174 0.0079, -0.0383 0.0145 0.0079, -0.0529 -0.0198 0.0079, -0.0567 -0.0087 0.0079, -0.0729 -0.0087 0.0079, -0.044 0.0041 0.0079, -0.0443 0.0004 0.0079, -0.0437 -0.0049 0.0079, 0.025 0.0401 0.2441, 0.0413 0.0401 0.2441, 0.0509 0.0406 0.2441, -0.0888 0.1731 0.2441, -0.0888 0.3937 0.2441, -0.2404 0.3937 0.2441, 0.3937 0.1731 0.2441, 0.3937 0.3937 0.2441, 0.108 0.3937 0.2441, 0.1639 0.0362 0.2441, 0.1675 0.0327 0.2441, 0.3937 0.0406 0.2441, 0.1248 0.0342 0.2441, 0.108 0.0406 0.2441, 0.1248 0.0195 0.2441, 0.108 -0.0439 0.2441, 0.1595 0.0387 0.2441, 0.121 -0.0387 0.2441, 0.1719 -0.0387 0.2441, 0.3937 -0.0439 0.2441, 0.1719 -0.0252 0.2441, 0.17 0.0284 0.2441, 0.1714 0.0237 0.2441, 0.1719 0.0185 0.2441, 0.129 -0.0128 0.2441, 0.1381 -0.0047 0.2441, 0.1418 -0.002 0.2441, 0.1645 -0.001 0.2441, 0.1554 -0.009 0.2441, 0.121 -0.0328 0.2441, 0.1218 -0.0259 0.2441, 0.124 -0.0201 0.2441, 0.1711 0.0114 0.2441, 0.1693 0.0064 0.2441, 0.1651 -0.0002 0.2441, 0.1484 0.0271 0.2441, 0.1444 0.0276 0.2441, 0.1547 0.0221 0.2441, 0.1553 0.0199 0.2441, 0.1528 -0.0109 0.2441, 0.1451 -0.0171 0.2441, 0.1419 -0.0206 0.2441, 0.1441 0.0276 0.2441, 0.1377 0.0267 0.2441, 0.1314 0.0242 0.2441, 0.151 0.0061 0.2441, 0.1537 0.0099 0.2441, 0.1404 -0.0229 0.2441, 0.14 -0.0242 0.2441, 0.1399 -0.0252 0.2441, 0.1551 0.0134 0.2441, 0.1556 0.0171 0.2441, 0.1509 0.0262 0.2441, 0.1537 0.0238 0.2441, 0.1525 0.0252 0.2441, 0.1336 0.0387 0.2441, 0.1414 0.0406 0.2441, 0.108 0.1731 0.2441, 0.1423 0.0408 0.2441, 0.1472 0.041 0.2441, 0.1525 0.0406 0.2441, 0.0605 0.0151 0.2441, 0.0605 0.0291 0.2441, 0.0509 -0.0439 0.2441, 0.0787 -0.0387 0.2441, 0.0951 -0.0387 0.2441, 0.0626 0.0154 0.2441, 0.072 0.0184 0.2441, 0.0787 0.0224 0.2441, 0.0732 0.034 0.2441, 0.084 0.0406 0.2441, 0.0509 0.1731 0.2441, 0.0951 0.0406 0.2441, 0.0951 0.041 0.2441, 0.0848 0.041 0.2441, -0.2404 0.0406 0.2441, -0.1598 0.034 0.2441, -0.1527 0.038 0.2441, -0.2404 -0.0439 0.2441, -0.1628 -0.0309 0.2441, -0.1689 -0.0241 0.2441, -0.1377 -0.0396 0.2441, -0.1476 -0.0385 0.2441, -0.1554 -0.0358 0.2441, -0.1209 -0.0439 0.2441, -0.1263 -0.0382 0.2441, -0.1319 -0.0393 0.2441, -0.1746 0.0109 0.2441, -0.1716 0.0199 0.2441, -0.1668 0.0274 0.2441, -0.1731 -0.016 0.2441, -0.1753 -0.0072 0.2441, -0.1757 -0.0003 0.2441, -0.0888 -0.0439 0.2441, -0.0966 -0.0439 0.2441, -0.0912 -0.0492 0.2441, -0.1035 -0.0197 0.2441, -0.1096 -0.0283 0.2441, -0.1103 -0.029 0.2441, -0.111 -0.0297 0.2441, -0.1189 0.0372 0.2441, -0.1118 0.0325 0.2441, -0.0888 0.0406 0.2441, -0.1063 0.0264 0.2441, -0.1019 0.0184 0.2441, -0.0995 0.0094 0.2441, -0.0989 0.0013 0.2441, -0.1003 -0.0109 0.2441, -0.1444 0.0404 0.2441, -0.1424 0.0406 0.2441, -0.2404 0.1731 0.2441, -0.1364 0.041 0.2441, -0.1319 0.0406 0.2441, -0.1266 0.04 0.2441, 0.154 0.0404 0.2441, 0.0509 0.3937 0.2441, -0.3051 0.3346 0.2441, -0.3061 0.327 0.2441, -0.3555 0.3555 0.2441, -0.3494 0.3602 0.2441, -0.3789 0.3937 0.2441, -0.3199 0.3602 0.2441, -0.3138 0.3555 0.2441, -0.3602 0.3494 0.2441, -0.3091 0.3494 0.2441, -0.3061 0.3423 0.2441, -0.3091 0.3199 0.2441, -0.3138 0.3138 0.2441, -0.3199 0.3091 0.2441, -0.3602 0.3199 0.2441, -0.3789 0.1731 0.2441, -0.3555 0.3138 0.2441, -0.3494 0.3091 0.2441, -0.3423 0.3632 0.2441, -0.3347 0.3642 0.2441, -0.327 0.3632 0.2441, -0.327 0.3061 0.2441, -0.3347 0.3051 0.2441, -0.3423 0.3061 0.2441, -0.3632 0.327 0.2441, -0.3642 0.3346 0.2441, -0.3632 0.3423 0.2441, -0.0351 0.3937 0.2441, -0.0351 0.1731 0.2441, -0.0351 0.0406 0.2441, 0.0413 -0.0387 0.2441, -0.0131 0.0187 0.2441, -0.0133 0.0187 0.2441, -0.0113 0.0154 0.2441, -0.0126 0.0124 0.2441, -0.0093 0.0123 0.2441, 0.0241 -0.0387 0.2441, -0.0125 0.0061 0.2441, -0.0125 -0.0387 0.2441, -0.0351 -0.0439 0.2441, -0.0288 -0.0387 0.2441, -0.0288 0.0401 0.2441, -0.0105 0.0401 0.2441, 0.0256 -0.0157 0.2441, 0.0259 -0.0157 0.2441, 0.0237 -0.0125 0.2441, 0.0251 -0.0103 0.2441, 0.0217 -0.0094 0.2441, 0.025 -0.0048 0.2441, -0.0696 0.0266 0.2441, -0.0696 0.0065 0.2441, -0.0413 0.0266 0.2441, -0.0432 0.0065 0.2441, -0.0413 0.0401 0.2441, -0.0432 -0.007 0.2441, -0.0691 -0.007 0.2441, -0.0691 -0.0387 0.2441, -0.0864 -0.0387 0.2441, -0.0864 0.0401 0.2441, -0.1159 -0.0492 0.2441, -0.2404 -0.3937 0.2441, -0.0888 -0.3937 0.2441, -0.0351 -0.3937 0.2441, 0.0509 -0.3937 0.2441, 0.108 -0.3937 0.2441, 0.3937 -0.3937 0.2441, -0.3789 0.0406 0.2441, -0.3789 -0.0439 0.2441, -0.3789 -0.3937 0.2441, -0.3937 0.3937 0.2441, -0.3937 0.1731 0.2441, -0.3937 0.0406 0.2441, -0.3937 -0.0439 0.2441, -0.3937 -0.3937 0.2441
            ]
        }
        coordIndex [
            0,1,2,-1,2,1,3,-1,2,3,4,-1,5,6,7,-1,8,4,9,-1,9,4,10,-1,11,12,13,-1,13,12,1,-1,13,1,14,-1,15,16,17,-1,17,16,18,-1,19,20,21,-1,21,20,22,-1,21,22,0,-1,0,22,23,-1,7,14,5,-1,5,14,1,-1,5,1,24,-1,24,1,0,-1,24,0,10,-1,25,26,27,-1,27,26,28,-1,27,28,29,-1,30,31,27,-1,27,31,32,-1,33,34,35,-1,35,34,36,-1,32,37,27,-1,27,37,36,-1,27,36,38,-1,38,36,34,-1,29,39,27,-1,27,39,40,-1,27,40,30,-1,41,0,42,-1,42,0,23,-1,42,23,43,-1,15,44,16,-1,16,44,45,-1,16,45,46,-1,46,45,47,-1,46,47,48,-1,47,49,48,-1,48,49,50,-1,48,50,23,-1,23,50,51,-1,23,51,43,-1,41,52,0,-1,0,52,53,-1,0,53,54,-1,54,55,0,-1,0,55,56,-1,0,56,10,-1,10,56,57,-1,10,57,9,-1,9,57,58,-1,9,58,27,-1,27,58,59,-1,27,59,25,-1,16,20,18,-1,18,20,19,-1,18,19,60,-1,60,19,61,-1,60,61,62,-1,62,61,63,-1,62,63,64,-1,65,66,63,-1,63,66,2,-1,63,2,64,-1,64,2,4,-1,64,4,67,-1,67,4,8,-1,68,69,70,-1,71,2,72,-1,72,2,66,-1,72,66,73,-1,73,66,74,-1,73,74,75,-1,75,74,0,-1,70,76,68,-1,68,76,77,-1,68,77,78,-1,79,80,2,-1,2,80,81,-1,2,81,0,-1,0,81,82,-1,83,84,75,-1,75,84,85,-1,82,86,0,-1,0,86,87,-1,0,87,75,-1,75,87,88,-1,75,88,83,-1,78,79,68,-1,68,79,2,-1,68,2,89,-1,89,2,71,-1,89,71,90,-1,90,71,91,-1,85,92,75,-1,75,92,93,-1,75,93,68,-1,68,93,94,-1,68,94,69,-1,95,96,97,-1,98,99,100,-1,101,102,103,-1,104,105,106,-1,107,108,109,-1,109,108,110,-1,104,106,111,-1,112,110,113,-1,113,110,114,-1,113,114,115,-1,115,114,106,-1,105,116,106,-1,106,116,117,-1,106,117,118,-1,119,120,109,-1,109,120,121,-1,115,122,123,-1,112,124,110,-1,110,124,125,-1,110,125,109,-1,109,125,126,-1,109,126,119,-1,118,127,106,-1,106,127,128,-1,106,128,115,-1,115,128,129,-1,115,129,122,-1,130,131,132,-1,132,131,133,-1,123,134,115,-1,115,134,135,-1,115,135,136,-1,137,138,121,-1,121,138,139,-1,121,139,109,-1,137,121,131,-1,131,121,140,-1,131,140,141,-1,136,142,115,-1,115,142,143,-1,115,143,144,-1,141,145,131,-1,131,145,146,-1,131,146,133,-1,130,132,147,-1,147,132,148,-1,147,148,149,-1,107,150,108,-1,108,150,151,-1,108,151,152,-1,151,153,152,-1,152,153,154,-1,152,154,155,-1,156,157,97,-1,158,110,159,-1,159,110,160,-1,156,158,161,-1,161,158,159,-1,161,159,162,-1,162,159,163,-1,157,164,97,-1,97,164,165,-1,97,165,166,-1,160,110,167,-1,167,110,108,-1,167,108,168,-1,168,108,152,-1,168,152,169,-1,170,171,172,-1,173,174,175,-1,176,177,173,-1,173,177,178,-1,173,178,174,-1,179,180,181,-1,182,183,170,-1,170,183,184,-1,170,184,171,-1,175,185,173,-1,173,185,186,-1,173,186,170,-1,170,186,187,-1,170,187,182,-1,188,189,190,-1,188,191,192,-1,188,192,189,-1,189,192,193,-1,189,193,194,-1,195,196,197,-1,197,196,198,-1,197,198,199,-1,199,200,197,-1,197,200,201,-1,197,201,188,-1,188,201,202,-1,188,202,191,-1,172,203,170,-1,170,203,204,-1,170,204,205,-1,205,204,98,-1,204,206,98,-1,98,206,207,-1,98,207,197,-1,197,207,208,-1,197,208,195,-1,103,152,101,-1,101,152,155,-1,101,155,106,-1,106,155,209,-1,106,209,111,-1,103,210,152,-1,152,210,166,-1,152,166,169,-1,169,166,165,-1,98,100,205,-1,205,100,211,-1,205,211,212,-1,213,214,215,-1,216,217,100,-1,213,215,218,-1,217,219,100,-1,100,219,220,-1,100,220,211,-1,212,221,205,-1,205,221,222,-1,205,222,223,-1,224,225,226,-1,226,225,227,-1,214,228,215,-1,215,228,229,-1,215,229,100,-1,100,229,230,-1,100,230,216,-1,231,232,225,-1,225,232,233,-1,225,233,227,-1,224,234,225,-1,225,234,235,-1,225,235,215,-1,215,235,236,-1,215,236,218,-1,237,99,238,-1,238,99,98,-1,238,98,239,-1,239,98,197,-1,156,97,158,-1,158,97,96,-1,158,96,240,-1,241,242,243,-1,243,242,244,-1,243,244,245,-1,245,244,246,-1,246,244,247,-1,246,247,248,-1,240,246,158,-1,158,246,248,-1,158,248,249,-1,249,248,250,-1,249,250,239,-1,239,250,251,-1,239,251,252,-1,253,254,255,-1,255,254,256,-1,255,256,257,-1,257,256,252,-1,210,237,166,-1,166,237,238,-1,166,238,97,-1,97,238,239,-1,97,239,95,-1,95,239,252,-1,95,252,258,-1,258,252,256,-1,259,260,261,-1,261,260,262,-1,197,263,239,-1,239,263,261,-1,239,261,249,-1,249,261,262,-1,249,262,264,-1,264,265,249,-1,249,265,266,-1,249,266,188,-1,188,266,267,-1,188,267,197,-1,197,267,268,-1,197,268,263,-1,181,176,179,-1,179,176,173,-1,179,173,269,-1,269,173,270,-1,269,270,190,-1,190,270,271,-1,190,271,188,-1,188,271,272,-1,188,272,249,-1,249,272,273,-1,249,273,158,-1,158,273,274,-1,158,274,110,-1,110,274,275,-1,110,275,114,-1,223,231,205,-1,205,231,225,-1,205,225,170,-1,170,225,276,-1,170,276,173,-1,173,276,277,-1,173,277,270,-1,270,277,278,-1,215,279,225,-1,225,279,280,-1,225,280,276,-1,276,280,281,-1,276,281,277,-1,277,281,282,-1,277,282,278,-1,278,282,283,-1,21,102,19,-1,19,102,101,-1,275,61,114,-1,114,61,19,-1,114,19,106,-1,106,19,101,-1,102,21,103,-1,103,21,0,-1,103,0,210,-1,210,0,237,-1,279,215,74,-1,74,215,100,-1,74,100,0,-1,0,100,99,-1,0,99,237,-1,65,283,66,-1,66,283,282,-1,279,74,280,-1,280,74,66,-1,280,66,281,-1,281,66,282,-1,278,283,65,-1,61,275,63,-1,63,275,274,-1,63,274,273,-1,273,272,63,-1,63,272,271,-1,63,271,65,-1,65,271,270,-1,65,270,278,-1,
        ]
    }
}
Shape{
    appearance Appearance {
        material  Material 	{
            diffuseColor 0.45098039215686275 0.43137254901960786 0.4196078431372549
            specularColor 0.03137254901960784 0.03137254901960784 0.03137254901960784
            ambientIntensity 0.6221
            transparency 0.0
            shininess 0.5
        }
    }
    geometry IndexedFaceSet {
        ccw TRUE
        solid FALSE
        coord DEF co Coordinate {
            point [
                -0.1757 -0.0003 0.2402, -0.1757 -0.0003 0.2441, -0.1753 -0.0072 0.2441, -0.1753 -0.0072 0.2402, -0.1731 -0.016 0.2441, -0.1731 -0.016 0.2402, -0.1689 -0.0241 0.2441, -0.1689 -0.0241 0.2402, -0.1628 -0.0309 0.2441, -0.1628 -0.0309 0.2402, -0.1554 -0.0358 0.2441, -0.1554 -0.0358 0.2402, -0.1476 -0.0385 0.2441, -0.1476 -0.0385 0.2402, -0.1377 -0.0396 0.2441, -0.1377 -0.0396 0.2402, -0.1364 0.041 0.2441, -0.1424 0.0406 0.2441, -0.1364 0.041 0.2402, -0.1444 0.0404 0.2402, -0.1444 0.0404 0.2441, -0.1527 0.038 0.2441, -0.1527 0.038 0.2402, -0.1598 0.034 0.2441, -0.1598 0.034 0.2402, -0.1668 0.0274 0.2441, -0.1668 0.0274 0.2402, -0.1716 0.0199 0.2441, -0.1716 0.0199 0.2402, -0.1746 0.0109 0.2441, -0.1746 0.0109 0.2402, -0.0989 0.0013 0.2402, -0.0989 0.0013 0.2441, -0.0995 0.0094 0.2441, -0.0995 0.0094 0.2402, -0.1019 0.0184 0.2441, -0.1019 0.0184 0.2402, -0.1063 0.0264 0.2441, -0.1063 0.0264 0.2402, -0.1118 0.0325 0.2441, -0.1118 0.0325 0.2402, -0.1189 0.0372 0.2441, -0.1189 0.0372 0.2402, -0.1266 0.04 0.2441, -0.1266 0.04 0.2402, -0.1319 0.0406 0.2441, -0.1096 -0.0283 0.2402, -0.1096 -0.0283 0.2441, -0.1035 -0.0197 0.2441, -0.1035 -0.0197 0.2402, -0.1003 -0.0109 0.2441, -0.1003 -0.0109 0.2402, -0.111 -0.0297 0.2402, -0.111 -0.0297 0.2441, -0.1103 -0.029 0.2441, -0.1103 -0.029 0.2402, -0.0966 -0.0439 0.2441, -0.0912 -0.0492 0.2402, -0.0912 -0.0492 0.2441, -0.1159 -0.0492 0.2402, -0.1159 -0.0492 0.2441, -0.1263 -0.0382 0.2402, -0.1263 -0.0382 0.2441, -0.1209 -0.0439 0.2441, -0.1319 -0.0393 0.2441, -0.1319 -0.0393 0.2402, -0.1217 -0.018 0.2402, -0.1246 -0.021 0.2402, -0.125 0.0228 0.2402, -0.1221 0.0199 0.2402, -0.1279 -0.0232 0.2402, -0.132 -0.0246 0.2402, -0.1373 -0.0252 0.2402, -0.1419 -0.0248 0.2402, -0.1165 0.0003 0.2402, -0.1165 -0.0011 0.2402, -0.1177 -0.0095 0.2402, -0.1201 -0.0155 0.2402, -0.1191 0.0148 0.2402, -0.1172 0.0086 0.2402, -0.1459 -0.0234 0.2402, -0.1493 -0.0213 0.2402, -0.1524 -0.0182 0.2402, -0.1553 -0.0134 0.2402, -0.1573 -0.0072 0.2402, -0.1283 0.0249 0.2402, -0.1322 0.0262 0.2402, -0.1369 0.0266 0.2402, -0.1424 0.026 0.2402, -0.1464 0.0245 0.2402, -0.1501 0.0219 0.2402, -0.1535 0.0179 0.2402, -0.156 0.0131 0.2402, -0.1577 0.0061 0.2402, -0.1581 0.0006 0.2402, -0.1581 0.0006 0.2441, -0.1577 0.0061 0.2441, -0.156 0.0131 0.2441, -0.1535 0.0179 0.2441, -0.1501 0.0219 0.2441, -0.1464 0.0245 0.2441, -0.1424 0.026 0.2441, -0.1369 0.0266 0.2441, -0.1322 0.0262 0.2441, -0.1283 0.0249 0.2441, -0.125 0.0228 0.2441, -0.1221 0.0199 0.2441, -0.1191 0.0148 0.2441, -0.1172 0.0086 0.2441, -0.1165 0.0003 0.2441, -0.1165 -0.0011 0.2441, -0.1177 -0.0095 0.2441, -0.1201 -0.0155 0.2441, -0.1217 -0.018 0.2441, -0.1246 -0.021 0.2441, -0.1279 -0.0232 0.2441, -0.132 -0.0246 0.2441, -0.1373 -0.0252 0.2441, -0.1419 -0.0248 0.2441, -0.1459 -0.0234 0.2441, -0.1493 -0.0213 0.2441, -0.1524 -0.0182 0.2441, -0.1553 -0.0134 0.2441, -0.1573 -0.0072 0.2441
            ]
        }
        coordIndex [
            0,1,2,-1,0,2,3,-1,3,2,4,-1,3,4,5,-1,5,4,6,-1,5,6,7,-1,7,6,8,-1,7,8,9,-1,9,8,10,-1,9,10,11,-1,11,10,12,-1,11,12,13,-1,13,12,14,-1,13,14,15,-1,16,17,18,-1,18,17,19,-1,17,20,19,-1,19,20,21,-1,19,21,22,-1,22,21,23,-1,22,23,24,-1,24,23,25,-1,24,25,26,-1,26,25,27,-1,26,27,28,-1,28,27,29,-1,28,29,30,-1,30,29,1,-1,30,1,0,-1,31,32,33,-1,31,33,34,-1,34,33,35,-1,34,35,36,-1,36,35,37,-1,36,37,38,-1,38,37,39,-1,38,39,40,-1,40,39,41,-1,40,41,42,-1,42,41,43,-1,42,43,44,-1,44,43,18,-1,18,43,45,-1,18,45,16,-1,46,47,48,-1,46,48,49,-1,49,48,50,-1,49,50,51,-1,51,50,32,-1,51,32,31,-1,52,53,54,-1,52,54,55,-1,55,54,47,-1,55,47,46,-1,53,52,56,-1,56,52,57,-1,56,57,58,-1,57,59,58,-1,58,59,60,-1,61,62,59,-1,59,62,63,-1,59,63,60,-1,15,14,64,-1,15,64,65,-1,65,64,62,-1,65,62,61,-1,66,67,61,-1,59,57,61,-1,61,57,52,-1,68,69,40,-1,67,70,61,-1,61,70,71,-1,61,71,65,-1,65,71,72,-1,65,72,15,-1,15,72,13,-1,13,72,73,-1,13,73,11,-1,74,75,52,-1,52,75,76,-1,52,76,61,-1,61,76,77,-1,61,77,66,-1,40,69,38,-1,38,69,78,-1,38,78,36,-1,36,78,34,-1,34,78,79,-1,34,79,31,-1,74,52,79,-1,79,52,55,-1,79,55,46,-1,73,80,11,-1,11,80,81,-1,11,81,9,-1,9,81,82,-1,9,82,7,-1,7,82,83,-1,7,83,5,-1,5,83,84,-1,68,40,85,-1,85,40,42,-1,85,42,86,-1,86,42,44,-1,86,44,87,-1,87,44,18,-1,87,18,88,-1,88,18,19,-1,88,19,89,-1,89,19,22,-1,89,22,90,-1,90,22,24,-1,90,24,91,-1,91,24,26,-1,91,26,92,-1,92,26,28,-1,92,28,93,-1,93,28,30,-1,93,30,94,-1,94,30,0,-1,94,0,84,-1,84,0,3,-1,84,3,5,-1,46,49,79,-1,79,49,51,-1,79,51,31,-1,94,95,96,-1,94,96,93,-1,93,96,97,-1,93,97,92,-1,92,97,98,-1,92,98,91,-1,91,98,99,-1,91,99,90,-1,90,99,100,-1,90,100,89,-1,89,100,101,-1,89,101,88,-1,88,101,102,-1,88,102,87,-1,87,102,103,-1,87,103,86,-1,86,103,104,-1,86,104,85,-1,85,104,105,-1,85,105,68,-1,68,105,106,-1,68,106,69,-1,69,106,107,-1,69,107,78,-1,78,107,108,-1,78,108,79,-1,79,108,109,-1,79,109,74,-1,74,109,110,-1,74,110,75,-1,75,110,111,-1,75,111,76,-1,76,111,112,-1,76,112,77,-1,77,112,113,-1,77,113,66,-1,66,113,114,-1,66,114,67,-1,67,114,115,-1,67,115,70,-1,70,115,116,-1,70,116,71,-1,71,116,117,-1,71,117,72,-1,72,117,118,-1,72,118,73,-1,73,118,119,-1,73,119,80,-1,80,119,120,-1,80,120,81,-1,81,120,121,-1,81,121,82,-1,82,121,122,-1,82,122,83,-1,83,122,123,-1,83,123,84,-1,84,123,95,-1,84,95,94,-1,
        ]
    }
}
Shape{
    appearance Appearance {
        material  Material 	{
            diffuseColor 0.25098039215686274 0.25098039215686274 0.25098039215686274
            specularColor 0.07450980392156863 0.07450980392156863 0.07450980392156863
            ambientIntensity 0.251
            transparency 0.0
            shininess 0.5
        }
    }
    geometry IndexedFaceSet {
        ccw TRUE
        solid FALSE
        coord DEF co Coordinate {
            point [
                -0.1419 -0.0248 0.2441, -0.1373 -0.0252 0.2441, -0.1573 -0.0072 0.2441, -0.1581 0.0006 0.2441, -0.1201 -0.0155 0.2441, -0.1177 -0.0095 0.2441, -0.1283 0.0249 0.2441, -0.1322 0.0262 0.2441, -0.1577 0.0061 0.2441, -0.1369 0.0266 0.2441, -0.156 0.0131 0.2441, -0.1279 -0.0232 0.2441, -0.1246 -0.021 0.2441, -0.1217 -0.018 0.2441, -0.1553 -0.0134 0.2441, -0.1524 -0.0182 0.2441, -0.1493 -0.0213 0.2441, -0.132 -0.0246 0.2441, -0.1424 0.026 0.2441, -0.1464 0.0245 0.2441, -0.1459 -0.0234 0.2441, -0.1165 -0.0011 0.2441, -0.1165 0.0003 0.2441, -0.1172 0.0086 0.2441, -0.1191 0.0148 0.2441, -0.1501 0.0219 0.2441, -0.1535 0.0179 0.2441, -0.1221 0.0199 0.2441, -0.125 0.0228 0.2441
            ]
        }
        coordIndex [
            0,1,2,-1,3,4,5,-1,6,7,8,-1,8,7,9,-1,8,9,10,-1,11,12,3,-1,3,12,13,-1,3,13,4,-1,14,15,16,-1,2,1,3,-1,3,1,17,-1,3,17,11,-1,9,18,19,-1,14,16,2,-1,2,16,20,-1,2,20,0,-1,5,21,3,-1,3,21,22,-1,3,22,8,-1,8,22,23,-1,8,23,24,-1,19,25,9,-1,9,25,26,-1,9,26,10,-1,24,27,8,-1,8,27,28,-1,8,28,6,-1,
        ]
    }
}
Shape{
    appearance Appearance {
        material  Material 	{
            diffuseColor 0.45098039215686275 0.43137254901960786 0.4196078431372549
            specularColor 0.03137254901960784 0.03137254901960784 0.03137254901960784
            ambientIntensity 0.6221
            transparency 0.0
            shininess 0.5
        }
    }
    geometry IndexedFaceSet {
        ccw TRUE
        solid FALSE
        coord DEF co Coordinate {
            point [
                -0.0413 0.0401 0.2402, -0.0413 0.0266 0.2402, -0.0413 0.0401 0.2441, -0.0413 0.0266 0.2441, -0.0696 0.0266 0.2402, -0.0696 0.0266 0.2441, -0.0696 0.0065 0.2402, -0.0696 0.0065 0.2441, -0.0432 0.0065 0.2402, -0.0432 0.0065 0.2441, -0.0432 -0.007 0.2402, -0.0432 -0.007 0.2441, -0.0691 -0.007 0.2402, -0.0691 -0.007 0.2441, -0.0691 -0.0387 0.2402, -0.0691 -0.0387 0.2441, -0.0864 -0.0387 0.2402, -0.0864 -0.0387 0.2441, -0.0864 0.0401 0.2402, -0.0864 0.0401 0.2441, 0.0413 0.0401 0.2402, 0.0413 -0.0387 0.2402, 0.0413 0.0401 0.2441, 0.0413 -0.0387 0.2441, 0.0241 -0.0387 0.2402, 0.0241 -0.0387 0.2441, -0.0093 0.0123 0.2402, -0.0093 0.0123 0.2441, -0.0131 0.0187 0.2402, -0.0131 0.0187 0.2441, -0.0113 0.0154 0.2441, -0.0113 0.0154 0.2402, -0.0133 0.0187 0.2402, -0.0133 0.0187 0.2441, -0.0125 0.0061 0.2402, -0.0125 0.0061 0.2441, -0.0126 0.0124 0.2441, -0.0126 0.0124 0.2402, -0.0125 -0.0387 0.2402, -0.0125 -0.0387 0.2441, -0.0288 -0.0387 0.2402, -0.0288 -0.0387 0.2441, -0.0288 0.0401 0.2402, -0.0288 0.0401 0.2441, -0.0105 0.0401 0.2402, -0.0105 0.0401 0.2441, 0.0217 -0.0094 0.2402, 0.0217 -0.0094 0.2441, 0.0256 -0.0157 0.2402, 0.0256 -0.0157 0.2441, 0.0237 -0.0125 0.2441, 0.0237 -0.0125 0.2402, 0.0259 -0.0157 0.2402, 0.0259 -0.0157 0.2441, 0.025 -0.0048 0.2402, 0.025 -0.0048 0.2441, 0.0251 -0.0103 0.2441, 0.0251 -0.0103 0.2402, 0.025 0.0401 0.2402, 0.025 0.0401 0.2441, 0.0848 0.041 0.2402, 0.0951 0.041 0.2402, 0.0848 0.041 0.2441, 0.0951 0.041 0.2441, 0.0951 0.0406 0.2441, 0.0951 -0.0387 0.2402, 0.0951 -0.0387 0.2441, 0.0787 -0.0387 0.2402, 0.0787 -0.0387 0.2441, 0.0787 0.0224 0.2402, 0.0787 0.0224 0.2441, 0.0605 0.0151 0.2402, 0.0605 0.0151 0.2441, 0.0626 0.0154 0.2441, 0.0626 0.0154 0.2402, 0.072 0.0184 0.2441, 0.072 0.0184 0.2402, 0.0605 0.0291 0.2402, 0.0605 0.0291 0.2441, 0.0732 0.034 0.2402, 0.084 0.0406 0.2441, 0.0732 0.034 0.2441, 0.1399 -0.0252 0.2402, 0.1399 -0.0252 0.2441, 0.14 -0.0242 0.2441, 0.14 -0.0242 0.2402, 0.1404 -0.0229 0.2441, 0.1404 -0.0229 0.2402, 0.1419 -0.0206 0.2441, 0.1419 -0.0206 0.2402, 0.1451 -0.0171 0.2441, 0.1451 -0.0171 0.2402, 0.1528 -0.0109 0.2441, 0.1528 -0.0109 0.2402, 0.1719 -0.0252 0.2402, 0.1719 -0.0252 0.2441, 0.1719 -0.0387 0.2402, 0.1719 -0.0387 0.2441, 0.121 -0.0387 0.2402, 0.121 -0.0387 0.2441, 0.121 -0.0328 0.2402, 0.121 -0.0328 0.2441, 0.1418 -0.002 0.2402, 0.1418 -0.002 0.2441, 0.1381 -0.0047 0.2441, 0.1381 -0.0047 0.2402, 0.129 -0.0128 0.2441, 0.129 -0.0128 0.2402, 0.124 -0.0201 0.2441, 0.124 -0.0201 0.2402, 0.1218 -0.0259 0.2441, 0.1218 -0.0259 0.2402, 0.1556 0.0171 0.2402, 0.1556 0.0171 0.2441, 0.1551 0.0134 0.2441, 0.1551 0.0134 0.2402, 0.1537 0.0099 0.2441, 0.1537 0.0099 0.2402, 0.151 0.0061 0.2441, 0.151 0.0061 0.2402, 0.1441 0.0276 0.2402, 0.1441 0.0276 0.2441, 0.1444 0.0276 0.2441, 0.1444 0.0276 0.2402, 0.1484 0.0271 0.2441, 0.1484 0.0271 0.2402, 0.1509 0.0262 0.2441, 0.1509 0.0262 0.2402, 0.1525 0.0252 0.2441, 0.1525 0.0252 0.2402, 0.1537 0.0238 0.2441, 0.1537 0.0238 0.2402, 0.1547 0.0221 0.2441, 0.1547 0.0221 0.2402, 0.1553 0.0199 0.2441, 0.1553 0.0199 0.2402, 0.1248 0.0195 0.2402, 0.1248 0.0195 0.2441, 0.1314 0.0242 0.2441, 0.1314 0.0242 0.2402, 0.1377 0.0267 0.2441, 0.1377 0.0267 0.2402, 0.1248 0.0342 0.2402, 0.1248 0.0342 0.2441, 0.1336 0.0387 0.2402, 0.1472 0.041 0.2402, 0.1472 0.041 0.2441, 0.1423 0.0408 0.2441, 0.1423 0.0408 0.2402, 0.1414 0.0406 0.2441, 0.1336 0.0387 0.2441, 0.1525 0.0406 0.2441, 0.154 0.0404 0.2402, 0.154 0.0404 0.2441, 0.1595 0.0387 0.2402, 0.1595 0.0387 0.2441, 0.1639 0.0362 0.2402, 0.1639 0.0362 0.2441, 0.1675 0.0327 0.2402, 0.1675 0.0327 0.2441, 0.17 0.0284 0.2402, 0.17 0.0284 0.2441, 0.1714 0.0237 0.2402, 0.1714 0.0237 0.2441, 0.1719 0.0185 0.2402, 0.1719 0.0185 0.2441, 0.1554 -0.009 0.2441, 0.1554 -0.009 0.2402, 0.1645 -0.001 0.2441, 0.1645 -0.001 0.2402, 0.1651 -0.0002 0.2441, 0.1651 -0.0002 0.2402, 0.1693 0.0064 0.2441, 0.1693 0.0064 0.2402, 0.1711 0.0114 0.2441, 0.1711 0.0114 0.2402, -0.3051 0.3346 0.2402, -0.3051 0.3346 0.2441, -0.3061 0.3423 0.2402, -0.3061 0.3423 0.2441, -0.3091 0.3494 0.2402, -0.3091 0.3494 0.2441, -0.3138 0.3555 0.2402, -0.3138 0.3555 0.2441, -0.3199 0.3602 0.2402, -0.3199 0.3602 0.2441, -0.327 0.3632 0.2402, -0.327 0.3632 0.2441, -0.3347 0.3642 0.2402, -0.3347 0.3642 0.2441, -0.3423 0.3632 0.2402, -0.3423 0.3632 0.2441, -0.3494 0.3602 0.2402, -0.3494 0.3602 0.2441, -0.3555 0.3555 0.2402, -0.3555 0.3555 0.2441, -0.3602 0.3494 0.2402, -0.3602 0.3494 0.2441, -0.3632 0.3423 0.2402, -0.3632 0.3423 0.2441, -0.3642 0.3346 0.2402, -0.3642 0.3346 0.2441, -0.3632 0.327 0.2402, -0.3632 0.327 0.2441, -0.3602 0.3199 0.2402, -0.3602 0.3199 0.2441, -0.3555 0.3138 0.2402, -0.3555 0.3138 0.2441, -0.3494 0.3091 0.2402, -0.3494 0.3091 0.2441, -0.3423 0.3061 0.2402, -0.3423 0.3061 0.2441, -0.3347 0.3051 0.2402, -0.3347 0.3051 0.2441, -0.327 0.3061 0.2402, -0.327 0.3061 0.2441, -0.3199 0.3091 0.2402, -0.3199 0.3091 0.2441, -0.3138 0.3138 0.2402, -0.3138 0.3138 0.2441, -0.3091 0.3199 0.2402, -0.3091 0.3199 0.2441, -0.3061 0.327 0.2402, -0.3061 0.327 0.2441, -0.3347 0.3346 0.2402
            ]
        }
        coordIndex [
            0,1,2,-1,2,1,3,-1,1,4,3,-1,3,4,5,-1,4,6,5,-1,5,6,7,-1,6,8,7,-1,7,8,9,-1,8,10,9,-1,9,10,11,-1,10,12,11,-1,11,12,13,-1,12,14,13,-1,13,14,15,-1,14,16,15,-1,15,16,17,-1,16,18,17,-1,17,18,19,-1,18,0,19,-1,19,0,2,-1,16,14,18,-1,18,14,12,-1,1,0,4,-1,4,0,18,-1,4,18,6,-1,6,18,12,-1,6,12,8,-1,8,12,10,-1,20,21,22,-1,22,21,23,-1,21,24,23,-1,23,24,25,-1,24,26,25,-1,25,26,27,-1,28,29,30,-1,28,30,31,-1,31,30,27,-1,31,27,26,-1,28,32,29,-1,29,32,33,-1,34,35,36,-1,34,36,37,-1,37,36,33,-1,37,33,32,-1,34,38,35,-1,35,38,39,-1,38,40,39,-1,39,40,41,-1,40,42,41,-1,41,42,43,-1,42,44,43,-1,43,44,45,-1,44,46,45,-1,45,46,47,-1,48,49,50,-1,48,50,51,-1,51,50,47,-1,51,47,46,-1,48,52,49,-1,49,52,53,-1,54,55,56,-1,54,56,57,-1,57,56,53,-1,57,53,52,-1,54,58,55,-1,55,58,59,-1,58,20,59,-1,59,20,22,-1,20,58,21,-1,21,58,54,-1,40,38,42,-1,42,38,34,-1,34,37,42,-1,42,37,32,-1,42,32,44,-1,44,32,28,-1,54,57,21,-1,21,57,52,-1,21,52,24,-1,24,52,48,-1,48,51,24,-1,24,51,46,-1,24,46,26,-1,26,46,44,-1,26,44,31,-1,31,44,28,-1,60,61,62,-1,62,61,63,-1,63,61,64,-1,64,61,65,-1,64,65,66,-1,65,67,66,-1,66,67,68,-1,67,69,68,-1,68,69,70,-1,71,72,73,-1,71,73,74,-1,74,73,75,-1,74,75,76,-1,76,75,70,-1,76,70,69,-1,71,77,72,-1,72,77,78,-1,78,77,79,-1,60,62,80,-1,60,80,79,-1,79,80,81,-1,79,81,78,-1,67,65,69,-1,69,65,61,-1,61,60,69,-1,69,60,79,-1,69,79,76,-1,76,79,77,-1,76,77,74,-1,74,77,71,-1,82,83,84,-1,82,84,85,-1,85,84,86,-1,85,86,87,-1,87,86,88,-1,87,88,89,-1,89,88,90,-1,89,90,91,-1,91,90,92,-1,91,92,93,-1,82,94,83,-1,83,94,95,-1,94,96,95,-1,95,96,97,-1,96,98,97,-1,97,98,99,-1,98,100,99,-1,99,100,101,-1,102,103,104,-1,102,104,105,-1,105,104,106,-1,105,106,107,-1,107,106,108,-1,107,108,109,-1,109,108,110,-1,109,110,111,-1,111,110,101,-1,111,101,100,-1,112,113,114,-1,112,114,115,-1,115,114,116,-1,115,116,117,-1,117,116,118,-1,117,118,119,-1,119,118,103,-1,119,103,102,-1,120,121,122,-1,120,122,123,-1,123,122,124,-1,123,124,125,-1,125,124,126,-1,125,126,127,-1,127,126,128,-1,127,128,129,-1,129,128,130,-1,129,130,131,-1,131,130,132,-1,131,132,133,-1,133,132,134,-1,133,134,135,-1,135,134,113,-1,135,113,112,-1,136,137,138,-1,136,138,139,-1,139,138,140,-1,139,140,141,-1,141,140,121,-1,141,121,120,-1,136,142,137,-1,137,142,143,-1,143,142,144,-1,145,146,147,-1,145,147,148,-1,148,147,149,-1,148,149,144,-1,144,149,150,-1,144,150,143,-1,146,145,151,-1,151,145,152,-1,151,152,153,-1,153,152,154,-1,153,154,155,-1,155,154,156,-1,155,156,157,-1,157,156,158,-1,157,158,159,-1,159,158,160,-1,159,160,161,-1,161,160,162,-1,161,162,163,-1,163,162,164,-1,163,164,165,-1,93,92,166,-1,93,166,167,-1,167,166,168,-1,167,168,169,-1,169,168,170,-1,169,170,171,-1,171,170,172,-1,171,172,173,-1,173,172,174,-1,173,174,175,-1,175,174,165,-1,175,165,164,-1,96,94,98,-1,98,94,82,-1,117,173,115,-1,115,173,175,-1,115,175,112,-1,112,175,164,-1,112,164,135,-1,135,164,162,-1,135,162,133,-1,133,162,160,-1,133,160,131,-1,131,160,158,-1,131,158,129,-1,129,158,156,-1,129,156,127,-1,127,156,154,-1,127,154,125,-1,125,154,152,-1,125,152,123,-1,123,152,145,-1,123,145,120,-1,120,145,148,-1,120,148,141,-1,141,148,144,-1,141,144,139,-1,139,144,142,-1,139,142,136,-1,107,109,85,-1,85,109,111,-1,85,111,82,-1,82,111,100,-1,82,100,98,-1,102,167,119,-1,119,167,169,-1,119,169,117,-1,117,169,171,-1,117,171,173,-1,85,87,107,-1,107,87,89,-1,107,89,105,-1,105,89,91,-1,105,91,102,-1,102,91,93,-1,102,93,167,-1,176,177,178,-1,178,177,179,-1,178,179,180,-1,180,179,181,-1,180,181,182,-1,182,181,183,-1,182,183,184,-1,184,183,185,-1,184,185,186,-1,186,185,187,-1,186,187,188,-1,188,187,189,-1,188,189,190,-1,190,189,191,-1,190,191,192,-1,192,191,193,-1,192,193,194,-1,194,193,195,-1,194,195,196,-1,196,195,197,-1,196,197,198,-1,198,197,199,-1,198,199,200,-1,200,199,201,-1,200,201,202,-1,202,201,203,-1,202,203,204,-1,204,203,205,-1,204,205,206,-1,206,205,207,-1,206,207,208,-1,208,207,209,-1,208,209,210,-1,210,209,211,-1,210,211,212,-1,212,211,213,-1,212,213,214,-1,214,213,215,-1,214,215,216,-1,216,215,217,-1,216,217,218,-1,218,217,219,-1,218,219,220,-1,220,219,221,-1,220,221,222,-1,222,221,223,-1,222,223,176,-1,176,223,177,-1,220,222,224,-1,224,222,176,-1,224,176,178,-1,214,216,224,-1,224,216,218,-1,224,218,220,-1,208,210,224,-1,224,210,212,-1,224,212,214,-1,202,204,224,-1,224,204,206,-1,224,206,208,-1,196,198,224,-1,224,198,200,-1,224,200,202,-1,190,192,224,-1,224,192,194,-1,224,194,196,-1,184,186,224,-1,224,186,188,-1,224,188,190,-1,178,180,224,-1,224,180,182,-1,224,182,184,-1,
        ]
    }
}
Shape{
    appearance Appearance {
        material  Material 	{
            diffuseColor 1.0 1.0 1.0
            specularColor 0.8784313725490196 0.8784313725490196 0.8784313725490196
            ambientIntensity 1.0
            transparency 0.0
            shininess 0.5
        }
    }
    geometry IndexedFaceSet {
        ccw TRUE
        solid FALSE
        coord DEF co Coordinate {
            point [
                -0.0673 0.0196 0.0118, -0.0827 -0.0198 0.0118, -0.0673 0.0196 0.0079, -0.0827 -0.0198 0.0079, -0.0769 -0.0198 0.0118, -0.0769 -0.0198 0.0079, -0.0729 -0.0087 0.0118, -0.0729 -0.0087 0.0079, -0.0567 -0.0087 0.0118, -0.0567 -0.0087 0.0079, -0.0529 -0.0198 0.0118, -0.0529 -0.0198 0.0079, -0.0471 -0.0198 0.0118, -0.0471 -0.0198 0.0079, -0.062 0.0196 0.0118, -0.062 0.0196 0.0079, -0.058 -0.0044 0.0118, -0.0712 -0.0044 0.0118, -0.0639 0.012 0.0118, -0.0642 0.0134 0.0118, -0.0645 0.0148 0.0118, -0.0646 0.0148 0.0118, -0.0649 0.0134 0.0118, -0.0652 0.012 0.0118, -0.058 -0.0044 0.0079, -0.0712 -0.0044 0.0079, -0.0639 0.012 0.0079, -0.0642 0.0134 0.0079, -0.0645 0.0148 0.0079, -0.0646 0.0148 0.0079, -0.0649 0.0134 0.0079, -0.0652 0.012 0.0079, -0.0233 -0.0198 0.0118, -0.0126 -0.0198 0.0118, -0.0233 -0.0198 0.0079, -0.0126 -0.0198 0.0079, -0.0126 0.0196 0.0118, -0.0126 0.0196 0.0079, -0.0237 0.0196 0.0118, -0.0237 0.0196 0.0079, -0.0443 0.0004 0.0118, -0.0443 0.0004 0.0079, -0.044 0.0041 0.0079, -0.044 0.0041 0.0118, -0.0429 0.008 0.0079, -0.0429 0.008 0.0118, -0.0411 0.0114 0.0079, -0.0411 0.0114 0.0118, -0.0383 0.0145 0.0079, -0.0383 0.0145 0.0118, -0.0383 0.0145 0.0079, -0.0383 0.0145 0.0118, -0.034 0.0174 0.0079, -0.034 0.0174 0.0118, -0.0294 0.019 0.0079, -0.0294 0.019 0.0118, -0.0281 -0.0194 0.0079, -0.0281 -0.0194 0.0118, -0.0327 -0.018 0.0079, -0.0327 -0.018 0.0118, -0.0368 -0.0156 0.0079, -0.0368 -0.0156 0.0118, -0.04 -0.0125 0.0079, -0.04 -0.0125 0.0118, -0.0423 -0.009 0.0079, -0.0423 -0.009 0.0118, -0.0437 -0.0049 0.0079, -0.0437 -0.0049 0.0118, -0.0364 0.0098 0.0118, -0.0344 0.0118 0.0118, -0.0316 0.0136 0.0118, -0.0283 0.0148 0.0118, -0.0237 0.0153 0.0118, -0.0179 0.0153 0.0118, -0.0179 -0.0155 0.0118, -0.0234 -0.0155 0.0118, -0.0276 -0.0151 0.0118, -0.0309 -0.014 0.0118, -0.0336 -0.0124 0.0118, -0.0358 -0.0103 0.0118, -0.0375 -0.0075 0.0118, -0.0386 -0.0038 0.0118, -0.039 0.0003 0.0118, -0.0386 0.0042 0.0118, -0.0377 0.0073 0.0118, -0.0237 0.0153 0.0079, -0.0179 0.0153 0.0079, -0.0283 0.0148 0.0079, -0.0316 0.0136 0.0079, -0.0344 0.0118 0.0079, -0.0364 0.0098 0.0079, -0.0377 0.0073 0.0079, -0.0386 0.0042 0.0079, -0.039 0.0003 0.0079, -0.0386 -0.0038 0.0079, -0.0375 -0.0075 0.0079, -0.0358 -0.0103 0.0079, -0.0336 -0.0124 0.0079, -0.0309 -0.014 0.0079, -0.0276 -0.0151 0.0079, -0.0234 -0.0155 0.0079, -0.0179 -0.0155 0.0079, -0.0049 -0.0155 0.0118, -0.0049 -0.0198 0.0118, -0.0049 -0.0155 0.0079, -0.0049 -0.0198 0.0079, 0.0162 -0.0198 0.0118, 0.0162 -0.0198 0.0079, 0.0162 0.0196 0.0118, 0.0162 0.0196 0.0079, -0.0039 0.0196 0.0118, -0.0039 0.0196 0.0079, -0.0039 0.0153 0.0118, -0.0039 0.0153 0.0079, 0.011 0.0153 0.0118, 0.011 0.0153 0.0079, 0.011 0.0023 0.0118, 0.011 0.0023 0.0079, -0.003 0.0023 0.0118, -0.003 0.0023 0.0079, -0.003 -0.002 0.0118, -0.003 -0.002 0.0079, 0.011 -0.002 0.0118, 0.011 -0.002 0.0079, 0.011 -0.0155 0.0118, 0.011 -0.0155 0.0079, 0.0239 -0.0134 0.0118, 0.0239 -0.0177 0.0118, 0.0239 -0.0134 0.0079, 0.0239 -0.0177 0.0079, 0.0281 -0.0195 0.0118, 0.0347 -0.0203 0.0118, 0.0347 -0.0203 0.0079, 0.0337 -0.0202 0.0079, 0.0337 -0.0202 0.0118, 0.0321 -0.02 0.0079, 0.0281 -0.0195 0.0079, 0.0532 -0.0008 0.0118, 0.0532 -0.0008 0.0079, 0.0528 -0.0054 0.0079, 0.0528 -0.0054 0.0118, 0.0516 -0.0096 0.0079, 0.0516 -0.0096 0.0118, 0.0495 -0.0133 0.0079, 0.0495 -0.0133 0.0118, 0.0466 -0.0164 0.0079, 0.0466 -0.0164 0.0118, 0.0434 -0.0184 0.0079, 0.0434 -0.0184 0.0118, 0.0396 -0.0198 0.0079, 0.0396 -0.0198 0.0118, 0.0371 -0.02 0.0079, 0.0332 0.0201 0.0118, 0.0332 0.0201 0.0079, 0.0371 0.0198 0.0079, 0.0371 0.0198 0.0118, 0.0415 0.0185 0.0079, 0.0415 0.0185 0.0118, 0.0453 0.0163 0.0079, 0.0453 0.0163 0.0118, 0.0488 0.0129 0.0079, 0.0488 0.0129 0.0118, 0.0511 0.0092 0.0079, 0.0511 0.0092 0.0118, 0.0526 0.0048 0.0079, 0.0526 0.0048 0.0118, 0.0239 0.0185 0.0118, 0.0239 0.0185 0.0079, 0.0285 0.0197 0.0079, 0.0285 0.0197 0.0118, 0.0239 0.0132 0.0118, 0.0239 0.0132 0.0079, 0.0331 0.0158 0.0118, 0.0331 0.0158 0.0079, 0.0284 0.0151 0.0079, 0.0284 0.0151 0.0118, 0.0479 -0.0005 0.0118, 0.0479 -0.0005 0.0079, 0.0477 0.0026 0.0079, 0.0477 0.0026 0.0118, 0.0467 0.0068 0.0079, 0.0467 0.0068 0.0118, 0.0451 0.0098 0.0079, 0.0451 0.0098 0.0118, 0.0427 0.0124 0.0079, 0.0427 0.0124 0.0118, 0.04 0.0143 0.0079, 0.04 0.0143 0.0118, 0.037 0.0153 0.0079, 0.037 0.0153 0.0118, 0.034 -0.0159 0.0118, 0.034 -0.0159 0.0079, 0.0377 -0.0155 0.0079, 0.0377 -0.0155 0.0118, 0.0406 -0.0145 0.0079, 0.0406 -0.0145 0.0118, 0.043 -0.0128 0.0079, 0.043 -0.0128 0.0118, 0.0448 -0.0109 0.0079, 0.0448 -0.0109 0.0118, 0.0465 -0.0082 0.0079, 0.0465 -0.0082 0.0118, 0.0475 -0.0048 0.0079, 0.0475 -0.0048 0.0118, 0.0246 -0.0138 0.0079, 0.0246 -0.0138 0.0118, 0.0288 -0.0154 0.0079, 0.0288 -0.0154 0.0118, 0.0566 -0.0155 0.0118, 0.0566 -0.0198 0.0118, 0.0566 -0.0155 0.0079, 0.0566 -0.0198 0.0079, 0.0767 -0.0198 0.0118, 0.0767 -0.0198 0.0079, 0.0767 0.0196 0.0118, 0.0767 0.0196 0.0079, 0.0714 0.0196 0.0118, 0.0714 0.0196 0.0079, 0.0714 -0.0155 0.0118, 0.0714 -0.0155 0.0079
            ]
        }
        coordIndex [
            0,1,2,-1,2,1,3,-1,1,4,3,-1,3,4,5,-1,4,6,5,-1,5,6,7,-1,6,8,7,-1,7,8,9,-1,8,10,9,-1,9,10,11,-1,10,12,11,-1,11,12,13,-1,12,14,13,-1,13,14,15,-1,14,0,15,-1,15,0,2,-1,16,8,17,-1,17,8,6,-1,18,14,16,-1,16,14,12,-1,16,12,8,-1,8,12,10,-1,18,19,14,-1,14,19,20,-1,14,20,0,-1,0,20,21,-1,0,21,22,-1,22,23,0,-1,0,23,17,-1,0,17,1,-1,1,17,6,-1,1,6,4,-1,16,17,24,-1,24,17,25,-1,18,16,26,-1,26,16,24,-1,18,26,27,-1,18,27,19,-1,19,27,28,-1,19,28,20,-1,21,20,29,-1,29,20,28,-1,21,29,30,-1,21,30,22,-1,22,30,31,-1,22,31,23,-1,17,23,25,-1,25,23,31,-1,32,33,34,-1,34,33,35,-1,33,36,35,-1,35,36,37,-1,36,38,37,-1,37,38,39,-1,40,41,42,-1,40,42,43,-1,43,42,44,-1,43,44,45,-1,45,44,46,-1,45,46,47,-1,47,46,48,-1,47,48,49,-1,49,48,50,-1,49,50,51,-1,51,50,52,-1,51,52,53,-1,53,52,54,-1,53,54,55,-1,55,54,39,-1,55,39,38,-1,32,34,56,-1,32,56,57,-1,57,56,58,-1,57,58,59,-1,59,58,60,-1,59,60,61,-1,61,60,62,-1,61,62,63,-1,63,62,64,-1,63,64,65,-1,65,64,66,-1,65,66,67,-1,67,66,41,-1,67,41,40,-1,45,47,68,-1,68,47,49,-1,68,49,69,-1,69,49,51,-1,69,51,70,-1,70,51,53,-1,70,53,71,-1,71,53,55,-1,71,55,72,-1,72,55,38,-1,72,38,73,-1,73,38,36,-1,73,36,74,-1,74,36,33,-1,74,33,75,-1,75,33,32,-1,75,32,76,-1,76,32,57,-1,76,57,77,-1,77,57,59,-1,77,59,78,-1,78,59,61,-1,78,61,79,-1,79,61,63,-1,79,63,80,-1,80,63,65,-1,80,65,81,-1,81,65,67,-1,81,67,82,-1,82,67,40,-1,82,40,83,-1,83,40,43,-1,83,43,84,-1,84,43,45,-1,84,45,68,-1,72,73,85,-1,85,73,86,-1,72,85,87,-1,72,87,71,-1,71,87,88,-1,71,88,70,-1,70,88,89,-1,70,89,69,-1,69,89,90,-1,69,90,68,-1,68,90,91,-1,68,91,84,-1,84,91,92,-1,84,92,83,-1,83,92,93,-1,83,93,82,-1,82,93,94,-1,82,94,81,-1,81,94,95,-1,81,95,80,-1,80,95,96,-1,80,96,79,-1,79,96,97,-1,79,97,78,-1,78,97,98,-1,78,98,77,-1,77,98,99,-1,77,99,76,-1,76,99,100,-1,76,100,75,-1,74,75,101,-1,101,75,100,-1,73,74,86,-1,86,74,101,-1,102,103,104,-1,104,103,105,-1,103,106,105,-1,105,106,107,-1,106,108,107,-1,107,108,109,-1,108,110,109,-1,109,110,111,-1,110,112,111,-1,111,112,113,-1,112,114,113,-1,113,114,115,-1,114,116,115,-1,115,116,117,-1,116,118,117,-1,117,118,119,-1,118,120,119,-1,119,120,121,-1,120,122,121,-1,121,122,123,-1,122,124,123,-1,123,124,125,-1,124,102,125,-1,125,102,104,-1,106,103,102,-1,102,124,106,-1,106,124,122,-1,106,122,108,-1,112,110,114,-1,114,110,108,-1,114,108,116,-1,116,108,122,-1,116,122,118,-1,118,122,120,-1,126,127,128,-1,128,127,129,-1,129,127,130,-1,131,132,133,-1,131,133,134,-1,134,133,135,-1,134,135,130,-1,130,135,136,-1,130,136,129,-1,137,138,139,-1,137,139,140,-1,140,139,141,-1,140,141,142,-1,142,141,143,-1,142,143,144,-1,144,143,145,-1,144,145,146,-1,146,145,147,-1,146,147,148,-1,148,147,149,-1,148,149,150,-1,150,149,131,-1,131,149,151,-1,131,151,132,-1,152,153,154,-1,152,154,155,-1,155,154,156,-1,155,156,157,-1,157,156,158,-1,157,158,159,-1,159,158,160,-1,159,160,161,-1,161,160,162,-1,161,162,163,-1,163,162,164,-1,163,164,165,-1,165,164,138,-1,165,138,137,-1,166,167,168,-1,166,168,169,-1,169,168,153,-1,169,153,152,-1,166,170,167,-1,167,170,171,-1,172,173,174,-1,172,174,175,-1,175,174,171,-1,175,171,170,-1,176,177,178,-1,176,178,179,-1,179,178,180,-1,179,180,181,-1,181,180,182,-1,181,182,183,-1,183,182,184,-1,183,184,185,-1,185,184,186,-1,185,186,187,-1,187,186,188,-1,187,188,189,-1,189,188,173,-1,189,173,172,-1,190,191,192,-1,190,192,193,-1,193,192,194,-1,193,194,195,-1,195,194,196,-1,195,196,197,-1,197,196,198,-1,197,198,199,-1,199,198,200,-1,199,200,201,-1,201,200,202,-1,201,202,203,-1,203,202,177,-1,203,177,176,-1,126,128,204,-1,126,204,205,-1,205,204,206,-1,205,206,207,-1,207,206,191,-1,207,191,190,-1,193,131,190,-1,190,131,134,-1,190,134,207,-1,207,134,130,-1,207,130,205,-1,205,130,127,-1,205,127,126,-1,170,166,175,-1,175,166,169,-1,175,169,172,-1,172,169,152,-1,172,152,189,-1,189,152,155,-1,189,155,187,-1,187,155,157,-1,187,157,185,-1,185,157,159,-1,185,159,183,-1,183,159,161,-1,183,161,181,-1,181,161,163,-1,181,163,179,-1,179,163,165,-1,179,165,176,-1,176,165,137,-1,176,137,203,-1,203,137,140,-1,203,140,201,-1,201,140,142,-1,201,142,199,-1,199,142,144,-1,199,144,197,-1,197,144,146,-1,197,146,195,-1,195,146,148,-1,195,148,193,-1,193,148,150,-1,193,150,131,-1,208,209,210,-1,210,209,211,-1,209,212,211,-1,211,212,213,-1,212,214,213,-1,213,214,215,-1,214,216,215,-1,215,216,217,-1,216,218,217,-1,217,218,219,-1,218,208,219,-1,219,208,210,-1,216,214,218,-1,218,214,212,-1,218,212,208,-1,208,212,209,-1,
        ]
    }
}
Shape{
    appearance Appearance {
        material  Material 	{
            diffuseColor 0.25098039215686274 0.25098039215686274 0.25098039215686274
            specularColor 0.07450980392156863 0.07450980392156863 0.07450980392156863
            ambientIntensity 0.251
            transparency 0.0
            shininess 0.5
        }
    }
    geometry IndexedFaceSet {
        ccw TRUE
        solid FALSE
        coord DEF co Coordinate {
            point [
                -0.058 -0.0044 0.0079, -0.0712 -0.0044 0.0079, -0.0639 0.012 0.0079, -0.0652 0.012 0.0079, -0.0642 0.0134 0.0079, -0.0649 0.0134 0.0079, -0.0645 0.0148 0.0079, -0.0646 0.0148 0.0079, -0.0179 0.0153 0.0079, -0.0179 -0.0155 0.0079, -0.0237 0.0153 0.0079, -0.0234 -0.0155 0.0079, -0.0276 -0.0151 0.0079, -0.039 0.0003 0.0079, -0.0386 0.0042 0.0079, -0.0377 0.0073 0.0079, -0.0283 0.0148 0.0079, -0.0309 -0.014 0.0079, -0.0336 -0.0124 0.0079, -0.0358 -0.0103 0.0079, -0.0375 -0.0075 0.0079, -0.0386 -0.0038 0.0079, -0.0364 0.0098 0.0079, -0.0344 0.0118 0.0079, -0.0316 0.0136 0.0079
            ]
        }
        coordIndex [
            0,1,2,-1,2,1,3,-1,2,3,4,-1,4,3,5,-1,4,5,6,-1,6,5,7,-1,8,9,10,-1,10,9,11,-1,10,11,12,-1,13,14,10,-1,10,14,15,-1,10,15,16,-1,12,17,10,-1,10,17,18,-1,10,18,19,-1,19,20,10,-1,10,20,21,-1,10,21,13,-1,22,23,15,-1,15,23,24,-1,15,24,16,-1,
        ]
    }
}
Shape{
    appearance Appearance {
        material  Material 	{
            diffuseColor 0.7686274509803922 0.7686274509803922 0.7686274509803922
            specularColor 0.615686274509804 0.615686274509804 0.615686274509804
            ambientIntensity 0.7686
            transparency 0.0
            shininess 0.5
        }
    }
    geometry IndexedFaceSet {
        ccw TRUE
        solid FALSE
        coord DEF co Coordinate {
            point [
                0.3189 -0.1575 0.0787, 0.3976 -0.1575 0.0787, 0.3189 -0.1575 0.0, 0.3976 -0.1575 0.0, 0.3133 -0.1579 0.0, 0.3133 -0.1579 0.0787, 0.3078 -0.1591 0.0, 0.3078 -0.1591 0.0787, 0.3025 -0.161 0.0, 0.3025 -0.161 0.0787, 0.2976 -0.1637 0.0, 0.2976 -0.1637 0.0787, 0.2931 -0.1671 0.0, 0.2931 -0.1671 0.0787, 0.2891 -0.1711 0.0, 0.2891 -0.1711 0.0787, 0.2858 -0.1756 0.0, 0.2858 -0.1756 0.0787, 0.2831 -0.1805 0.0, 0.2831 -0.1805 0.0787, 0.2811 -0.1858 0.0, 0.2811 -0.1858 0.0787, 0.2799 -0.1912 0.0, 0.2799 -0.1912 0.0787, 0.2795 -0.1969 0.0, 0.2795 -0.1969 0.0787, 0.2799 -0.2025 0.0, 0.2799 -0.2025 0.0787, 0.2811 -0.2079 0.0, 0.2811 -0.2079 0.0787, 0.2831 -0.2132 0.0, 0.2831 -0.2132 0.0787, 0.2858 -0.2181 0.0, 0.2858 -0.2181 0.0787, 0.2891 -0.2226 0.0, 0.2891 -0.2226 0.0787, 0.2931 -0.2266 0.0, 0.2931 -0.2266 0.0787, 0.2976 -0.23 0.0, 0.2976 -0.23 0.0787, 0.3025 -0.2327 0.0, 0.3025 -0.2327 0.0787, 0.3078 -0.2346 0.0, 0.3078 -0.2346 0.0787, 0.3133 -0.2358 0.0, 0.3133 -0.2358 0.0787, 0.3189 -0.2362 0.0, 0.3189 -0.2362 0.0787, 0.3976 -0.2362 0.0787, 0.3976 -0.2362 0.0, 0.3189 0.0394 0.0787, 0.3976 0.0394 0.0787, 0.3189 0.0394 0.0, 0.3976 0.0394 0.0, 0.3133 0.039 0.0, 0.3133 0.039 0.0787, 0.3078 0.0378 0.0, 0.3078 0.0378 0.0787, 0.3025 0.0358 0.0, 0.3025 0.0358 0.0787, 0.2976 0.0331 0.0, 0.2976 0.0331 0.0787, 0.2931 0.0298 0.0, 0.2931 0.0298 0.0787, 0.2891 0.0258 0.0, 0.2891 0.0258 0.0787, 0.2858 0.0213 0.0, 0.2858 0.0213 0.0787, 0.2831 0.0164 0.0, 0.2831 0.0164 0.0787, 0.2811 0.0111 0.0, 0.2811 0.0111 0.0787, 0.2799 0.0056 0.0, 0.2799 0.0056 0.0787, 0.2795 0.0 0.0, 0.2795 0.0 0.0787, 0.2799 -0.0056 0.0, 0.2799 -0.0056 0.0787, 0.2811 -0.0111 0.0, 0.2811 -0.0111 0.0787, 0.2831 -0.0164 0.0, 0.2831 -0.0164 0.0787, 0.2858 -0.0213 0.0, 0.2858 -0.0213 0.0787, 0.2891 -0.0258 0.0, 0.2891 -0.0258 0.0787, 0.2931 -0.0298 0.0, 0.2931 -0.0298 0.0787, 0.2976 -0.0331 0.0, 0.2976 -0.0331 0.0787, 0.3025 -0.0358 0.0, 0.3025 -0.0358 0.0787, 0.3078 -0.0378 0.0, 0.3078 -0.0378 0.0787, 0.3133 -0.039 0.0, 0.3133 -0.039 0.0787, 0.3189 -0.0394 0.0, 0.3189 -0.0394 0.0787, 0.3976 -0.0394 0.0787, 0.3976 -0.0394 0.0, 0.3189 0.2362 0.0787, 0.3976 0.2362 0.0787, 0.3189 0.2362 0.0, 0.3976 0.2362 0.0, 0.3133 0.2358 0.0, 0.3133 0.2358 0.0787, 0.3078 0.2346 0.0, 0.3078 0.2346 0.0787, 0.3025 0.2327 0.0, 0.3025 0.2327 0.0787, 0.2976 0.23 0.0, 0.2976 0.23 0.0787, 0.2931 0.2266 0.0, 0.2931 0.2266 0.0787, 0.2891 0.2226 0.0, 0.2891 0.2226 0.0787, 0.2858 0.2181 0.0, 0.2858 0.2181 0.0787, 0.2831 0.2132 0.0, 0.2831 0.2132 0.0787, 0.2811 0.2079 0.0, 0.2811 0.2079 0.0787, 0.2799 0.2025 0.0, 0.2799 0.2025 0.0787, 0.2795 0.1969 0.0, 0.2795 0.1969 0.0787, 0.2799 0.1912 0.0, 0.2799 0.1912 0.0787, 0.2811 0.1858 0.0, 0.2811 0.1858 0.0787, 0.2831 0.1805 0.0, 0.2831 0.1805 0.0787, 0.2858 0.1756 0.0, 0.2858 0.1756 0.0787, 0.2891 0.1711 0.0, 0.2891 0.1711 0.0787, 0.2931 0.1671 0.0, 0.2931 0.1671 0.0787, 0.2976 0.1637 0.0, 0.2976 0.1637 0.0787, 0.3025 0.161 0.0, 0.3025 0.161 0.0787, 0.3078 0.1591 0.0, 0.3078 0.1591 0.0787, 0.3133 0.1579 0.0, 0.3133 0.1579 0.0787, 0.3189 0.1575 0.0, 0.3189 0.1575 0.0787, 0.3976 0.1575 0.0787, 0.3976 0.1575 0.0, -0.3189 -0.1575 0.0, -0.3976 -0.1575 0.0, -0.3189 -0.1575 0.0787, -0.3976 -0.1575 0.0787, -0.3133 -0.1579 0.0787, -0.3133 -0.1579 0.0, -0.3078 -0.1591 0.0787, -0.3078 -0.1591 0.0, -0.3025 -0.161 0.0787, -0.3025 -0.161 0.0, -0.2976 -0.1637 0.0787, -0.2976 -0.1637 0.0, -0.2931 -0.1671 0.0787, -0.2931 -0.1671 0.0, -0.2891 -0.1711 0.0787, -0.2891 -0.1711 0.0, -0.2858 -0.1756 0.0787, -0.2858 -0.1756 0.0, -0.2831 -0.1805 0.0787, -0.2831 -0.1805 0.0, -0.2811 -0.1858 0.0787, -0.2811 -0.1858 0.0, -0.2799 -0.1912 0.0787, -0.2799 -0.1912 0.0, -0.2795 -0.1969 0.0787, -0.2795 -0.1969 0.0, -0.2799 -0.2025 0.0787, -0.2799 -0.2025 0.0, -0.2811 -0.2079 0.0787, -0.2811 -0.2079 0.0, -0.2831 -0.2132 0.0787, -0.2831 -0.2132 0.0, -0.2858 -0.2181 0.0787, -0.2858 -0.2181 0.0, -0.2891 -0.2226 0.0787, -0.2891 -0.2226 0.0, -0.2931 -0.2266 0.0787, -0.2931 -0.2266 0.0, -0.2976 -0.23 0.0787, -0.2976 -0.23 0.0, -0.3025 -0.2327 0.0787, -0.3025 -0.2327 0.0, -0.3078 -0.2346 0.0787, -0.3078 -0.2346 0.0, -0.3133 -0.2358 0.0787, -0.3133 -0.2358 0.0, -0.3189 -0.2362 0.0787, -0.3189 -0.2362 0.0, -0.3976 -0.2362 0.0, -0.3976 -0.2362 0.0787, -0.3189 0.0394 0.0, -0.3976 0.0394 0.0, -0.3189 0.0394 0.0787, -0.3976 0.0394 0.0787, -0.3133 0.039 0.0787, -0.3133 0.039 0.0, -0.3078 0.0378 0.0787, -0.3078 0.0378 0.0, -0.3025 0.0358 0.0787, -0.3025 0.0358 0.0, -0.2976 0.0331 0.0787, -0.2976 0.0331 0.0, -0.2931 0.0298 0.0787, -0.2931 0.0298 0.0, -0.2891 0.0258 0.0787, -0.2891 0.0258 0.0, -0.2858 0.0213 0.0787, -0.2858 0.0213 0.0, -0.2831 0.0164 0.0787, -0.2831 0.0164 0.0, -0.2811 0.0111 0.0787, -0.2811 0.0111 0.0, -0.2799 0.0056 0.0787, -0.2799 0.0056 0.0, -0.2795 0.0 0.0787, -0.2795 0.0 0.0, -0.2799 -0.0056 0.0787, -0.2799 -0.0056 0.0, -0.2811 -0.0111 0.0787, -0.2811 -0.0111 0.0, -0.2831 -0.0164 0.0787, -0.2831 -0.0164 0.0, -0.2858 -0.0213 0.0787, -0.2858 -0.0213 0.0, -0.2891 -0.0258 0.0787, -0.2891 -0.0258 0.0, -0.2931 -0.0298 0.0787, -0.2931 -0.0298 0.0, -0.2976 -0.0331 0.0787, -0.2976 -0.0331 0.0, -0.3025 -0.0358 0.0787, -0.3025 -0.0358 0.0, -0.3078 -0.0378 0.0787, -0.3078 -0.0378 0.0, -0.3133 -0.039 0.0787, -0.3133 -0.039 0.0, -0.3189 -0.0394 0.0787, -0.3189 -0.0394 0.0, -0.3976 -0.0394 0.0, -0.3976 -0.0394 0.0787, -0.3189 0.2362 0.0, -0.3976 0.2362 0.0, -0.3189 0.2362 0.0787, -0.3976 0.2362 0.0787, -0.3133 0.2358 0.0787, -0.3133 0.2358 0.0, -0.3078 0.2346 0.0787, -0.3078 0.2346 0.0, -0.3025 0.2327 0.0787, -0.3025 0.2327 0.0, -0.2976 0.23 0.0787, -0.2976 0.23 0.0, -0.2931 0.2266 0.0787, -0.2931 0.2266 0.0, -0.2891 0.2226 0.0787, -0.2891 0.2226 0.0, -0.2858 0.2181 0.0787, -0.2858 0.2181 0.0, -0.2831 0.2132 0.0787, -0.2831 0.2132 0.0, -0.2811 0.2079 0.0787, -0.2811 0.2079 0.0, -0.2799 0.2025 0.0787, -0.2799 0.2025 0.0, -0.2795 0.1969 0.0787, -0.2795 0.1969 0.0, -0.2799 0.1912 0.0787, -0.2799 0.1912 0.0, -0.2811 0.1858 0.0787, -0.2811 0.1858 0.0, -0.2831 0.1805 0.0787, -0.2831 0.1805 0.0, -0.2858 0.1756 0.0787, -0.2858 0.1756 0.0, -0.2891 0.1711 0.0787, -0.2891 0.1711 0.0, -0.2931 0.1671 0.0787, -0.2931 0.1671 0.0, -0.2976 0.1637 0.0787, -0.2976 0.1637 0.0, -0.3025 0.161 0.0787, -0.3025 0.161 0.0, -0.3078 0.1591 0.0787, -0.3078 0.1591 0.0, -0.3133 0.1579 0.0787, -0.3133 0.1579 0.0, -0.3189 0.1575 0.0787, -0.3189 0.1575 0.0, -0.3976 0.1575 0.0, -0.3976 0.1575 0.0787, 0.2795 0.0 0.0787, 0.2795 0.0 0.0, -0.2795 0.0 0.0, -0.2795 0.0 0.0787, 0.2362 -0.3189 0.0787, 0.2362 -0.3976 0.0787, 0.2362 -0.3189 0.0, 0.2362 -0.3976 0.0, 0.2358 -0.3133 0.0, 0.2358 -0.3133 0.0787, 0.2346 -0.3078 0.0, 0.2346 -0.3078 0.0787, 0.2327 -0.3025 0.0, 0.2327 -0.3025 0.0787, 0.23 -0.2976 0.0, 0.23 -0.2976 0.0787, 0.2266 -0.2931 0.0, 0.2266 -0.2931 0.0787, 0.2226 -0.2891 0.0, 0.2226 -0.2891 0.0787, 0.2181 -0.2858 0.0, 0.2181 -0.2858 0.0787, 0.2132 -0.2831 0.0, 0.2132 -0.2831 0.0787, 0.2079 -0.2811 0.0, 0.2079 -0.2811 0.0787, 0.2024 -0.2799 0.0, 0.2024 -0.2799 0.0787, 0.1968 -0.2795 0.0, 0.1968 -0.2795 0.0787, 0.1912 -0.2799 0.0, 0.1912 -0.2799 0.0787, 0.1858 -0.2811 0.0, 0.1858 -0.2811 0.0787, 0.1805 -0.2831 0.0, 0.1805 -0.2831 0.0787, 0.1756 -0.2858 0.0, 0.1756 -0.2858 0.0787, 0.1711 -0.2891 0.0, 0.1711 -0.2891 0.0787, 0.1671 -0.2931 0.0, 0.1671 -0.2931 0.0787, 0.1637 -0.2976 0.0, 0.1637 -0.2976 0.0787, 0.161 -0.3025 0.0, 0.161 -0.3025 0.0787, 0.1591 -0.3078 0.0, 0.1591 -0.3078 0.0787, 0.1579 -0.3133 0.0, 0.1579 -0.3133 0.0787, 0.1575 -0.3189 0.0, 0.1575 -0.3189 0.0787, 0.1575 -0.3976 0.0787, 0.1575 -0.3976 0.0, 0.0394 -0.3189 0.0787, 0.0394 -0.3976 0.0787, 0.0394 -0.3189 0.0, 0.0394 -0.3976 0.0, 0.039 -0.3133 0.0, 0.039 -0.3133 0.0787, 0.0378 -0.3078 0.0, 0.0378 -0.3078 0.0787, 0.0358 -0.3025 0.0, 0.0358 -0.3025 0.0787, 0.0331 -0.2976 0.0, 0.0331 -0.2976 0.0787, 0.0297 -0.2931 0.0, 0.0297 -0.2931 0.0787, 0.0258 -0.2891 0.0, 0.0258 -0.2891 0.0787, 0.0213 -0.2858 0.0, 0.0213 -0.2858 0.0787, 0.0164 -0.2831 0.0, 0.0164 -0.2831 0.0787, 0.0111 -0.2811 0.0, 0.0111 -0.2811 0.0787, 0.0056 -0.2799 0.0, 0.0056 -0.2799 0.0787, -0.0 -0.2795 0.0, -0.0 -0.2795 0.0787, -0.0056 -0.2799 0.0, -0.0056 -0.2799 0.0787, -0.0111 -0.2811 0.0, -0.0111 -0.2811 0.0787, -0.0164 -0.2831 0.0, -0.0164 -0.2831 0.0787, -0.0213 -0.2858 0.0, -0.0213 -0.2858 0.0787, -0.0258 -0.2891 0.0, -0.0258 -0.2891 0.0787, -0.0298 -0.2931 0.0, -0.0298 -0.2931 0.0787, -0.0331 -0.2976 0.0, -0.0331 -0.2976 0.0787, -0.0358 -0.3025 0.0, -0.0358 -0.3025 0.0787, -0.0378 -0.3078 0.0, -0.0378 -0.3078 0.0787, -0.039 -0.3133 0.0, -0.039 -0.3133 0.0787, -0.0394 -0.3189 0.0, -0.0394 -0.3189 0.0787, -0.0394 -0.3976 0.0787, -0.0394 -0.3976 0.0, -0.1575 -0.3189 0.0787, -0.1575 -0.3976 0.0787, -0.1575 -0.3189 0.0, -0.1575 -0.3976 0.0, -0.1579 -0.3133 0.0, -0.1579 -0.3133 0.0787, -0.1591 -0.3078 0.0, -0.1591 -0.3078 0.0787, -0.161 -0.3025 0.0, -0.161 -0.3025 0.0787, -0.1637 -0.2976 0.0, -0.1637 -0.2976 0.0787, -0.1671 -0.2931 0.0, -0.1671 -0.2931 0.0787, -0.1711 -0.2891 0.0, -0.1711 -0.2891 0.0787, -0.1756 -0.2858 0.0, -0.1756 -0.2858 0.0787, -0.1805 -0.2831 0.0, -0.1805 -0.2831 0.0787, -0.1858 -0.2811 0.0, -0.1858 -0.2811 0.0787, -0.1913 -0.2799 0.0, -0.1913 -0.2799 0.0787, -0.1969 -0.2795 0.0, -0.1969 -0.2795 0.0787, -0.2025 -0.2799 0.0, -0.2025 -0.2799 0.0787, -0.2079 -0.2811 0.0, -0.2079 -0.2811 0.0787, -0.2132 -0.2831 0.0, -0.2132 -0.2831 0.0787, -0.2181 -0.2858 0.0, -0.2181 -0.2858 0.0787, -0.2226 -0.2891 0.0, -0.2226 -0.2891 0.0787, -0.2266 -0.2931 0.0, -0.2266 -0.2931 0.0787, -0.23 -0.2976 0.0, -0.23 -0.2976 0.0787, -0.2327 -0.3025 0.0, -0.2327 -0.3025 0.0787, -0.2346 -0.3078 0.0, -0.2346 -0.3078 0.0787, -0.2358 -0.3133 0.0, -0.2358 -0.3133 0.0787, -0.2362 -0.3189 0.0, -0.2362 -0.3189 0.0787, -0.2362 -0.3976 0.0787, -0.2362 -0.3976 0.0, 0.2362 0.3189 0.0, 0.2362 0.3976 0.0, 0.2362 0.3189 0.0787, 0.2362 0.3976 0.0787, 0.2358 0.3133 0.0787, 0.2358 0.3133 0.0, 0.2346 0.3078 0.0787, 0.2346 0.3078 0.0, 0.2327 0.3025 0.0787, 0.2327 0.3025 0.0, 0.23 0.2976 0.0787, 0.23 0.2976 0.0, 0.2266 0.2931 0.0787, 0.2266 0.2931 0.0, 0.2226 0.2891 0.0787, 0.2226 0.2891 0.0, 0.2181 0.2858 0.0787, 0.2181 0.2858 0.0, 0.2132 0.2831 0.0787, 0.2132 0.2831 0.0, 0.2079 0.2811 0.0787, 0.2079 0.2811 0.0, 0.2024 0.2799 0.0787, 0.2024 0.2799 0.0, 0.1968 0.2795 0.0787, 0.1968 0.2795 0.0, 0.1912 0.2799 0.0787, 0.1912 0.2799 0.0, 0.1858 0.2811 0.0787, 0.1858 0.2811 0.0, 0.1805 0.2831 0.0787, 0.1805 0.2831 0.0, 0.1756 0.2858 0.0787, 0.1756 0.2858 0.0, 0.1711 0.2891 0.0787, 0.1711 0.2891 0.0, 0.1671 0.2931 0.0787, 0.1671 0.2931 0.0, 0.1637 0.2976 0.0787, 0.1637 0.2976 0.0, 0.161 0.3025 0.0787, 0.161 0.3025 0.0, 0.1591 0.3078 0.0787, 0.1591 0.3078 0.0, 0.1579 0.3133 0.0787, 0.1579 0.3133 0.0, 0.1575 0.3189 0.0787, 0.1575 0.3189 0.0, 0.1575 0.3976 0.0, 0.1575 0.3976 0.0787, 0.0394 0.3189 0.0, 0.0394 0.3976 0.0, 0.0394 0.3189 0.0787, 0.0394 0.3976 0.0787, 0.039 0.3133 0.0787, 0.039 0.3133 0.0, 0.0378 0.3078 0.0787, 0.0378 0.3078 0.0, 0.0358 0.3025 0.0787, 0.0358 0.3025 0.0, 0.0331 0.2976 0.0787, 0.0331 0.2976 0.0, 0.0297 0.2931 0.0787, 0.0297 0.2931 0.0, 0.0258 0.2891 0.0787, 0.0258 0.2891 0.0, 0.0213 0.2858 0.0787, 0.0213 0.2858 0.0, 0.0164 0.2831 0.0787, 0.0164 0.2831 0.0, 0.0111 0.2811 0.0787, 0.0111 0.2811 0.0, 0.0056 0.2799 0.0787, 0.0056 0.2799 0.0, -0.0 0.2795 0.0787, -0.0 0.2795 0.0, -0.0056 0.2799 0.0787, -0.0056 0.2799 0.0, -0.0111 0.2811 0.0787, -0.0111 0.2811 0.0, -0.0164 0.2831 0.0787, -0.0164 0.2831 0.0, -0.0213 0.2858 0.0787, -0.0213 0.2858 0.0, -0.0258 0.2891 0.0787, -0.0258 0.2891 0.0, -0.0298 0.2931 0.0787, -0.0298 0.2931 0.0, -0.0331 0.2976 0.0787, -0.0331 0.2976 0.0, -0.0358 0.3025 0.0787, -0.0358 0.3025 0.0, -0.0378 0.3078 0.0787, -0.0378 0.3078 0.0, -0.039 0.3133 0.0787, -0.039 0.3133 0.0, -0.0394 0.3189 0.0787, -0.0394 0.3189 0.0, -0.0394 0.3976 0.0, -0.0394 0.3976 0.0787, -0.1575 0.3189 0.0, -0.1575 0.3976 0.0, -0.1575 0.3189 0.0787, -0.1575 0.3976 0.0787, -0.1579 0.3133 0.0787, -0.1579 0.3133 0.0, -0.1591 0.3078 0.0787, -0.1591 0.3078 0.0, -0.161 0.3025 0.0787, -0.161 0.3025 0.0, -0.1637 0.2976 0.0787, -0.1637 0.2976 0.0, -0.1671 0.2931 0.0787, -0.1671 0.2931 0.0, -0.1711 0.2891 0.0787, -0.1711 0.2891 0.0, -0.1756 0.2858 0.0787, -0.1756 0.2858 0.0, -0.1805 0.2831 0.0787, -0.1805 0.2831 0.0, -0.1858 0.2811 0.0787, -0.1858 0.2811 0.0, -0.1913 0.2799 0.0787, -0.1913 0.2799 0.0, -0.1969 0.2795 0.0787, -0.1969 0.2795 0.0, -0.2025 0.2799 0.0787, -0.2025 0.2799 0.0, -0.2079 0.2811 0.0787, -0.2079 0.2811 0.0, -0.2132 0.2831 0.0787, -0.2132 0.2831 0.0, -0.2181 0.2858 0.0787, -0.2181 0.2858 0.0, -0.2226 0.2891 0.0787, -0.2226 0.2891 0.0, -0.2266 0.2931 0.0787, -0.2266 0.2931 0.0, -0.23 0.2976 0.0787, -0.23 0.2976 0.0, -0.2327 0.3025 0.0787, -0.2327 0.3025 0.0, -0.2346 0.3078 0.0787, -0.2346 0.3078 0.0, -0.2358 0.3133 0.0787, -0.2358 0.3133 0.0, -0.2362 0.3189 0.0787, -0.2362 0.3189 0.0, -0.2362 0.3976 0.0, -0.2362 0.3976 0.0787
            ]
        }
        coordIndex [
            0,1,2,-1,2,1,3,-1,0,2,4,-1,0,4,5,-1,5,4,6,-1,5,6,7,-1,7,6,8,-1,7,8,9,-1,9,8,10,-1,9,10,11,-1,11,10,12,-1,11,12,13,-1,13,12,14,-1,13,14,15,-1,15,14,16,-1,15,16,17,-1,17,16,18,-1,17,18,19,-1,19,18,20,-1,19,20,21,-1,21,20,22,-1,21,22,23,-1,23,22,24,-1,23,24,25,-1,25,24,26,-1,25,26,27,-1,27,26,28,-1,27,28,29,-1,29,28,30,-1,29,30,31,-1,31,30,32,-1,31,32,33,-1,33,32,34,-1,33,34,35,-1,35,34,36,-1,35,36,37,-1,37,36,38,-1,37,38,39,-1,39,38,40,-1,39,40,41,-1,41,40,42,-1,41,42,43,-1,43,42,44,-1,43,44,45,-1,45,44,46,-1,45,46,47,-1,48,47,49,-1,49,47,46,-1,1,48,3,-1,3,48,49,-1,48,1,47,-1,47,1,0,-1,27,29,0,-1,7,9,25,-1,25,9,11,-1,25,11,13,-1,27,0,25,-1,25,0,5,-1,25,5,7,-1,17,19,21,-1,29,31,0,-1,0,31,33,-1,0,33,35,-1,35,37,0,-1,0,37,39,-1,0,39,41,-1,13,15,25,-1,25,15,17,-1,25,17,23,-1,23,17,21,-1,41,43,0,-1,0,43,45,-1,0,45,47,-1,3,49,2,-1,2,49,46,-1,2,46,44,-1,2,28,26,-1,26,24,2,-1,2,24,22,-1,2,22,20,-1,20,18,2,-1,2,18,16,-1,2,16,14,-1,34,2,36,-1,36,2,38,-1,34,32,2,-1,2,32,30,-1,2,30,28,-1,44,42,2,-1,2,42,40,-1,2,40,38,-1,14,12,2,-1,2,12,10,-1,2,10,4,-1,4,10,8,-1,4,8,6,-1,50,51,52,-1,52,51,53,-1,50,52,54,-1,50,54,55,-1,55,54,56,-1,55,56,57,-1,57,56,58,-1,57,58,59,-1,59,58,60,-1,59,60,61,-1,61,60,62,-1,61,62,63,-1,63,62,64,-1,63,64,65,-1,65,64,66,-1,65,66,67,-1,67,66,68,-1,67,68,69,-1,69,68,70,-1,69,70,71,-1,71,70,72,-1,71,72,73,-1,73,72,74,-1,73,74,75,-1,75,74,76,-1,75,76,77,-1,77,76,78,-1,77,78,79,-1,79,78,80,-1,79,80,81,-1,81,80,82,-1,81,82,83,-1,83,82,84,-1,83,84,85,-1,85,84,86,-1,85,86,87,-1,87,86,88,-1,87,88,89,-1,89,88,90,-1,89,90,91,-1,91,90,92,-1,91,92,93,-1,93,92,94,-1,93,94,95,-1,95,94,96,-1,95,96,97,-1,98,97,99,-1,99,97,96,-1,51,98,53,-1,53,98,99,-1,98,51,97,-1,97,51,50,-1,71,73,97,-1,73,75,97,-1,97,75,77,-1,97,77,79,-1,79,81,97,-1,97,81,83,-1,97,83,85,-1,97,91,95,-1,95,91,93,-1,50,55,97,-1,97,55,57,-1,97,57,59,-1,59,61,97,-1,97,61,63,-1,97,63,65,-1,65,67,97,-1,97,67,69,-1,97,69,71,-1,85,87,97,-1,97,87,89,-1,97,89,91,-1,53,99,52,-1,52,99,96,-1,52,96,54,-1,76,74,96,-1,62,60,96,-1,92,90,84,-1,84,90,88,-1,84,88,86,-1,82,80,96,-1,96,80,78,-1,96,78,76,-1,74,72,96,-1,96,72,70,-1,96,70,68,-1,82,96,84,-1,84,96,94,-1,84,94,92,-1,68,66,96,-1,96,66,64,-1,96,64,62,-1,60,58,96,-1,96,58,56,-1,96,56,54,-1,100,101,102,-1,102,101,103,-1,100,102,104,-1,100,104,105,-1,105,104,106,-1,105,106,107,-1,107,106,108,-1,107,108,109,-1,109,108,110,-1,109,110,111,-1,111,110,112,-1,111,112,113,-1,113,112,114,-1,113,114,115,-1,115,114,116,-1,115,116,117,-1,117,116,118,-1,117,118,119,-1,119,118,120,-1,119,120,121,-1,121,120,122,-1,121,122,123,-1,123,122,124,-1,123,124,125,-1,125,124,126,-1,125,126,127,-1,127,126,128,-1,127,128,129,-1,129,128,130,-1,129,130,131,-1,131,130,132,-1,131,132,133,-1,133,132,134,-1,133,134,135,-1,135,134,136,-1,135,136,137,-1,137,136,138,-1,137,138,139,-1,139,138,140,-1,139,140,141,-1,141,140,142,-1,141,142,143,-1,143,142,144,-1,143,144,145,-1,145,144,146,-1,145,146,147,-1,148,147,149,-1,149,147,146,-1,101,148,103,-1,103,148,149,-1,148,101,147,-1,147,101,100,-1,115,117,147,-1,147,117,119,-1,147,119,121,-1,121,123,147,-1,147,123,125,-1,147,125,145,-1,145,125,143,-1,100,105,147,-1,147,105,107,-1,147,107,109,-1,109,111,147,-1,147,111,113,-1,147,113,115,-1,127,129,139,-1,139,129,131,-1,131,133,139,-1,139,133,135,-1,139,135,137,-1,127,139,125,-1,125,139,141,-1,125,141,143,-1,103,149,102,-1,102,149,146,-1,116,114,146,-1,122,146,124,-1,124,146,144,-1,122,120,146,-1,146,120,118,-1,146,118,116,-1,114,112,146,-1,146,112,110,-1,146,110,108,-1,108,106,146,-1,146,106,104,-1,146,104,102,-1,144,142,124,-1,124,142,140,-1,124,140,138,-1,138,136,124,-1,124,136,134,-1,124,134,132,-1,132,130,124,-1,124,130,128,-1,124,128,126,-1,150,151,152,-1,152,151,153,-1,150,152,154,-1,150,154,155,-1,155,154,156,-1,155,156,157,-1,157,156,158,-1,157,158,159,-1,159,158,160,-1,159,160,161,-1,161,160,162,-1,161,162,163,-1,163,162,164,-1,163,164,165,-1,165,164,166,-1,165,166,167,-1,167,166,168,-1,167,168,169,-1,169,168,170,-1,169,170,171,-1,171,170,172,-1,171,172,173,-1,173,172,174,-1,173,174,175,-1,175,174,176,-1,175,176,177,-1,177,176,178,-1,177,178,179,-1,179,178,180,-1,179,180,181,-1,181,180,182,-1,181,182,183,-1,183,182,184,-1,183,184,185,-1,185,184,186,-1,185,186,187,-1,187,186,188,-1,187,188,189,-1,189,188,190,-1,189,190,191,-1,191,190,192,-1,191,192,193,-1,193,192,194,-1,193,194,195,-1,195,194,196,-1,195,196,197,-1,198,197,199,-1,199,197,196,-1,151,198,153,-1,153,198,199,-1,198,151,197,-1,197,151,150,-1,177,179,150,-1,157,159,175,-1,175,159,161,-1,175,161,163,-1,177,150,175,-1,175,150,155,-1,175,155,157,-1,167,169,171,-1,179,181,150,-1,150,181,183,-1,150,183,185,-1,185,187,150,-1,150,187,189,-1,150,189,191,-1,163,165,175,-1,175,165,167,-1,175,167,173,-1,173,167,171,-1,191,193,150,-1,150,193,195,-1,150,195,197,-1,153,199,152,-1,152,199,196,-1,152,196,194,-1,152,178,176,-1,176,174,152,-1,152,174,172,-1,152,172,170,-1,170,168,152,-1,152,168,166,-1,152,166,164,-1,184,152,186,-1,186,152,188,-1,184,182,152,-1,152,182,180,-1,152,180,178,-1,194,192,152,-1,152,192,190,-1,152,190,188,-1,164,162,152,-1,152,162,160,-1,152,160,154,-1,154,160,158,-1,154,158,156,-1,200,201,202,-1,202,201,203,-1,200,202,204,-1,200,204,205,-1,205,204,206,-1,205,206,207,-1,207,206,208,-1,207,208,209,-1,209,208,210,-1,209,210,211,-1,211,210,212,-1,211,212,213,-1,213,212,214,-1,213,214,215,-1,215,214,216,-1,215,216,217,-1,217,216,218,-1,217,218,219,-1,219,218,220,-1,219,220,221,-1,221,220,222,-1,221,222,223,-1,223,222,224,-1,223,224,225,-1,225,224,226,-1,225,226,227,-1,227,226,228,-1,227,228,229,-1,229,228,230,-1,229,230,231,-1,231,230,232,-1,231,232,233,-1,233,232,234,-1,233,234,235,-1,235,234,236,-1,235,236,237,-1,237,236,238,-1,237,238,239,-1,239,238,240,-1,239,240,241,-1,241,240,242,-1,241,242,243,-1,243,242,244,-1,243,244,245,-1,245,244,246,-1,245,246,247,-1,248,247,249,-1,249,247,246,-1,201,248,203,-1,203,248,249,-1,248,201,247,-1,247,201,200,-1,221,223,247,-1,223,225,247,-1,247,225,227,-1,247,227,229,-1,229,231,247,-1,247,231,233,-1,247,233,235,-1,247,241,245,-1,245,241,243,-1,200,205,247,-1,247,205,207,-1,247,207,209,-1,209,211,247,-1,247,211,213,-1,247,213,215,-1,215,217,247,-1,247,217,219,-1,247,219,221,-1,235,237,247,-1,247,237,239,-1,247,239,241,-1,203,249,202,-1,202,249,246,-1,202,246,204,-1,226,224,246,-1,212,210,246,-1,242,240,234,-1,234,240,238,-1,234,238,236,-1,232,230,246,-1,246,230,228,-1,246,228,226,-1,224,222,246,-1,246,222,220,-1,246,220,218,-1,232,246,234,-1,234,246,244,-1,234,244,242,-1,218,216,246,-1,246,216,214,-1,246,214,212,-1,210,208,246,-1,246,208,206,-1,246,206,204,-1,250,251,252,-1,252,251,253,-1,250,252,254,-1,250,254,255,-1,255,254,256,-1,255,256,257,-1,257,256,258,-1,257,258,259,-1,259,258,260,-1,259,260,261,-1,261,260,262,-1,261,262,263,-1,263,262,264,-1,263,264,265,-1,265,264,266,-1,265,266,267,-1,267,266,268,-1,267,268,269,-1,269,268,270,-1,269,270,271,-1,271,270,272,-1,271,272,273,-1,273,272,274,-1,273,274,275,-1,275,274,276,-1,275,276,277,-1,277,276,278,-1,277,278,279,-1,279,278,280,-1,279,280,281,-1,281,280,282,-1,281,282,283,-1,283,282,284,-1,283,284,285,-1,285,284,286,-1,285,286,287,-1,287,286,288,-1,287,288,289,-1,289,288,290,-1,289,290,291,-1,291,290,292,-1,291,292,293,-1,293,292,294,-1,293,294,295,-1,295,294,296,-1,295,296,297,-1,298,297,299,-1,299,297,296,-1,251,298,253,-1,253,298,299,-1,298,251,297,-1,297,251,250,-1,265,267,297,-1,297,267,269,-1,297,269,271,-1,271,273,297,-1,297,273,275,-1,297,275,295,-1,295,275,293,-1,250,255,297,-1,297,255,257,-1,297,257,259,-1,259,261,297,-1,297,261,263,-1,297,263,265,-1,277,279,289,-1,289,279,281,-1,281,283,289,-1,289,283,285,-1,289,285,287,-1,277,289,275,-1,275,289,291,-1,275,291,293,-1,253,299,252,-1,252,299,296,-1,266,264,296,-1,272,296,274,-1,274,296,294,-1,272,270,296,-1,296,270,268,-1,296,268,266,-1,264,262,296,-1,296,262,260,-1,296,260,258,-1,258,256,296,-1,296,256,254,-1,296,254,252,-1,294,292,274,-1,274,292,290,-1,274,290,288,-1,288,286,274,-1,274,286,284,-1,274,284,282,-1,282,280,274,-1,274,280,278,-1,274,278,276,-1,146,149,147,-1,147,149,148,-1,146,147,145,-1,146,145,144,-1,144,145,143,-1,144,143,142,-1,142,143,141,-1,142,141,140,-1,140,141,139,-1,140,139,138,-1,138,139,137,-1,138,137,136,-1,136,137,135,-1,136,135,134,-1,134,135,133,-1,134,133,132,-1,132,133,131,-1,132,131,130,-1,130,131,129,-1,130,129,128,-1,128,129,127,-1,128,127,126,-1,126,127,125,-1,126,125,124,-1,124,125,123,-1,124,123,122,-1,122,123,121,-1,122,121,120,-1,120,121,119,-1,120,119,118,-1,118,119,117,-1,118,117,116,-1,116,117,115,-1,116,115,114,-1,114,115,113,-1,114,113,112,-1,112,113,111,-1,112,111,110,-1,110,111,109,-1,110,109,108,-1,108,109,107,-1,108,107,106,-1,106,107,105,-1,106,105,104,-1,104,105,100,-1,104,100,102,-1,103,102,101,-1,101,102,100,-1,149,103,148,-1,148,103,101,-1,103,149,102,-1,102,149,146,-1,134,132,146,-1,108,106,146,-1,146,106,104,-1,146,104,102,-1,126,124,146,-1,146,124,122,-1,146,122,120,-1,142,140,144,-1,144,140,138,-1,144,138,146,-1,146,138,136,-1,146,136,134,-1,132,130,146,-1,146,130,128,-1,146,128,126,-1,120,118,146,-1,146,118,116,-1,146,116,114,-1,114,112,146,-1,146,112,110,-1,146,110,108,-1,148,101,147,-1,147,101,100,-1,100,105,147,-1,147,105,107,-1,147,107,109,-1,147,121,123,-1,123,125,147,-1,147,125,127,-1,147,127,129,-1,129,131,147,-1,147,131,133,-1,147,133,135,-1,135,137,147,-1,147,137,139,-1,147,139,145,-1,145,139,141,-1,145,141,143,-1,109,111,147,-1,147,111,113,-1,147,113,115,-1,115,117,147,-1,147,117,119,-1,147,119,121,-1,96,99,97,-1,97,99,98,-1,96,97,95,-1,96,95,94,-1,94,95,93,-1,94,93,92,-1,92,93,91,-1,92,91,90,-1,90,91,89,-1,90,89,88,-1,88,89,87,-1,88,87,86,-1,86,87,85,-1,86,85,84,-1,84,85,83,-1,84,83,82,-1,82,83,81,-1,82,81,80,-1,80,81,79,-1,80,79,78,-1,78,79,77,-1,78,77,76,-1,76,77,300,-1,76,300,301,-1,301,300,73,-1,301,73,72,-1,72,73,71,-1,72,71,70,-1,70,71,69,-1,70,69,68,-1,68,69,67,-1,68,67,66,-1,66,67,65,-1,66,65,64,-1,64,65,63,-1,64,63,62,-1,62,63,61,-1,62,61,60,-1,60,61,59,-1,60,59,58,-1,58,59,57,-1,58,57,56,-1,56,57,55,-1,56,55,54,-1,54,55,50,-1,54,50,52,-1,53,52,51,-1,51,52,50,-1,99,53,98,-1,98,53,51,-1,52,53,99,-1,76,301,52,-1,52,301,72,-1,52,72,70,-1,99,96,52,-1,52,96,94,-1,52,94,92,-1,82,52,84,-1,84,52,86,-1,82,80,52,-1,52,80,78,-1,52,78,76,-1,70,68,52,-1,52,68,66,-1,52,66,64,-1,64,62,52,-1,52,62,60,-1,52,60,54,-1,54,60,58,-1,54,58,56,-1,92,90,52,-1,52,90,88,-1,52,88,86,-1,98,51,97,-1,97,51,50,-1,97,50,95,-1,65,67,50,-1,50,67,69,-1,50,69,71,-1,71,73,50,-1,50,73,300,-1,50,300,77,-1,57,59,55,-1,55,59,61,-1,55,61,50,-1,50,61,63,-1,50,63,65,-1,77,79,50,-1,50,79,81,-1,50,81,83,-1,83,85,50,-1,50,85,87,-1,50,87,89,-1,89,91,50,-1,50,91,93,-1,50,93,95,-1,46,49,47,-1,47,49,48,-1,46,47,45,-1,46,45,44,-1,44,45,43,-1,44,43,42,-1,42,43,41,-1,42,41,40,-1,40,41,39,-1,40,39,38,-1,38,39,37,-1,38,37,36,-1,36,37,35,-1,36,35,34,-1,34,35,33,-1,34,33,32,-1,32,33,31,-1,32,31,30,-1,30,31,29,-1,30,29,28,-1,28,29,27,-1,28,27,26,-1,26,27,25,-1,26,25,24,-1,24,25,23,-1,24,23,22,-1,22,23,21,-1,22,21,20,-1,20,21,19,-1,20,19,18,-1,18,19,17,-1,18,17,16,-1,16,17,15,-1,16,15,14,-1,14,15,13,-1,14,13,12,-1,12,13,11,-1,12,11,10,-1,10,11,9,-1,10,9,8,-1,8,9,7,-1,8,7,6,-1,6,7,5,-1,6,5,4,-1,4,5,0,-1,4,0,2,-1,3,2,1,-1,1,2,0,-1,49,3,48,-1,48,3,1,-1,3,49,2,-1,2,49,46,-1,30,2,32,-1,32,2,34,-1,24,22,20,-1,46,44,2,-1,2,44,42,-1,2,42,40,-1,40,38,2,-1,2,38,36,-1,2,36,34,-1,30,28,2,-1,2,28,26,-1,2,26,24,-1,20,18,24,-1,24,18,16,-1,24,16,14,-1,14,12,24,-1,24,12,10,-1,24,10,8,-1,8,6,24,-1,24,6,4,-1,24,4,2,-1,48,1,47,-1,47,1,0,-1,5,7,25,-1,25,7,9,-1,25,9,11,-1,11,13,25,-1,25,13,15,-1,25,15,17,-1,17,19,25,-1,25,19,21,-1,25,21,23,-1,5,25,0,-1,0,25,27,-1,0,27,29,-1,29,31,0,-1,0,31,33,-1,0,33,35,-1,35,37,0,-1,0,37,39,-1,0,39,41,-1,41,43,0,-1,0,43,45,-1,0,45,47,-1,296,299,297,-1,297,299,298,-1,296,297,295,-1,296,295,294,-1,294,295,293,-1,294,293,292,-1,292,293,291,-1,292,291,290,-1,290,291,289,-1,290,289,288,-1,288,289,287,-1,288,287,286,-1,286,287,285,-1,286,285,284,-1,284,285,283,-1,284,283,282,-1,282,283,281,-1,282,281,280,-1,280,281,279,-1,280,279,278,-1,278,279,277,-1,278,277,276,-1,276,277,275,-1,276,275,274,-1,274,275,273,-1,274,273,272,-1,272,273,271,-1,272,271,270,-1,270,271,269,-1,270,269,268,-1,268,269,267,-1,268,267,266,-1,266,267,265,-1,266,265,264,-1,264,265,263,-1,264,263,262,-1,262,263,261,-1,262,261,260,-1,260,261,259,-1,260,259,258,-1,258,259,257,-1,258,257,256,-1,256,257,255,-1,256,255,254,-1,254,255,250,-1,254,250,252,-1,253,252,251,-1,251,252,250,-1,299,253,298,-1,298,253,251,-1,253,299,252,-1,252,299,296,-1,284,282,296,-1,258,256,296,-1,296,256,254,-1,296,254,252,-1,276,274,296,-1,296,274,272,-1,296,272,270,-1,292,290,294,-1,294,290,288,-1,294,288,296,-1,296,288,286,-1,296,286,284,-1,282,280,296,-1,296,280,278,-1,296,278,276,-1,270,268,296,-1,296,268,266,-1,296,266,264,-1,264,262,296,-1,296,262,260,-1,296,260,258,-1,298,251,297,-1,297,251,250,-1,250,255,297,-1,297,255,257,-1,297,257,259,-1,297,271,273,-1,273,275,297,-1,297,275,277,-1,297,277,279,-1,279,281,297,-1,297,281,283,-1,297,283,285,-1,285,287,297,-1,297,287,289,-1,297,289,295,-1,295,289,291,-1,295,291,293,-1,259,261,297,-1,297,261,263,-1,297,263,265,-1,265,267,297,-1,297,267,269,-1,297,269,271,-1,246,249,247,-1,247,249,248,-1,246,247,245,-1,246,245,244,-1,244,245,243,-1,244,243,242,-1,242,243,241,-1,242,241,240,-1,240,241,239,-1,240,239,238,-1,238,239,237,-1,238,237,236,-1,236,237,235,-1,236,235,234,-1,234,235,233,-1,234,233,232,-1,232,233,231,-1,232,231,230,-1,230,231,229,-1,230,229,228,-1,228,229,227,-1,228,227,226,-1,226,227,302,-1,226,302,303,-1,303,302,223,-1,303,223,222,-1,222,223,221,-1,222,221,220,-1,220,221,219,-1,220,219,218,-1,218,219,217,-1,218,217,216,-1,216,217,215,-1,216,215,214,-1,214,215,213,-1,214,213,212,-1,212,213,211,-1,212,211,210,-1,210,211,209,-1,210,209,208,-1,208,209,207,-1,208,207,206,-1,206,207,205,-1,206,205,204,-1,204,205,200,-1,204,200,202,-1,203,202,201,-1,201,202,200,-1,249,203,248,-1,248,203,201,-1,202,203,249,-1,226,303,202,-1,202,303,222,-1,202,222,220,-1,249,246,202,-1,202,246,244,-1,202,244,242,-1,232,202,234,-1,234,202,236,-1,232,230,202,-1,202,230,228,-1,202,228,226,-1,220,218,202,-1,202,218,216,-1,202,216,214,-1,214,212,202,-1,202,212,210,-1,202,210,204,-1,204,210,208,-1,204,208,206,-1,242,240,202,-1,202,240,238,-1,202,238,236,-1,248,201,247,-1,247,201,200,-1,247,200,245,-1,215,217,200,-1,200,217,219,-1,200,219,221,-1,221,223,200,-1,200,223,302,-1,200,302,227,-1,207,209,205,-1,205,209,211,-1,205,211,200,-1,200,211,213,-1,200,213,215,-1,227,229,200,-1,200,229,231,-1,200,231,233,-1,233,235,200,-1,200,235,237,-1,200,237,239,-1,239,241,200,-1,200,241,243,-1,200,243,245,-1,196,199,197,-1,197,199,198,-1,196,197,195,-1,196,195,194,-1,194,195,193,-1,194,193,192,-1,192,193,191,-1,192,191,190,-1,190,191,189,-1,190,189,188,-1,188,189,187,-1,188,187,186,-1,186,187,185,-1,186,185,184,-1,184,185,183,-1,184,183,182,-1,182,183,181,-1,182,181,180,-1,180,181,179,-1,180,179,178,-1,178,179,177,-1,178,177,176,-1,176,177,175,-1,176,175,174,-1,174,175,173,-1,174,173,172,-1,172,173,171,-1,172,171,170,-1,170,171,169,-1,170,169,168,-1,168,169,167,-1,168,167,166,-1,166,167,165,-1,166,165,164,-1,164,165,163,-1,164,163,162,-1,162,163,161,-1,162,161,160,-1,160,161,159,-1,160,159,158,-1,158,159,157,-1,158,157,156,-1,156,157,155,-1,156,155,154,-1,154,155,150,-1,154,150,152,-1,153,152,151,-1,151,152,150,-1,199,153,198,-1,198,153,151,-1,153,199,152,-1,152,199,196,-1,180,152,182,-1,182,152,184,-1,174,172,170,-1,196,194,152,-1,152,194,192,-1,152,192,190,-1,190,188,152,-1,152,188,186,-1,152,186,184,-1,180,178,152,-1,152,178,176,-1,152,176,174,-1,170,168,174,-1,174,168,166,-1,174,166,164,-1,164,162,174,-1,174,162,160,-1,174,160,158,-1,158,156,174,-1,174,156,154,-1,174,154,152,-1,198,151,197,-1,197,151,150,-1,155,157,175,-1,175,157,159,-1,175,159,161,-1,161,163,175,-1,175,163,165,-1,175,165,167,-1,167,169,175,-1,175,169,171,-1,175,171,173,-1,155,175,150,-1,150,175,177,-1,150,177,179,-1,179,181,150,-1,150,181,183,-1,150,183,185,-1,185,187,150,-1,150,187,189,-1,150,189,191,-1,191,193,150,-1,150,193,195,-1,150,195,197,-1,304,305,306,-1,306,305,307,-1,304,306,308,-1,304,308,309,-1,309,308,310,-1,309,310,311,-1,311,310,312,-1,311,312,313,-1,313,312,314,-1,313,314,315,-1,315,314,316,-1,315,316,317,-1,317,316,318,-1,317,318,319,-1,319,318,320,-1,319,320,321,-1,321,320,322,-1,321,322,323,-1,323,322,324,-1,323,324,325,-1,325,324,326,-1,325,326,327,-1,327,326,328,-1,327,328,329,-1,329,328,330,-1,329,330,331,-1,331,330,332,-1,331,332,333,-1,333,332,334,-1,333,334,335,-1,335,334,336,-1,335,336,337,-1,337,336,338,-1,337,338,339,-1,339,338,340,-1,339,340,341,-1,341,340,342,-1,341,342,343,-1,343,342,344,-1,343,344,345,-1,345,344,346,-1,345,346,347,-1,347,346,348,-1,347,348,349,-1,349,348,350,-1,349,350,351,-1,352,351,353,-1,353,351,350,-1,305,352,307,-1,307,352,353,-1,352,305,351,-1,351,305,304,-1,304,309,351,-1,351,309,311,-1,351,311,313,-1,341,343,339,-1,339,343,337,-1,331,333,351,-1,351,333,335,-1,351,335,349,-1,349,335,347,-1,313,315,351,-1,351,315,317,-1,351,317,319,-1,325,327,351,-1,351,327,329,-1,351,329,331,-1,337,343,335,-1,335,343,345,-1,335,345,347,-1,319,321,351,-1,351,321,323,-1,351,323,325,-1,306,334,332,-1,324,322,308,-1,307,353,306,-1,306,353,350,-1,306,350,348,-1,306,342,340,-1,332,330,306,-1,306,330,328,-1,306,328,308,-1,308,328,326,-1,308,326,324,-1,348,346,306,-1,306,346,344,-1,306,344,342,-1,340,338,306,-1,306,338,336,-1,306,336,334,-1,320,312,322,-1,322,312,310,-1,322,310,308,-1,320,318,312,-1,312,318,316,-1,312,316,314,-1,354,355,356,-1,356,355,357,-1,354,356,358,-1,354,358,359,-1,359,358,360,-1,359,360,361,-1,361,360,362,-1,361,362,363,-1,363,362,364,-1,363,364,365,-1,365,364,366,-1,365,366,367,-1,367,366,368,-1,367,368,369,-1,369,368,370,-1,369,370,371,-1,371,370,372,-1,371,372,373,-1,373,372,374,-1,373,374,375,-1,375,374,376,-1,375,376,377,-1,377,376,378,-1,377,378,379,-1,379,378,380,-1,379,380,381,-1,381,380,382,-1,381,382,383,-1,383,382,384,-1,383,384,385,-1,385,384,386,-1,385,386,387,-1,387,386,388,-1,387,388,389,-1,389,388,390,-1,389,390,391,-1,391,390,392,-1,391,392,393,-1,393,392,394,-1,393,394,395,-1,395,394,396,-1,395,396,397,-1,397,396,398,-1,397,398,399,-1,399,398,400,-1,399,400,401,-1,402,401,403,-1,403,401,400,-1,355,402,357,-1,357,402,403,-1,383,385,354,-1,359,361,379,-1,377,379,375,-1,375,379,373,-1,359,379,354,-1,354,379,381,-1,354,381,383,-1,361,363,379,-1,379,363,365,-1,379,365,367,-1,367,369,379,-1,379,369,371,-1,379,371,373,-1,385,387,354,-1,354,387,389,-1,354,389,391,-1,391,393,354,-1,354,393,395,-1,354,395,397,-1,402,355,401,-1,401,355,354,-1,401,354,399,-1,399,354,397,-1,390,400,398,-1,384,382,400,-1,400,382,380,-1,400,380,378,-1,400,372,370,-1,364,362,400,-1,400,362,360,-1,390,388,400,-1,400,388,386,-1,400,386,384,-1,378,376,400,-1,400,376,374,-1,400,374,372,-1,370,368,400,-1,400,368,366,-1,400,366,364,-1,357,403,356,-1,356,403,400,-1,356,400,358,-1,358,400,360,-1,398,396,390,-1,390,396,394,-1,390,394,392,-1,404,405,406,-1,406,405,407,-1,404,406,408,-1,404,408,409,-1,409,408,410,-1,409,410,411,-1,411,410,412,-1,411,412,413,-1,413,412,414,-1,413,414,415,-1,415,414,416,-1,415,416,417,-1,417,416,418,-1,417,418,419,-1,419,418,420,-1,419,420,421,-1,421,420,422,-1,421,422,423,-1,423,422,424,-1,423,424,425,-1,425,424,426,-1,425,426,427,-1,427,426,428,-1,427,428,429,-1,429,428,430,-1,429,430,431,-1,431,430,432,-1,431,432,433,-1,433,432,434,-1,433,434,435,-1,435,434,436,-1,435,436,437,-1,437,436,438,-1,437,438,439,-1,439,438,440,-1,439,440,441,-1,441,440,442,-1,441,442,443,-1,443,442,444,-1,443,444,445,-1,445,444,446,-1,445,446,447,-1,447,446,448,-1,447,448,449,-1,449,448,450,-1,449,450,451,-1,452,451,453,-1,453,451,450,-1,405,452,407,-1,407,452,453,-1,451,423,425,-1,433,435,449,-1,452,405,451,-1,451,405,404,-1,451,404,409,-1,451,415,417,-1,425,427,451,-1,451,427,429,-1,451,429,449,-1,449,429,431,-1,449,431,433,-1,417,419,451,-1,451,419,421,-1,451,421,423,-1,437,445,435,-1,435,445,447,-1,435,447,449,-1,437,439,445,-1,445,439,441,-1,445,441,443,-1,409,411,451,-1,451,411,413,-1,451,413,415,-1,407,453,406,-1,406,453,450,-1,424,422,406,-1,424,406,426,-1,450,448,406,-1,406,448,446,-1,406,446,444,-1,422,420,406,-1,406,420,418,-1,406,418,416,-1,444,442,406,-1,406,442,440,-1,406,440,438,-1,432,430,406,-1,406,430,428,-1,406,428,426,-1,438,436,406,-1,406,436,434,-1,406,434,432,-1,416,414,406,-1,406,414,412,-1,406,412,408,-1,408,412,410,-1,454,455,456,-1,456,455,457,-1,454,456,458,-1,454,458,459,-1,459,458,460,-1,459,460,461,-1,461,460,462,-1,461,462,463,-1,463,462,464,-1,463,464,465,-1,465,464,466,-1,465,466,467,-1,467,466,468,-1,467,468,469,-1,469,468,470,-1,469,470,471,-1,471,470,472,-1,471,472,473,-1,473,472,474,-1,473,474,475,-1,475,474,476,-1,475,476,477,-1,477,476,478,-1,477,478,479,-1,479,478,480,-1,479,480,481,-1,481,480,482,-1,481,482,483,-1,483,482,484,-1,483,484,485,-1,485,484,486,-1,485,486,487,-1,487,486,488,-1,487,488,489,-1,489,488,490,-1,489,490,491,-1,491,490,492,-1,491,492,493,-1,493,492,494,-1,493,494,495,-1,495,494,496,-1,495,496,497,-1,497,496,498,-1,497,498,499,-1,499,498,500,-1,499,500,501,-1,502,501,503,-1,503,501,500,-1,455,502,457,-1,457,502,503,-1,502,455,501,-1,501,455,454,-1,454,459,501,-1,501,459,461,-1,501,461,463,-1,463,465,501,-1,501,465,467,-1,501,467,469,-1,469,471,501,-1,501,471,473,-1,501,473,475,-1,475,477,501,-1,501,477,479,-1,501,479,481,-1,491,493,489,-1,489,493,487,-1,481,483,501,-1,501,483,485,-1,501,485,499,-1,499,485,497,-1,487,493,485,-1,485,493,495,-1,485,495,497,-1,457,503,456,-1,456,503,500,-1,462,460,500,-1,500,460,458,-1,500,458,456,-1,500,482,480,-1,480,478,500,-1,500,478,476,-1,500,476,474,-1,474,472,500,-1,500,472,470,-1,500,470,468,-1,468,466,500,-1,500,466,464,-1,500,464,462,-1,496,494,484,-1,484,494,492,-1,484,492,486,-1,486,492,490,-1,486,490,488,-1,482,500,484,-1,484,500,498,-1,484,498,496,-1,504,505,506,-1,506,505,507,-1,504,506,508,-1,504,508,509,-1,509,508,510,-1,509,510,511,-1,511,510,512,-1,511,512,513,-1,513,512,514,-1,513,514,515,-1,515,514,516,-1,515,516,517,-1,517,516,518,-1,517,518,519,-1,519,518,520,-1,519,520,521,-1,521,520,522,-1,521,522,523,-1,523,522,524,-1,523,524,525,-1,525,524,526,-1,525,526,527,-1,527,526,528,-1,527,528,529,-1,529,528,530,-1,529,530,531,-1,531,530,532,-1,531,532,533,-1,533,532,534,-1,533,534,535,-1,535,534,536,-1,535,536,537,-1,537,536,538,-1,537,538,539,-1,539,538,540,-1,539,540,541,-1,541,540,542,-1,541,542,543,-1,543,542,544,-1,543,544,545,-1,545,544,546,-1,545,546,547,-1,547,546,548,-1,547,548,549,-1,549,548,550,-1,549,550,551,-1,552,551,553,-1,553,551,550,-1,505,552,507,-1,507,552,553,-1,521,523,504,-1,523,525,504,-1,504,525,527,-1,504,527,529,-1,529,531,504,-1,504,531,533,-1,504,533,535,-1,513,515,511,-1,511,515,517,-1,511,517,509,-1,509,517,504,-1,504,517,519,-1,504,519,521,-1,535,537,504,-1,504,537,539,-1,504,539,541,-1,541,543,504,-1,504,543,545,-1,504,545,547,-1,552,505,551,-1,551,505,504,-1,551,504,549,-1,549,504,547,-1,540,550,548,-1,534,532,550,-1,550,532,530,-1,550,530,528,-1,528,526,550,-1,550,526,524,-1,550,524,522,-1,540,538,550,-1,550,538,536,-1,550,536,534,-1,522,520,550,-1,550,520,518,-1,550,518,516,-1,548,546,540,-1,540,546,544,-1,540,544,542,-1,516,514,550,-1,550,514,512,-1,550,512,510,-1,507,553,506,-1,506,553,550,-1,506,550,508,-1,508,550,510,-1,554,555,556,-1,556,555,557,-1,554,556,558,-1,554,558,559,-1,559,558,560,-1,559,560,561,-1,561,560,562,-1,561,562,563,-1,563,562,564,-1,563,564,565,-1,565,564,566,-1,565,566,567,-1,567,566,568,-1,567,568,569,-1,569,568,570,-1,569,570,571,-1,571,570,572,-1,571,572,573,-1,573,572,574,-1,573,574,575,-1,575,574,576,-1,575,576,577,-1,577,576,578,-1,577,578,579,-1,579,578,580,-1,579,580,581,-1,581,580,582,-1,581,582,583,-1,583,582,584,-1,583,584,585,-1,585,584,586,-1,585,586,587,-1,587,586,588,-1,587,588,589,-1,589,588,590,-1,589,590,591,-1,591,590,592,-1,591,592,593,-1,593,592,594,-1,593,594,595,-1,595,594,596,-1,595,596,597,-1,597,596,598,-1,597,598,599,-1,599,598,600,-1,599,600,601,-1,602,601,603,-1,603,601,600,-1,555,602,557,-1,557,602,603,-1,583,585,599,-1,565,567,601,-1,601,567,569,-1,602,555,601,-1,601,555,554,-1,601,554,559,-1,569,571,601,-1,601,571,573,-1,601,573,575,-1,575,577,601,-1,601,577,579,-1,601,579,599,-1,599,579,581,-1,599,581,583,-1,559,561,601,-1,601,561,563,-1,601,563,565,-1,587,595,585,-1,585,595,597,-1,585,597,599,-1,587,589,595,-1,595,589,591,-1,595,591,593,-1,557,603,556,-1,556,603,600,-1,574,572,556,-1,574,556,576,-1,600,598,556,-1,556,598,596,-1,556,596,594,-1,572,570,556,-1,556,570,568,-1,556,568,566,-1,566,564,556,-1,556,564,562,-1,556,562,558,-1,558,562,560,-1,594,592,556,-1,556,592,590,-1,556,590,588,-1,582,580,556,-1,556,580,578,-1,556,578,576,-1,588,586,556,-1,556,586,584,-1,556,584,582,-1,
        ]
    }
}