#VRML V2.0 utf8
# 3D model generated by easyeda2kicad.py (https://github.com/uPesy/easyeda2kicad.py)

Shape{
    appearance Appearance {
        material  Material 	{
            diffuseColor 0.7529411764705882 0.7529411764705882 0.7529411764705882
            specularColor 0.3764705882352941 0.3764705882352941 0.3764705882352941
            ambientIntensity 0.7529
            transparency 0.0
            shininess 0.5
        }
    }
    geometry IndexedFaceSet {
        ccw TRUE
        solid FALSE
        coord DEF co Coordinate {
            point [
                -0.8447 -0.4984 0.0, -0.8071 -0.5873 0.0, -0.8849 -0.5085 0.0, -0.9484 -0.5873 0.0, -0.9484 -0.5267 0.0, -0.8278 -0.4596 0.0, -0.8498 -0.484 0.0, -0.8192 -0.4247 0.0, -0.8797 -0.4942 0.0, -0.886 -0.4944 0.0, -0.9184 -0.4862 0.0, -0.9412 -0.4645 0.0, -0.952 -0.4335 0.0, -0.9356 -0.3551 0.0, -0.836 -0.3551 0.0, -0.9262 -0.3675 0.0, -0.8454 -0.3675 0.0, -0.9458 -0.3926 0.0, -0.8257 -0.393 0.0, -0.9525 -0.4237 0.0, -0.8209 -0.4079 0.0, -0.8194 -0.4182 0.0, -0.9646 -0.6014 0.0, -0.9666 -0.4349 0.0, -0.9646 -0.5267 0.0, -0.9622 -0.4593 0.0, -0.9538 -0.4746 0.0, -0.8163 -0.4715 0.0, -0.8033 -0.4308 0.0, -0.6181 -0.3389 0.0, -0.803 -0.4238 0.0, -0.8111 -0.3854 0.0, -0.8211 -0.3692 0.0, -0.8298 -0.3601 0.0, -0.9666 -0.3389 0.0, -0.9604 -0.3853 0.0, -0.9464 -0.4836 0.0, -0.9411 -0.4886 0.0, -0.9149 -0.5038 0.0, -1.0827 -0.3389 0.0, -0.9686 -0.4236 0.0, -0.9665 -0.4032 0.0, -0.9666 -0.4037 0.0, -0.9683 -0.4157 0.0, -0.8071 -0.6014 0.0, -0.6181 -0.8071 0.0, -0.9666 -0.8071 0.0, -1.0827 -0.8071 0.0, -0.9646 -0.2057 0.0, -0.8071 -0.234 0.0, -0.8232 -0.234 0.0, -0.8878 -0.234 0.0, -0.8878 -0.3087 0.0, -0.9484 -0.3087 0.0, -0.8128 -0.1239 0.0, -0.8319 -0.0955 0.0, -0.8071 0.0184 0.0, -0.8232 -0.3087 0.0, -0.8717 -0.3087 0.0, -0.8717 -0.234 0.0, -0.9484 -0.234 0.0, -0.808 -0.1487 0.0, -0.8071 -0.1739 0.0, -0.8071 -0.2057 0.0, -0.9646 0.0931 0.0, -0.9666 0.4528 0.0, -0.8071 0.0204 0.0, -0.6181 0.4528 0.0, -0.8071 -0.3228 0.0, -0.9646 -0.3228 0.0, -0.9646 -0.234 0.0, -0.8631 -0.0794 0.0, -0.8878 -0.0765 0.0, -0.9646 -0.0563 0.0, -0.9275 -0.0854 0.0, -0.9516 -0.1054 0.0, -0.9141 0.0545 0.0, -0.9141 -0.0169 0.0, -0.9646 0.0778 0.0, -0.9646 -0.0409 0.0, -0.9646 -0.1569 0.0, -0.9633 -0.1367 0.0, -1.0827 0.4528 0.0, -0.2093 0.2953 1.1508, -0.2093 0.2953 0.6365, -0.2093 0.4134 1.1508, -0.2093 0.4134 0.6365, 0.2093 0.2953 0.6365, 0.2093 0.2953 1.1508, 0.2093 0.4134 0.6365, 0.2093 0.4134 1.1508, -1.0827 -0.6496 1.2598, -1.0827 -0.8071 1.2598, -0.8465 -0.6496 1.2598, -0.7677 -0.8071 1.2598, -0.7677 -0.6496 1.2598, 0.3661 -0.2815 0.0197, 0.3661 -0.2815 0.0984, 0.3661 -0.8071 0.0984, 0.3661 0.4528 0.0, 0.3661 0.4528 0.0984, 0.3661 0.1846 0.0984, 0.3661 0.1846 0.0197, 0.3661 -0.8071 0.0, 0.6181 -0.8071 0.0984, 0.6181 -0.2815 0.0984, 0.6181 0.4528 0.0984, 0.6181 0.1846 0.0984, 0.6181 0.1846 0.0197, 0.6181 0.4528 0.0, 0.6181 -0.2815 0.0197, 0.6181 -0.8071 0.0, -0.126 -0.2815 0.0197, -0.126 -0.2815 0.0984, -0.126 -0.8071 0.0984, -0.126 0.4528 0.0, -0.126 0.4528 0.0984, -0.126 0.1846 0.0984, -0.126 0.1846 0.0197, -0.126 -0.8071 0.0, 0.126 -0.8071 0.0984, 0.126 -0.2815 0.0984, 0.126 0.4528 0.0984, 0.126 0.1846 0.0984, 0.126 0.1846 0.0197, 0.126 0.4528 0.0, 0.126 -0.2815 0.0197, 0.126 -0.8071 0.0, -0.3661 -0.8071 0.0, -0.3661 0.4528 0.0, -0.6181 0.4528 0.0984, -0.6181 0.1846 0.0984, -0.6181 0.1846 0.0197, -0.6181 -0.8071 0.0984, -0.6181 -0.2815 0.0984, -0.6181 -0.2815 0.0197, -0.3661 -0.8071 0.0984, -0.3661 -0.2815 0.0984, -0.3661 0.4528 0.0984, -0.3661 0.1846 0.0984, -0.3661 0.1846 0.0197, -0.3661 -0.2815 0.0197, -0.8465 -0.0 1.5748, -0.8465 -0.0 0.4724, -0.8465 0.2953 1.5748, -0.8465 0.2953 0.4724, 0.8465 -0.3558 0.4724, 0.8465 -0.6496 0.4724, 0.8465 -0.3558 1.5748, 0.8465 -0.6496 1.2598, 0.8465 -0.6496 1.5748, -0.8465 -0.6496 1.5748, -0.9252 -0.6496 1.6535, -1.0827 -0.6496 1.6535, 1.0827 -0.8071 1.2598, 1.0827 -0.8071 0.0, 1.0827 -0.6496 1.2598, 1.0827 0.4528 0.0, 1.0827 -0.6496 1.6535, 1.0827 0.4528 1.6535, -0.6435 0.4528 0.6365, 0.6435 0.4528 0.6365, 0.6435 0.4528 1.328, -1.0827 0.4528 1.6535, -0.6435 0.4528 1.328, -0.7677 -0.8071 1.1024, 0.7677 -0.8071 1.1024, 0.7677 -0.8071 1.2598, -0.9252 -0.3558 1.6535, -0.9646 -0.3558 1.6535, -0.9646 -0.0 1.6535, -0.9252 -0.0 1.6535, -0.9252 0.374 1.6535, 0.9252 0.374 1.6535, 0.9252 -0.3558 1.6535, 0.9252 -0.6496 1.6535, 0.9646 -0.3558 1.6535, 0.9646 -0.0 1.6535, 0.9252 -0.0 1.6535, 0.7677 -0.6496 1.2598, -0.7677 -0.6496 1.0236, 0.7677 -0.6496 1.0236, -0.8465 -0.6496 0.4724, -0.8465 -0.3558 0.4724, -0.8465 -0.3558 1.5748, 0.8465 0.2953 0.4724, 0.8465 0.2953 1.5748, 0.8465 -0.0 1.5748, 0.8465 -0.0 0.4724, -0.4291 -0.128 0.4724, -0.5551 -0.128 0.4724, -0.9646 -0.3558 0.4724, -0.9646 -0.0 0.4724, -0.5551 0.1279 0.4724, -0.4291 0.1279 0.4724, 0.4291 0.1279 0.4724, 0.5551 0.1279 0.4724, 0.5551 -0.128 0.4724, 0.063 -0.128 0.4724, -0.063 -0.128 0.4724, 0.063 0.1279 0.4724, 0.4291 -0.128 0.4724, 0.9646 -0.3558 0.4724, 0.9646 -0.0 0.4724, -0.063 0.1279 0.4724, -0.5551 -0.0689 0.0197, -0.4291 -0.0689 0.0197, -0.4291 0.0689 0.0197, -0.5551 0.0689 0.0197
            ]
        }
        coordIndex [
            0,1,2,-1,2,1,3,-1,2,3,4,-1,5,6,7,-1,7,6,8,-1,7,8,9,-1,9,10,7,-1,7,10,11,-1,7,11,12,-1,13,14,15,-1,15,14,16,-1,15,16,17,-1,17,16,18,-1,17,18,19,-1,19,18,20,-1,19,20,12,-1,12,20,21,-1,12,21,7,-1,22,23,24,-1,24,23,25,-1,24,25,26,-1,27,28,29,-1,28,30,29,-1,29,30,31,-1,29,31,32,-1,32,33,29,-1,29,33,14,-1,29,14,34,-1,34,14,13,-1,34,13,35,-1,26,36,24,-1,24,36,37,-1,24,37,4,-1,4,37,38,-1,4,38,2,-1,39,40,23,-1,35,41,34,-1,34,41,42,-1,34,42,39,-1,39,42,43,-1,39,43,40,-1,0,27,1,-1,1,27,29,-1,1,29,44,-1,44,29,45,-1,44,45,22,-1,22,45,46,-1,22,46,23,-1,23,46,47,-1,23,47,39,-1,48,49,50,-1,51,52,53,-1,54,55,56,-1,57,58,50,-1,50,58,59,-1,50,59,48,-1,48,59,51,-1,48,51,60,-1,60,51,53,-1,61,29,62,-1,62,29,63,-1,64,65,66,-1,66,65,67,-1,66,67,56,-1,56,67,29,-1,56,29,54,-1,54,29,61,-1,48,63,49,-1,49,63,29,-1,49,29,68,-1,68,29,34,-1,68,34,69,-1,69,34,70,-1,55,71,56,-1,56,71,72,-1,56,72,73,-1,73,72,74,-1,73,74,75,-1,76,77,78,-1,78,77,79,-1,78,79,34,-1,34,79,73,-1,60,70,48,-1,48,70,34,-1,48,34,80,-1,80,34,73,-1,80,73,81,-1,81,73,75,-1,39,82,34,-1,34,82,65,-1,34,65,78,-1,78,65,64,-1,83,84,85,-1,85,84,86,-1,87,88,89,-1,89,88,90,-1,88,83,90,-1,90,83,85,-1,91,92,93,-1,93,92,94,-1,93,94,95,-1,96,97,98,-1,99,100,101,-1,101,102,99,-1,99,102,96,-1,99,96,103,-1,103,96,98,-1,104,98,105,-1,105,98,97,-1,100,106,101,-1,101,106,107,-1,107,106,108,-1,108,106,109,-1,108,109,110,-1,110,109,111,-1,110,111,105,-1,105,111,104,-1,112,113,114,-1,115,116,117,-1,117,118,115,-1,115,118,112,-1,115,112,119,-1,119,112,114,-1,120,114,121,-1,121,114,113,-1,116,122,117,-1,117,122,123,-1,123,122,124,-1,124,122,125,-1,124,125,126,-1,126,125,127,-1,126,127,121,-1,121,127,120,-1,119,128,115,-1,115,128,129,-1,125,99,127,-1,127,99,103,-1,130,131,67,-1,67,131,132,-1,67,132,29,-1,133,45,134,-1,134,45,29,-1,134,29,135,-1,135,29,132,-1,136,133,137,-1,137,133,134,-1,130,138,131,-1,131,138,139,-1,139,138,140,-1,140,138,129,-1,140,129,141,-1,141,129,128,-1,141,128,137,-1,137,128,136,-1,142,143,144,-1,144,143,145,-1,146,147,148,-1,148,147,149,-1,148,149,150,-1,93,151,91,-1,91,151,152,-1,91,152,153,-1,154,155,156,-1,156,155,157,-1,156,157,158,-1,158,157,159,-1,116,115,129,-1,138,130,160,-1,161,106,160,-1,160,106,100,-1,109,106,157,-1,157,106,161,-1,157,161,159,-1,159,161,162,-1,159,162,163,-1,163,162,164,-1,163,164,82,-1,82,164,160,-1,82,160,65,-1,65,160,130,-1,65,130,67,-1,129,138,116,-1,116,138,160,-1,116,160,122,-1,122,160,100,-1,122,100,125,-1,125,100,99,-1,91,153,163,-1,47,92,39,-1,39,92,91,-1,39,91,82,-1,82,91,163,-1,45,133,46,-1,46,133,92,-1,46,92,47,-1,94,92,165,-1,165,92,133,-1,165,133,166,-1,166,133,136,-1,114,120,154,-1,128,119,136,-1,136,119,114,-1,136,114,166,-1,166,114,154,-1,166,154,167,-1,111,155,104,-1,104,155,154,-1,104,154,98,-1,98,154,120,-1,98,120,103,-1,103,120,127,-1,153,152,168,-1,168,169,153,-1,153,169,170,-1,153,170,163,-1,170,171,163,-1,163,171,172,-1,163,172,159,-1,159,172,173,-1,174,175,176,-1,176,175,158,-1,176,158,177,-1,177,158,159,-1,177,159,178,-1,178,159,173,-1,109,157,111,-1,111,157,155,-1,150,149,175,-1,175,149,156,-1,175,156,158,-1,179,167,149,-1,149,167,154,-1,149,154,156,-1,93,95,180,-1,179,149,181,-1,181,149,147,-1,181,147,180,-1,180,147,182,-1,180,182,93,-1,182,183,93,-1,93,183,184,-1,93,184,151,-1,83,144,84,-1,84,144,145,-1,84,145,87,-1,87,145,185,-1,87,185,88,-1,88,185,186,-1,88,186,83,-1,83,186,144,-1,186,185,187,-1,187,185,188,-1,183,189,190,-1,183,190,191,-1,192,191,143,-1,143,191,190,-1,143,190,145,-1,145,190,193,-1,145,193,194,-1,145,195,185,-1,185,195,196,-1,185,196,188,-1,188,196,197,-1,147,198,182,-1,182,198,199,-1,200,198,201,-1,201,198,147,-1,201,147,197,-1,197,147,146,-1,197,146,188,-1,188,146,202,-1,188,202,203,-1,183,182,189,-1,189,182,199,-1,189,199,194,-1,194,199,204,-1,194,204,145,-1,145,204,200,-1,145,200,195,-1,195,200,201,-1,146,148,202,-1,202,148,174,-1,202,174,176,-1,177,203,176,-1,176,203,202,-1,187,188,178,-1,178,188,203,-1,178,203,177,-1,143,142,192,-1,192,142,171,-1,192,171,170,-1,169,191,170,-1,170,191,192,-1,184,183,168,-1,168,183,191,-1,168,191,169,-1,135,141,134,-1,134,141,137,-1,140,132,139,-1,139,132,131,-1,205,135,132,-1,135,205,141,-1,141,205,206,-1,141,206,140,-1,140,206,207,-1,140,207,132,-1,132,207,208,-1,132,208,205,-1,
        ]
    }
}
Shape{
    appearance Appearance {
        material  Material 	{
            diffuseColor 0.796078431372549 0.8235294117647058 0.9372549019607843
            specularColor 0.396078431372549 0.4117647058823529 0.4666666666666667
            ambientIntensity 0.8283
            transparency 0.0
            shininess 0.5
        }
    }
    geometry IndexedFaceSet {
        ccw TRUE
        solid FALSE
        coord DEF co Coordinate {
            point [
                -0.5551 0.0295 -0.9055, -0.5551 0.0689 -0.8661, -0.4291 0.0295 -0.9055, -0.4291 0.0689 -0.8661, -0.5551 -0.0295 -0.9055, -0.4291 -0.0295 -0.9055, -0.5551 -0.0689 -0.8661, -0.4291 -0.0689 -0.8661, -0.4291 0.0689 0.0197, -0.4291 -0.0689 0.0197, -0.5551 -0.0689 0.0197, -0.5551 0.0689 0.0197, -0.5551 0.1279 0.4724, -0.5551 0.1279 1.193, -0.4291 0.1279 0.4724, -0.4291 0.1279 1.193, -0.4291 -0.128 0.4724, -0.4291 -0.128 1.193, -0.5551 -0.128 0.4724, -0.5551 -0.128 1.193, -0.5551 -0.0689 1.3879, -0.5551 0.0689 1.3879, -0.4291 0.0689 1.3879, -0.4291 -0.0689 1.3879
            ]
        }
        coordIndex [
            0,1,2,-1,2,1,3,-1,4,0,5,-1,5,0,2,-1,6,4,7,-1,7,4,5,-1,2,3,5,-1,5,3,8,-1,5,8,7,-1,7,8,9,-1,4,6,0,-1,0,6,10,-1,0,10,1,-1,1,10,11,-1,6,7,10,-1,10,7,9,-1,3,1,8,-1,8,1,11,-1,12,13,14,-1,14,13,15,-1,16,17,18,-1,18,17,19,-1,20,21,19,-1,19,21,13,-1,19,13,18,-1,18,13,12,-1,22,23,15,-1,15,23,17,-1,15,17,14,-1,14,17,16,-1,20,19,23,-1,23,19,17,-1,21,20,22,-1,22,20,23,-1,13,21,15,-1,15,21,22,-1,
        ]
    }
}
Shape{
    appearance Appearance {
        material  Material 	{
            diffuseColor 0.7529411764705882 0.7529411764705882 0.7529411764705882
            specularColor 0.3764705882352941 0.3764705882352941 0.3764705882352941
            ambientIntensity 0.7529
            transparency 0.0
            shininess 0.5
        }
    }
    geometry IndexedFaceSet {
        ccw TRUE
        solid FALSE
        coord DEF co Coordinate {
            point [
                -0.126 -0.2815 0.0197, 0.126 -0.2815 0.0197, -0.126 -0.2815 0.0984, 0.126 -0.2815 0.0984, 0.126 0.1846 0.0197, -0.126 0.1846 0.0197, 0.126 0.1846 0.0984, -0.126 0.1846 0.0984, -0.063 -0.0689 0.0197, 0.063 -0.0689 0.0197, 0.063 0.0689 0.0197, -0.063 0.0689 0.0197, 0.3661 -0.2815 0.0197, 0.6181 -0.2815 0.0197, 0.3661 -0.2815 0.0984, 0.6181 -0.2815 0.0984, 0.6181 0.1846 0.0197, 0.3661 0.1846 0.0197, 0.6181 0.1846 0.0984, 0.3661 0.1846 0.0984, 0.4291 -0.0689 0.0197, 0.5551 -0.0689 0.0197, 0.5551 0.0689 0.0197, 0.4291 0.0689 0.0197
            ]
        }
        coordIndex [
            0,1,2,-1,2,1,3,-1,4,5,6,-1,6,5,7,-1,8,0,5,-1,0,8,1,-1,1,8,9,-1,1,9,4,-1,4,9,10,-1,4,10,5,-1,5,10,11,-1,5,11,8,-1,12,13,14,-1,14,13,15,-1,16,17,18,-1,18,17,19,-1,20,12,17,-1,12,20,13,-1,13,20,21,-1,13,21,16,-1,16,21,22,-1,16,22,17,-1,17,22,23,-1,17,23,20,-1,
        ]
    }
}
Shape{
    appearance Appearance {
        material  Material 	{
            diffuseColor 0.796078431372549 0.8235294117647058 0.9372549019607843
            specularColor 0.396078431372549 0.4117647058823529 0.4666666666666667
            ambientIntensity 0.8283
            transparency 0.0
            shininess 0.5
        }
    }
    geometry IndexedFaceSet {
        ccw TRUE
        solid FALSE
        coord DEF co Coordinate {
            point [
                -0.063 0.0295 -0.9055, -0.063 0.0689 -0.8661, 0.063 0.0295 -0.9055, 0.063 0.0689 -0.8661, -0.063 -0.0295 -0.9055, 0.063 -0.0295 -0.9055, -0.063 -0.0689 -0.8661, 0.063 -0.0689 -0.8661, 0.063 0.0689 0.0197, 0.063 -0.0689 0.0197, -0.063 -0.0689 0.0197, -0.063 0.0689 0.0197, -0.063 0.1279 0.4724, -0.063 0.1279 1.193, 0.063 0.1279 0.4724, 0.063 0.1279 1.193, 0.063 -0.128 0.4724, 0.063 -0.128 1.193, -0.063 -0.128 0.4724, -0.063 -0.128 1.193, -0.063 -0.0689 1.3879, -0.063 0.0689 1.3879, 0.063 0.0689 1.3879, 0.063 -0.0689 1.3879, 0.4291 0.0295 -0.9055, 0.4291 0.0689 -0.8661, 0.5551 0.0295 -0.9055, 0.5551 0.0689 -0.8661, 0.4291 -0.0295 -0.9055, 0.5551 -0.0295 -0.9055, 0.4291 -0.0689 -0.8661, 0.5551 -0.0689 -0.8661, 0.5551 0.0689 0.0197, 0.5551 -0.0689 0.0197, 0.4291 -0.0689 0.0197, 0.4291 0.0689 0.0197, 0.4291 0.1279 0.4724, 0.4291 0.1279 1.193, 0.5551 0.1279 0.4724, 0.5551 0.1279 1.193, 0.5551 -0.128 0.4724, 0.5551 -0.128 1.193, 0.4291 -0.128 0.4724, 0.4291 -0.128 1.193, 0.4291 -0.0689 1.3879, 0.4291 0.0689 1.3879, 0.5551 0.0689 1.3879, 0.5551 -0.0689 1.3879
            ]
        }
        coordIndex [
            0,1,2,-1,2,1,3,-1,4,0,5,-1,5,0,2,-1,6,4,7,-1,7,4,5,-1,2,3,5,-1,5,3,8,-1,5,8,7,-1,7,8,9,-1,4,6,0,-1,0,6,10,-1,0,10,1,-1,1,10,11,-1,6,7,10,-1,10,7,9,-1,3,1,8,-1,8,1,11,-1,12,13,14,-1,14,13,15,-1,16,17,18,-1,18,17,19,-1,20,21,19,-1,19,21,13,-1,19,13,18,-1,18,13,12,-1,22,23,15,-1,15,23,17,-1,15,17,14,-1,14,17,16,-1,20,19,23,-1,23,19,17,-1,21,20,22,-1,22,20,23,-1,13,21,15,-1,15,21,22,-1,24,25,26,-1,26,25,27,-1,28,24,29,-1,29,24,26,-1,30,28,31,-1,31,28,29,-1,27,32,26,-1,26,32,33,-1,26,33,29,-1,29,33,31,-1,28,30,24,-1,24,30,34,-1,24,34,25,-1,25,34,35,-1,30,31,34,-1,34,31,33,-1,27,25,32,-1,32,25,35,-1,36,37,38,-1,38,37,39,-1,40,41,42,-1,42,41,43,-1,44,45,43,-1,43,45,37,-1,43,37,42,-1,42,37,36,-1,46,47,39,-1,39,47,41,-1,39,41,38,-1,38,41,40,-1,44,43,47,-1,47,43,41,-1,45,44,46,-1,46,44,47,-1,37,45,39,-1,39,45,46,-1,
        ]
    }
}
Shape{
    appearance Appearance {
        material  Material 	{
            diffuseColor 0.7529411764705882 0.7529411764705882 0.7529411764705882
            specularColor 0.3764705882352941 0.3764705882352941 0.3764705882352941
            ambientIntensity 0.7529
            transparency 0.0
            shininess 0.5
        }
    }
    geometry IndexedFaceSet {
        ccw TRUE
        solid FALSE
        coord DEF co Coordinate {
            point [
                -0.7677 -0.8071 1.2598, -0.7677 -0.8071 1.1024, -0.7677 -0.6496 1.2598, -0.7677 -0.7284 1.1024, -0.7677 -0.6496 1.0236, 0.7677 -0.8071 1.1024, 0.7677 -0.8071 1.2598, 0.7677 -0.7284 1.1024, 0.7677 -0.6496 1.2598, 0.7677 -0.6496 1.0236, 0.6435 0.4528 0.6365, -0.6435 0.4528 0.6365, -0.2093 0.4134 0.6365, -0.6435 0.4134 0.6365, 0.6435 0.4134 0.6365, 0.2093 0.4134 0.6365, 0.2093 0.2953 0.6365, -0.2093 0.2953 0.6365, -0.2093 0.4134 1.1508, -0.6435 0.4134 1.328, 0.2093 0.4134 1.1508, 0.6435 0.4134 1.328, -0.6435 0.4528 1.328, 0.6435 0.4528 1.328, -0.8071 0.0184 0.0197, -0.8071 0.0204 0.0197, -0.8071 0.0184 0.0, -0.8071 0.0204 0.0, -0.9646 0.0931 0.0197, -0.9646 0.0931 0.0, -0.9646 0.0778 0.0197, -0.9646 0.0778 0.0, -0.9141 0.0545 0.0197, -0.9141 0.0545 0.0, -0.9141 -0.0169 0.0197, -0.9141 -0.0169 0.0, -0.9646 -0.0409 0.0197, -0.9646 -0.0409 0.0, -0.9646 -0.0563 0.0197, -0.9646 -0.0563 0.0, -0.8979 -0.0093 0.0197, -0.8378 0.0193 0.0197, -0.8979 0.047 0.0197, -0.8979 0.047 0.0, -0.8378 0.0193 0.0, -0.8979 -0.0093 0.0, -0.9646 -0.1569 0.0197, -0.9646 -0.2057 0.0197, -0.9646 -0.1569 0.0, -0.9646 -0.2057 0.0, -0.8071 -0.2057 0.0197, -0.8071 -0.2057 0.0, -0.8071 -0.1739 0.0197, -0.8071 -0.1739 0.0, -0.8128 -0.1239 0.0197, -0.8128 -0.1239 0.0, -0.808 -0.1487 0.0, -0.808 -0.1487 0.0197, -0.8878 -0.0765 0.0197, -0.8878 -0.0765 0.0, -0.8631 -0.0794 0.0, -0.8631 -0.0794 0.0197, -0.8319 -0.0955 0.0, -0.8319 -0.0955 0.0197, -0.9633 -0.1367 0.0, -0.9633 -0.1367 0.0197, -0.9516 -0.1054 0.0, -0.9516 -0.1054 0.0197, -0.9275 -0.0854 0.0, -0.9275 -0.0854 0.0197, -0.9444 -0.1285 0.0197, -0.9478 -0.1508 0.0197, -0.9484 -0.1735 0.0197, -0.9484 -0.1916 0.0197, -0.8232 -0.1916 0.0197, -0.8232 -0.1805 0.0197, -0.824 -0.1561 0.0197, -0.8277 -0.1321 0.0197, -0.836 -0.1147 0.0197, -0.8563 -0.0975 0.0197, -0.8878 -0.0906 0.0197, -0.9075 -0.0931 0.0197, -0.9303 -0.1059 0.0197, -0.8232 -0.1916 0.0, -0.9484 -0.1916 0.0, -0.8232 -0.1805 0.0, -0.824 -0.1561 0.0, -0.8277 -0.1321 0.0, -0.836 -0.1147 0.0, -0.8563 -0.0975 0.0, -0.8878 -0.0906 0.0, -0.9075 -0.0931 0.0, -0.9303 -0.1059 0.0, -0.9444 -0.1285 0.0, -0.9478 -0.1508 0.0, -0.9484 -0.1735 0.0, -0.9646 -0.3228 0.0197, -0.8071 -0.3228 0.0197, -0.9646 -0.3228 0.0, -0.8071 -0.3228 0.0, -0.8071 -0.234 0.0197, -0.8071 -0.234 0.0, -0.8232 -0.234 0.0197, -0.8232 -0.234 0.0, -0.8232 -0.3087 0.0197, -0.8232 -0.3087 0.0, -0.8717 -0.3087 0.0197, -0.8717 -0.3087 0.0, -0.8717 -0.234 0.0197, -0.8717 -0.234 0.0, -0.8878 -0.234 0.0197, -0.8878 -0.234 0.0, -0.8878 -0.3087 0.0197, -0.8878 -0.3087 0.0, -0.9484 -0.3087 0.0197, -0.9484 -0.3087 0.0, -0.9484 -0.234 0.0197, -0.9484 -0.234 0.0, -0.9646 -0.234 0.0197, -0.9646 -0.234 0.0, -0.836 -0.3551 0.0197, -0.836 -0.3551 0.0, -0.8298 -0.3601 0.0, -0.8298 -0.3601 0.0197, -0.8211 -0.3692 0.0, -0.8211 -0.3692 0.0197, -0.8111 -0.3854 0.0, -0.8111 -0.3854 0.0197, -0.803 -0.4238 0.0, -0.803 -0.4238 0.0197, -0.8454 -0.3675 0.0197, -0.8454 -0.3675 0.0, -0.8192 -0.4247 0.0197, -0.8192 -0.4247 0.0, -0.8194 -0.4182 0.0, -0.8194 -0.4182 0.0197, -0.8209 -0.4079 0.0, -0.8209 -0.4079 0.0197, -0.8257 -0.393 0.0, -0.8257 -0.393 0.0197, -0.886 -0.4944 0.0197, -0.886 -0.4944 0.0, -0.8797 -0.4942 0.0, -0.8797 -0.4942 0.0197, -0.8498 -0.484 0.0, -0.8498 -0.484 0.0197, -0.8278 -0.4596 0.0, -0.8278 -0.4596 0.0197, -0.9525 -0.4237 0.0197, -0.9525 -0.4237 0.0, -0.952 -0.4335 0.0, -0.952 -0.4335 0.0197, -0.9412 -0.4645 0.0, -0.9412 -0.4645 0.0197, -0.9184 -0.4862 0.0, -0.9184 -0.4862 0.0197, -0.9262 -0.3675 0.0197, -0.9262 -0.3675 0.0, -0.9458 -0.3926 0.0, -0.9458 -0.3926 0.0197, -0.9356 -0.3551 0.0197, -0.9356 -0.3551 0.0, -0.9686 -0.4236 0.0197, -0.9686 -0.4236 0.0, -0.9683 -0.4157 0.0, -0.9683 -0.4157 0.0197, -0.9666 -0.4037 0.0, -0.9665 -0.4032 0.0197, -0.9665 -0.4032 0.0, -0.9604 -0.3853 0.0, -0.9604 -0.3853 0.0197, -0.9411 -0.4886 0.0197, -0.9411 -0.4886 0.0, -0.9464 -0.4836 0.0, -0.9464 -0.4836 0.0197, -0.9538 -0.4746 0.0, -0.9538 -0.4746 0.0197, -0.9622 -0.4593 0.0, -0.9622 -0.4593 0.0197, -0.9666 -0.4349 0.0, -0.8849 -0.5085 0.0197, -0.8849 -0.5085 0.0, -0.9149 -0.5038 0.0, -0.9149 -0.5038 0.0197, -0.8033 -0.4308 0.0, -0.8033 -0.4308 0.0197, -0.8163 -0.4715 0.0, -0.8163 -0.4715 0.0197, -0.8447 -0.4984 0.0, -0.8447 -0.4984 0.0197, -0.9646 -0.6014 0.0197, -0.8071 -0.6014 0.0197, -0.9646 -0.6014 0.0, -0.8071 -0.6014 0.0, -0.8071 -0.5873 0.0197, -0.8071 -0.5873 0.0, -0.9484 -0.5873 0.0197, -0.9484 -0.5873 0.0, -0.9484 -0.5267 0.0197, -0.9484 -0.5267 0.0, -0.9646 -0.5267 0.0197, -0.9646 -0.5267 0.0, 0.9252 -0.3558 1.6535, 0.8465 -0.3558 1.5748, 0.9252 -0.6496 1.6535, 0.8465 -0.6496 1.5748, -0.8465 0.2953 1.5748, -0.9252 0.374 1.6535, -0.8465 -0.0 1.5748, -0.9252 -0.0 1.6535, 0.8465 0.2953 1.5748, 0.9252 0.374 1.6535, 0.9252 -0.0 1.6535, 0.8465 -0.0 1.5748, -0.9252 -0.6496 1.6535, -0.8465 -0.6496 1.5748, -0.9252 -0.3558 1.6535, -0.8465 -0.3558 1.5748
            ]
        }
        coordIndex [
            0,1,2,-1,2,1,3,-1,2,3,4,-1,5,6,7,-1,7,6,8,-1,7,8,9,-1,3,1,7,-1,7,1,5,-1,10,11,12,-1,12,11,13,-1,14,10,15,-1,15,10,12,-1,15,12,16,-1,16,12,17,-1,12,13,18,-1,18,13,19,-1,18,19,20,-1,20,19,21,-1,20,21,15,-1,15,21,14,-1,19,13,22,-1,22,13,11,-1,14,21,10,-1,10,21,23,-1,21,19,23,-1,23,19,22,-1,24,25,26,-1,26,25,27,-1,25,28,27,-1,27,28,29,-1,28,30,29,-1,29,30,31,-1,30,32,31,-1,31,32,33,-1,32,34,33,-1,33,34,35,-1,34,36,35,-1,35,36,37,-1,36,38,37,-1,37,38,39,-1,38,24,39,-1,39,24,26,-1,25,24,40,-1,40,41,25,-1,25,41,42,-1,25,42,28,-1,38,36,34,-1,30,28,32,-1,32,28,42,-1,32,42,34,-1,34,42,40,-1,34,40,38,-1,38,40,24,-1,42,41,43,-1,43,41,44,-1,40,42,45,-1,45,42,43,-1,41,40,44,-1,44,40,45,-1,46,47,48,-1,48,47,49,-1,47,50,49,-1,49,50,51,-1,50,52,51,-1,51,52,53,-1,54,55,56,-1,54,56,57,-1,57,56,53,-1,57,53,52,-1,58,59,60,-1,58,60,61,-1,61,60,62,-1,61,62,63,-1,63,62,55,-1,63,55,54,-1,46,48,64,-1,46,64,65,-1,65,64,66,-1,65,66,67,-1,67,66,68,-1,67,68,69,-1,69,68,59,-1,69,59,58,-1,70,71,46,-1,46,71,72,-1,46,72,47,-1,47,72,73,-1,47,73,50,-1,50,73,74,-1,50,74,52,-1,52,74,75,-1,52,75,57,-1,57,75,76,-1,57,76,54,-1,54,76,77,-1,54,77,63,-1,63,77,78,-1,63,78,61,-1,61,78,79,-1,61,79,58,-1,58,79,80,-1,58,80,69,-1,69,80,81,-1,69,81,67,-1,67,81,82,-1,67,82,65,-1,65,82,70,-1,65,70,46,-1,74,73,83,-1,83,73,84,-1,75,74,85,-1,85,74,83,-1,75,85,86,-1,75,86,76,-1,76,86,87,-1,76,87,77,-1,77,87,88,-1,77,88,78,-1,78,88,89,-1,78,89,79,-1,79,89,90,-1,79,90,80,-1,80,90,91,-1,80,91,81,-1,81,91,92,-1,81,92,82,-1,82,92,93,-1,82,93,70,-1,70,93,94,-1,70,94,71,-1,71,94,95,-1,71,95,72,-1,73,72,84,-1,84,72,95,-1,96,97,98,-1,98,97,99,-1,97,100,99,-1,99,100,101,-1,100,102,101,-1,101,102,103,-1,102,104,103,-1,103,104,105,-1,104,106,105,-1,105,106,107,-1,106,108,107,-1,107,108,109,-1,108,110,109,-1,109,110,111,-1,110,112,111,-1,111,112,113,-1,112,114,113,-1,113,114,115,-1,114,116,115,-1,115,116,117,-1,116,118,117,-1,117,118,119,-1,118,96,119,-1,119,96,98,-1,96,118,116,-1,116,114,96,-1,96,114,112,-1,96,112,97,-1,102,100,104,-1,104,100,97,-1,104,97,106,-1,106,97,112,-1,106,112,108,-1,108,112,110,-1,120,121,122,-1,120,122,123,-1,123,122,124,-1,123,124,125,-1,125,124,126,-1,125,126,127,-1,127,126,128,-1,127,128,129,-1,120,130,121,-1,121,130,131,-1,132,133,134,-1,132,134,135,-1,135,134,136,-1,135,136,137,-1,137,136,138,-1,137,138,139,-1,139,138,131,-1,139,131,130,-1,140,141,142,-1,140,142,143,-1,143,142,144,-1,143,144,145,-1,145,144,146,-1,145,146,147,-1,147,146,133,-1,147,133,132,-1,148,149,150,-1,148,150,151,-1,151,150,152,-1,151,152,153,-1,153,152,154,-1,153,154,155,-1,155,154,141,-1,155,141,140,-1,156,157,158,-1,156,158,159,-1,159,158,149,-1,159,149,148,-1,156,160,157,-1,157,160,161,-1,162,163,164,-1,162,164,165,-1,165,164,166,-1,165,166,167,-1,166,168,167,-1,167,168,169,-1,167,169,170,-1,170,169,161,-1,170,161,160,-1,171,172,173,-1,171,173,174,-1,174,173,175,-1,174,175,176,-1,176,175,177,-1,176,177,178,-1,178,177,162,-1,162,177,179,-1,162,179,163,-1,180,181,182,-1,180,182,183,-1,183,182,172,-1,183,172,171,-1,129,128,184,-1,129,184,185,-1,185,184,186,-1,185,186,187,-1,187,186,188,-1,187,188,189,-1,189,188,181,-1,189,181,180,-1,160,156,170,-1,170,156,159,-1,180,183,155,-1,155,183,153,-1,153,183,171,-1,153,171,174,-1,130,120,123,-1,130,123,139,-1,139,123,125,-1,139,125,127,-1,174,176,153,-1,153,176,178,-1,153,178,151,-1,151,178,162,-1,151,162,148,-1,148,162,165,-1,148,165,159,-1,159,165,167,-1,159,167,170,-1,155,140,180,-1,180,140,143,-1,180,143,189,-1,189,143,145,-1,189,145,187,-1,187,145,147,-1,187,147,185,-1,185,147,132,-1,185,132,129,-1,129,132,135,-1,129,135,127,-1,127,135,137,-1,127,137,139,-1,190,191,192,-1,192,191,193,-1,191,194,193,-1,193,194,195,-1,194,196,195,-1,195,196,197,-1,196,198,197,-1,197,198,199,-1,198,200,199,-1,199,200,201,-1,200,190,201,-1,201,190,192,-1,194,191,196,-1,196,191,190,-1,196,190,198,-1,198,190,200,-1,44,45,43,-1,83,84,85,-1,85,84,95,-1,85,95,86,-1,86,95,94,-1,86,94,87,-1,93,92,94,-1,94,92,91,-1,94,91,90,-1,90,89,94,-1,94,89,88,-1,94,88,87,-1,7,9,3,-1,3,9,4,-1,202,203,204,-1,204,203,205,-1,206,207,208,-1,208,207,209,-1,210,211,206,-1,206,211,207,-1,211,210,212,-1,212,210,213,-1,214,215,216,-1,216,215,217,-1,
        ]
    }
}