#VRML V2.0 utf8
# 3D model generated by easyeda2kicad.py (https://github.com/uPesy/easyeda2kicad.py)

Shape{
    appearance Appearance {
        material  Material 	{
            diffuseColor 0.25098039215686274 0.25098039215686274 0.25098039215686274
            specularColor 0.12549019607843137 0.12549019607843137 0.12549019607843137
            ambientIntensity 0.251
            transparency 0.0
            shininess 0.5
        }
    }
    geometry IndexedFaceSet {
        ccw TRUE
        solid FALSE
        coord DEF co Coordinate {
            point [
                -0.5906 0.3937 0.0039, -0.3244 0.174 0.0039, -0.5906 -0.3937 0.0039, -0.3244 -0.1185 0.0039, 0.5906 -0.3937 0.0039, 0.3336 -0.1185 0.0039, 0.5906 0.3937 0.0039, 0.3336 0.174 0.0039, 0.3445 -0.3937 0.0039, 0.3445 -0.2894 0.0039, 0.3199 -0.2468 0.0039, 0.308 -0.2418 0.0039, -0.3445 0.3937 0.0039, -0.3445 0.2894 0.0039, -0.3199 0.2468 0.0039, -0.308 0.2418 0.0039, -0.1112 0.2418 0.0039, -0.123 0.2468 0.0039, -0.1332 0.2546 0.0039, 0.2477 -0.2766 0.0039, 0.2527 -0.2648 0.0039, 0.2605 -0.2546 0.0039, -0.0738 -0.2468 0.0039, -0.0857 -0.2418 0.0039, 0.0984 -0.2402 0.0039, -0.3445 -0.3937 0.0039, -0.3445 -0.2894 0.0039, -0.3428 -0.2766 0.0039, -0.3428 0.2766 0.0039, -0.3379 0.2648 0.0039, -0.3301 0.2546 0.0039, -0.2605 0.2546 0.0039, -0.2527 0.2648 0.0039, -0.2477 0.2766 0.0039, -0.141 0.2648 0.0039, 0.123 0.2468 0.0039, 0.1332 0.2546 0.0039, 0.2605 0.2546 0.0039, 0.3428 -0.2766 0.0039, 0.3379 -0.2648 0.0039, 0.3301 -0.2546 0.0039, -0.1112 -0.2418 0.0039, -0.123 -0.2468 0.0039, -0.2477 -0.2766 0.0039, -0.1332 -0.2546 0.0039, -0.141 -0.2648 0.0039, -0.0558 0.2648 0.0039, 0.0509 0.2766 0.0039, -0.0636 0.2546 0.0039, 0.0558 0.2648 0.0039, 0.0636 0.2546 0.0039, 0.0738 0.2468 0.0039, 0.0857 0.2418 0.0039, 0.0984 0.2402 0.0039, 0.3445 0.3937 0.0039, 0.3445 0.2894 0.0039, 0.3428 0.2766 0.0039, 0.2953 -0.2402 0.0039, 0.2825 -0.2418 0.0039, 0.2707 -0.2468 0.0039, -0.1476 -0.2894 0.0039, -0.1476 -0.3937 0.0039, -0.2461 -0.3937 0.0039, -0.2953 -0.2402 0.0039, -0.308 -0.2418 0.0039, 0.1112 0.2418 0.0039, 0.141 0.2648 0.0039, 0.146 0.2766 0.0039, 0.2527 0.2648 0.0039, 0.2825 0.2418 0.0039, 0.2953 0.2402 0.0039, 0.308 0.2418 0.0039, -0.146 -0.2766 0.0039, -0.2461 -0.2894 0.0039, 0.141 -0.2648 0.0039, 0.1332 -0.2546 0.0039, -0.3199 -0.2468 0.0039, -0.3301 -0.2546 0.0039, -0.3379 -0.2648 0.0039, -0.2953 0.2402 0.0039, -0.2825 0.2418 0.0039, -0.2707 0.2468 0.0039, -0.2461 0.3937 0.0039, -0.1476 0.3937 0.0039, -0.2461 0.2894 0.0039, -0.1476 0.2894 0.0039, -0.146 0.2766 0.0039, -0.0984 0.2402 0.0039, -0.0857 0.2418 0.0039, -0.0738 0.2468 0.0039, 0.3199 0.2468 0.0039, 0.3301 0.2546 0.0039, 0.3379 0.2648 0.0039, -0.0636 -0.2546 0.0039, 0.0857 -0.2418 0.0039, 0.0738 -0.2468 0.0039, 0.0636 -0.2546 0.0039, 0.0558 -0.2648 0.0039, 0.0509 -0.2766 0.0039, -0.0492 0.2894 0.0039, -0.0492 0.3937 0.0039, 0.0492 0.3937 0.0039, 0.2707 0.2468 0.0039, -0.2527 -0.2648 0.0039, -0.2605 -0.2546 0.0039, -0.0984 -0.2402 0.0039, -0.2707 -0.2468 0.0039, -0.2825 -0.2418 0.0039, -0.0509 0.2766 0.0039, 0.0492 0.2894 0.0039, 0.1476 0.3937 0.0039, 0.2461 0.3937 0.0039, 0.1476 0.2894 0.0039, 0.2461 0.2894 0.0039, 0.2477 0.2766 0.0039, 0.0492 -0.2894 0.0039, 0.0492 -0.3937 0.0039, -0.0492 -0.3937 0.0039, 0.123 -0.2468 0.0039, 0.1112 -0.2418 0.0039, -0.0492 -0.2894 0.0039, -0.0509 -0.2766 0.0039, -0.0558 -0.2648 0.0039, 0.2461 -0.3937 0.0039, 0.1476 -0.3937 0.0039, 0.2461 -0.2894 0.0039, 0.1476 -0.2894 0.0039, 0.146 -0.2766 0.0039, 0.0492 -0.3937 0.0787, 0.1476 -0.3937 0.0787, 0.5906 -0.3937 0.3189, -0.5906 -0.3937 0.3189, -0.0492 -0.3937 0.0787, -0.3445 -0.3937 0.0787, -0.2461 -0.3937 0.0787, -0.1476 -0.3937 0.0787, 0.3445 -0.3937 0.0787, 0.2461 -0.3937 0.0787
            ]
        }
        coordIndex [
            0,1,2,-1,2,1,3,-1,4,5,6,-1,6,5,7,-1,4,8,9,-1,10,11,5,-1,0,12,13,-1,14,15,1,-1,16,1,17,-1,17,1,18,-1,19,3,20,-1,20,3,21,-1,22,23,24,-1,25,2,26,-1,26,2,27,-1,13,28,0,-1,0,28,29,-1,0,29,1,-1,1,29,30,-1,1,30,14,-1,31,32,18,-1,18,32,33,-1,18,33,34,-1,35,36,37,-1,9,38,4,-1,4,38,39,-1,4,39,5,-1,5,39,40,-1,5,40,10,-1,41,42,43,-1,43,42,44,-1,43,44,45,-1,46,47,48,-1,48,47,49,-1,48,49,50,-1,50,51,1,-1,1,51,52,-1,1,52,53,-1,54,6,55,-1,55,6,56,-1,11,57,5,-1,5,57,58,-1,5,58,3,-1,3,58,59,-1,3,59,21,-1,60,61,62,-1,63,64,3,-1,35,37,65,-1,36,66,37,-1,37,66,67,-1,37,67,68,-1,69,70,7,-1,7,70,71,-1,45,72,43,-1,43,72,60,-1,43,60,73,-1,73,60,62,-1,74,75,19,-1,64,76,3,-1,3,76,77,-1,3,77,2,-1,2,77,78,-1,2,78,27,-1,15,79,1,-1,1,79,80,-1,1,80,18,-1,18,80,81,-1,18,81,31,-1,82,83,84,-1,84,83,85,-1,84,85,33,-1,33,85,86,-1,33,86,34,-1,16,87,1,-1,1,87,88,-1,1,88,50,-1,50,88,89,-1,50,89,48,-1,71,90,7,-1,7,90,91,-1,7,91,6,-1,6,91,92,-1,6,92,56,-1,22,24,93,-1,93,24,94,-1,93,94,95,-1,95,96,93,-1,93,96,97,-1,93,97,98,-1,99,100,101,-1,69,7,102,-1,102,7,1,-1,102,1,37,-1,37,1,53,-1,37,53,65,-1,43,103,41,-1,41,103,104,-1,41,104,105,-1,105,104,106,-1,105,106,3,-1,3,106,107,-1,3,107,63,-1,46,108,47,-1,47,108,99,-1,47,99,109,-1,109,99,101,-1,110,111,112,-1,112,111,113,-1,112,113,67,-1,67,113,114,-1,67,114,68,-1,115,116,117,-1,75,118,19,-1,19,118,119,-1,19,119,3,-1,3,119,24,-1,3,24,105,-1,105,24,23,-1,117,120,115,-1,115,120,121,-1,115,121,98,-1,98,121,122,-1,98,122,93,-1,123,124,125,-1,125,124,126,-1,125,126,19,-1,19,126,127,-1,19,127,74,-1,128,129,130,-1,131,2,25,-1,132,117,116,-1,25,133,131,-1,131,133,134,-1,131,134,130,-1,116,128,132,-1,132,128,130,-1,132,130,135,-1,135,130,134,-1,135,134,61,-1,61,134,62,-1,8,4,136,-1,136,4,130,-1,136,130,137,-1,137,130,129,-1,137,129,123,-1,123,129,124,-1,
        ]
    }
}
Shape{
    appearance Appearance {
        material  Material 	{
            diffuseColor 1.0 1.0 1.0
            specularColor 0.8784313725490196 0.8784313725490196 0.8784313725490196
            ambientIntensity 1.0
            transparency 0.0
            shininess 0.5
        }
    }
    geometry IndexedFaceSet {
        ccw TRUE
        solid FALSE
        coord DEF co Coordinate {
            point [
                0.0506 0.0238 0.0, 0.0564 0.0231 0.0, 0.0378 -0.0206 0.0, 0.1159 -0.0295 0.0, 0.0565 -0.0299 0.0, 0.0857 -0.0295 0.0, 0.0603 -0.0295 0.0, 0.066 -0.0275 0.0, 0.0775 0.014 0.0, 0.0741 0.0195 0.0, 0.108 0.0295 0.0, 0.0434 0.0228 0.0, 0.0367 -0.02 0.0, 0.0367 0.02 0.0, 0.031 0.174 0.0, 0.0367 0.0279 0.0, 0.0608 0.0215 0.0, 0.0649 0.0188 0.0, 0.0684 0.0148 0.0, 0.0727 -0.0006 0.0, 0.0721 -0.007 0.0, 0.0705 -0.0121 0.0, 0.0574 -0.0231 0.0, 0.0519 -0.0238 0.0, 0.0617 -0.0216 0.0, 0.0653 -0.0191 0.0, 0.0681 -0.0162 0.0, 0.044 -0.0229 0.0, 0.0709 0.0103 0.0, 0.0725 0.004 0.0, 0.0707 -0.0245 0.0, 0.0752 -0.0198 0.0, 0.0857 -0.023 0.0, 0.0783 -0.0142 0.0, 0.108 -0.023 0.0, 0.0688 0.0246 0.0, 0.0631 0.0279 0.0, 0.0566 0.0298 0.0, 0.0801 -0.008 0.0, 0.0807 -0.0011 0.0, 0.0798 0.0073 0.0, 0.0506 0.0302 0.0, 0.0436 0.0298 0.0, 0.0367 -0.0265 0.0, 0.043 -0.0291 0.0, 0.031 -0.0299 0.0, 0.049 -0.0299 0.0, 0.031 -0.1185 0.0, 0.0514 -0.0302 0.0, 0.053 -0.0302 0.0, 0.1159 0.0295 0.0, 0.3336 0.174 0.0, 0.3336 -0.0299 0.0, 0.3336 -0.1185 0.0, -0.018 -0.0295 0.0, -0.0065 -0.023 0.0, -0.0065 -0.0295 0.0, 0.0252 -0.0295 0.0, 0.0252 0.0295 0.0, -0.005 0.0295 0.0, -0.3244 0.174 0.0, -0.0699 -0.0295 0.0, -0.0626 -0.0133 0.0, -0.0592 -0.0186 0.0, -0.0922 0.0295 0.0, -0.1001 0.0295 0.0, -0.3244 -0.0299 0.0, 0.0173 0.023 0.0, 0.0173 0.0036 0.0, -0.005 0.023 0.0, -0.0036 0.0036 0.0, -0.0036 -0.0029 0.0, 0.0173 -0.0029 0.0, 0.0173 -0.023 0.0, -0.0543 -0.0233 0.0, -0.0482 -0.0269 0.0, -0.0414 -0.0289 0.0, -0.018 0.0295 0.0, -0.0432 0.0286 0.0, -0.0501 0.0262 0.0, -0.0565 0.0219 0.0, -0.0566 0.0218 0.0, -0.0608 0.0172 0.0, -0.0635 0.0121 0.0, -0.0651 0.0063 0.0, -0.0655 0.0007 0.0, -0.0647 -0.0072 0.0, -0.0347 0.0295 0.0, -0.1232 -0.0295 0.0, -0.1145 -0.0295 0.0, -0.0341 -0.0295 0.0, -0.1085 -0.013 0.0, -0.0841 -0.013 0.0, -0.0785 -0.0295 0.0, -0.3244 -0.1185 0.0
            ]
        }
        coordIndex [
            0,1,2,-1,3,4,5,-1,5,4,6,-1,5,6,7,-1,8,9,10,-1,0,2,11,-1,11,2,12,-1,11,12,13,-1,13,12,14,-1,13,14,15,-1,1,16,2,-1,2,16,17,-1,2,17,18,-1,19,20,2,-1,2,20,21,-1,22,23,24,-1,24,23,25,-1,21,26,2,-1,2,26,25,-1,2,25,27,-1,27,25,23,-1,18,28,2,-1,2,28,29,-1,2,29,19,-1,7,30,5,-1,5,30,31,-1,5,31,32,-1,32,31,33,-1,32,33,34,-1,35,36,14,-1,14,36,37,-1,33,38,34,-1,34,38,39,-1,34,39,10,-1,10,39,40,-1,10,40,8,-1,37,41,14,-1,14,41,42,-1,14,42,15,-1,43,44,45,-1,45,44,46,-1,45,46,47,-1,46,48,47,-1,47,48,49,-1,47,49,4,-1,9,35,10,-1,10,35,14,-1,10,14,50,-1,50,14,51,-1,50,51,3,-1,3,51,52,-1,3,52,4,-1,4,52,53,-1,4,53,47,-1,54,55,56,-1,45,57,58,-1,59,60,58,-1,58,60,14,-1,58,14,45,-1,45,14,12,-1,45,12,43,-1,61,62,63,-1,64,65,60,-1,60,65,66,-1,67,68,69,-1,69,68,70,-1,71,72,73,-1,63,74,61,-1,61,74,75,-1,61,75,76,-1,73,55,71,-1,71,55,54,-1,71,54,70,-1,70,54,77,-1,70,77,69,-1,78,79,64,-1,64,79,80,-1,80,81,64,-1,64,81,82,-1,64,82,83,-1,83,84,64,-1,64,84,85,-1,64,85,61,-1,61,85,86,-1,61,86,62,-1,78,64,87,-1,87,64,60,-1,87,60,77,-1,77,60,59,-1,77,59,69,-1,88,89,45,-1,90,54,45,-1,45,54,56,-1,45,56,57,-1,91,92,89,-1,89,92,93,-1,89,93,45,-1,45,93,61,-1,45,61,90,-1,90,61,76,-1,65,88,66,-1,66,88,45,-1,66,45,94,-1,94,45,47,-1,
        ]
    }
}
Shape{
    appearance Appearance {
        material  Material 	{
            diffuseColor 0.25098039215686274 0.25098039215686274 0.25098039215686274
            specularColor 0.12549019607843137 0.12549019607843137 0.12549019607843137
            ambientIntensity 0.251
            transparency 0.0
            shininess 0.5
        }
    }
    geometry IndexedFaceSet {
        ccw TRUE
        solid FALSE
        coord DEF co Coordinate {
            point [
                0.4048 -0.3937 0.3189, 0.5906 -0.3937 0.3189, 0.5906 -0.1433 0.3189, -0.0259 0.0498 0.3189, -0.0036 0.0498 0.3189, -0.0036 0.3937 0.3189, -0.0114 -0.0333 0.3189, -0.0114 -0.0441 0.3189, -0.0036 -0.0498 0.3189, -0.0219 -0.0484 0.3189, -0.0318 -0.0498 0.3189, -0.0228 0.0496 0.3189, -0.0114 0.0465 0.3189, -0.0114 0.0333 0.3189, -0.0225 0.0381 0.3189, -0.0132 -0.0343 0.3189, -0.0345 0.0396 0.3189, -0.0441 0.0385 0.3189, -0.0515 0.0359 0.3189, -0.0583 0.0313 0.3189, -0.0643 0.0247 0.3189, -0.0714 -0.0011 0.3189, -0.0704 -0.0117 0.3189, -0.0677 -0.0202 0.3189, -0.0458 -0.0386 0.3189, -0.0367 -0.0396 0.3189, -0.053 -0.0359 0.3189, -0.0591 -0.0319 0.3189, -0.0637 -0.027 0.3189, -0.0236 -0.0382 0.3189, -0.0683 0.0171 0.3189, -0.0709 0.0066 0.3189, -0.0906 0.3937 0.3189, -0.0419 0.0498 0.3189, -0.0346 0.0504 0.3189, -0.0681 -0.0408 0.3189, -0.0755 -0.033 0.3189, -0.0906 -0.0498 0.3189, -0.0794 0.0233 0.3189, -0.0736 0.0325 0.3189, -0.0906 0.0498 0.3189, -0.0832 0.0121 0.3189, -0.0443 -0.0498 0.3189, -0.0506 -0.0492 0.3189, -0.0602 -0.0459 0.3189, -0.0647 0.0411 0.3189, -0.0554 0.0464 0.3189, -0.0444 0.0496 0.3189, -0.0807 -0.0237 0.3189, -0.0837 -0.0133 0.3189, -0.0846 -0.0019 0.3189, -0.0358 -0.0504 0.3189, -0.0036 -0.1433 0.3189, 0.1941 -0.0498 0.3189, 0.1937 -0.0499 0.3189, 0.15 -0.1433 0.3189, 0.1872 -0.0504 0.3189, 0.2031 0.0471 0.3189, 0.4048 0.0498 0.3189, 0.1964 0.0495 0.3189, 0.1937 0.0498 0.3189, 0.208 0.0439 0.3189, 0.2118 0.0399 0.3189, 0.2148 0.0349 0.3189, 0.216 -0.0348 0.3189, 0.2123 -0.0403 0.3189, 0.4048 -0.0498 0.3189, 0.2072 -0.0448 0.3189, 0.2135 0.0143 0.3189, 0.2101 0.0098 0.3189, 0.2084 0.0007 0.3189, 0.2051 0.0056 0.3189, 0.2026 0.0041 0.3189, 0.4048 -0.1433 0.3189, 0.2013 -0.0479 0.3189, 0.2159 0.0197 0.3189, 0.2167 0.0255 0.3189, 0.2163 0.0299 0.3189, 0.213 -0.004 0.3189, 0.2169 -0.0107 0.3189, 0.2187 -0.0169 0.3189, 0.2191 -0.0216 0.3189, 0.2182 -0.029 0.3189, 0.1827 0.0498 0.3189, 0.1841 0.0502 0.3189, 0.15 0.3937 0.3189, 0.4048 0.3937 0.3189, 0.1884 0.0504 0.3189, 0.15 0.0498 0.3189, 0.1611 0.0319 0.3189, 0.1633 0.0371 0.3189, 0.1586 -0.0094 0.3189, 0.1626 -0.0038 0.3189, 0.168 0.0009 0.3189, 0.1744 0.0041 0.3189, 0.1682 0.0086 0.3189, 0.1667 0.0418 0.3189, 0.1713 0.0456 0.3189, 0.1769 0.0484 0.3189, 0.1574 -0.0323 0.3189, 0.15 -0.0498 0.3189, 0.1606 -0.0382 0.3189, 0.1649 -0.0429 0.3189, 0.1557 -0.0256 0.3189, 0.1554 -0.0216 0.3189, 0.1563 -0.0149 0.3189, 0.1817 -0.0498 0.3189, 0.1784 -0.0495 0.3189, 0.171 -0.0469 0.3189, 0.1641 0.0132 0.3189, 0.1616 0.0179 0.3189, 0.1605 0.0225 0.3189, 0.1602 0.0255 0.3189, 0.0074 -0.0468 0.3189, 0.0042 -0.0453 0.3189, 0.0163 -0.0491 0.3189, 0.0042 -0.0309 0.3189, 0.0148 0.004 0.3189, 0.0096 0.0088 0.3189, 0.0051 0.0308 0.3189, 0.007 0.0355 0.3189, 0.0232 -0.0498 0.3189, 0.0067 0.0132 0.3189, 0.0048 0.0183 0.3189, 0.0042 0.024 0.3189, 0.0101 0.0398 0.3189, 0.0143 0.0435 0.3189, 0.0199 0.0466 0.3189, 0.0283 -0.0039 0.3189, 0.0114 -0.0353 0.3189, 0.0416 -0.011 0.3189, 0.023 -0.0389 0.3189, 0.043 -0.0119 0.3189, 0.0304 -0.0396 0.3189, 0.0376 -0.0391 0.3189, 0.0426 -0.0377 0.3189, 0.0461 -0.0358 0.3189, 0.0482 -0.0338 0.3189, 0.0495 -0.0319 0.3189, 0.0506 -0.0288 0.3189, 0.051 -0.0249 0.3189, 0.0506 -0.0214 0.3189, 0.0495 -0.0186 0.3189, 0.0471 -0.0153 0.3189, 0.0738 -0.1433 0.3189, 0.0372 -0.0498 0.3189, 0.029 -0.0504 0.3189, 0.0506 0.0498 0.3189, 0.0606 0.0477 0.3189, 0.0738 0.0498 0.3189, 0.0606 0.0333 0.3189, 0.0738 -0.0498 0.3189, 0.0634 -0.0308 0.3189, 0.0616 -0.0357 0.3189, 0.0584 -0.0404 0.3189, 0.0521 -0.0026 0.3189, 0.0582 -0.0081 0.3189, 0.0543 -0.0439 0.3189, 0.0488 -0.047 0.3189, 0.0392 -0.0497 0.3189, 0.0615 -0.013 0.3189, 0.0635 -0.0178 0.3189, 0.0642 -0.0238 0.3189, 0.0383 0.0053 0.3189, 0.0532 0.0372 0.3189, 0.0292 0.0102 0.3189, 0.0448 0.0392 0.3189, 0.038 0.0396 0.3189, 0.0189 0.0188 0.3189, 0.0178 0.0215 0.3189, 0.0174 0.0253 0.3189, 0.0205 0.0164 0.3189, 0.0236 0.0137 0.3189, 0.02 0.033 0.3189, 0.0186 0.0308 0.3189, 0.0177 0.0283 0.3189, 0.0311 0.039 0.3189, 0.0258 0.0373 0.3189, 0.0223 0.0352 0.3189, 0.0499 0.0499 0.3189, 0.0738 0.3937 0.3189, 0.039 0.0504 0.3189, 0.0329 0.0498 0.3189, 0.0281 0.0494 0.3189, -0.5065 -0.2559 0.3189, -0.5003 -0.2478 0.3189, -0.5906 -0.1433 0.3189, -0.4921 -0.2415 0.3189, -0.4826 -0.2376 0.3189, -0.4724 -0.2362 0.3189, -0.4446 -0.3034 0.3189, -0.3225 -0.3937 0.3189, -0.4383 -0.2953 0.3189, -0.4344 -0.2858 0.3189, -0.4528 -0.3097 0.3189, -0.4623 -0.3136 0.3189, -0.5906 -0.3937 0.3189, -0.4724 -0.315 0.3189, -0.4826 -0.3136 0.3189, -0.4921 -0.3097 0.3189, -0.5003 -0.3034 0.3189, -0.5065 -0.2953 0.3189, -0.4623 -0.2376 0.3189, -0.3225 -0.1433 0.3189, -0.4528 -0.2415 0.3189, -0.4446 -0.2478 0.3189, -0.5105 -0.2858 0.3189, -0.5118 -0.2756 0.3189, -0.5105 -0.2654 0.3189, -0.4383 -0.2559 0.3189, -0.4344 -0.2654 0.3189, -0.4331 -0.2756 0.3189, 0.15 -0.3937 0.3189, 0.0738 -0.3937 0.3189, -0.0036 -0.3937 0.3189, -0.0906 -0.3937 0.3189, -0.0906 -0.1433 0.3189, -0.1542 -0.3937 0.3189, -0.1542 -0.1433 0.3189, -0.0385 -0.0504 0.3189, -0.1542 -0.0498 0.3189, -0.3225 -0.0498 0.3189, -0.5906 -0.0498 0.3189, -0.3225 0.0498 0.3189, -0.5906 0.0498 0.3189, -0.1542 0.0498 0.3189, -0.1614 -0.0384 0.3189, -0.1614 -0.0492 0.3189, -0.2119 -0.0492 0.3189, -0.1987 -0.0384 0.3189, -0.1987 0.0492 0.3189, -0.2119 0.0492 0.3189, -0.0966 0.0384 0.3189, -0.1338 0.0384 0.3189, -0.1338 0.0048 0.3189, -0.099 0.0048 0.3189, -0.099 -0.006 0.3189, -0.1338 -0.006 0.3189, -0.1338 -0.0492 0.3189, -0.147 -0.0492 0.3189, -0.147 0.0492 0.3189, -0.0966 0.0492 0.3189, 0.1092 -0.012 0.3189, 0.0966 -0.012 0.3189, 0.0966 -0.0492 0.3189, 0.1414 0.0051 0.3189, 0.1373 -0.0008 0.3189, 0.1315 -0.006 0.3189, 0.1242 -0.0097 0.3189, 0.1413 0.0349 0.3189, 0.1434 0.0293 0.3189, 0.1446 0.0215 0.3189, 0.1446 0.0197 0.3189, 0.1437 0.0115 0.3189, 0.1113 0.0492 0.3189, 0.1208 0.0484 0.3189, 0.1283 0.0462 0.3189, 0.1341 0.043 0.3189, 0.1377 0.0398 0.3189, 0.1164 -0.0117 0.3189, 0.0834 -0.0492 0.3189, 0.0834 0.0492 0.3189, -0.1542 0.3937 0.3189, -0.3225 0.3937 0.3189, -0.5906 0.3937 0.3189, 0.5906 -0.0498 0.3189, 0.5906 0.0498 0.3189, 0.5906 0.3937 0.3189, 0.5906 -0.3937 0.0039, 0.5906 0.3937 0.0039, 0.3445 0.3937 0.0039, -0.0492 0.3937 0.0787, -0.1476 0.3937 0.0787, 0.0492 0.3937 0.0787, 0.0492 0.3937 0.0039, -0.0492 0.3937 0.0039, 0.3445 0.3937 0.0787, 0.2461 0.3937 0.0787, 0.1476 0.3937 0.0787, 0.1476 0.3937 0.0039, 0.2461 0.3937 0.0039, -0.3445 0.3937 0.0039, -0.5906 0.3937 0.0039, -0.3445 0.3937 0.0787, -0.2461 0.3937 0.0787, -0.2461 0.3937 0.0039, -0.1476 0.3937 0.0039, -0.5906 -0.3937 0.0039, -0.4331 -0.2756 0.311, -0.4344 -0.2654 0.311, -0.4383 -0.2559 0.311, -0.4446 -0.2478 0.311, -0.4528 -0.2415 0.311, -0.4623 -0.2376 0.311, -0.4724 -0.2362 0.311, -0.4826 -0.2376 0.311, -0.4921 -0.2415 0.311, -0.5003 -0.2478 0.311, -0.5065 -0.2559 0.311, -0.5105 -0.2654 0.311, -0.5118 -0.2756 0.311, -0.5105 -0.2858 0.311, -0.5065 -0.2953 0.311, -0.5003 -0.3034 0.311, -0.4921 -0.3097 0.311, -0.4826 -0.3136 0.311, -0.4724 -0.315 0.311, -0.4623 -0.3136 0.311, -0.4528 -0.3097 0.311, -0.4446 -0.3034 0.311, -0.4383 -0.2953 0.311, -0.4344 -0.2858 0.311, -0.4724 -0.2756 0.311
            ]
        }
        coordIndex [
            0,1,2,-1,3,4,5,-1,6,7,8,-1,8,7,9,-1,8,9,10,-1,3,11,4,-1,4,11,12,-1,4,12,13,-1,6,14,15,-1,15,14,16,-1,15,16,17,-1,17,18,15,-1,15,18,19,-1,15,19,20,-1,21,22,15,-1,15,22,23,-1,24,25,26,-1,26,25,27,-1,23,28,15,-1,15,28,27,-1,15,27,29,-1,29,27,25,-1,20,30,15,-1,15,30,31,-1,15,31,21,-1,32,33,5,-1,5,33,34,-1,5,34,3,-1,35,36,37,-1,38,39,40,-1,38,40,41,-1,42,43,37,-1,37,43,44,-1,37,44,35,-1,39,45,40,-1,40,45,46,-1,40,46,47,-1,36,48,37,-1,37,48,49,-1,37,49,50,-1,10,51,52,-1,53,54,55,-1,55,54,56,-1,57,58,59,-1,59,58,60,-1,57,61,58,-1,58,61,62,-1,58,62,63,-1,64,65,66,-1,66,65,67,-1,68,69,70,-1,70,69,71,-1,70,71,72,-1,55,73,53,-1,53,73,66,-1,53,66,74,-1,74,66,67,-1,75,66,76,-1,76,66,58,-1,76,58,77,-1,77,58,63,-1,68,70,75,-1,75,70,78,-1,75,78,66,-1,66,78,79,-1,66,79,80,-1,80,81,66,-1,66,81,82,-1,66,82,64,-1,83,84,85,-1,58,86,60,-1,60,86,85,-1,60,85,87,-1,87,85,84,-1,88,89,90,-1,91,92,88,-1,93,94,95,-1,90,96,88,-1,88,96,97,-1,88,97,98,-1,99,100,101,-1,101,100,102,-1,99,103,100,-1,100,103,104,-1,100,104,88,-1,88,104,105,-1,88,105,91,-1,106,107,100,-1,100,107,108,-1,100,108,102,-1,95,109,93,-1,93,109,110,-1,93,110,92,-1,92,110,111,-1,92,111,88,-1,88,111,112,-1,88,112,89,-1,113,114,8,-1,113,8,115,-1,114,116,8,-1,8,116,4,-1,8,4,6,-1,6,4,13,-1,6,13,14,-1,117,118,116,-1,4,119,120,-1,10,52,8,-1,8,52,121,-1,8,121,115,-1,118,122,116,-1,116,122,123,-1,116,123,4,-1,4,123,124,-1,4,124,119,-1,120,125,4,-1,4,125,126,-1,4,126,127,-1,117,116,128,-1,128,116,129,-1,128,129,130,-1,130,129,131,-1,130,131,132,-1,132,131,133,-1,132,133,134,-1,134,135,132,-1,132,135,136,-1,132,136,137,-1,137,138,132,-1,132,138,139,-1,132,139,140,-1,141,142,140,-1,140,142,143,-1,140,143,132,-1,144,145,52,-1,52,145,146,-1,52,146,121,-1,147,148,149,-1,149,148,150,-1,149,150,151,-1,152,153,151,-1,151,153,154,-1,155,156,150,-1,154,157,151,-1,151,157,158,-1,151,158,159,-1,156,160,150,-1,150,160,161,-1,150,161,151,-1,151,161,162,-1,151,162,152,-1,155,150,163,-1,163,150,164,-1,163,164,165,-1,165,164,166,-1,165,166,167,-1,168,167,169,-1,169,167,170,-1,168,171,167,-1,167,171,172,-1,167,172,165,-1,173,174,175,-1,167,176,170,-1,170,176,177,-1,170,177,175,-1,175,177,178,-1,175,178,173,-1,179,180,181,-1,181,180,5,-1,181,5,182,-1,182,5,4,-1,182,4,183,-1,183,4,127,-1,184,185,186,-1,185,187,186,-1,186,187,188,-1,186,188,189,-1,190,191,192,-1,192,191,193,-1,190,194,191,-1,191,194,195,-1,191,195,196,-1,196,195,197,-1,196,197,198,-1,198,199,196,-1,196,199,200,-1,196,200,201,-1,189,202,203,-1,203,202,204,-1,203,204,205,-1,201,206,196,-1,196,206,207,-1,196,207,186,-1,186,207,208,-1,186,208,184,-1,205,209,203,-1,203,209,210,-1,203,210,191,-1,191,210,211,-1,191,211,193,-1,0,73,212,-1,212,73,55,-1,212,55,213,-1,213,55,144,-1,213,144,214,-1,214,144,52,-1,214,52,215,-1,215,52,216,-1,215,216,217,-1,217,216,218,-1,51,219,52,-1,52,219,42,-1,52,42,216,-1,216,42,37,-1,216,37,218,-1,218,37,220,-1,56,106,55,-1,55,106,100,-1,55,100,144,-1,144,100,151,-1,144,151,145,-1,145,151,159,-1,189,203,186,-1,186,203,221,-1,186,221,222,-1,222,221,223,-1,222,223,224,-1,225,226,220,-1,220,226,227,-1,220,227,228,-1,229,226,230,-1,230,226,225,-1,230,225,231,-1,231,225,223,-1,231,223,228,-1,228,223,221,-1,228,221,220,-1,220,221,203,-1,220,203,218,-1,218,203,191,-1,218,191,217,-1,232,233,234,-1,37,235,236,-1,234,235,232,-1,232,235,37,-1,232,37,40,-1,40,37,50,-1,40,50,41,-1,236,237,37,-1,37,237,238,-1,37,238,220,-1,220,238,239,-1,220,239,225,-1,225,239,240,-1,225,240,40,-1,40,240,241,-1,40,241,232,-1,242,243,244,-1,245,246,100,-1,100,246,247,-1,100,247,248,-1,88,249,250,-1,250,251,88,-1,88,251,252,-1,88,252,100,-1,100,252,253,-1,100,253,245,-1,149,254,88,-1,88,254,255,-1,88,255,256,-1,256,257,88,-1,88,257,258,-1,88,258,249,-1,242,244,259,-1,248,259,100,-1,100,259,244,-1,100,244,151,-1,151,244,260,-1,151,260,149,-1,149,260,261,-1,149,261,254,-1,47,33,40,-1,40,33,32,-1,40,32,225,-1,225,32,262,-1,225,262,223,-1,223,262,263,-1,223,263,224,-1,224,263,264,-1,98,83,88,-1,88,83,85,-1,88,85,149,-1,149,85,180,-1,149,180,147,-1,147,180,179,-1,0,2,73,-1,73,2,265,-1,73,265,66,-1,66,265,266,-1,66,266,58,-1,58,266,267,-1,58,267,86,-1,2,1,268,-1,269,267,266,-1,269,266,268,-1,268,266,265,-1,268,265,2,-1,267,269,270,-1,271,272,264,-1,273,274,275,-1,270,276,267,-1,267,276,277,-1,267,277,264,-1,275,271,273,-1,273,271,264,-1,273,264,278,-1,278,264,277,-1,278,277,279,-1,279,277,280,-1,281,282,283,-1,283,282,264,-1,283,264,284,-1,284,264,272,-1,284,272,285,-1,285,272,286,-1,196,186,287,-1,287,186,222,-1,287,222,282,-1,282,222,224,-1,282,224,264,-1,288,211,289,-1,289,211,210,-1,289,210,290,-1,290,210,209,-1,290,209,291,-1,291,209,205,-1,291,205,292,-1,292,205,204,-1,292,204,293,-1,293,204,202,-1,293,202,294,-1,294,202,189,-1,294,189,295,-1,295,189,188,-1,295,188,296,-1,296,188,187,-1,296,187,297,-1,297,187,185,-1,297,185,298,-1,298,185,184,-1,298,184,299,-1,299,184,208,-1,299,208,300,-1,300,208,207,-1,300,207,301,-1,301,207,206,-1,301,206,302,-1,302,206,201,-1,302,201,303,-1,303,201,200,-1,303,200,304,-1,304,200,199,-1,304,199,305,-1,305,199,198,-1,305,198,306,-1,306,198,197,-1,306,197,307,-1,307,197,195,-1,307,195,308,-1,308,195,194,-1,308,194,309,-1,309,194,190,-1,309,190,310,-1,310,190,192,-1,310,192,311,-1,311,192,193,-1,311,193,288,-1,288,193,211,-1,310,311,312,-1,312,311,288,-1,312,288,289,-1,307,308,312,-1,312,308,309,-1,312,309,310,-1,304,305,312,-1,312,305,306,-1,312,306,307,-1,301,302,312,-1,312,302,303,-1,312,303,304,-1,298,299,312,-1,312,299,300,-1,312,300,301,-1,295,296,312,-1,312,296,297,-1,312,297,298,-1,292,293,312,-1,312,293,294,-1,312,294,295,-1,289,290,312,-1,312,290,291,-1,312,291,292,-1,
        ]
    }
}
Shape{
    appearance Appearance {
        material  Material 	{
            diffuseColor 0.6666666666666666 0.6666666666666666 0.6666666666666666
            specularColor 0.3333333333333333 0.3333333333333333 0.3333333333333333
            ambientIntensity 0.6667
            transparency 0.0
            shininess 0.5
        }
    }
    geometry IndexedFaceSet {
        ccw TRUE
        solid FALSE
        coord DEF co Coordinate {
            point [
                0.1872 -0.0504 0.3189, 0.1872 -0.0504 0.315, 0.1817 -0.0498 0.3189, 0.1784 -0.0495 0.315, 0.1784 -0.0495 0.3189, 0.171 -0.0469 0.315, 0.171 -0.0469 0.3189, 0.1649 -0.0429 0.315, 0.1649 -0.0429 0.3189, 0.1606 -0.0382 0.315, 0.1606 -0.0382 0.3189, 0.1574 -0.0323 0.315, 0.1574 -0.0323 0.3189, 0.1557 -0.0256 0.315, 0.1557 -0.0256 0.3189, 0.1554 -0.0216 0.315, 0.1554 -0.0216 0.3189, 0.1744 0.0041 0.315, 0.1744 0.0041 0.3189, 0.168 0.0009 0.3189, 0.168 0.0009 0.315, 0.1626 -0.0038 0.3189, 0.1626 -0.0038 0.315, 0.1586 -0.0094 0.3189, 0.1586 -0.0094 0.315, 0.1563 -0.0149 0.3189, 0.1563 -0.0149 0.315, 0.1602 0.0255 0.315, 0.1602 0.0255 0.3189, 0.1605 0.0225 0.3189, 0.1605 0.0225 0.315, 0.1616 0.0179 0.3189, 0.1616 0.0179 0.315, 0.1641 0.0132 0.3189, 0.1641 0.0132 0.315, 0.1682 0.0086 0.3189, 0.1682 0.0086 0.315, 0.1884 0.0504 0.315, 0.1884 0.0504 0.3189, 0.1841 0.0502 0.3189, 0.1841 0.0502 0.315, 0.1827 0.0498 0.3189, 0.1769 0.0484 0.315, 0.1769 0.0484 0.3189, 0.1713 0.0456 0.3189, 0.1713 0.0456 0.315, 0.1667 0.0418 0.3189, 0.1667 0.0418 0.315, 0.1633 0.0371 0.3189, 0.1633 0.0371 0.315, 0.1611 0.0319 0.3189, 0.1611 0.0319 0.315, 0.1937 0.0498 0.3189, 0.1964 0.0495 0.315, 0.1964 0.0495 0.3189, 0.2031 0.0471 0.315, 0.2031 0.0471 0.3189, 0.208 0.0439 0.315, 0.208 0.0439 0.3189, 0.2118 0.0399 0.315, 0.2118 0.0399 0.3189, 0.2148 0.0349 0.315, 0.2148 0.0349 0.3189, 0.2163 0.0299 0.315, 0.2163 0.0299 0.3189, 0.2167 0.0255 0.315, 0.2167 0.0255 0.3189, 0.2026 0.0041 0.315, 0.2026 0.0041 0.3189, 0.2051 0.0056 0.3189, 0.2051 0.0056 0.315, 0.2101 0.0098 0.3189, 0.2101 0.0098 0.315, 0.2135 0.0143 0.3189, 0.2135 0.0143 0.315, 0.2159 0.0197 0.3189, 0.2159 0.0197 0.315, 0.2191 -0.0216 0.315, 0.2191 -0.0216 0.3189, 0.2187 -0.0169 0.3189, 0.2187 -0.0169 0.315, 0.2169 -0.0107 0.3189, 0.2169 -0.0107 0.315, 0.213 -0.004 0.3189, 0.213 -0.004 0.315, 0.2084 0.0007 0.3189, 0.2084 0.0007 0.315, 0.1937 -0.0499 0.3189, 0.1937 -0.0499 0.315, 0.1941 -0.0498 0.3189, 0.2013 -0.0479 0.315, 0.2013 -0.0479 0.3189, 0.2072 -0.0448 0.3189, 0.2072 -0.0448 0.315, 0.2123 -0.0403 0.3189, 0.2123 -0.0403 0.315, 0.216 -0.0348 0.3189, 0.216 -0.0348 0.315, 0.2182 -0.029 0.3189, 0.2182 -0.029 0.315, 0.1923 0.0089 0.315, 0.1884 0.0084 0.315, 0.1906 -0.0026 0.315, 0.1953 0.0102 0.315, 0.2026 0.0188 0.315, 0.2034 0.0224 0.315, 0.2035 0.0241 0.315, 0.1776 -0.0045 0.315, 0.1819 -0.003 0.315, 0.1844 0.0089 0.315, 0.2011 0.0157 0.315, 0.1981 0.0122 0.315, 0.1872 -0.0024 0.315, 0.1953 -0.0038 0.315, 0.1995 -0.0061 0.315, 0.203 0.0283 0.315, 0.2017 0.0316 0.315, 0.1996 0.0346 0.315, 0.1979 0.0363 0.315, 0.1951 0.0381 0.315, 0.2026 -0.009 0.315, 0.205 -0.0124 0.315, 0.2064 -0.0161 0.315, 0.2071 -0.021 0.315, 0.1812 0.0103 0.315, 0.1786 0.0122 0.315, 0.1774 0.0134 0.315, 0.1753 0.0165 0.315, 0.174 0.0198 0.315, 0.1734 0.0241 0.315, 0.1738 0.0276 0.315, 0.1918 0.0393 0.315, 0.1884 0.0396 0.315, 0.1844 0.0391 0.315, 0.1815 0.038 0.315, 0.1787 0.0362 0.315, 0.1765 0.0338 0.315, 0.1748 0.0309 0.315, 0.174 -0.0068 0.315, 0.1713 -0.0095 0.315, 0.1692 -0.0128 0.315, 0.1679 -0.0168 0.315, 0.1674 -0.021 0.315, 0.1679 -0.0258 0.315, 0.1692 -0.0296 0.315, 0.1712 -0.0328 0.315, 0.1745 -0.0359 0.315, 0.1784 -0.0381 0.315, 0.1826 -0.0392 0.315, 0.1872 -0.0396 0.315, 0.1926 -0.0391 0.315, 0.197 -0.0376 0.315, 0.2006 -0.0352 0.315, 0.2032 -0.0326 0.315, 0.2052 -0.0295 0.315, 0.2065 -0.0258 0.315, 0.1674 -0.021 0.3189, 0.1679 -0.0168 0.3189, 0.1692 -0.0128 0.3189, 0.1713 -0.0095 0.3189, 0.174 -0.0068 0.3189, 0.1776 -0.0045 0.3189, 0.1819 -0.003 0.3189, 0.1872 -0.0024 0.3189, 0.1906 -0.0026 0.3189, 0.1953 -0.0038 0.3189, 0.1995 -0.0061 0.3189, 0.2026 -0.009 0.3189, 0.205 -0.0124 0.3189, 0.2064 -0.0161 0.3189, 0.2071 -0.021 0.3189, 0.2065 -0.0258 0.3189, 0.2052 -0.0295 0.3189, 0.2032 -0.0326 0.3189, 0.2006 -0.0352 0.3189, 0.197 -0.0376 0.3189, 0.1926 -0.0391 0.3189, 0.1872 -0.0396 0.3189, 0.1826 -0.0392 0.3189, 0.1784 -0.0381 0.3189, 0.1745 -0.0359 0.3189, 0.1712 -0.0328 0.3189, 0.1692 -0.0296 0.3189, 0.1679 -0.0258 0.3189, 0.1734 0.0241 0.3189, 0.1738 0.0276 0.3189, 0.1748 0.0309 0.3189, 0.1765 0.0338 0.3189, 0.1787 0.0362 0.3189, 0.1815 0.038 0.3189, 0.1844 0.0391 0.3189, 0.1884 0.0396 0.3189, 0.1918 0.0393 0.3189, 0.1951 0.0381 0.3189, 0.1979 0.0363 0.3189, 0.1996 0.0346 0.3189, 0.2017 0.0316 0.3189, 0.203 0.0283 0.3189, 0.2035 0.0241 0.3189, 0.2034 0.0224 0.3189, 0.2026 0.0188 0.3189, 0.2011 0.0157 0.3189, 0.1981 0.0122 0.3189, 0.1953 0.0102 0.3189, 0.1923 0.0089 0.3189, 0.1884 0.0084 0.3189, 0.1844 0.0089 0.3189, 0.1812 0.0103 0.3189, 0.1786 0.0122 0.3189, 0.1774 0.0134 0.3189, 0.1753 0.0165 0.3189, 0.174 0.0198 0.3189
            ]
        }
        coordIndex [
            0,1,2,-1,2,1,3,-1,2,3,4,-1,4,3,5,-1,4,5,6,-1,6,5,7,-1,6,7,8,-1,8,7,9,-1,8,9,10,-1,10,9,11,-1,10,11,12,-1,12,11,13,-1,12,13,14,-1,14,13,15,-1,14,15,16,-1,17,18,19,-1,17,19,20,-1,20,19,21,-1,20,21,22,-1,22,21,23,-1,22,23,24,-1,24,23,25,-1,24,25,26,-1,26,25,16,-1,26,16,15,-1,27,28,29,-1,27,29,30,-1,30,29,31,-1,30,31,32,-1,32,31,33,-1,32,33,34,-1,34,33,35,-1,34,35,36,-1,36,35,18,-1,36,18,17,-1,37,38,39,-1,37,39,40,-1,40,39,41,-1,40,41,42,-1,41,43,42,-1,42,43,44,-1,42,44,45,-1,45,44,46,-1,45,46,47,-1,47,46,48,-1,47,48,49,-1,49,48,50,-1,49,50,51,-1,51,50,28,-1,51,28,27,-1,38,37,52,-1,52,37,53,-1,52,53,54,-1,54,53,55,-1,54,55,56,-1,56,55,57,-1,56,57,58,-1,58,57,59,-1,58,59,60,-1,60,59,61,-1,60,61,62,-1,62,61,63,-1,62,63,64,-1,64,63,65,-1,64,65,66,-1,67,68,69,-1,67,69,70,-1,70,69,71,-1,70,71,72,-1,72,71,73,-1,72,73,74,-1,74,73,75,-1,74,75,76,-1,76,75,66,-1,76,66,65,-1,77,78,79,-1,77,79,80,-1,80,79,81,-1,80,81,82,-1,82,81,83,-1,82,83,84,-1,84,83,85,-1,84,85,86,-1,86,85,68,-1,86,68,67,-1,1,0,87,-1,1,87,88,-1,88,87,89,-1,88,89,90,-1,89,91,90,-1,90,91,92,-1,90,92,93,-1,93,92,94,-1,93,94,95,-1,95,94,96,-1,95,96,97,-1,97,96,98,-1,97,98,99,-1,99,98,78,-1,99,78,77,-1,100,101,102,-1,100,102,103,-1,104,67,105,-1,105,67,106,-1,107,108,17,-1,17,108,109,-1,104,110,67,-1,67,110,111,-1,67,111,103,-1,109,108,101,-1,101,108,112,-1,101,112,102,-1,103,102,67,-1,67,102,113,-1,67,113,86,-1,86,113,114,-1,86,114,84,-1,115,61,116,-1,116,61,59,-1,116,59,117,-1,117,59,57,-1,117,57,118,-1,118,57,55,-1,118,55,119,-1,67,70,106,-1,106,70,72,-1,106,72,74,-1,114,120,84,-1,84,120,121,-1,84,121,82,-1,82,121,122,-1,82,122,80,-1,80,122,123,-1,74,76,106,-1,106,76,65,-1,106,65,115,-1,115,65,63,-1,115,63,61,-1,109,124,17,-1,17,124,125,-1,17,125,36,-1,36,125,126,-1,36,126,34,-1,34,126,127,-1,34,127,32,-1,32,127,128,-1,32,128,30,-1,30,128,129,-1,30,129,27,-1,27,129,130,-1,119,55,131,-1,131,55,53,-1,131,53,132,-1,132,53,37,-1,132,37,133,-1,133,37,40,-1,133,40,134,-1,134,40,42,-1,134,42,135,-1,135,42,45,-1,135,45,136,-1,136,45,47,-1,136,47,137,-1,137,47,49,-1,137,49,130,-1,130,49,51,-1,130,51,27,-1,107,17,138,-1,138,17,20,-1,138,20,139,-1,139,20,22,-1,139,22,140,-1,140,22,24,-1,140,24,141,-1,141,24,26,-1,141,26,142,-1,142,26,15,-1,142,15,143,-1,143,15,13,-1,143,13,144,-1,144,13,11,-1,144,11,145,-1,145,11,9,-1,145,9,146,-1,146,9,7,-1,146,7,147,-1,147,7,5,-1,147,5,148,-1,148,5,3,-1,148,3,149,-1,149,3,1,-1,149,1,150,-1,150,1,88,-1,150,88,151,-1,151,88,90,-1,151,90,152,-1,152,90,93,-1,152,93,153,-1,153,93,95,-1,153,95,154,-1,154,95,97,-1,154,97,155,-1,155,97,99,-1,155,99,123,-1,123,99,77,-1,123,77,80,-1,142,156,157,-1,142,157,141,-1,141,157,158,-1,141,158,140,-1,140,158,159,-1,140,159,139,-1,139,159,160,-1,139,160,138,-1,138,160,161,-1,138,161,107,-1,107,161,162,-1,107,162,108,-1,108,162,163,-1,108,163,112,-1,112,163,164,-1,112,164,102,-1,102,164,165,-1,102,165,113,-1,113,165,166,-1,113,166,114,-1,114,166,167,-1,114,167,120,-1,120,167,168,-1,120,168,121,-1,121,168,169,-1,121,169,122,-1,122,169,170,-1,122,170,123,-1,123,170,171,-1,123,171,155,-1,155,171,172,-1,155,172,154,-1,154,172,173,-1,154,173,153,-1,153,173,174,-1,153,174,152,-1,152,174,175,-1,152,175,151,-1,151,175,176,-1,151,176,150,-1,150,176,177,-1,150,177,149,-1,149,177,178,-1,149,178,148,-1,148,178,179,-1,148,179,147,-1,147,179,180,-1,147,180,146,-1,146,180,181,-1,146,181,145,-1,145,181,182,-1,145,182,144,-1,144,182,183,-1,144,183,143,-1,143,183,156,-1,143,156,142,-1,129,184,185,-1,129,185,130,-1,130,185,186,-1,130,186,137,-1,137,186,187,-1,137,187,136,-1,136,187,188,-1,136,188,135,-1,135,188,189,-1,135,189,134,-1,134,189,190,-1,134,190,133,-1,133,190,191,-1,133,191,132,-1,132,191,192,-1,132,192,131,-1,131,192,193,-1,131,193,119,-1,119,193,194,-1,119,194,118,-1,118,194,195,-1,118,195,117,-1,117,195,196,-1,117,196,116,-1,116,196,197,-1,116,197,115,-1,115,197,198,-1,115,198,106,-1,106,198,199,-1,106,199,105,-1,105,199,200,-1,105,200,104,-1,104,200,201,-1,104,201,110,-1,110,201,202,-1,110,202,111,-1,111,202,203,-1,111,203,103,-1,103,203,204,-1,103,204,100,-1,100,204,205,-1,100,205,101,-1,101,205,206,-1,101,206,109,-1,109,206,207,-1,109,207,124,-1,124,207,208,-1,124,208,125,-1,125,208,209,-1,125,209,126,-1,126,209,210,-1,126,210,127,-1,127,210,211,-1,127,211,128,-1,128,211,184,-1,128,184,129,-1,
        ]
    }
}
Shape{
    appearance Appearance {
        material  Material 	{
            diffuseColor 0.25098039215686274 0.25098039215686274 0.25098039215686274
            specularColor 0.12549019607843137 0.12549019607843137 0.12549019607843137
            ambientIntensity 0.251
            transparency 0.0
            shininess 0.5
        }
    }
    geometry IndexedFaceSet {
        ccw TRUE
        solid FALSE
        coord DEF co Coordinate {
            point [
                0.1826 -0.0392 0.3189, 0.1872 -0.0396 0.3189, 0.1872 -0.0024 0.3189, 0.2052 -0.0295 0.3189, 0.2026 -0.009 0.3189, 0.2032 -0.0326 0.3189, 0.1995 -0.0061 0.3189, 0.1906 -0.0026 0.3189, 0.1926 -0.0391 0.3189, 0.197 -0.0376 0.3189, 0.2006 -0.0352 0.3189, 0.1953 -0.0038 0.3189, 0.1819 -0.003 0.3189, 0.1674 -0.021 0.3189, 0.1776 -0.0045 0.3189, 0.174 -0.0068 0.3189, 0.1713 -0.0095 0.3189, 0.1679 -0.0168 0.3189, 0.1692 -0.0128 0.3189, 0.2065 -0.0258 0.3189, 0.2071 -0.021 0.3189, 0.205 -0.0124 0.3189, 0.2064 -0.0161 0.3189, 0.1679 -0.0258 0.3189, 0.1692 -0.0296 0.3189, 0.1712 -0.0328 0.3189, 0.1745 -0.0359 0.3189, 0.1784 -0.0381 0.3189
            ]
        }
        coordIndex [
            0,1,2,-1,3,4,5,-1,5,4,6,-1,2,1,7,-1,7,1,8,-1,7,8,9,-1,9,10,7,-1,7,10,5,-1,7,5,11,-1,11,5,6,-1,2,12,13,-1,13,12,14,-1,14,15,13,-1,13,15,16,-1,13,16,17,-1,17,16,18,-1,3,19,4,-1,4,19,20,-1,4,20,21,-1,21,20,22,-1,13,23,2,-1,2,23,24,-1,2,24,25,-1,25,26,2,-1,2,26,27,-1,2,27,0,-1,
        ]
    }
}
Shape{
    appearance Appearance {
        material  Material 	{
            diffuseColor 0.6666666666666666 0.6666666666666666 0.6666666666666666
            specularColor 0.3333333333333333 0.3333333333333333 0.3333333333333333
            ambientIntensity 0.6667
            transparency 0.0
            shininess 0.5
        }
    }
    geometry IndexedFaceSet {
        ccw TRUE
        solid FALSE
        coord DEF co Coordinate {
            point [
                0.1092 -0.012 0.315, 0.0966 -0.012 0.315, 0.1092 -0.012 0.3189, 0.0966 -0.012 0.3189, 0.0966 -0.0492 0.315, 0.0966 -0.0492 0.3189, 0.0834 -0.0492 0.315, 0.0834 -0.0492 0.3189, 0.0834 0.0492 0.315, 0.0834 0.0492 0.3189, 0.1113 0.0492 0.315, 0.1113 0.0492 0.3189, 0.1446 0.0197 0.315, 0.1446 0.0197 0.3189, 0.1446 0.0215 0.3189, 0.1446 0.0215 0.315, 0.1434 0.0293 0.3189, 0.1434 0.0293 0.315, 0.1413 0.0349 0.3189, 0.1413 0.0349 0.315, 0.1377 0.0398 0.3189, 0.1377 0.0398 0.315, 0.1341 0.043 0.3189, 0.1341 0.043 0.315, 0.1283 0.0462 0.3189, 0.1283 0.0462 0.315, 0.1208 0.0484 0.3189, 0.1208 0.0484 0.315, 0.1164 -0.0117 0.3189, 0.1164 -0.0117 0.315, 0.1242 -0.0097 0.3189, 0.1242 -0.0097 0.315, 0.1315 -0.006 0.3189, 0.1315 -0.006 0.315, 0.1373 -0.0008 0.3189, 0.1373 -0.0008 0.315, 0.1414 0.0051 0.3189, 0.1414 0.0051 0.315, 0.1437 0.0115 0.3189, 0.1437 0.0115 0.315, 0.0966 0.0384 0.315, 0.1094 0.0384 0.315, 0.1117 0.0384 0.315, 0.119 0.0372 0.315, 0.1234 0.0354 0.315, 0.1258 0.0337 0.315, 0.128 0.0313 0.315, 0.1298 0.0282 0.315, 0.131 0.0242 0.315, 0.1314 0.0192 0.315, 0.1314 0.0188 0.315, 0.1307 0.0129 0.315, 0.1293 0.009 0.315, 0.127 0.0056 0.315, 0.1239 0.0028 0.315, 0.1199 0.0007 0.315, 0.1148 -0.0007 0.315, 0.1082 -0.0012 0.315, 0.0966 -0.0012 0.315, 0.1094 0.0384 0.3189, 0.0966 0.0384 0.3189, 0.1117 0.0384 0.3189, 0.119 0.0372 0.3189, 0.1234 0.0354 0.3189, 0.1258 0.0337 0.3189, 0.128 0.0313 0.3189, 0.1298 0.0282 0.3189, 0.131 0.0242 0.3189, 0.1314 0.0192 0.3189, 0.1314 0.0188 0.3189, 0.1307 0.0129 0.3189, 0.1293 0.009 0.3189, 0.127 0.0056 0.3189, 0.1239 0.0028 0.3189, 0.1199 0.0007 0.3189, 0.1148 -0.0007 0.3189, 0.1082 -0.0012 0.3189, 0.0966 -0.0012 0.3189, 0.0042 -0.0453 0.315, 0.0042 -0.0309 0.315, 0.0042 -0.0453 0.3189, 0.0042 -0.0309 0.3189, 0.0304 -0.0396 0.315, 0.0304 -0.0396 0.3189, 0.023 -0.0389 0.3189, 0.023 -0.0389 0.315, 0.0114 -0.0353 0.3189, 0.0114 -0.0353 0.315, 0.051 -0.0249 0.315, 0.051 -0.0249 0.3189, 0.0506 -0.0288 0.3189, 0.0506 -0.0288 0.315, 0.0495 -0.0319 0.3189, 0.0495 -0.0319 0.315, 0.0482 -0.0338 0.3189, 0.0482 -0.0338 0.315, 0.0461 -0.0358 0.3189, 0.0461 -0.0358 0.315, 0.0426 -0.0377 0.3189, 0.0426 -0.0377 0.315, 0.0376 -0.0391 0.3189, 0.0376 -0.0391 0.315, 0.0283 -0.0039 0.315, 0.0283 -0.0039 0.3189, 0.0416 -0.011 0.3189, 0.0416 -0.011 0.315, 0.043 -0.0119 0.3189, 0.043 -0.0119 0.315, 0.0471 -0.0153 0.3189, 0.0471 -0.0153 0.315, 0.0495 -0.0186 0.3189, 0.0495 -0.0186 0.315, 0.0506 -0.0214 0.3189, 0.0506 -0.0214 0.315, 0.0042 0.024 0.315, 0.0042 0.024 0.3189, 0.0048 0.0183 0.3189, 0.0048 0.0183 0.315, 0.0067 0.0132 0.3189, 0.0067 0.0132 0.315, 0.0096 0.0088 0.3189, 0.0096 0.0088 0.315, 0.0148 0.004 0.3189, 0.0148 0.004 0.315, 0.039 0.0504 0.315, 0.039 0.0504 0.3189, 0.0281 0.0494 0.315, 0.0329 0.0498 0.3189, 0.0281 0.0494 0.3189, 0.0199 0.0466 0.3189, 0.0199 0.0466 0.315, 0.0143 0.0435 0.3189, 0.0143 0.0435 0.315, 0.0101 0.0398 0.3189, 0.0101 0.0398 0.315, 0.007 0.0355 0.3189, 0.007 0.0355 0.315, 0.0051 0.0308 0.3189, 0.0051 0.0308 0.315, 0.0499 0.0499 0.315, 0.0606 0.0477 0.315, 0.0606 0.0477 0.3189, 0.0506 0.0498 0.3189, 0.0499 0.0499 0.3189, 0.0606 0.0333 0.315, 0.0606 0.0333 0.3189, 0.038 0.0396 0.315, 0.038 0.0396 0.3189, 0.0448 0.0392 0.3189, 0.0448 0.0392 0.315, 0.0532 0.0372 0.3189, 0.0532 0.0372 0.315, 0.0174 0.0253 0.315, 0.0174 0.0253 0.3189, 0.0177 0.0283 0.3189, 0.0177 0.0283 0.315, 0.0186 0.0308 0.3189, 0.0186 0.0308 0.315, 0.02 0.033 0.3189, 0.02 0.033 0.315, 0.0223 0.0352 0.3189, 0.0223 0.0352 0.315, 0.0258 0.0373 0.3189, 0.0258 0.0373 0.315, 0.0311 0.039 0.3189, 0.0311 0.039 0.315, 0.0383 0.0053 0.315, 0.0383 0.0053 0.3189, 0.0292 0.0102 0.3189, 0.0292 0.0102 0.315, 0.0236 0.0137 0.3189, 0.0236 0.0137 0.315, 0.0205 0.0164 0.3189, 0.0205 0.0164 0.315, 0.0189 0.0188 0.3189, 0.0189 0.0188 0.315, 0.0178 0.0215 0.3189, 0.0178 0.0215 0.315, 0.0642 -0.0238 0.315, 0.0642 -0.0238 0.3189, 0.0635 -0.0178 0.3189, 0.0635 -0.0178 0.315, 0.0615 -0.013 0.3189, 0.0615 -0.013 0.315, 0.0582 -0.0081 0.3189, 0.0582 -0.0081 0.315, 0.0521 -0.0026 0.3189, 0.0521 -0.0026 0.315, 0.029 -0.0504 0.3189, 0.0372 -0.0498 0.3189, 0.029 -0.0504 0.315, 0.0392 -0.0497 0.315, 0.0392 -0.0497 0.3189, 0.0488 -0.047 0.3189, 0.0488 -0.047 0.315, 0.0543 -0.0439 0.3189, 0.0543 -0.0439 0.315, 0.0584 -0.0404 0.3189, 0.0584 -0.0404 0.315, 0.0616 -0.0357 0.3189, 0.0616 -0.0357 0.315, 0.0634 -0.0308 0.3189, 0.0634 -0.0308 0.315, 0.0074 -0.0468 0.3189, 0.0074 -0.0468 0.315, 0.0163 -0.0491 0.3189, 0.0163 -0.0491 0.315, 0.0232 -0.0498 0.3189, -0.0114 -0.0333 0.315, -0.0114 -0.0441 0.315, -0.0114 -0.0333 0.3189, -0.0114 -0.0441 0.3189, -0.0219 -0.0484 0.315, -0.0385 -0.0504 0.315, -0.0385 -0.0504 0.3189, -0.0358 -0.0504 0.3189, -0.0358 -0.0504 0.315, -0.0318 -0.0498 0.3189, -0.0219 -0.0484 0.3189, -0.0846 -0.0019 0.315, -0.0846 -0.0019 0.3189, -0.0837 -0.0133 0.3189, -0.0837 -0.0133 0.315, -0.0807 -0.0237 0.3189, -0.0807 -0.0237 0.315, -0.0755 -0.033 0.3189, -0.0755 -0.033 0.315, -0.0681 -0.0408 0.3189, -0.0681 -0.0408 0.315, -0.0602 -0.0459 0.3189, -0.0602 -0.0459 0.315, -0.0506 -0.0492 0.3189, -0.0506 -0.0492 0.315, -0.0443 -0.0498 0.3189, -0.0346 0.0504 0.315, -0.0346 0.0504 0.3189, -0.0444 0.0496 0.315, -0.0419 0.0498 0.3189, -0.0444 0.0496 0.3189, -0.0554 0.0464 0.3189, -0.0554 0.0464 0.315, -0.0647 0.0411 0.3189, -0.0647 0.0411 0.315, -0.0736 0.0325 0.3189, -0.0736 0.0325 0.315, -0.0794 0.0233 0.3189, -0.0794 0.0233 0.315, -0.0832 0.0121 0.3189, -0.0832 0.0121 0.315, -0.0259 0.0498 0.3189, -0.0228 0.0496 0.315, -0.0228 0.0496 0.3189, -0.0114 0.0465 0.315, -0.0114 0.0465 0.3189, -0.0114 0.0333 0.315, -0.0114 0.0333 0.3189, -0.0345 0.0396 0.315, -0.0345 0.0396 0.3189, -0.0225 0.0381 0.3189, -0.0225 0.0381 0.315, -0.0714 -0.0011 0.315, -0.0714 -0.0011 0.3189, -0.0709 0.0066 0.3189, -0.0709 0.0066 0.315, -0.0683 0.0171 0.3189, -0.0683 0.0171 0.315, -0.0643 0.0247 0.3189, -0.0643 0.0247 0.315, -0.0583 0.0313 0.3189, -0.0583 0.0313 0.315, -0.0515 0.0359 0.3189, -0.0515 0.0359 0.315, -0.0441 0.0385 0.3189, -0.0441 0.0385 0.315, -0.0367 -0.0396 0.315, -0.0367 -0.0396 0.3189, -0.0458 -0.0386 0.3189, -0.0458 -0.0386 0.315, -0.053 -0.0359 0.3189, -0.053 -0.0359 0.315, -0.0591 -0.0319 0.3189, -0.0591 -0.0319 0.315, -0.0637 -0.027 0.3189, -0.0637 -0.027 0.315, -0.0677 -0.0202 0.3189, -0.0677 -0.0202 0.315, -0.0704 -0.0117 0.3189, -0.0704 -0.0117 0.315, -0.0132 -0.0343 0.3189, -0.0132 -0.0343 0.315, -0.0236 -0.0382 0.3189, -0.0236 -0.0382 0.315, -0.0966 0.0492 0.315, -0.0966 0.0384 0.315, -0.0966 0.0492 0.3189, -0.0966 0.0384 0.3189, -0.1338 0.0384 0.315, -0.1338 0.0384 0.3189, -0.1338 0.0048 0.315, -0.1338 0.0048 0.3189, -0.099 0.0048 0.315, -0.099 0.0048 0.3189, -0.099 -0.006 0.315, -0.099 -0.006 0.3189, -0.1338 -0.006 0.315, -0.1338 -0.006 0.3189, -0.1338 -0.0492 0.315, -0.1338 -0.0492 0.3189, -0.147 -0.0492 0.315, -0.147 -0.0492 0.3189, -0.147 0.0492 0.315, -0.147 0.0492 0.3189, -0.1614 -0.0384 0.315, -0.1614 -0.0492 0.315, -0.1614 -0.0384 0.3189, -0.1614 -0.0492 0.3189, -0.2119 -0.0492 0.315, -0.2119 -0.0492 0.3189, -0.2119 0.0492 0.315, -0.2119 0.0492 0.3189, -0.1987 0.0492 0.315, -0.1987 0.0492 0.3189, -0.1987 -0.0384 0.315, -0.1987 -0.0384 0.3189
            ]
        }
        coordIndex [
            0,1,2,-1,2,1,3,-1,1,4,3,-1,3,4,5,-1,4,6,5,-1,5,6,7,-1,6,8,7,-1,7,8,9,-1,8,10,9,-1,9,10,11,-1,12,13,14,-1,12,14,15,-1,15,14,16,-1,15,16,17,-1,17,16,18,-1,17,18,19,-1,19,18,20,-1,19,20,21,-1,21,20,22,-1,21,22,23,-1,23,22,24,-1,23,24,25,-1,25,24,26,-1,25,26,27,-1,27,26,11,-1,27,11,10,-1,0,2,28,-1,0,28,29,-1,29,28,30,-1,29,30,31,-1,31,30,32,-1,31,32,33,-1,33,32,34,-1,33,34,35,-1,35,34,36,-1,35,36,37,-1,37,36,38,-1,37,38,39,-1,39,38,13,-1,39,13,12,-1,8,6,1,-1,1,6,4,-1,40,41,10,-1,10,41,42,-1,10,42,27,-1,27,42,43,-1,27,43,25,-1,25,43,44,-1,25,44,23,-1,23,44,45,-1,23,45,21,-1,21,45,46,-1,21,46,19,-1,19,46,47,-1,19,47,17,-1,17,47,48,-1,17,48,15,-1,15,48,49,-1,15,49,12,-1,12,49,50,-1,12,50,39,-1,39,50,51,-1,39,51,37,-1,37,51,52,-1,37,52,35,-1,35,52,53,-1,35,53,33,-1,33,53,54,-1,33,54,31,-1,31,54,55,-1,31,55,29,-1,29,55,56,-1,29,56,0,-1,0,56,57,-1,0,57,1,-1,1,57,58,-1,1,58,8,-1,8,58,40,-1,8,40,10,-1,41,40,59,-1,59,40,60,-1,41,59,61,-1,41,61,42,-1,42,61,62,-1,42,62,43,-1,43,62,63,-1,43,63,44,-1,44,63,64,-1,44,64,45,-1,45,64,65,-1,45,65,46,-1,46,65,66,-1,46,66,47,-1,47,66,67,-1,47,67,48,-1,48,67,68,-1,48,68,49,-1,49,68,69,-1,49,69,50,-1,50,69,70,-1,50,70,51,-1,51,70,71,-1,51,71,52,-1,52,71,72,-1,52,72,53,-1,53,72,73,-1,53,73,54,-1,54,73,74,-1,54,74,55,-1,55,74,75,-1,55,75,56,-1,56,75,76,-1,56,76,57,-1,58,57,77,-1,77,57,76,-1,40,58,60,-1,60,58,77,-1,78,79,80,-1,80,79,81,-1,82,83,84,-1,82,84,85,-1,85,84,86,-1,85,86,87,-1,87,86,81,-1,87,81,79,-1,88,89,90,-1,88,90,91,-1,91,90,92,-1,91,92,93,-1,93,92,94,-1,93,94,95,-1,95,94,96,-1,95,96,97,-1,97,96,98,-1,97,98,99,-1,99,98,100,-1,99,100,101,-1,101,100,83,-1,101,83,82,-1,102,103,104,-1,102,104,105,-1,105,104,106,-1,105,106,107,-1,107,106,108,-1,107,108,109,-1,109,108,110,-1,109,110,111,-1,111,110,112,-1,111,112,113,-1,113,112,89,-1,113,89,88,-1,114,115,116,-1,114,116,117,-1,117,116,118,-1,117,118,119,-1,119,118,120,-1,119,120,121,-1,121,120,122,-1,121,122,123,-1,123,122,103,-1,123,103,102,-1,124,125,126,-1,126,125,127,-1,127,128,126,-1,126,128,129,-1,126,129,130,-1,130,129,131,-1,130,131,132,-1,132,131,133,-1,132,133,134,-1,134,133,135,-1,134,135,136,-1,136,135,137,-1,136,137,138,-1,138,137,115,-1,138,115,114,-1,125,124,139,-1,140,141,142,-1,140,142,139,-1,139,142,143,-1,139,143,125,-1,140,144,141,-1,141,144,145,-1,146,147,148,-1,146,148,149,-1,149,148,150,-1,149,150,151,-1,151,150,145,-1,151,145,144,-1,152,153,154,-1,152,154,155,-1,155,154,156,-1,155,156,157,-1,157,156,158,-1,157,158,159,-1,159,158,160,-1,159,160,161,-1,161,160,162,-1,161,162,163,-1,163,162,164,-1,163,164,165,-1,165,164,147,-1,165,147,146,-1,166,167,168,-1,166,168,169,-1,169,168,170,-1,169,170,171,-1,171,170,172,-1,171,172,173,-1,173,172,174,-1,173,174,175,-1,175,174,176,-1,175,176,177,-1,177,176,153,-1,177,153,152,-1,178,179,180,-1,178,180,181,-1,181,180,182,-1,181,182,183,-1,183,182,184,-1,183,184,185,-1,185,184,186,-1,185,186,187,-1,187,186,167,-1,187,167,166,-1,188,189,190,-1,190,189,191,-1,189,192,191,-1,191,192,193,-1,191,193,194,-1,194,193,195,-1,194,195,196,-1,196,195,197,-1,196,197,198,-1,198,197,199,-1,198,199,200,-1,200,199,201,-1,200,201,202,-1,202,201,179,-1,202,179,178,-1,78,80,203,-1,78,203,204,-1,204,203,205,-1,204,205,206,-1,206,205,190,-1,190,205,207,-1,190,207,188,-1,79,78,87,-1,87,78,204,-1,87,204,85,-1,85,204,206,-1,85,206,82,-1,82,206,190,-1,82,190,101,-1,101,190,191,-1,101,191,99,-1,99,191,194,-1,99,194,97,-1,97,194,196,-1,97,196,95,-1,95,196,198,-1,95,198,93,-1,93,198,200,-1,93,200,91,-1,91,200,202,-1,91,202,88,-1,88,202,178,-1,88,178,113,-1,113,178,181,-1,113,181,111,-1,111,181,183,-1,111,183,109,-1,109,183,185,-1,109,185,107,-1,107,185,187,-1,107,187,105,-1,105,187,166,-1,105,166,102,-1,102,166,169,-1,102,169,123,-1,123,169,171,-1,123,171,121,-1,121,171,173,-1,121,173,119,-1,119,173,175,-1,119,175,117,-1,117,175,177,-1,117,177,114,-1,114,177,152,-1,114,152,138,-1,138,152,155,-1,138,155,136,-1,136,155,157,-1,136,157,134,-1,134,157,159,-1,134,159,132,-1,132,159,161,-1,132,161,130,-1,130,161,163,-1,130,163,126,-1,126,163,165,-1,126,165,124,-1,124,165,146,-1,124,146,139,-1,139,146,149,-1,139,149,140,-1,140,149,151,-1,140,151,144,-1,208,209,210,-1,210,209,211,-1,211,209,212,-1,213,214,215,-1,213,215,216,-1,216,215,217,-1,216,217,212,-1,212,217,218,-1,212,218,211,-1,219,220,221,-1,219,221,222,-1,222,221,223,-1,222,223,224,-1,224,223,225,-1,224,225,226,-1,226,225,227,-1,226,227,228,-1,228,227,229,-1,228,229,230,-1,230,229,231,-1,230,231,232,-1,232,231,213,-1,213,231,233,-1,213,233,214,-1,234,235,236,-1,236,235,237,-1,237,238,236,-1,236,238,239,-1,236,239,240,-1,240,239,241,-1,240,241,242,-1,242,241,243,-1,242,243,244,-1,244,243,245,-1,244,245,246,-1,246,245,247,-1,246,247,248,-1,248,247,220,-1,248,220,219,-1,235,234,249,-1,249,234,250,-1,249,250,251,-1,251,250,252,-1,251,252,253,-1,252,254,253,-1,253,254,255,-1,256,257,258,-1,256,258,259,-1,259,258,255,-1,259,255,254,-1,260,261,262,-1,260,262,263,-1,263,262,264,-1,263,264,265,-1,265,264,266,-1,265,266,267,-1,267,266,268,-1,267,268,269,-1,269,268,270,-1,269,270,271,-1,271,270,272,-1,271,272,273,-1,273,272,257,-1,273,257,256,-1,274,275,276,-1,274,276,277,-1,277,276,278,-1,277,278,279,-1,279,278,280,-1,279,280,281,-1,281,280,282,-1,281,282,283,-1,283,282,284,-1,283,284,285,-1,285,284,286,-1,285,286,287,-1,287,286,261,-1,287,261,260,-1,208,210,288,-1,208,288,289,-1,289,288,290,-1,289,290,291,-1,291,290,275,-1,291,275,274,-1,277,213,274,-1,274,213,216,-1,274,216,291,-1,291,216,212,-1,291,212,289,-1,289,212,209,-1,289,209,208,-1,254,252,259,-1,259,252,250,-1,259,250,256,-1,256,250,234,-1,256,234,273,-1,273,234,236,-1,273,236,271,-1,271,236,240,-1,271,240,269,-1,269,240,242,-1,269,242,267,-1,267,242,244,-1,267,244,265,-1,265,244,246,-1,265,246,263,-1,263,246,248,-1,263,248,260,-1,260,248,219,-1,260,219,287,-1,287,219,222,-1,287,222,285,-1,285,222,224,-1,285,224,283,-1,283,224,226,-1,283,226,281,-1,281,226,228,-1,281,228,279,-1,279,228,230,-1,279,230,277,-1,277,230,232,-1,277,232,213,-1,292,293,294,-1,294,293,295,-1,293,296,295,-1,295,296,297,-1,296,298,297,-1,297,298,299,-1,298,300,299,-1,299,300,301,-1,300,302,301,-1,301,302,303,-1,302,304,303,-1,303,304,305,-1,304,306,305,-1,305,306,307,-1,306,308,307,-1,307,308,309,-1,308,310,309,-1,309,310,311,-1,310,292,311,-1,311,292,294,-1,310,308,304,-1,304,308,306,-1,293,292,296,-1,296,292,310,-1,296,310,298,-1,298,310,304,-1,298,304,300,-1,300,304,302,-1,312,313,314,-1,314,313,315,-1,313,316,315,-1,315,316,317,-1,316,318,317,-1,317,318,319,-1,318,320,319,-1,319,320,321,-1,320,322,321,-1,321,322,323,-1,322,312,323,-1,323,312,314,-1,320,318,322,-1,322,318,316,-1,322,316,312,-1,312,316,313,-1,
        ]
    }
}
Shape{
    appearance Appearance {
        material  Material 	{
            diffuseColor 0.25098039215686274 0.25098039215686274 0.25098039215686274
            specularColor 0.12549019607843137 0.12549019607843137 0.12549019607843137
            ambientIntensity 0.251
            transparency 0.0
            shininess 0.5
        }
    }
    geometry IndexedFaceSet {
        ccw TRUE
        solid FALSE
        coord DEF co Coordinate {
            point [
                0.203 0.0283 0.3189, 0.2017 0.0316 0.3189, 0.1774 0.0134 0.3189, 0.2026 0.0188 0.3189, 0.2034 0.0224 0.3189, 0.1786 0.0122 0.3189, 0.1996 0.0346 0.3189, 0.1979 0.0363 0.3189, 0.1753 0.0165 0.3189, 0.174 0.0198 0.3189, 0.1953 0.0102 0.3189, 0.1981 0.0122 0.3189, 0.1812 0.0103 0.3189, 0.2035 0.0241 0.3189, 0.2011 0.0157 0.3189, 0.1951 0.0381 0.3189, 0.1738 0.0276 0.3189, 0.1734 0.0241 0.3189, 0.1918 0.0393 0.3189, 0.1884 0.0396 0.3189, 0.1748 0.0309 0.3189, 0.1765 0.0338 0.3189, 0.1844 0.0391 0.3189, 0.1815 0.038 0.3189, 0.1787 0.0362 0.3189, 0.1844 0.0089 0.3189, 0.1884 0.0084 0.3189, 0.1923 0.0089 0.3189, 0.0966 0.0384 0.3189, 0.0966 -0.0012 0.3189, 0.1094 0.0384 0.3189, 0.1082 -0.0012 0.3189, 0.1148 -0.0007 0.3189, 0.1199 0.0007 0.3189, 0.1239 0.0028 0.3189, 0.1307 0.0129 0.3189, 0.1314 0.0188 0.3189, 0.1314 0.0192 0.3189, 0.1117 0.0384 0.3189, 0.131 0.0242 0.3189, 0.119 0.0372 0.3189, 0.1234 0.0354 0.3189, 0.127 0.0056 0.3189, 0.1293 0.009 0.3189, 0.1258 0.0337 0.3189, 0.1298 0.0282 0.3189, 0.128 0.0313 0.3189
            ]
        }
        coordIndex [
            0,1,2,-1,3,4,5,-1,1,6,2,-1,2,6,7,-1,2,7,8,-1,8,7,9,-1,10,11,12,-1,5,4,2,-1,2,4,13,-1,2,13,0,-1,12,11,5,-1,5,11,14,-1,5,14,3,-1,15,16,7,-1,7,16,17,-1,7,17,9,-1,15,18,16,-1,16,18,19,-1,16,19,20,-1,20,19,21,-1,22,23,19,-1,19,23,24,-1,19,24,21,-1,25,26,12,-1,12,26,27,-1,12,27,10,-1,28,29,30,-1,30,29,31,-1,31,32,30,-1,30,32,33,-1,30,33,34,-1,35,36,30,-1,30,36,37,-1,30,37,38,-1,38,37,39,-1,38,39,40,-1,40,39,41,-1,34,42,30,-1,30,42,43,-1,30,43,35,-1,41,39,44,-1,44,39,45,-1,44,45,46,-1,
        ]
    }
}
Shape{
    appearance Appearance {
        material  Material 	{
            diffuseColor 1.0 1.0 1.0
            specularColor 0.8784313725490196 0.8784313725490196 0.8784313725490196
            ambientIntensity 1.0
            transparency 0.0
            shininess 0.5
        }
    }
    geometry IndexedFaceSet {
        ccw TRUE
        solid FALSE
        coord DEF co Coordinate {
            point [
                -0.3445 -0.3976 0.0787, -0.2461 -0.3976 0.0787, -0.3445 -0.3937 0.0787, -0.2461 -0.3937 0.0787, -0.2461 -0.3937 0.0039, -0.2461 -0.3976 0.0, -0.2461 -0.2894 0.0039, -0.2461 -0.2894 0.0, -0.3445 -0.2894 0.0039, -0.3445 -0.2894 0.0, -0.3445 -0.3937 0.0039, -0.3445 -0.3976 0.0, -0.2477 -0.2766 0.0, -0.2477 -0.2766 0.0039, -0.2527 -0.2648 0.0, -0.2527 -0.2648 0.0039, -0.2605 -0.2546 0.0, -0.2605 -0.2546 0.0039, -0.2707 -0.2468 0.0, -0.2707 -0.2468 0.0039, -0.2825 -0.2418 0.0, -0.2825 -0.2418 0.0039, -0.2953 -0.2402 0.0, -0.2953 -0.2402 0.0039, -0.308 -0.2418 0.0, -0.308 -0.2418 0.0039, -0.3199 -0.2468 0.0, -0.3199 -0.2468 0.0039, -0.3301 -0.2546 0.0, -0.3301 -0.2546 0.0039, -0.3379 -0.2648 0.0, -0.3379 -0.2648 0.0039, -0.3428 -0.2766 0.0, -0.3428 -0.2766 0.0039, 0.3336 0.174 0.0, 0.3336 0.174 0.0039, 0.3336 -0.0299 0.0, 0.3336 -0.1185 0.0039, 0.3336 -0.1185 0.0, -0.3244 0.174 0.0, -0.3244 0.174 0.0039, 0.031 0.174 0.0, -0.3244 -0.1185 0.0, -0.3244 -0.1185 0.0039, -0.3244 -0.0299 0.0, 0.031 -0.1185 0.0
            ]
        }
        coordIndex [
            0,1,2,-1,2,1,3,-1,3,1,4,-1,4,1,5,-1,4,5,6,-1,6,5,7,-1,8,9,10,-1,10,9,11,-1,10,11,2,-1,2,11,0,-1,1,0,5,-1,5,0,11,-1,6,7,12,-1,6,12,13,-1,13,12,14,-1,13,14,15,-1,15,14,16,-1,15,16,17,-1,17,16,18,-1,17,18,19,-1,19,18,20,-1,19,20,21,-1,21,20,22,-1,21,22,23,-1,23,22,24,-1,23,24,25,-1,25,24,26,-1,25,26,27,-1,27,26,28,-1,27,28,29,-1,29,28,30,-1,29,30,31,-1,31,30,32,-1,31,32,33,-1,33,32,9,-1,33,9,8,-1,7,5,11,-1,11,9,7,-1,7,9,32,-1,7,32,30,-1,30,28,7,-1,7,28,26,-1,7,26,24,-1,24,22,7,-1,7,22,20,-1,7,20,18,-1,18,16,7,-1,7,16,14,-1,7,14,12,-1,34,35,36,-1,36,35,37,-1,36,37,38,-1,39,40,41,-1,41,40,35,-1,41,35,34,-1,42,43,44,-1,44,43,40,-1,44,40,39,-1,38,37,45,-1,45,37,43,-1,45,43,42,-1,
        ]
    }
}
Shape{
    appearance Appearance {
        material  Material 	{
            diffuseColor 0.25098039215686274 0.25098039215686274 0.25098039215686274
            specularColor 0.12549019607843137 0.12549019607843137 0.12549019607843137
            ambientIntensity 0.251
            transparency 0.0
            shininess 0.5
        }
    }
    geometry IndexedFaceSet {
        ccw TRUE
        solid FALSE
        coord DEF co Coordinate {
            point [
                -0.1001 0.0295 0.0039, -0.1232 -0.0295 0.0039, -0.1001 0.0295 0.0, -0.1232 -0.0295 0.0, -0.1145 -0.0295 0.0039, -0.1145 -0.0295 0.0, -0.1085 -0.013 0.0039, -0.1085 -0.013 0.0, -0.0841 -0.013 0.0039, -0.0841 -0.013 0.0, -0.0785 -0.0295 0.0039, -0.0785 -0.0295 0.0, -0.0699 -0.0295 0.0039, -0.0699 -0.0295 0.0, -0.0922 0.0295 0.0039, -0.0922 0.0295 0.0, -0.0861 -0.0065 0.0039, -0.1059 -0.0065 0.0039, -0.0949 0.0182 0.0039, -0.0955 0.0202 0.0039, -0.0959 0.0223 0.0039, -0.0961 0.0223 0.0039, -0.0965 0.0202 0.0039, -0.097 0.0182 0.0039, -0.0861 -0.0065 0.0, -0.1059 -0.0065 0.0, -0.0949 0.0182 0.0, -0.0955 0.0202 0.0, -0.0959 0.0223 0.0, -0.0961 0.0223 0.0, -0.0965 0.0202 0.0, -0.097 0.0182 0.0, -0.0341 -0.0295 0.0039, -0.018 -0.0295 0.0039, -0.0341 -0.0295 0.0, -0.018 -0.0295 0.0, -0.018 0.0295 0.0039, -0.018 0.0295 0.0, -0.0347 0.0295 0.0039, -0.0347 0.0295 0.0, -0.0655 0.0007 0.0039, -0.0655 0.0007 0.0, -0.0651 0.0063 0.0, -0.0651 0.0063 0.0039, -0.0635 0.0121 0.0, -0.0635 0.0121 0.0039, -0.0608 0.0172 0.0, -0.0608 0.0172 0.0039, -0.0566 0.0218 0.0, -0.0566 0.0218 0.0039, -0.0565 0.0219 0.0, -0.0565 0.0219 0.0039, -0.0501 0.0262 0.0, -0.0501 0.0262 0.0039, -0.0432 0.0286 0.0, -0.0432 0.0286 0.0039, -0.0414 -0.0289 0.0, -0.0414 -0.0289 0.0039, -0.0482 -0.0269 0.0, -0.0482 -0.0269 0.0039, -0.0543 -0.0233 0.0, -0.0543 -0.0233 0.0039, -0.0592 -0.0186 0.0, -0.0592 -0.0186 0.0039, -0.0626 -0.0133 0.0, -0.0626 -0.0133 0.0039, -0.0647 -0.0072 0.0, -0.0647 -0.0072 0.0039, -0.0537 0.0148 0.0039, -0.0508 0.0178 0.0039, -0.0465 0.0206 0.0039, -0.0416 0.0223 0.0039, -0.0346 0.023 0.0039, -0.0259 0.023 0.0039, -0.0259 -0.023 0.0039, -0.0343 -0.023 0.0039, -0.0405 -0.0225 0.0039, -0.0455 -0.0209 0.0039, -0.0495 -0.0185 0.0039, -0.0528 -0.0153 0.0039, -0.0553 -0.0112 0.0039, -0.0571 -0.0056 0.0039, -0.0576 0.0006 0.0039, -0.0571 0.0065 0.0039, -0.0557 0.0111 0.0039, -0.0346 0.023 0.0, -0.0259 0.023 0.0, -0.0416 0.0223 0.0, -0.0465 0.0206 0.0, -0.0508 0.0178 0.0, -0.0537 0.0148 0.0, -0.0557 0.0111 0.0, -0.0571 0.0065 0.0, -0.0576 0.0006 0.0, -0.0571 -0.0056 0.0, -0.0553 -0.0112 0.0, -0.0528 -0.0153 0.0, -0.0495 -0.0185 0.0, -0.0455 -0.0209 0.0, -0.0405 -0.0225 0.0, -0.0343 -0.023 0.0, -0.0259 -0.023 0.0, -0.0065 -0.023 0.0039, -0.0065 -0.0295 0.0039, -0.0065 -0.023 0.0, -0.0065 -0.0295 0.0, 0.0252 -0.0295 0.0039, 0.0252 -0.0295 0.0, 0.0252 0.0295 0.0039, 0.0252 0.0295 0.0, -0.005 0.0295 0.0039, -0.005 0.0295 0.0, -0.005 0.023 0.0039, -0.005 0.023 0.0, 0.0173 0.023 0.0039, 0.0173 0.023 0.0, 0.0173 0.0036 0.0039, 0.0173 0.0036 0.0, -0.0036 0.0036 0.0039, -0.0036 0.0036 0.0, -0.0036 -0.0029 0.0039, -0.0036 -0.0029 0.0, 0.0173 -0.0029 0.0039, 0.0173 -0.0029 0.0, 0.0173 -0.023 0.0039, 0.0173 -0.023 0.0, 0.0367 -0.02 0.0039, 0.0367 -0.0265 0.0039, 0.0367 -0.02 0.0, 0.0367 -0.0265 0.0, 0.043 -0.0291 0.0039, 0.053 -0.0302 0.0039, 0.053 -0.0302 0.0, 0.0514 -0.0302 0.0, 0.0514 -0.0302 0.0039, 0.049 -0.0299 0.0, 0.043 -0.0291 0.0, 0.0807 -0.0011 0.0039, 0.0807 -0.0011 0.0, 0.0801 -0.008 0.0, 0.0801 -0.008 0.0039, 0.0783 -0.0142 0.0, 0.0783 -0.0142 0.0039, 0.0752 -0.0198 0.0, 0.0752 -0.0198 0.0039, 0.0707 -0.0245 0.0, 0.0707 -0.0245 0.0039, 0.066 -0.0275 0.0, 0.066 -0.0275 0.0039, 0.0603 -0.0295 0.0, 0.0603 -0.0295 0.0039, 0.0565 -0.0299 0.0, 0.0506 0.0302 0.0039, 0.0506 0.0302 0.0, 0.0566 0.0298 0.0, 0.0566 0.0298 0.0039, 0.0631 0.0279 0.0, 0.0631 0.0279 0.0039, 0.0688 0.0246 0.0, 0.0688 0.0246 0.0039, 0.0741 0.0195 0.0, 0.0741 0.0195 0.0039, 0.0775 0.014 0.0, 0.0775 0.014 0.0039, 0.0798 0.0073 0.0, 0.0798 0.0073 0.0039, 0.0367 0.0279 0.0039, 0.0367 0.0279 0.0, 0.0436 0.0298 0.0, 0.0436 0.0298 0.0039, 0.0367 0.02 0.0039, 0.0367 0.02 0.0, 0.0506 0.0238 0.0039, 0.0506 0.0238 0.0, 0.0434 0.0228 0.0, 0.0434 0.0228 0.0039, 0.0727 -0.0006 0.0039, 0.0727 -0.0006 0.0, 0.0725 0.004 0.0, 0.0725 0.004 0.0039, 0.0709 0.0103 0.0, 0.0709 0.0103 0.0039, 0.0684 0.0148 0.0, 0.0684 0.0148 0.0039, 0.0649 0.0188 0.0, 0.0649 0.0188 0.0039, 0.0608 0.0215 0.0, 0.0608 0.0215 0.0039, 0.0564 0.0231 0.0, 0.0564 0.0231 0.0039, 0.0519 -0.0238 0.0039, 0.0519 -0.0238 0.0, 0.0574 -0.0231 0.0, 0.0574 -0.0231 0.0039, 0.0617 -0.0216 0.0, 0.0617 -0.0216 0.0039, 0.0653 -0.0191 0.0, 0.0653 -0.0191 0.0039, 0.0681 -0.0162 0.0, 0.0681 -0.0162 0.0039, 0.0705 -0.0121 0.0, 0.0705 -0.0121 0.0039, 0.0721 -0.007 0.0, 0.0721 -0.007 0.0039, 0.0378 -0.0206 0.0, 0.0378 -0.0206 0.0039, 0.044 -0.0229 0.0, 0.044 -0.0229 0.0039, 0.0857 -0.023 0.0039, 0.0857 -0.0295 0.0039, 0.0857 -0.023 0.0, 0.0857 -0.0295 0.0, 0.1159 -0.0295 0.0039, 0.1159 -0.0295 0.0, 0.1159 0.0295 0.0039, 0.1159 0.0295 0.0, 0.108 0.0295 0.0039, 0.108 0.0295 0.0, 0.108 -0.023 0.0039, 0.108 -0.023 0.0
            ]
        }
        coordIndex [
            0,1,2,-1,2,1,3,-1,1,4,3,-1,3,4,5,-1,4,6,5,-1,5,6,7,-1,6,8,7,-1,7,8,9,-1,8,10,9,-1,9,10,11,-1,10,12,11,-1,11,12,13,-1,12,14,13,-1,13,14,15,-1,14,0,15,-1,15,0,2,-1,16,8,17,-1,17,8,6,-1,18,14,16,-1,16,14,12,-1,16,12,8,-1,8,12,10,-1,18,19,14,-1,14,19,20,-1,14,20,0,-1,0,20,21,-1,0,21,22,-1,22,23,0,-1,0,23,17,-1,0,17,1,-1,1,17,6,-1,1,6,4,-1,16,17,24,-1,24,17,25,-1,18,16,26,-1,26,16,24,-1,18,26,27,-1,18,27,19,-1,19,27,28,-1,19,28,20,-1,21,20,29,-1,29,20,28,-1,21,29,30,-1,21,30,22,-1,22,30,31,-1,22,31,23,-1,17,23,25,-1,25,23,31,-1,32,33,34,-1,34,33,35,-1,33,36,35,-1,35,36,37,-1,36,38,37,-1,37,38,39,-1,40,41,42,-1,40,42,43,-1,43,42,44,-1,43,44,45,-1,45,44,46,-1,45,46,47,-1,47,46,48,-1,47,48,49,-1,49,48,50,-1,49,50,51,-1,51,50,52,-1,51,52,53,-1,53,52,54,-1,53,54,55,-1,55,54,39,-1,55,39,38,-1,32,34,56,-1,32,56,57,-1,57,56,58,-1,57,58,59,-1,59,58,60,-1,59,60,61,-1,61,60,62,-1,61,62,63,-1,63,62,64,-1,63,64,65,-1,65,64,66,-1,65,66,67,-1,67,66,41,-1,67,41,40,-1,45,47,68,-1,68,47,49,-1,68,49,69,-1,69,49,51,-1,69,51,70,-1,70,51,53,-1,70,53,71,-1,71,53,55,-1,71,55,72,-1,72,55,38,-1,72,38,73,-1,73,38,36,-1,73,36,74,-1,74,36,33,-1,74,33,75,-1,75,33,32,-1,75,32,76,-1,76,32,57,-1,76,57,77,-1,77,57,59,-1,77,59,78,-1,78,59,61,-1,78,61,79,-1,79,61,63,-1,79,63,80,-1,80,63,65,-1,80,65,81,-1,81,65,67,-1,81,67,82,-1,82,67,40,-1,82,40,83,-1,83,40,43,-1,83,43,84,-1,84,43,45,-1,84,45,68,-1,72,73,85,-1,85,73,86,-1,72,85,87,-1,72,87,71,-1,71,87,88,-1,71,88,70,-1,70,88,89,-1,70,89,69,-1,69,89,90,-1,69,90,68,-1,68,90,91,-1,68,91,84,-1,84,91,92,-1,84,92,83,-1,83,92,93,-1,83,93,82,-1,82,93,94,-1,82,94,81,-1,81,94,95,-1,81,95,80,-1,80,95,96,-1,80,96,79,-1,79,96,97,-1,79,97,78,-1,78,97,98,-1,78,98,77,-1,77,98,99,-1,77,99,76,-1,76,99,100,-1,76,100,75,-1,74,75,101,-1,101,75,100,-1,73,74,86,-1,86,74,101,-1,102,103,104,-1,104,103,105,-1,103,106,105,-1,105,106,107,-1,106,108,107,-1,107,108,109,-1,108,110,109,-1,109,110,111,-1,110,112,111,-1,111,112,113,-1,112,114,113,-1,113,114,115,-1,114,116,115,-1,115,116,117,-1,116,118,117,-1,117,118,119,-1,118,120,119,-1,119,120,121,-1,120,122,121,-1,121,122,123,-1,122,124,123,-1,123,124,125,-1,124,102,125,-1,125,102,104,-1,106,103,102,-1,102,124,106,-1,106,124,122,-1,106,122,108,-1,112,110,114,-1,114,110,108,-1,114,108,116,-1,116,108,122,-1,116,122,118,-1,118,122,120,-1,126,127,128,-1,128,127,129,-1,129,127,130,-1,131,132,133,-1,131,133,134,-1,134,133,135,-1,134,135,130,-1,130,135,136,-1,130,136,129,-1,137,138,139,-1,137,139,140,-1,140,139,141,-1,140,141,142,-1,142,141,143,-1,142,143,144,-1,144,143,145,-1,144,145,146,-1,146,145,147,-1,146,147,148,-1,148,147,149,-1,148,149,150,-1,150,149,131,-1,131,149,151,-1,131,151,132,-1,152,153,154,-1,152,154,155,-1,155,154,156,-1,155,156,157,-1,157,156,158,-1,157,158,159,-1,159,158,160,-1,159,160,161,-1,161,160,162,-1,161,162,163,-1,163,162,164,-1,163,164,165,-1,165,164,138,-1,165,138,137,-1,166,167,168,-1,166,168,169,-1,169,168,153,-1,169,153,152,-1,166,170,167,-1,167,170,171,-1,172,173,174,-1,172,174,175,-1,175,174,171,-1,175,171,170,-1,176,177,178,-1,176,178,179,-1,179,178,180,-1,179,180,181,-1,181,180,182,-1,181,182,183,-1,183,182,184,-1,183,184,185,-1,185,184,186,-1,185,186,187,-1,187,186,188,-1,187,188,189,-1,189,188,173,-1,189,173,172,-1,190,191,192,-1,190,192,193,-1,193,192,194,-1,193,194,195,-1,195,194,196,-1,195,196,197,-1,197,196,198,-1,197,198,199,-1,199,198,200,-1,199,200,201,-1,201,200,202,-1,201,202,203,-1,203,202,177,-1,203,177,176,-1,126,128,204,-1,126,204,205,-1,205,204,206,-1,205,206,207,-1,207,206,191,-1,207,191,190,-1,193,131,190,-1,190,131,134,-1,190,134,207,-1,207,134,130,-1,207,130,205,-1,205,130,127,-1,205,127,126,-1,170,166,175,-1,175,166,169,-1,175,169,172,-1,172,169,152,-1,172,152,189,-1,189,152,155,-1,189,155,187,-1,187,155,157,-1,187,157,185,-1,185,157,159,-1,185,159,183,-1,183,159,161,-1,183,161,181,-1,181,161,163,-1,181,163,179,-1,179,163,165,-1,179,165,176,-1,176,165,137,-1,176,137,203,-1,203,137,140,-1,203,140,201,-1,201,140,142,-1,201,142,199,-1,199,142,144,-1,199,144,197,-1,197,144,146,-1,197,146,195,-1,195,146,148,-1,195,148,193,-1,193,148,150,-1,193,150,131,-1,208,209,210,-1,210,209,211,-1,209,212,211,-1,211,212,213,-1,212,214,213,-1,213,214,215,-1,214,216,215,-1,215,216,217,-1,216,218,217,-1,217,218,219,-1,218,208,219,-1,219,208,210,-1,216,214,218,-1,218,214,212,-1,218,212,208,-1,208,212,209,-1,
        ]
    }
}
Shape{
    appearance Appearance {
        material  Material 	{
            diffuseColor 1.0 1.0 1.0
            specularColor 0.8784313725490196 0.8784313725490196 0.8784313725490196
            ambientIntensity 1.0
            transparency 0.0
            shininess 0.5
        }
    }
    geometry IndexedFaceSet {
        ccw TRUE
        solid FALSE
        coord DEF co Coordinate {
            point [
                -0.0861 -0.0065 0.0, -0.1059 -0.0065 0.0, -0.0949 0.0182 0.0, -0.097 0.0182 0.0, -0.0955 0.0202 0.0, -0.0965 0.0202 0.0, -0.0959 0.0223 0.0, -0.0961 0.0223 0.0, -0.0259 0.023 0.0, -0.0259 -0.023 0.0, -0.0346 0.023 0.0, -0.0343 -0.023 0.0, -0.0405 -0.0225 0.0, -0.0576 0.0006 0.0, -0.0571 0.0065 0.0, -0.0557 0.0111 0.0, -0.0416 0.0223 0.0, -0.0455 -0.0209 0.0, -0.0495 -0.0185 0.0, -0.0528 -0.0153 0.0, -0.0553 -0.0112 0.0, -0.0571 -0.0056 0.0, -0.0537 0.0148 0.0, -0.0508 0.0178 0.0, -0.0465 0.0206 0.0, -0.1476 -0.3976 0.0787, -0.0492 -0.3976 0.0787, -0.1476 -0.3937 0.0787, -0.0492 -0.3937 0.0787, -0.0492 -0.3976 0.0, -0.1476 -0.3976 0.0, -0.0492 -0.3937 0.0039, -0.0492 -0.2894 0.0039, -0.0492 -0.2894 0.0, -0.0509 -0.2766 0.0, -0.0509 -0.2766 0.0039, -0.0558 -0.2648 0.0, -0.0558 -0.2648 0.0039, -0.0636 -0.2546 0.0, -0.0636 -0.2546 0.0039, -0.0738 -0.2468 0.0, -0.0738 -0.2468 0.0039, -0.0857 -0.2418 0.0, -0.0857 -0.2418 0.0039, -0.0984 -0.2402 0.0, -0.0984 -0.2402 0.0039, -0.1112 -0.2418 0.0, -0.1112 -0.2418 0.0039, -0.123 -0.2468 0.0, -0.123 -0.2468 0.0039, -0.1332 -0.2546 0.0, -0.1332 -0.2546 0.0039, -0.141 -0.2648 0.0, -0.141 -0.2648 0.0039, -0.146 -0.2766 0.0, -0.146 -0.2766 0.0039, -0.1476 -0.2894 0.0, -0.1476 -0.2894 0.0039, -0.1476 -0.3937 0.0039, 0.0492 -0.3976 0.0787, 0.1476 -0.3976 0.0787, 0.0492 -0.3937 0.0787, 0.1476 -0.3937 0.0787, 0.1476 -0.3976 0.0, 0.0492 -0.3976 0.0, 0.1476 -0.3937 0.0039, 0.1476 -0.2894 0.0039, 0.1476 -0.2894 0.0, 0.146 -0.2766 0.0, 0.146 -0.2766 0.0039, 0.141 -0.2648 0.0, 0.141 -0.2648 0.0039, 0.1332 -0.2546 0.0, 0.1332 -0.2546 0.0039, 0.123 -0.2468 0.0, 0.123 -0.2468 0.0039, 0.1112 -0.2418 0.0, 0.1112 -0.2418 0.0039, 0.0984 -0.2402 0.0, 0.0984 -0.2402 0.0039, 0.0857 -0.2418 0.0, 0.0857 -0.2418 0.0039, 0.0738 -0.2468 0.0, 0.0738 -0.2468 0.0039, 0.0636 -0.2546 0.0, 0.0636 -0.2546 0.0039, 0.0558 -0.2648 0.0, 0.0558 -0.2648 0.0039, 0.0509 -0.2766 0.0, 0.0509 -0.2766 0.0039, 0.0492 -0.2894 0.0, 0.0492 -0.2894 0.0039, 0.0492 -0.3937 0.0039, 0.2461 -0.3976 0.0787, 0.3445 -0.3976 0.0787, 0.2461 -0.3937 0.0787, 0.3445 -0.3937 0.0787, 0.3445 -0.3976 0.0, 0.2461 -0.3976 0.0, 0.3445 -0.3937 0.0039, 0.3445 -0.2894 0.0039, 0.3445 -0.2894 0.0, 0.3428 -0.2766 0.0, 0.3428 -0.2766 0.0039, 0.3379 -0.2648 0.0, 0.3379 -0.2648 0.0039, 0.3301 -0.2546 0.0, 0.3301 -0.2546 0.0039, 0.3199 -0.2468 0.0, 0.3199 -0.2468 0.0039, 0.308 -0.2418 0.0, 0.308 -0.2418 0.0039, 0.2953 -0.2402 0.0, 0.2953 -0.2402 0.0039, 0.2825 -0.2418 0.0, 0.2825 -0.2418 0.0039, 0.2707 -0.2468 0.0, 0.2707 -0.2468 0.0039, 0.2605 -0.2546 0.0, 0.2605 -0.2546 0.0039, 0.2527 -0.2648 0.0, 0.2527 -0.2648 0.0039, 0.2477 -0.2766 0.0, 0.2477 -0.2766 0.0039, 0.2461 -0.2894 0.0, 0.2461 -0.2894 0.0039, 0.2461 -0.3937 0.0039, -0.2461 0.3976 0.0787, -0.3445 0.3976 0.0787, -0.2461 0.3937 0.0787, -0.3445 0.3937 0.0787, -0.3445 0.3976 0.0, -0.2461 0.3976 0.0, -0.3445 0.3937 0.0039, -0.3445 0.2894 0.0039, -0.3445 0.2894 0.0, -0.3428 0.2766 0.0, -0.3428 0.2766 0.0039, -0.3379 0.2648 0.0, -0.3379 0.2648 0.0039, -0.3301 0.2546 0.0, -0.3301 0.2546 0.0039, -0.3199 0.2468 0.0, -0.3199 0.2468 0.0039, -0.308 0.2418 0.0, -0.308 0.2418 0.0039, -0.2953 0.2402 0.0, -0.2953 0.2402 0.0039, -0.2825 0.2418 0.0, -0.2825 0.2418 0.0039, -0.2707 0.2468 0.0, -0.2707 0.2468 0.0039, -0.2605 0.2546 0.0, -0.2605 0.2546 0.0039, -0.2527 0.2648 0.0, -0.2527 0.2648 0.0039, -0.2477 0.2766 0.0, -0.2477 0.2766 0.0039, -0.2461 0.2894 0.0, -0.2461 0.2894 0.0039, -0.2461 0.3937 0.0039, -0.0492 0.3976 0.0787, -0.1476 0.3976 0.0787, -0.0492 0.3937 0.0787, -0.1476 0.3937 0.0787, -0.1476 0.3976 0.0, -0.0492 0.3976 0.0, -0.1476 0.3937 0.0039, -0.1476 0.2894 0.0039, -0.1476 0.2894 0.0, -0.146 0.2766 0.0, -0.146 0.2766 0.0039, -0.141 0.2648 0.0, -0.141 0.2648 0.0039, -0.1332 0.2546 0.0, -0.1332 0.2546 0.0039, -0.123 0.2468 0.0, -0.123 0.2468 0.0039, -0.1112 0.2418 0.0, -0.1112 0.2418 0.0039, -0.0984 0.2402 0.0, -0.0984 0.2402 0.0039, -0.0857 0.2418 0.0, -0.0857 0.2418 0.0039, -0.0738 0.2468 0.0, -0.0738 0.2468 0.0039, -0.0636 0.2546 0.0, -0.0636 0.2546 0.0039, -0.0558 0.2648 0.0, -0.0558 0.2648 0.0039, -0.0509 0.2766 0.0, -0.0509 0.2766 0.0039, -0.0492 0.2894 0.0, -0.0492 0.2894 0.0039, -0.0492 0.3937 0.0039, 0.1476 0.3976 0.0787, 0.0492 0.3976 0.0787, 0.1476 0.3937 0.0787, 0.0492 0.3937 0.0787, 0.0492 0.3976 0.0, 0.1476 0.3976 0.0, 0.0492 0.3937 0.0039, 0.0492 0.2894 0.0039, 0.0492 0.2894 0.0, 0.0509 0.2766 0.0, 0.0509 0.2766 0.0039, 0.0558 0.2648 0.0, 0.0558 0.2648 0.0039, 0.0636 0.2546 0.0, 0.0636 0.2546 0.0039, 0.0738 0.2468 0.0, 0.0738 0.2468 0.0039, 0.0857 0.2418 0.0, 0.0857 0.2418 0.0039, 0.0984 0.2402 0.0, 0.0984 0.2402 0.0039, 0.1112 0.2418 0.0, 0.1112 0.2418 0.0039, 0.123 0.2468 0.0, 0.123 0.2468 0.0039, 0.1332 0.2546 0.0, 0.1332 0.2546 0.0039, 0.141 0.2648 0.0, 0.141 0.2648 0.0039, 0.146 0.2766 0.0, 0.146 0.2766 0.0039, 0.1476 0.2894 0.0, 0.1476 0.2894 0.0039, 0.1476 0.3937 0.0039, 0.3445 0.3976 0.0787, 0.2461 0.3976 0.0787, 0.3445 0.3937 0.0787, 0.2461 0.3937 0.0787, 0.2461 0.3976 0.0, 0.3445 0.3976 0.0, 0.2461 0.3937 0.0039, 0.2461 0.2894 0.0039, 0.2461 0.2894 0.0, 0.2477 0.2766 0.0, 0.2477 0.2766 0.0039, 0.2527 0.2648 0.0, 0.2527 0.2648 0.0039, 0.2605 0.2546 0.0, 0.2605 0.2546 0.0039, 0.2707 0.2468 0.0, 0.2707 0.2468 0.0039, 0.2825 0.2418 0.0, 0.2825 0.2418 0.0039, 0.2953 0.2402 0.0, 0.2953 0.2402 0.0039, 0.308 0.2418 0.0, 0.308 0.2418 0.0039, 0.3199 0.2468 0.0, 0.3199 0.2468 0.0039, 0.3301 0.2546 0.0, 0.3301 0.2546 0.0039, 0.3379 0.2648 0.0, 0.3379 0.2648 0.0039, 0.3428 0.2766 0.0, 0.3428 0.2766 0.0039, 0.3445 0.2894 0.0, 0.3445 0.2894 0.0039, 0.3445 0.3937 0.0039
            ]
        }
        coordIndex [
            0,1,2,-1,2,1,3,-1,2,3,4,-1,4,3,5,-1,4,5,6,-1,6,5,7,-1,8,9,10,-1,10,9,11,-1,10,11,12,-1,13,14,10,-1,10,14,15,-1,10,15,16,-1,12,17,10,-1,10,17,18,-1,10,18,19,-1,19,20,10,-1,10,20,21,-1,10,21,13,-1,22,23,15,-1,15,23,24,-1,15,24,16,-1,25,26,27,-1,27,26,28,-1,26,25,29,-1,29,25,30,-1,28,26,31,-1,31,26,29,-1,31,29,32,-1,32,29,33,-1,32,33,34,-1,32,34,35,-1,35,34,36,-1,35,36,37,-1,37,36,38,-1,37,38,39,-1,39,38,40,-1,39,40,41,-1,41,40,42,-1,41,42,43,-1,43,42,44,-1,43,44,45,-1,45,44,46,-1,45,46,47,-1,47,46,48,-1,47,48,49,-1,49,48,50,-1,49,50,51,-1,51,50,52,-1,51,52,53,-1,53,52,54,-1,53,54,55,-1,55,54,56,-1,55,56,57,-1,57,56,58,-1,58,56,30,-1,58,30,27,-1,27,30,25,-1,42,40,56,-1,56,40,38,-1,56,38,36,-1,29,30,33,-1,33,30,56,-1,33,56,34,-1,34,56,36,-1,50,48,52,-1,52,48,46,-1,52,46,54,-1,54,46,56,-1,56,46,44,-1,56,44,42,-1,59,60,61,-1,61,60,62,-1,60,59,63,-1,63,59,64,-1,62,60,65,-1,65,60,63,-1,65,63,66,-1,66,63,67,-1,66,67,68,-1,66,68,69,-1,69,68,70,-1,69,70,71,-1,71,70,72,-1,71,72,73,-1,73,72,74,-1,73,74,75,-1,75,74,76,-1,75,76,77,-1,77,76,78,-1,77,78,79,-1,79,78,80,-1,79,80,81,-1,81,80,82,-1,81,82,83,-1,83,82,84,-1,83,84,85,-1,85,84,86,-1,85,86,87,-1,87,86,88,-1,87,88,89,-1,89,88,90,-1,89,90,91,-1,91,90,92,-1,92,90,64,-1,92,64,61,-1,61,64,59,-1,67,63,64,-1,64,90,67,-1,67,90,88,-1,67,88,86,-1,67,80,78,-1,74,72,70,-1,86,84,67,-1,67,84,82,-1,67,82,80,-1,78,76,67,-1,67,76,74,-1,67,74,68,-1,68,74,70,-1,93,94,95,-1,95,94,96,-1,94,93,97,-1,97,93,98,-1,96,94,99,-1,99,94,97,-1,99,97,100,-1,100,97,101,-1,100,101,102,-1,100,102,103,-1,103,102,104,-1,103,104,105,-1,105,104,106,-1,105,106,107,-1,107,106,108,-1,107,108,109,-1,109,108,110,-1,109,110,111,-1,111,110,112,-1,111,112,113,-1,113,112,114,-1,113,114,115,-1,115,114,116,-1,115,116,117,-1,117,116,118,-1,117,118,119,-1,119,118,120,-1,119,120,121,-1,121,120,122,-1,121,122,123,-1,123,122,124,-1,123,124,125,-1,125,124,126,-1,126,124,98,-1,126,98,95,-1,95,98,93,-1,101,97,98,-1,98,124,101,-1,101,124,122,-1,101,122,120,-1,120,118,101,-1,101,118,116,-1,101,116,114,-1,114,112,101,-1,101,112,110,-1,101,110,108,-1,108,106,101,-1,101,106,104,-1,101,104,102,-1,127,128,129,-1,129,128,130,-1,128,127,131,-1,131,127,132,-1,130,128,133,-1,133,128,131,-1,133,131,134,-1,134,131,135,-1,134,135,136,-1,134,136,137,-1,137,136,138,-1,137,138,139,-1,139,138,140,-1,139,140,141,-1,141,140,142,-1,141,142,143,-1,143,142,144,-1,143,144,145,-1,145,144,146,-1,145,146,147,-1,147,146,148,-1,147,148,149,-1,149,148,150,-1,149,150,151,-1,151,150,152,-1,151,152,153,-1,153,152,154,-1,153,154,155,-1,155,154,156,-1,155,156,157,-1,157,156,158,-1,157,158,159,-1,159,158,160,-1,160,158,132,-1,160,132,129,-1,129,132,127,-1,156,142,158,-1,158,142,140,-1,158,140,138,-1,131,132,135,-1,135,132,158,-1,135,158,136,-1,136,158,138,-1,156,154,142,-1,142,154,152,-1,142,152,150,-1,150,148,142,-1,142,148,146,-1,142,146,144,-1,161,162,163,-1,163,162,164,-1,162,161,165,-1,165,161,166,-1,164,162,167,-1,167,162,165,-1,167,165,168,-1,168,165,169,-1,168,169,170,-1,168,170,171,-1,171,170,172,-1,171,172,173,-1,173,172,174,-1,173,174,175,-1,175,174,176,-1,175,176,177,-1,177,176,178,-1,177,178,179,-1,179,178,180,-1,179,180,181,-1,181,180,182,-1,181,182,183,-1,183,182,184,-1,183,184,185,-1,185,184,186,-1,185,186,187,-1,187,186,188,-1,187,188,189,-1,189,188,190,-1,189,190,191,-1,191,190,192,-1,191,192,193,-1,193,192,194,-1,194,192,166,-1,194,166,163,-1,163,166,161,-1,174,172,192,-1,192,182,180,-1,165,166,169,-1,169,166,192,-1,169,192,170,-1,170,192,172,-1,180,178,192,-1,192,178,176,-1,192,176,174,-1,192,190,182,-1,182,190,188,-1,182,188,184,-1,184,188,186,-1,195,196,197,-1,197,196,198,-1,196,195,199,-1,199,195,200,-1,198,196,201,-1,201,196,199,-1,201,199,202,-1,202,199,203,-1,202,203,204,-1,202,204,205,-1,205,204,206,-1,205,206,207,-1,207,206,208,-1,207,208,209,-1,209,208,210,-1,209,210,211,-1,211,210,212,-1,211,212,213,-1,213,212,214,-1,213,214,215,-1,215,214,216,-1,215,216,217,-1,217,216,218,-1,217,218,219,-1,219,218,220,-1,219,220,221,-1,221,220,222,-1,221,222,223,-1,223,222,224,-1,223,224,225,-1,225,224,226,-1,225,226,227,-1,227,226,228,-1,228,226,200,-1,228,200,197,-1,197,200,195,-1,206,226,208,-1,208,226,210,-1,199,200,203,-1,203,200,226,-1,203,226,204,-1,204,226,206,-1,220,218,222,-1,222,218,216,-1,222,216,214,-1,226,224,210,-1,210,224,222,-1,210,222,212,-1,212,222,214,-1,229,230,231,-1,231,230,232,-1,230,229,233,-1,233,229,234,-1,232,230,235,-1,235,230,233,-1,235,233,236,-1,236,233,237,-1,236,237,238,-1,236,238,239,-1,239,238,240,-1,239,240,241,-1,241,240,242,-1,241,242,243,-1,243,242,244,-1,243,244,245,-1,245,244,246,-1,245,246,247,-1,247,246,248,-1,247,248,249,-1,249,248,250,-1,249,250,251,-1,251,250,252,-1,251,252,253,-1,253,252,254,-1,253,254,255,-1,255,254,256,-1,255,256,257,-1,257,256,258,-1,257,258,259,-1,259,258,260,-1,259,260,261,-1,261,260,262,-1,262,260,234,-1,262,234,231,-1,231,234,229,-1,258,244,260,-1,260,244,242,-1,260,242,240,-1,233,234,237,-1,237,234,260,-1,237,260,238,-1,238,260,240,-1,258,256,244,-1,244,256,254,-1,244,254,252,-1,252,250,244,-1,244,250,248,-1,244,248,246,-1,
        ]
    }
}