#VRML V2.0 utf8
# 3D model generated by easyeda2kicad.py (https://github.com/uPesy/easyeda2kicad.py)

Shape{
    appearance Appearance {
        material  Material 	{
            diffuseColor 0.30980392156862746 0.8745098039215686 0.0
            specularColor 0.1568627450980392 0.4392156862745098 0.0
            ambientIntensity 0.606
            transparency 0.0
            shininess 0.5
        }
    }
    geometry IndexedFaceSet {
        ccw TRUE
        solid FALSE
        coord DEF co Coordinate {
            point [
                0.1454 -0.0023 0.0039, 0.1452 -0.0045 0.0039, 0.0619 -0.0045 0.0039, 0.216 0.058 0.0039, 0.216 -0.0045 0.0039, 0.1742 -0.0045 0.0039, 0.216 -0.0472 0.0039, 0.1742 -0.0472 0.0039, 0.1663 -0.0045 0.0039, 0.1714 -0.0472 0.0039, 0.1714 -0.0601 0.0039, 0.2439 0.0587 0.0039, 0.2439 -0.0045 0.0039, 0.2318 -0.0045 0.0039, 0.2318 -0.0601 0.0039, 0.2439 -0.1942 0.0039, 0.1742 -0.0601 0.0039, 0.1742 -0.1942 0.0039, 0.1663 -0.1942 0.0039, -0.0245 -0.0045 0.0039, -0.0073 -0.0045 0.0039, -0.0073 -0.0068 0.0039, 0.0345 -0.0068 0.0039, 0.0345 -0.0472 0.0039, -0.013 -0.0472 0.0039, -0.013 -0.0601 0.0039, -0.0245 -0.1942 0.0039, 0.0619 -0.1942 0.0039, 0.0504 -0.0601 0.0039, 0.0504 -0.0045 0.0039, 0.0619 0.0587 0.0039, 0.0345 0.045 0.0039, 0.0345 0.0061 0.0039, -0.0101 0.045 0.0039, -0.0073 0.0061 0.0039, 0.0504 0.058 0.0039, -0.0101 0.058 0.0039, -0.0245 0.0587 0.0039, -0.2246 -0.0045 0.0039, -0.2464 -0.0601 0.0039, -0.3693 -0.1942 0.0039, -0.2291 -0.0601 0.0039, -0.1585 -0.1942 0.0039, -0.2171 -0.027 0.0039, -0.1683 -0.027 0.0039, -0.1585 -0.0559 0.0039, -0.1398 -0.0601 0.0039, -0.1354 -0.1942 0.0039, -0.1571 -0.0601 0.0039, -0.1585 -0.0106 0.0039, -0.1585 -0.0045 0.0039, -0.1354 -0.0045 0.0039, -0.1295 -0.0154 0.0039, -0.1252 -0.0278 0.0039, -0.1185 -0.0383 0.0039, -0.1087 -0.0476 0.0039, -0.0964 -0.0548 0.0039, -0.0828 -0.0589 0.0039, -0.0694 0.058 0.0039, -0.1354 0.0587 0.0039, -0.0865 0.0561 0.0039, -0.1003 0.0513 0.0039, -0.1131 0.0427 0.0039, -0.0682 -0.0601 0.0039, -0.0361 -0.0601 0.0039, -0.0361 -0.0045 0.0039, -0.0361 0.058 0.0039, -0.1133 0.0426 0.0039, -0.1216 0.0333 0.0039, -0.1271 0.0231 0.0039, -0.1303 0.0115 0.0039, -0.1311 0.0004 0.0039, -0.1306 -0.0045 0.0039, 0.0755 -0.0422 0.0039, 0.0734 -0.0411 0.0039, 0.0734 -0.054 0.0039, 0.086 -0.0592 0.0039, 0.1414 -0.0501 0.0039, 0.1503 -0.0407 0.0039, 0.1319 -0.0561 0.0039, 0.1442 -0.0151 0.0039, 0.141 -0.0253 0.0039, 0.1147 -0.0474 0.0039, 0.1037 -0.0486 0.0039, 0.1233 -0.0442 0.0039, 0.1306 -0.0393 0.0039, 0.1361 -0.0335 0.0039, 0.088 -0.0469 0.0039, 0.1027 -0.0615 0.0039, 0.1059 -0.0616 0.0039, 0.1205 -0.0601 0.0039, 0.0908 0.0587 0.0039, 0.0871 0.0584 0.0039, 0.1011 0.0464 0.0039, 0.1127 0.0451 0.0039, 0.0734 0.0547 0.0039, 0.0734 0.0389 0.0039, 0.0867 0.0446 0.0039, 0.1215 0.0419 0.0039, 0.1297 0.0365 0.0039, 0.1368 0.0286 0.0039, 0.1417 0.0195 0.0039, 0.1449 0.0068 0.0039, 0.1012 0.0594 0.0039, 0.0619 0.2678 0.0039, 0.11 0.0587 0.0039, 0.1663 0.2678 0.0039, 0.155 0.0269 0.0039, 0.1481 0.0379 0.0039, 0.1663 0.0587 0.0039, 0.1596 0.0135 0.0039, 0.1566 -0.0295 0.0039, 0.1601 -0.017 0.0039, 0.1612 -0.0045 0.0039, 0.1613 -0.0033 0.0039, 0.1375 0.0482 0.0039, 0.1262 0.0546 0.0039, 0.1131 0.0584 0.0039, 0.5807 0.7402 0.0039, 0.5807 0.2678 0.0039, 0.4921 0.4843 0.0039, 0.4875 0.522 0.0039, 0.474 0.5575 0.0039, 0.4525 0.5887 0.0039, 0.4241 0.3547 0.0039, 0.4525 0.3799 0.0039, 0.4241 0.6139 0.0039, 0.3904 0.6315 0.0039, 0.2439 0.7402 0.0039, 0.3536 0.6406 0.0039, 0.3156 0.6406 0.0039, 0.2788 0.6315 0.0039, 0.2439 0.2678 0.0039, 0.2451 0.3547 0.0039, 0.2788 0.3371 0.0039, 0.3156 0.328 0.0039, 0.3536 0.328 0.0039, 0.3904 0.3371 0.0039, 0.474 0.4111 0.0039, 0.4875 0.4466 0.0039, 0.1952 0.5575 0.0039, 0.1817 0.522 0.0039, 0.1742 0.7402 0.0039, 0.2451 0.6139 0.0039, 0.2439 0.6128 0.0039, 0.2167 0.5887 0.0039, 0.1771 0.4843 0.0039, 0.1817 0.4466 0.0039, 0.1742 0.2678 0.0039, 0.1952 0.4111 0.0039, 0.2167 0.3799 0.0039, 0.2439 0.3558 0.0039, -0.1585 0.7402 0.0039, -0.2789 0.6315 0.0039, -0.3693 0.7402 0.0039, -0.3157 0.6406 0.0039, -0.3537 0.6406 0.0039, -0.1772 0.4843 0.0039, -0.1818 0.522 0.0039, -0.1953 0.5575 0.0039, -0.3693 0.3318 0.0039, -0.3537 0.328 0.0039, -0.3693 0.2678 0.0039, -0.3157 0.328 0.0039, -0.1585 0.2678 0.0039, -0.2789 0.3371 0.0039, -0.2452 0.3547 0.0039, -0.2168 0.3799 0.0039, -0.1953 0.4111 0.0039, -0.1818 0.4466 0.0039, -0.2168 0.5887 0.0039, -0.2452 0.6139 0.0039, -0.3693 0.6368 0.0039, -0.3905 0.6315 0.0039, -0.5808 0.7402 0.0039, -0.4741 0.4111 0.0039, -0.4526 0.3799 0.0039, -0.5808 0.2678 0.0039, -0.4242 0.3547 0.0039, -0.3905 0.3371 0.0039, -0.4242 0.6139 0.0039, -0.4526 0.5887 0.0039, -0.4741 0.5575 0.0039, -0.4876 0.522 0.0039, -0.4922 0.4843 0.0039, -0.4876 0.4466 0.0039, 0.2439 -0.6909 0.0039, 0.2451 -0.6138 0.0039, 0.2788 -0.6314 0.0039, 0.3156 -0.6405 0.0039, 0.3536 -0.6405 0.0039, 0.5807 -0.6909 0.0039, 0.4921 -0.4842 0.0039, 0.5807 -0.1942 0.0039, 0.4875 -0.4465 0.0039, 0.474 -0.411 0.0039, 0.4525 -0.3798 0.0039, 0.4241 -0.3546 0.0039, 0.3904 -0.337 0.0039, 0.2788 -0.337 0.0039, 0.3156 -0.3279 0.0039, 0.3536 -0.3279 0.0039, 0.3904 -0.6314 0.0039, 0.4241 -0.6138 0.0039, 0.4525 -0.5886 0.0039, 0.474 -0.5574 0.0039, 0.4875 -0.5219 0.0039, 0.1952 -0.411 0.0039, 0.1817 -0.4465 0.0039, 0.2451 -0.3546 0.0039, 0.2439 -0.3557 0.0039, 0.2167 -0.3798 0.0039, 0.1771 -0.4842 0.0039, 0.1817 -0.5219 0.0039, 0.1742 -0.6909 0.0039, 0.1952 -0.5574 0.0039, 0.2167 -0.5886 0.0039, 0.2439 -0.6127 0.0039, -0.3157 -0.3279 0.0039, -0.3537 -0.3279 0.0039, -0.2452 -0.6138 0.0039, -0.2168 -0.5886 0.0039, -0.1585 -0.6909 0.0039, -0.1953 -0.5574 0.0039, -0.1818 -0.5219 0.0039, -0.1772 -0.4842 0.0039, -0.1818 -0.4465 0.0039, -0.1953 -0.411 0.0039, -0.2789 -0.337 0.0039, -0.3693 -0.6367 0.0039, -0.3537 -0.6405 0.0039, -0.3693 -0.6909 0.0039, -0.3157 -0.6405 0.0039, -0.2789 -0.6314 0.0039, -0.2168 -0.3798 0.0039, -0.2452 -0.3546 0.0039, -0.3693 -0.3317 0.0039, -0.3905 -0.337 0.0039, -0.5808 -0.1942 0.0039, -0.4741 -0.5574 0.0039, -0.4526 -0.5886 0.0039, -0.5808 -0.6909 0.0039, -0.4242 -0.6138 0.0039, -0.3905 -0.6314 0.0039, -0.4242 -0.3546 0.0039, -0.4526 -0.3798 0.0039, -0.4741 -0.411 0.0039, -0.4876 -0.4465 0.0039, -0.4922 -0.4842 0.0039, -0.4876 -0.5219 0.0039, 0.3665 0.0587 0.0039, 0.374 0.0618 0.0039, 0.5807 0.0587 0.0039, 0.3903 0.0743 0.0039, 0.4028 0.0906 0.0039, 0.3142 0.206 0.0039, 0.2952 0.1982 0.0039, 0.4107 0.1096 0.0039, 0.4133 0.13 0.0039, 0.2789 0.1856 0.0039, 0.2664 0.1693 0.0039, 0.2585 0.1504 0.0039, 0.2559 0.13 0.0039, 0.2585 0.1096 0.0039, 0.2664 0.0906 0.0039, 0.2789 0.0743 0.0039, 0.4107 0.1504 0.0039, 0.4028 0.1693 0.0039, 0.3903 0.1856 0.0039, 0.374 0.1982 0.0039, 0.355 0.206 0.0039, 0.3346 0.2087 0.0039, 0.2952 0.0618 0.0039, 0.3027 0.0587 0.0039, 0.3142 0.0539 0.0039, 0.3346 0.0512 0.0039, 0.355 0.0539 0.0039, 0.5807 -0.0045 0.0039, -0.5808 -0.7401 0.0039, -0.3693 -0.7401 0.0039, -0.1585 -0.7401 0.0039, -0.1354 -0.7401 0.0039, -0.1354 -0.6909 0.0039, -0.0245 -0.7401 0.0039, -0.0245 -0.6909 0.0039, 0.0619 -0.7401 0.0039, 0.0619 -0.6909 0.0039, 0.1663 -0.7401 0.0039, 0.1663 -0.6909 0.0039, 0.1742 -0.7401 0.0039, 0.2439 -0.7401 0.0039, 0.5807 -0.7401 0.0039, -0.5808 -0.0045 0.0039, -0.3693 -0.0045 0.0039, -0.2003 0.058 0.0039, 0.1742 0.0587 0.0039, 0.2318 0.058 0.0039, -0.1608 -0.0045 0.0039, -0.1585 0.0587 0.0039, -0.5808 0.0587 0.0039, -0.3693 0.0587 0.0039, -0.1844 0.058 0.0039, -0.1354 0.2678 0.0039, -0.0245 0.2678 0.0039, -0.1354 0.7402 0.0039, -0.0245 0.7402 0.0039, 0.0619 0.7402 0.0039, 0.1663 0.7402 0.0039
            ]
        }
        coordIndex [
            0,1,2,-1,3,4,5,-1,4,6,5,-1,5,6,7,-1,5,7,8,-1,8,7,9,-1,8,9,10,-1,11,12,13,-1,13,12,14,-1,14,12,15,-1,14,15,16,-1,16,15,17,-1,16,17,10,-1,10,17,18,-1,10,18,8,-1,19,20,21,-1,22,23,21,-1,21,23,24,-1,21,24,19,-1,19,24,25,-1,19,25,26,-1,26,25,27,-1,27,25,28,-1,27,28,2,-1,2,28,29,-1,2,29,30,-1,31,32,33,-1,33,32,34,-1,29,35,30,-1,30,35,36,-1,30,36,37,-1,37,36,33,-1,37,33,19,-1,19,33,34,-1,19,34,20,-1,38,39,40,-1,39,41,42,-1,43,44,45,-1,46,47,48,-1,48,47,42,-1,48,42,45,-1,45,42,41,-1,45,41,43,-1,49,50,46,-1,46,50,51,-1,46,51,47,-1,47,51,52,-1,52,53,47,-1,47,53,54,-1,47,54,55,-1,55,56,47,-1,47,56,57,-1,47,57,26,-1,58,59,37,-1,58,60,59,-1,59,60,61,-1,59,61,62,-1,57,63,26,-1,26,63,64,-1,26,64,19,-1,19,64,65,-1,19,65,37,-1,37,65,66,-1,37,66,58,-1,62,67,59,-1,59,67,68,-1,59,68,69,-1,70,71,51,-1,51,71,72,-1,51,72,52,-1,73,74,2,-1,2,74,75,-1,2,75,27,-1,27,75,76,-1,77,78,18,-1,77,18,79,-1,2,1,73,-1,73,1,80,-1,73,80,81,-1,82,83,84,-1,84,83,85,-1,81,86,73,-1,73,86,85,-1,73,85,87,-1,87,85,83,-1,76,88,27,-1,27,88,89,-1,27,89,18,-1,18,89,90,-1,18,90,79,-1,30,91,92,-1,93,94,2,-1,92,95,30,-1,30,95,96,-1,30,96,2,-1,2,96,97,-1,2,97,93,-1,94,98,2,-1,2,98,99,-1,2,99,100,-1,100,101,2,-1,2,101,102,-1,2,102,0,-1,103,104,105,-1,105,104,106,-1,107,108,109,-1,107,109,110,-1,78,111,18,-1,18,111,112,-1,18,112,8,-1,8,112,113,-1,8,113,114,-1,108,115,109,-1,109,115,116,-1,109,116,117,-1,118,119,120,-1,120,121,118,-1,118,121,122,-1,118,122,123,-1,119,124,125,-1,123,126,118,-1,118,126,127,-1,118,127,128,-1,127,129,128,-1,128,129,130,-1,128,130,131,-1,132,133,134,-1,134,135,132,-1,132,135,136,-1,132,136,119,-1,119,136,137,-1,119,137,124,-1,125,138,119,-1,119,138,139,-1,119,139,120,-1,140,141,142,-1,131,143,128,-1,128,143,144,-1,128,144,142,-1,142,144,145,-1,142,145,140,-1,146,147,148,-1,147,149,148,-1,148,149,150,-1,148,150,132,-1,132,150,151,-1,132,151,133,-1,152,153,154,-1,154,153,155,-1,154,155,156,-1,157,158,152,-1,152,158,159,-1,160,161,162,-1,162,161,163,-1,162,163,164,-1,164,163,165,-1,164,165,166,-1,166,167,164,-1,164,167,168,-1,164,168,169,-1,159,170,152,-1,152,170,171,-1,152,171,153,-1,156,172,154,-1,154,172,173,-1,154,173,174,-1,175,176,177,-1,177,176,178,-1,177,178,162,-1,162,178,179,-1,162,179,160,-1,173,180,174,-1,174,180,181,-1,174,181,182,-1,182,183,174,-1,174,183,184,-1,174,184,177,-1,177,184,185,-1,177,185,175,-1,186,187,188,-1,188,189,186,-1,186,189,190,-1,186,190,191,-1,191,192,193,-1,193,192,194,-1,193,194,195,-1,195,196,193,-1,193,196,197,-1,193,197,198,-1,199,15,200,-1,200,15,201,-1,190,202,191,-1,191,202,203,-1,191,203,204,-1,204,205,191,-1,191,205,206,-1,191,206,192,-1,207,208,17,-1,199,209,15,-1,15,209,210,-1,15,210,17,-1,17,210,211,-1,17,211,207,-1,212,213,214,-1,213,215,214,-1,214,215,216,-1,214,216,186,-1,186,216,217,-1,186,217,187,-1,218,219,40,-1,220,221,222,-1,222,221,223,-1,222,223,224,-1,225,226,42,-1,42,226,227,-1,39,42,40,-1,40,42,228,-1,40,228,218,-1,229,230,231,-1,231,230,232,-1,231,232,222,-1,222,232,233,-1,222,233,220,-1,227,234,42,-1,42,234,235,-1,42,235,228,-1,219,236,40,-1,40,236,237,-1,40,237,238,-1,239,240,241,-1,241,240,242,-1,241,242,231,-1,231,242,243,-1,231,243,229,-1,237,244,238,-1,238,244,245,-1,238,245,246,-1,246,247,238,-1,238,247,248,-1,238,248,241,-1,241,248,249,-1,241,249,239,-1,250,251,252,-1,252,251,253,-1,252,253,254,-1,255,256,132,-1,254,257,252,-1,252,257,258,-1,252,258,119,-1,256,259,132,-1,132,259,260,-1,132,260,261,-1,262,263,11,-1,11,263,264,-1,11,264,265,-1,258,266,119,-1,119,266,267,-1,119,267,268,-1,268,269,119,-1,119,269,270,-1,119,270,132,-1,132,270,271,-1,132,271,255,-1,265,272,11,-1,11,272,273,-1,11,273,12,-1,12,273,274,-1,12,274,275,-1,250,252,276,-1,276,252,277,-1,276,277,275,-1,278,241,279,-1,279,241,231,-1,279,231,280,-1,280,231,222,-1,280,222,281,-1,281,222,282,-1,281,282,283,-1,283,282,284,-1,283,284,285,-1,285,284,286,-1,285,286,287,-1,287,286,288,-1,287,288,289,-1,289,288,214,-1,289,214,290,-1,290,214,186,-1,290,186,291,-1,291,186,191,-1,224,225,222,-1,222,225,42,-1,222,42,282,-1,282,42,47,-1,282,47,284,-1,284,47,26,-1,284,26,286,-1,286,26,27,-1,286,27,288,-1,288,27,18,-1,288,18,214,-1,214,18,17,-1,214,17,212,-1,212,17,208,-1,275,277,12,-1,12,277,193,-1,12,193,15,-1,15,193,198,-1,15,198,201,-1,238,292,40,-1,40,292,293,-1,40,293,38,-1,38,293,294,-1,114,110,8,-1,8,110,109,-1,8,109,5,-1,5,109,295,-1,5,295,3,-1,3,295,11,-1,3,11,296,-1,296,11,13,-1,49,297,50,-1,50,297,298,-1,50,298,51,-1,51,298,59,-1,51,59,70,-1,70,59,69,-1,292,299,293,-1,293,299,300,-1,293,300,294,-1,294,300,298,-1,294,298,301,-1,301,298,297,-1,117,105,109,-1,109,105,106,-1,109,106,295,-1,295,106,148,-1,295,148,11,-1,11,148,132,-1,11,132,262,-1,262,132,261,-1,299,177,300,-1,300,177,162,-1,300,162,298,-1,298,162,164,-1,298,164,59,-1,59,164,302,-1,59,302,37,-1,37,302,303,-1,37,303,30,-1,30,303,104,-1,30,104,91,-1,91,104,103,-1,169,157,164,-1,164,157,152,-1,164,152,302,-1,302,152,304,-1,302,304,303,-1,303,304,305,-1,303,305,104,-1,104,305,306,-1,104,306,106,-1,106,306,307,-1,106,307,148,-1,148,307,142,-1,148,142,146,-1,146,142,141,-1,
        ]
    }
}
Shape{
    appearance Appearance {
        material  Material 	{
            diffuseColor 0.8509803921568627 0.8509803921568627 0.8509803921568627
            specularColor 0.4235294117647059 0.4235294117647059 0.4235294117647059
            ambientIntensity 0.851
            transparency 0.0
            shininess 0.5
        }
    }
    geometry IndexedFaceSet {
        ccw TRUE
        solid FALSE
        coord DEF co Coordinate {
            point [
                0.433 -0.0361 0.437, 0.433 0.0709 0.437, 0.1389 0.0709 0.437, -0.0255 0.1806 0.437, -0.0353 0.1846 0.437, -0.0353 0.0709 0.437, 0.0254 0.3707 0.437, 0.0396 0.3649 0.437, 0.0396 0.5906 0.437, 0.1389 0.5906 0.437, 0.0492 0.3609 0.437, 0.0695 0.3452 0.437, 0.0984 0.2756 0.437, 0.095 0.2502 0.437, 0.0852 0.2264 0.437, 0.0695 0.206 0.437, 0.0492 0.1904 0.437, 0.0396 0.0709 0.437, 0.0852 0.3249 0.437, 0.095 0.3011 0.437, -0.0001 0.3741 0.437, -0.0353 0.5906 0.437, -0.0255 0.3707 0.437, -0.1398 0.0709 0.437, -0.0493 0.1904 0.437, -0.0696 0.206 0.437, -0.0985 0.2756 0.437, -0.0951 0.3011 0.437, -0.1398 0.5906 0.437, -0.0493 0.3609 0.437, -0.0353 0.3666 0.437, -0.0853 0.3249 0.437, -0.0696 0.3452 0.437, -0.0853 0.2264 0.437, -0.0951 0.2502 0.437, 0.0396 0.1864 0.437, 0.0254 0.1806 0.437, -0.0001 0.1772 0.437, 0.1133 -0.0388 0.437, 0.1389 -0.0361 0.437, 0.1054 -0.0363 0.437, 0.103 -0.0361 0.437, 0.1389 -0.1556 0.437, 0.1339 -0.1419 0.437, 0.1205 -0.0433 0.437, 0.1252 -0.0482 0.437, 0.1284 -0.0537 0.437, 0.1266 -0.0869 0.437, 0.1218 -0.094 0.437, 0.1105 -0.1047 0.437, 0.1339 -0.1549 0.437, 0.0604 -0.1549 0.437, 0.0396 -0.1556 0.437, 0.0604 -0.149 0.437, 0.0615 -0.1379 0.437, 0.0648 -0.0627 0.437, 0.0396 -0.0361 0.437, 0.0648 -0.0482 0.437, 0.0728 -0.0415 0.437, 0.0644 -0.1292 0.437, 0.0692 -0.1217 0.437, 0.0789 -0.1121 0.437, 0.0912 -0.1027 0.437, 0.0925 -0.1018 0.437, 0.0688 -0.0588 0.437, 0.1304 -0.0599 0.437, 0.131 -0.067 0.437, 0.1299 -0.0778 0.437, 0.1046 -0.109 0.437, 0.0862 -0.1225 0.437, 0.0805 -0.1281 0.437, 0.0779 -0.1322 0.437, 0.0765 -0.1364 0.437, 0.0759 -0.1419 0.437, 0.1136 -0.0814 0.437, 0.1159 -0.075 0.437, 0.0769 -0.0531 0.437, 0.1091 -0.0879 0.437, 0.1166 -0.0681 0.437, 0.1161 -0.063 0.437, 0.1147 -0.0591 0.437, 0.1063 -0.0508 0.437, 0.1007 -0.049 0.437, 0.0939 -0.0483 0.437, 0.085 -0.0496 0.437, 0.1127 -0.0558 0.437, 0.1099 -0.0531 0.437, 0.0808 -0.0376 0.437, 0.0878 -0.0361 0.437, 0.0901 -0.0356 0.437, 0.0953 -0.0354 0.437, 0.012 -0.0361 0.437, 0.0131 -0.0354 0.437, 0.0187 -0.0354 0.437, 0.0187 -0.0361 0.437, -0.0353 -0.0361 0.437, -0.0231 -0.0541 0.437, -0.0041 -0.0464 0.437, 0.0043 -0.0546 0.437, -0.0066 -0.0619 0.437, 0.0043 -0.1549 0.437, -0.0209 -0.0679 0.437, 0.0187 -0.1549 0.437, -0.0353 -0.1556 0.437, -0.0231 -0.0685 0.437, -0.0476 -0.1358 0.437, -0.0476 -0.1488 0.437, -0.0602 -0.1539 0.437, -0.0721 -0.1556 0.437, -0.0649 -0.0361 0.437, -0.0612 -0.0363 0.437, -0.0476 -0.04 0.437, -0.0476 -0.0559 0.437, -0.0609 -0.0502 0.437, -0.0497 -0.137 0.437, -0.0752 -0.0483 0.437, -0.0869 -0.0496 0.437, -0.0957 -0.0528 0.437, -0.1039 -0.0583 0.437, -0.111 -0.0662 0.437, -0.1196 -0.0971 0.437, -0.1184 -0.1099 0.437, -0.1152 -0.1201 0.437, -0.0889 -0.1421 0.437, -0.0779 -0.1434 0.437, -0.0975 -0.139 0.437, -0.1048 -0.1341 0.437, -0.1103 -0.1282 0.437, -0.0622 -0.1416 0.437, -0.1159 -0.0753 0.437, -0.119 -0.0879 0.437, -0.0754 -0.0354 0.437, -0.1061 -0.1509 0.437, -0.1156 -0.1448 0.437, -0.1398 -0.1556 0.437, -0.1245 -0.1355 0.437, -0.1307 -0.1243 0.437, -0.1292 -0.0679 0.437, -0.1223 -0.0569 0.437, -0.1398 -0.0361 0.437, -0.1116 -0.0466 0.437, -0.1004 -0.0401 0.437, -0.0872 -0.0363 0.437, -0.0842 -0.0361 0.437, -0.1343 -0.1118 0.437, -0.1354 -0.0981 0.437, -0.1337 -0.0813 0.437, -0.0769 -0.1563 0.437, -0.0353 -0.5905 0.437, -0.1398 -0.5905 0.437, -0.0801 -0.1563 0.437, -0.087 -0.1556 0.437, -0.0946 -0.1548 0.437, 0.433 0.5906 0.437, -0.3419 0.5906 0.437, -0.3419 0.0709 0.437, -0.3419 -0.0361 0.437, 0.2333 -0.1549 0.437, 0.2506 -0.1549 0.437, 0.433 -0.1556 0.437, 0.2045 -0.0368 0.437, 0.2213 -0.1218 0.437, 0.1725 -0.1218 0.437, 0.1613 -0.1549 0.437, 0.144 -0.1549 0.437, 0.1886 -0.0368 0.437, -0.1441 -0.1549 0.437, -0.1614 -0.1549 0.437, -0.1902 -0.0368 0.437, -0.206 -0.0368 0.437, -0.2507 -0.1549 0.437, -0.3419 -0.1556 0.437, -0.2334 -0.1549 0.437, 0.0396 -0.5905 0.437, 0.1389 -0.5905 0.437, 0.433 -0.5905 0.437, -0.1733 -0.1218 0.437, -0.2221 -0.1218 0.437, -0.3419 -0.5905 0.437, -0.4331 0.5906 0.437, -0.4331 0.0709 0.437, -0.4331 -0.0361 0.437, -0.4331 -0.1556 0.437, -0.4331 -0.5905 0.437
            ]
        }
        coordIndex [
            0,1,2,-1,3,4,5,-1,6,7,8,-1,8,7,9,-1,9,7,10,-1,9,10,11,-1,12,13,2,-1,2,13,14,-1,14,15,2,-1,2,15,16,-1,2,16,17,-1,11,18,9,-1,9,18,19,-1,9,19,12,-1,6,8,20,-1,20,8,21,-1,20,21,22,-1,5,4,23,-1,23,4,24,-1,23,24,25,-1,26,27,28,-1,28,29,21,-1,21,29,30,-1,21,30,22,-1,27,31,28,-1,28,31,32,-1,28,32,29,-1,25,33,23,-1,23,33,34,-1,23,34,26,-1,16,35,17,-1,17,35,36,-1,17,36,5,-1,5,36,37,-1,5,37,3,-1,38,39,40,-1,40,39,41,-1,42,39,43,-1,38,44,39,-1,39,44,45,-1,39,45,46,-1,47,48,43,-1,43,48,49,-1,43,50,42,-1,42,50,51,-1,42,51,52,-1,52,51,53,-1,53,54,52,-1,52,54,55,-1,52,55,56,-1,56,55,57,-1,56,57,58,-1,54,59,55,-1,55,59,60,-1,55,60,61,-1,61,62,55,-1,55,62,63,-1,55,63,64,-1,46,65,39,-1,39,65,66,-1,39,66,43,-1,43,66,67,-1,43,67,47,-1,49,68,43,-1,43,68,69,-1,43,69,70,-1,70,71,43,-1,43,71,72,-1,43,72,73,-1,74,75,76,-1,64,63,76,-1,76,63,77,-1,76,77,74,-1,75,78,76,-1,76,78,79,-1,76,79,80,-1,81,82,76,-1,76,82,83,-1,76,83,84,-1,80,85,76,-1,76,85,86,-1,76,86,81,-1,58,87,56,-1,56,87,88,-1,56,88,17,-1,17,88,89,-1,17,89,2,-1,2,89,90,-1,91,92,5,-1,5,92,17,-1,17,92,93,-1,17,93,56,-1,56,93,94,-1,56,94,52,-1,95,96,97,-1,98,99,100,-1,100,99,101,-1,94,102,52,-1,52,102,100,-1,52,100,103,-1,103,100,101,-1,103,101,104,-1,105,103,95,-1,95,103,104,-1,95,104,96,-1,105,106,103,-1,103,106,107,-1,103,107,108,-1,95,109,110,-1,110,111,95,-1,95,111,112,-1,95,112,105,-1,105,112,113,-1,105,113,114,-1,114,113,115,-1,114,115,116,-1,116,117,114,-1,114,117,118,-1,114,118,119,-1,120,121,114,-1,114,121,122,-1,123,124,125,-1,125,124,126,-1,122,127,114,-1,114,127,126,-1,114,126,128,-1,128,126,124,-1,119,129,114,-1,114,129,130,-1,114,130,120,-1,97,91,95,-1,95,91,5,-1,95,5,109,-1,109,5,131,-1,132,133,134,-1,134,133,135,-1,134,135,136,-1,137,138,139,-1,139,138,140,-1,140,141,139,-1,139,141,142,-1,139,142,143,-1,136,144,134,-1,134,144,145,-1,134,145,139,-1,139,145,146,-1,139,146,137,-1,108,147,148,-1,148,147,149,-1,147,150,149,-1,149,150,151,-1,149,151,134,-1,134,151,152,-1,134,152,132,-1,12,2,9,-1,9,2,1,-1,9,1,153,-1,26,28,23,-1,23,28,154,-1,23,154,155,-1,131,5,143,-1,143,5,23,-1,143,23,139,-1,139,23,155,-1,139,155,156,-1,157,42,158,-1,158,42,159,-1,158,159,160,-1,160,159,0,-1,160,0,39,-1,39,0,2,-1,39,2,41,-1,41,2,90,-1,161,162,157,-1,157,162,163,-1,157,163,42,-1,42,163,164,-1,42,164,39,-1,39,164,165,-1,39,165,160,-1,134,166,167,-1,166,134,168,-1,168,134,139,-1,168,139,169,-1,169,139,156,-1,169,156,170,-1,170,156,171,-1,170,171,172,-1,108,148,103,-1,103,148,173,-1,103,173,52,-1,52,173,174,-1,52,174,42,-1,42,174,175,-1,42,175,159,-1,176,177,167,-1,167,177,172,-1,167,172,134,-1,134,172,171,-1,134,171,149,-1,149,171,178,-1,154,179,155,-1,155,179,180,-1,155,180,156,-1,156,180,181,-1,156,181,171,-1,171,181,182,-1,171,182,178,-1,178,182,183,-1,
        ]
    }
}
Shape{
    appearance Appearance {
        material  Material 	{
            diffuseColor 0.30980392156862746 0.8745098039215686 0.0
            specularColor 0.1568627450980392 0.4392156862745098 0.0
            ambientIntensity 0.606
            transparency 0.0
            shininess 0.5
        }
    }
    geometry IndexedFaceSet {
        ccw TRUE
        solid FALSE
        coord DEF co Coordinate {
            point [
                0.5807 0.2678 0.0039, 0.5807 0.7402 0.0039, 0.5807 0.7402 0.122, 0.5807 -0.7401 0.122, 0.5807 -0.7401 0.0039, 0.5807 -0.6909 0.0039, 0.5807 -0.1942 0.0039, 0.5807 -0.0045 0.0039, 0.5807 0.0587 0.0039, 0.2439 0.7402 0.0039, 0.1742 0.7402 0.0039, 0.1663 0.7402 0.0039, 0.0619 0.7402 0.0039, -0.0245 0.7402 0.0039, -0.5808 0.7402 0.122, -0.1354 0.7402 0.0039, -0.1585 0.7402 0.0039, -0.3693 0.7402 0.0039, -0.5808 0.7402 0.0039, -0.5808 -0.6909 0.0039, -0.5808 -0.7401 0.0039, -0.5808 -0.7401 0.122, -0.5808 0.2678 0.0039, -0.5808 0.0587 0.0039, -0.5808 -0.0045 0.0039, -0.5808 -0.1942 0.0039, -0.3693 -0.7401 0.0039, -0.1585 -0.7401 0.0039, -0.1354 -0.7401 0.0039, -0.0245 -0.7401 0.0039, 0.0619 -0.7401 0.0039, 0.1663 -0.7401 0.0039, 0.1742 -0.7401 0.0039, 0.2439 -0.7401 0.0039, -0.5422 -0.6357 0.122, -0.5313 -0.6561 0.122, -0.5166 -0.674 0.122, -0.5313 0.6562 0.122, -0.5422 0.6358 0.122, -0.549 0.6136 0.122, 0.5312 -0.6561 0.122, 0.5421 -0.6357 0.122, 0.5489 -0.6135 0.122, 0.4782 0.6997 0.122, 0.4986 0.6888 0.122, 0.5165 -0.674 0.122, 0.4986 -0.6887 0.122, 0.4782 -0.6996 0.122, -0.549 -0.6135 0.122, -0.5512 -0.5905 0.122, -0.5512 0.5906 0.122, -0.5166 0.6741 0.122, -0.4987 0.6888 0.122, -0.4783 0.6997 0.122, 0.4561 0.7064 0.122, 0.5165 0.6741 0.122, 0.5312 0.6562 0.122, 0.5421 0.6358 0.122, -0.4562 -0.7063 0.122, -0.4783 -0.6996 0.122, -0.4987 -0.6887 0.122, 0.5489 0.6136 0.122, 0.5511 0.5906 0.122, 0.5511 -0.5905 0.122, 0.4561 -0.7063 0.122, 0.433 -0.7086 0.122, -0.4331 -0.7086 0.122, -0.4562 0.7064 0.122, -0.4331 0.7087 0.122, 0.433 0.7087 0.122
            ]
        }
        coordIndex [
            0,1,2,-1,3,4,5,-1,5,6,3,-1,3,6,7,-1,3,7,2,-1,2,7,8,-1,2,8,0,-1,1,9,2,-1,2,9,10,-1,2,10,11,-1,11,12,2,-1,2,12,13,-1,2,13,14,-1,14,13,15,-1,15,16,14,-1,14,16,17,-1,14,17,18,-1,19,20,21,-1,14,18,22,-1,22,23,14,-1,14,23,24,-1,14,24,21,-1,21,24,25,-1,21,25,19,-1,20,26,21,-1,21,26,27,-1,27,28,21,-1,21,28,29,-1,21,29,3,-1,3,29,30,-1,3,30,31,-1,31,32,3,-1,3,32,33,-1,3,33,4,-1,34,21,35,-1,35,21,36,-1,37,14,38,-1,38,14,39,-1,40,3,41,-1,41,3,42,-1,43,44,2,-1,40,45,3,-1,3,45,46,-1,3,46,47,-1,34,48,21,-1,21,48,49,-1,21,49,14,-1,14,49,50,-1,14,50,39,-1,37,51,14,-1,14,51,52,-1,14,52,53,-1,43,2,54,-1,44,55,2,-1,2,55,56,-1,2,56,57,-1,58,59,21,-1,21,59,60,-1,21,60,36,-1,57,61,2,-1,2,61,62,-1,2,62,3,-1,3,62,63,-1,3,63,42,-1,47,64,3,-1,3,64,65,-1,3,65,21,-1,21,65,66,-1,21,66,58,-1,53,67,14,-1,14,67,68,-1,14,68,2,-1,2,68,69,-1,2,69,54,-1,
        ]
    }
}
Shape{
    appearance Appearance {
        material  Material 	{
            diffuseColor 0.8509803921568627 0.8509803921568627 0.8509803921568627
            specularColor 0.4235294117647059 0.4235294117647059 0.4235294117647059
            ambientIntensity 0.851
            transparency 0.0
            shininess 0.5
        }
    }
    geometry IndexedFaceSet {
        ccw TRUE
        solid FALSE
        coord DEF co Coordinate {
            point [
                0.5118 0.5906 0.1614, 0.5118 0.5906 0.3583, 0.5118 -0.5905 0.1614, 0.5118 -0.5905 0.3583, -0.4331 0.6693 0.1614, -0.4331 0.6693 0.3583, 0.433 0.6693 0.1614, 0.433 0.6693 0.3583, -0.5119 -0.5905 0.1614, -0.5119 -0.5905 0.3583, -0.5119 0.5906 0.1614, -0.5119 0.5906 0.3583, 0.433 -0.6692 0.1614, 0.433 -0.6692 0.3583, -0.4331 -0.6692 0.1614, -0.4331 -0.6692 0.3583
            ]
        }
        coordIndex [
            0,1,2,-1,2,1,3,-1,4,5,6,-1,6,5,7,-1,8,9,10,-1,10,9,11,-1,12,13,14,-1,14,13,15,-1,
        ]
    }
}
Shape{
    appearance Appearance {
        material  Material 	{
            diffuseColor 0.2235294117647059 0.2235294117647059 0.2235294117647059
            specularColor 0.11372549019607843 0.11372549019607843 0.11372549019607843
            ambientIntensity 0.2235
            transparency 0.0
            shininess 0.5
        }
    }
    geometry IndexedFaceSet {
        ccw TRUE
        solid FALSE
        coord DEF co Coordinate {
            point [
                0.0984 0.2756 0.437, 0.095 0.3011 0.437, -0.0001 0.2756 0.437, 0.0695 0.206 0.437, 0.0852 0.2264 0.437, 0.095 0.2502 0.437, 0.0254 0.1806 0.437, 0.0396 0.1864 0.437, 0.0492 0.1904 0.437, -0.0353 0.1846 0.437, -0.0255 0.1806 0.437, -0.0001 0.1772 0.437, -0.0853 0.2264 0.437, -0.0696 0.206 0.437, -0.0493 0.1904 0.437, -0.0951 0.3011 0.437, -0.0985 0.2756 0.437, -0.0951 0.2502 0.437, -0.0493 0.3609 0.437, -0.0696 0.3452 0.437, -0.0853 0.3249 0.437, -0.0001 0.3741 0.437, -0.0255 0.3707 0.437, -0.0353 0.3666 0.437, 0.0492 0.3609 0.437, 0.0396 0.3649 0.437, 0.0254 0.3707 0.437, 0.0852 0.3249 0.437, 0.0695 0.3452 0.437
            ]
        }
        coordIndex [
            0,1,2,-1,3,4,2,-1,2,4,5,-1,2,5,0,-1,6,7,2,-1,2,7,8,-1,2,8,3,-1,9,10,2,-1,2,10,11,-1,2,11,6,-1,12,13,2,-1,2,13,14,-1,2,14,9,-1,15,16,2,-1,2,16,17,-1,2,17,12,-1,18,19,2,-1,2,19,20,-1,2,20,15,-1,21,22,2,-1,2,22,23,-1,2,23,18,-1,24,25,2,-1,2,25,26,-1,2,26,21,-1,1,27,2,-1,2,27,28,-1,2,28,24,-1,
        ]
    }
}
Shape{
    appearance Appearance {
        material  Material 	{
            diffuseColor 0.8509803921568627 0.8509803921568627 0.8509803921568627
            specularColor 0.4235294117647059 0.4235294117647059 0.4235294117647059
            ambientIntensity 0.851
            transparency 0.0
            shininess 0.5
        }
    }
    geometry IndexedFaceSet {
        ccw TRUE
        solid FALSE
        coord DEF co Coordinate {
            point [
                -0.4331 0.6693 0.3583, -0.4331 0.6693 0.1614, -0.4506 0.6674 0.3583, -0.4485 0.6678 0.1614, -0.4534 0.6664 0.3583, -0.4534 0.6663 0.1614, -0.4673 0.6615 0.3583, -0.4633 0.6633 0.1614, -0.4723 0.6584 0.3583, -0.4723 0.6585 0.1614, -0.4822 0.6522 0.3583, -0.4769 0.6561 0.1614, -0.4884 0.6459 0.3583, -0.4888 0.6463 0.1614, -0.4947 0.6397 0.3583, -0.4986 0.6343 0.1614, -0.5009 0.6297 0.3583, -0.501 0.6298 0.1614, -0.5041 0.6248 0.3583, -0.5059 0.6207 0.1614, -0.5089 0.6109 0.3583, -0.5089 0.6109 0.1614, -0.5099 0.6081 0.3583, -0.5103 0.606 0.1614, -0.5119 0.5906 0.3583, -0.5119 0.5906 0.1614, -0.4331 0.5906 0.437, -0.3419 0.5906 0.437, -0.4331 0.6081 0.435, -0.1398 0.5906 0.437, -0.0353 0.5906 0.437, 0.0396 0.5906 0.437, 0.433 0.6081 0.435, 0.1389 0.5906 0.437, 0.433 0.5906 0.437, -0.4331 0.6109 0.4341, 0.433 0.6109 0.4341, -0.4331 0.6248 0.4292, 0.433 0.6248 0.4292, -0.4331 0.6297 0.4261, 0.433 0.6297 0.4261, -0.4331 0.6397 0.4198, 0.433 0.6397 0.4198, -0.4331 0.6459 0.4136, 0.433 0.6459 0.4136, -0.4331 0.6522 0.4074, 0.433 0.6522 0.4074, -0.4331 0.6584 0.3974, 0.433 0.6584 0.3974, -0.4331 0.6615 0.3924, 0.433 0.6615 0.3924, -0.4331 0.6664 0.3786, 0.433 0.6664 0.3786, -0.4331 0.6674 0.3758, 0.433 0.6674 0.3758, 0.433 0.6693 0.3583, 0.5118 0.5906 0.3583, 0.5118 0.5906 0.1614, 0.5098 0.6081 0.3583, 0.5102 0.606 0.1614, 0.5088 0.6109 0.3583, 0.5088 0.6109 0.1614, 0.504 0.6248 0.3583, 0.5058 0.6207 0.1614, 0.5008 0.6297 0.3583, 0.5009 0.6298 0.1614, 0.4946 0.6397 0.3583, 0.4985 0.6343 0.1614, 0.4883 0.6459 0.3583, 0.4887 0.6463 0.1614, 0.4821 0.6522 0.3583, 0.4768 0.6561 0.1614, 0.4722 0.6584 0.3583, 0.4722 0.6585 0.1614, 0.4672 0.6615 0.3583, 0.4632 0.6633 0.1614, 0.4533 0.6664 0.3583, 0.4533 0.6663 0.1614, 0.4505 0.6674 0.3583, 0.4484 0.6678 0.1614, 0.433 0.6693 0.1614, -0.4664 0.6598 0.3758, -0.481 0.6506 0.3758, -0.4931 0.6385 0.3758, -0.5023 0.6239 0.3758, -0.508 0.6077 0.3758, -0.4502 0.5945 0.435, -0.4506 0.5906 0.435, -0.4664 0.5982 0.4292, -0.4673 0.5906 0.4292, -0.4534 0.5906 0.4341, -0.437 0.6077 0.435, -0.4407 0.6239 0.4292, -0.444 0.6385 0.4198, -0.4931 0.6043 0.4074, -0.4884 0.5906 0.4136, -0.481 0.6015 0.4198, -0.4822 0.5906 0.4198, -0.4723 0.5906 0.4261, -0.4468 0.6506 0.4074, -0.5023 0.6064 0.3924, -0.5009 0.5906 0.3974, -0.4947 0.5906 0.4074, -0.4489 0.6598 0.3924, -0.5089 0.5906 0.3786, -0.5041 0.5906 0.3924, -0.5099 0.5906 0.3758, -0.497 0.6214 0.3924, -0.4886 0.6173 0.4074, -0.4774 0.6119 0.4198, -0.4639 0.6054 0.4292, -0.4489 0.5982 0.435, -0.4886 0.6348 0.3924, -0.4813 0.629 0.4074, -0.4715 0.6212 0.4198, -0.4598 0.6119 0.4292, -0.4468 0.6015 0.435, -0.4774 0.6461 0.3924, -0.4715 0.6387 0.4074, -0.4637 0.629 0.4198, -0.4544 0.6173 0.4292, -0.444 0.6043 0.435, -0.4639 0.6545 0.3924, -0.4598 0.6461 0.4074, -0.4544 0.6348 0.4198, -0.4479 0.6214 0.4292, -0.4407 0.6064 0.435, -0.4502 0.6654 0.3758, 0.5022 0.6239 0.3758, 0.493 0.6385 0.3758, 0.4809 0.6506 0.3758, 0.4663 0.6598 0.3758, 0.4501 0.6654 0.3758, 0.4369 0.6077 0.435, 0.4406 0.6239 0.4292, 0.4505 0.5906 0.435, 0.4501 0.5945 0.435, 0.4533 0.5906 0.4341, 0.4663 0.5982 0.4292, 0.4672 0.5906 0.4292, 0.4722 0.5906 0.4261, 0.4809 0.6015 0.4198, 0.4467 0.6506 0.4074, 0.4439 0.6385 0.4198, 0.4821 0.5906 0.4198, 0.4883 0.5906 0.4136, 0.493 0.6043 0.4074, 0.4488 0.6598 0.3924, 0.4946 0.5906 0.4074, 0.5008 0.5906 0.3974, 0.5022 0.6064 0.3924, 0.4638 0.6545 0.3924, 0.4597 0.6461 0.4074, 0.4543 0.6348 0.4198, 0.4478 0.6214 0.4292, 0.4406 0.6064 0.435, 0.4773 0.6461 0.3924, 0.4714 0.6387 0.4074, 0.4636 0.629 0.4198, 0.4543 0.6173 0.4292, 0.4439 0.6043 0.435, 0.4885 0.6348 0.3924, 0.4812 0.629 0.4074, 0.4714 0.6212 0.4198, 0.4597 0.6119 0.4292, 0.4467 0.6015 0.435, 0.4969 0.6214 0.3924, 0.4885 0.6173 0.4074, 0.4773 0.6119 0.4198, 0.4638 0.6054 0.4292, 0.4488 0.5982 0.435, 0.5079 0.6077 0.3758, 0.504 0.5906 0.3924, 0.5088 0.5906 0.3786, 0.5098 0.5906 0.3758, -0.5119 -0.5905 0.3583, -0.5119 -0.5905 0.1614, -0.5099 -0.608 0.3583, -0.5103 -0.6059 0.1614, -0.5089 -0.6108 0.3583, -0.5089 -0.6108 0.1614, -0.5041 -0.6247 0.3583, -0.5059 -0.6206 0.1614, -0.5009 -0.6296 0.3583, -0.501 -0.6297 0.1614, -0.4947 -0.6396 0.3583, -0.4986 -0.6342 0.1614, -0.4884 -0.6458 0.3583, -0.4888 -0.6462 0.1614, -0.4822 -0.6521 0.3583, -0.4769 -0.656 0.1614, -0.4723 -0.6583 0.3583, -0.4723 -0.6584 0.1614, -0.4673 -0.6614 0.3583, -0.4633 -0.6632 0.1614, -0.4534 -0.6663 0.3583, -0.4534 -0.6662 0.1614, -0.4506 -0.6673 0.3583, -0.4485 -0.6677 0.1614, -0.4331 -0.6692 0.3583, -0.4331 -0.6692 0.1614, -0.4331 0.0709 0.437, -0.4506 -0.5905 0.435, -0.4331 -0.5905 0.437, -0.4331 -0.1556 0.437, -0.4331 -0.0361 0.437, -0.4534 -0.5905 0.4341, -0.4673 -0.5905 0.4292, -0.4723 -0.5905 0.4261, -0.4822 -0.5905 0.4198, -0.4884 -0.5905 0.4136, -0.4947 -0.5905 0.4074, -0.5009 -0.5905 0.3974, -0.5041 -0.5905 0.3924, -0.5089 -0.5905 0.3786, -0.5099 -0.5905 0.3758, 0.433 0.0709 0.437, 0.433 -0.5905 0.437, 0.4505 -0.5905 0.435, 0.433 -0.1556 0.437, 0.433 -0.0361 0.437, 0.4533 -0.5905 0.4341, 0.4672 -0.5905 0.4292, 0.4722 -0.5905 0.4261, 0.4821 -0.5905 0.4198, 0.4883 -0.5905 0.4136, 0.4946 -0.5905 0.4074, 0.5008 -0.5905 0.3974, 0.504 -0.5905 0.3924, 0.5088 -0.5905 0.3786, 0.5098 -0.5905 0.3758, 0.5118 -0.5905 0.3583, 0.433 -0.6692 0.3583, 0.433 -0.6692 0.1614, 0.4505 -0.6673 0.3583, 0.4484 -0.6677 0.1614, 0.4533 -0.6663 0.3583, 0.4533 -0.6662 0.1614, 0.4672 -0.6614 0.3583, 0.4632 -0.6632 0.1614, 0.4722 -0.6583 0.3583, 0.4722 -0.6584 0.1614, 0.4821 -0.6521 0.3583, 0.4768 -0.656 0.1614, 0.4883 -0.6458 0.3583, 0.4887 -0.6462 0.1614, 0.4946 -0.6396 0.3583, 0.4985 -0.6342 0.1614, 0.5008 -0.6296 0.3583, 0.5009 -0.6297 0.1614, 0.504 -0.6247 0.3583, 0.5058 -0.6206 0.1614, 0.5088 -0.6108 0.3583, 0.5088 -0.6108 0.1614, 0.5098 -0.608 0.3583, 0.5102 -0.6059 0.1614, 0.5118 -0.5905 0.1614, -0.5023 -0.6238 0.3758, -0.4931 -0.6384 0.3758, -0.481 -0.6505 0.3758, -0.4664 -0.6597 0.3758, -0.4502 -0.6653 0.3758, -0.437 -0.6076 0.435, -0.4331 -0.608 0.435, -0.4407 -0.6238 0.4292, -0.4331 -0.6247 0.4292, -0.4331 -0.6108 0.4341, -0.4502 -0.5944 0.435, -0.4664 -0.5981 0.4292, -0.481 -0.6014 0.4198, -0.4468 -0.6505 0.4074, -0.4331 -0.6458 0.4136, -0.444 -0.6384 0.4198, -0.4331 -0.6396 0.4198, -0.4331 -0.6296 0.4261, -0.4931 -0.6042 0.4074, -0.4489 -0.6597 0.3924, -0.4331 -0.6583 0.3974, -0.4331 -0.6521 0.4074, -0.5023 -0.6063 0.3924, -0.4331 -0.6663 0.3786, -0.4331 -0.6614 0.3924, -0.4331 -0.6673 0.3758, -0.4639 -0.6544 0.3924, -0.4598 -0.646 0.4074, -0.4544 -0.6347 0.4198, -0.4479 -0.6213 0.4292, -0.4407 -0.6063 0.435, -0.4774 -0.646 0.3924, -0.4715 -0.6386 0.4074, -0.4637 -0.6289 0.4198, -0.4544 -0.6172 0.4292, -0.444 -0.6042 0.435, -0.4886 -0.6347 0.3924, -0.4813 -0.6289 0.4074, -0.4715 -0.6211 0.4198, -0.4598 -0.6118 0.4292, -0.4468 -0.6014 0.435, -0.497 -0.6213 0.3924, -0.4886 -0.6172 0.4074, -0.4774 -0.6118 0.4198, -0.4639 -0.6053 0.4292, -0.4489 -0.5981 0.435, -0.508 -0.6076 0.3758, 0.4663 -0.6597 0.3758, 0.4809 -0.6505 0.3758, 0.493 -0.6384 0.3758, 0.5022 -0.6238 0.3758, 0.5079 -0.6076 0.3758, 0.4501 -0.5944 0.435, 0.4663 -0.5981 0.4292, 0.433 -0.608 0.435, 0.4369 -0.6076 0.435, 0.433 -0.6108 0.4341, 0.4406 -0.6238 0.4292, 0.433 -0.6247 0.4292, 0.433 -0.6296 0.4261, 0.4439 -0.6384 0.4198, 0.493 -0.6042 0.4074, 0.4809 -0.6014 0.4198, 0.433 -0.6396 0.4198, 0.433 -0.6458 0.4136, 0.4467 -0.6505 0.4074, 0.5022 -0.6063 0.3924, 0.433 -0.6521 0.4074, 0.433 -0.6583 0.3974, 0.4488 -0.6597 0.3924, 0.4969 -0.6213 0.3924, 0.4885 -0.6172 0.4074, 0.4773 -0.6118 0.4198, 0.4638 -0.6053 0.4292, 0.4488 -0.5981 0.435, 0.4885 -0.6347 0.3924, 0.4812 -0.6289 0.4074, 0.4714 -0.6211 0.4198, 0.4597 -0.6118 0.4292, 0.4467 -0.6014 0.435, 0.4773 -0.646 0.3924, 0.4714 -0.6386 0.4074, 0.4636 -0.6289 0.4198, 0.4543 -0.6172 0.4292, 0.4439 -0.6042 0.435, 0.4638 -0.6544 0.3924, 0.4597 -0.646 0.4074, 0.4543 -0.6347 0.4198, 0.4478 -0.6213 0.4292, 0.4406 -0.6063 0.435, 0.4501 -0.6653 0.3758, 0.433 -0.6614 0.3924, 0.433 -0.6663 0.3786, 0.433 -0.6673 0.3758, 0.1389 -0.5905 0.437, 0.0396 -0.5905 0.437, -0.0353 -0.5905 0.437, -0.1398 -0.5905 0.437, -0.3419 -0.5905 0.437, -0.4487 -0.669 0.1512, -0.4331 -0.6706 0.1512, -0.4638 -0.6645 0.1512, -0.4776 -0.6571 0.1512, -0.4897 -0.6471 0.1512, -0.4997 -0.635 0.1512, -0.5071 -0.6211 0.1512, -0.5132 -0.5905 0.1512, -0.5117 -0.6061 0.1512, -0.5171 -0.5905 0.1417, -0.5155 -0.6069 0.1417, -0.5107 -0.6227 0.1417, -0.503 -0.6372 0.1417, -0.4925 -0.6499 0.1417, -0.4798 -0.6604 0.1417, -0.4653 -0.6681 0.1417, -0.4495 -0.6729 0.1417, -0.4331 -0.6745 0.1417, -0.5234 -0.5905 0.1336, -0.5217 -0.6081 0.1336, -0.5165 -0.625 0.1336, -0.5082 -0.6407 0.1336, -0.497 -0.6543 0.1336, -0.4833 -0.6656 0.1336, -0.4677 -0.6739 0.1336, -0.4507 -0.679 0.1336, -0.4331 -0.6808 0.1336, -0.5315 -0.5905 0.1273, -0.5297 -0.6097 0.1273, -0.5241 -0.6282 0.1273, -0.515 -0.6452 0.1273, -0.5027 -0.6601 0.1273, -0.4878 -0.6723 0.1273, -0.4708 -0.6814 0.1273, -0.4523 -0.687 0.1273, -0.4331 -0.6889 0.1273, -0.541 -0.5905 0.1234, -0.539 -0.6116 0.1234, -0.5328 -0.6318 0.1234, -0.5229 -0.6505 0.1234, -0.5094 -0.6668 0.1234, -0.4931 -0.6802 0.1234, -0.4744 -0.6902 0.1234, -0.4542 -0.6963 0.1234, -0.4331 -0.6984 0.1234, -0.5512 -0.5905 0.122, -0.549 -0.6135 0.122, -0.5422 -0.6357 0.122, -0.5313 -0.6561 0.122, -0.5166 -0.674 0.122, -0.4987 -0.6887 0.122, -0.4783 -0.6996 0.122, -0.4562 -0.7063 0.122, -0.4331 -0.7086 0.122, -0.5512 0.5906 0.122, -0.541 0.5906 0.1234, -0.5315 0.5906 0.1273, -0.5234 0.5906 0.1336, -0.5171 0.5906 0.1417, -0.5132 0.5906 0.1512, 0.433 -0.7086 0.122, 0.433 -0.6984 0.1234, 0.433 -0.6889 0.1273, 0.433 -0.6808 0.1336, 0.433 -0.6745 0.1417, 0.433 -0.6706 0.1512, -0.5117 0.6062 0.1512, -0.5071 0.6212 0.1512, -0.4997 0.6351 0.1512, -0.4897 0.6472 0.1512, -0.4776 0.6572 0.1512, -0.4638 0.6646 0.1512, -0.4331 0.6707 0.1512, -0.4487 0.6691 0.1512, -0.4331 0.6746 0.1417, -0.4495 0.673 0.1417, -0.4653 0.6682 0.1417, -0.4798 0.6605 0.1417, -0.4925 0.65 0.1417, -0.503 0.6373 0.1417, -0.5107 0.6228 0.1417, -0.5155 0.607 0.1417, -0.4331 0.6809 0.1336, -0.4507 0.6791 0.1336, -0.4677 0.674 0.1336, -0.4833 0.6657 0.1336, -0.497 0.6544 0.1336, -0.5082 0.6408 0.1336, -0.5165 0.6251 0.1336, -0.5217 0.6082 0.1336, -0.4331 0.689 0.1273, -0.4523 0.6871 0.1273, -0.4708 0.6815 0.1273, -0.4878 0.6724 0.1273, -0.5027 0.6602 0.1273, -0.515 0.6453 0.1273, -0.5241 0.6283 0.1273, -0.5297 0.6098 0.1273, -0.4331 0.6985 0.1234, -0.4542 0.6964 0.1234, -0.4744 0.6903 0.1234, -0.4931 0.6803 0.1234, -0.5094 0.6669 0.1234, -0.5229 0.6506 0.1234, -0.5328 0.6319 0.1234, -0.539 0.6117 0.1234, -0.4331 0.7087 0.122, -0.4562 0.7064 0.122, -0.4783 0.6997 0.122, -0.4987 0.6888 0.122, -0.5166 0.6741 0.122, -0.5313 0.6562 0.122, -0.5422 0.6358 0.122, -0.549 0.6136 0.122, 0.5116 -0.6061 0.1512, 0.5131 -0.5905 0.1512, 0.507 -0.6211 0.1512, 0.4996 -0.635 0.1512, 0.4896 -0.6471 0.1512, 0.4775 -0.6571 0.1512, 0.4637 -0.6645 0.1512, 0.4486 -0.669 0.1512, 0.4494 -0.6729 0.1417, 0.4652 -0.6681 0.1417, 0.4797 -0.6604 0.1417, 0.4924 -0.6499 0.1417, 0.5029 -0.6372 0.1417, 0.5106 -0.6227 0.1417, 0.5154 -0.6069 0.1417, 0.517 -0.5905 0.1417, 0.4506 -0.679 0.1336, 0.4676 -0.6739 0.1336, 0.4832 -0.6656 0.1336, 0.4969 -0.6543 0.1336, 0.5081 -0.6407 0.1336, 0.5164 -0.625 0.1336, 0.5216 -0.6081 0.1336, 0.5233 -0.5905 0.1336, 0.4522 -0.687 0.1273, 0.4707 -0.6814 0.1273, 0.4877 -0.6723 0.1273, 0.5026 -0.6601 0.1273, 0.5149 -0.6452 0.1273, 0.524 -0.6282 0.1273, 0.5296 -0.6097 0.1273, 0.5314 -0.5905 0.1273, 0.4541 -0.6963 0.1234, 0.4743 -0.6902 0.1234, 0.493 -0.6802 0.1234, 0.5093 -0.6668 0.1234, 0.5228 -0.6505 0.1234, 0.5327 -0.6318 0.1234, 0.5389 -0.6116 0.1234, 0.5409 -0.5905 0.1234, 0.4561 -0.7063 0.122, 0.4782 -0.6996 0.122, 0.4986 -0.6887 0.122, 0.5165 -0.674 0.122, 0.5312 -0.6561 0.122, 0.5421 -0.6357 0.122, 0.5489 -0.6135 0.122, 0.5511 -0.5905 0.122, 0.433 0.7087 0.122, 0.433 0.6985 0.1234, 0.433 0.689 0.1273, 0.433 0.6809 0.1336, 0.433 0.6746 0.1417, 0.433 0.6707 0.1512, 0.5511 0.5906 0.122, 0.5409 0.5906 0.1234, 0.5314 0.5906 0.1273, 0.5233 0.5906 0.1336, 0.517 0.5906 0.1417, 0.5131 0.5906 0.1512, 0.4486 0.6691 0.1512, 0.4637 0.6646 0.1512, 0.4775 0.6572 0.1512, 0.4896 0.6472 0.1512, 0.4996 0.6351 0.1512, 0.507 0.6212 0.1512, 0.5116 0.6062 0.1512, 0.5154 0.607 0.1417, 0.5106 0.6228 0.1417, 0.5029 0.6373 0.1417, 0.4924 0.65 0.1417, 0.4797 0.6605 0.1417, 0.4652 0.6682 0.1417, 0.4494 0.673 0.1417, 0.5216 0.6082 0.1336, 0.5164 0.6251 0.1336, 0.5081 0.6408 0.1336, 0.4969 0.6544 0.1336, 0.4832 0.6657 0.1336, 0.4676 0.674 0.1336, 0.4506 0.6791 0.1336, 0.5296 0.6098 0.1273, 0.524 0.6283 0.1273, 0.5149 0.6453 0.1273, 0.5026 0.6602 0.1273, 0.4877 0.6724 0.1273, 0.4707 0.6815 0.1273, 0.4522 0.6871 0.1273, 0.5389 0.6117 0.1234, 0.5327 0.6319 0.1234, 0.5228 0.6506 0.1234, 0.5093 0.6669 0.1234, 0.493 0.6803 0.1234, 0.4743 0.6903 0.1234, 0.4541 0.6964 0.1234, 0.5489 0.6136 0.122, 0.5421 0.6358 0.122, 0.5312 0.6562 0.122, 0.5165 0.6741 0.122, 0.4986 0.6888 0.122, 0.4782 0.6997 0.122, 0.4561 0.7064 0.122
            ]
        }
        coordIndex [
            0,1,2,-1,2,1,3,-1,2,3,4,-1,4,3,5,-1,4,5,6,-1,6,5,7,-1,6,7,8,-1,8,7,9,-1,8,9,10,-1,10,9,11,-1,10,11,12,-1,12,11,13,-1,12,13,14,-1,14,13,15,-1,14,15,16,-1,16,15,17,-1,16,17,18,-1,18,17,19,-1,18,19,20,-1,20,19,21,-1,20,21,22,-1,22,21,23,-1,22,23,24,-1,24,23,25,-1,26,27,28,-1,28,27,29,-1,30,31,32,-1,32,31,33,-1,32,33,34,-1,29,30,28,-1,28,30,32,-1,28,32,35,-1,35,32,36,-1,35,36,37,-1,37,36,38,-1,37,38,39,-1,39,38,40,-1,39,40,41,-1,41,40,42,-1,41,42,43,-1,43,42,44,-1,43,44,45,-1,45,44,46,-1,45,46,47,-1,47,46,48,-1,47,48,49,-1,49,48,50,-1,49,50,51,-1,51,50,52,-1,51,52,53,-1,53,52,54,-1,53,54,0,-1,0,54,55,-1,56,57,58,-1,58,57,59,-1,58,59,60,-1,60,59,61,-1,60,61,62,-1,62,61,63,-1,62,63,64,-1,64,63,65,-1,64,65,66,-1,66,65,67,-1,66,67,68,-1,68,67,69,-1,68,69,70,-1,70,69,71,-1,70,71,72,-1,72,71,73,-1,72,73,74,-1,74,73,75,-1,74,75,76,-1,76,75,77,-1,76,77,78,-1,78,77,79,-1,78,79,55,-1,55,79,80,-1,4,6,81,-1,8,10,82,-1,12,14,83,-1,16,18,84,-1,20,22,85,-1,26,86,87,-1,88,89,86,-1,86,89,90,-1,86,90,87,-1,26,28,91,-1,91,28,35,-1,91,35,92,-1,35,37,92,-1,92,37,39,-1,92,39,93,-1,94,95,96,-1,96,95,97,-1,96,97,88,-1,88,97,98,-1,88,98,89,-1,39,41,93,-1,93,41,43,-1,93,43,99,-1,100,101,94,-1,94,101,102,-1,94,102,95,-1,43,45,99,-1,99,45,47,-1,99,47,103,-1,85,104,100,-1,100,104,105,-1,100,105,101,-1,22,24,85,-1,85,24,106,-1,85,106,104,-1,18,20,84,-1,84,20,85,-1,84,85,107,-1,107,85,100,-1,107,100,108,-1,108,100,94,-1,108,94,109,-1,109,94,96,-1,109,96,110,-1,110,96,88,-1,110,88,111,-1,111,88,86,-1,111,86,26,-1,14,16,83,-1,83,16,84,-1,83,84,112,-1,112,84,107,-1,112,107,113,-1,113,107,108,-1,113,108,114,-1,114,108,109,-1,114,109,115,-1,115,109,110,-1,115,110,116,-1,116,110,111,-1,116,111,26,-1,10,12,82,-1,82,12,83,-1,82,83,117,-1,117,83,112,-1,117,112,118,-1,118,112,113,-1,118,113,119,-1,119,113,114,-1,119,114,120,-1,120,114,115,-1,120,115,121,-1,121,115,116,-1,121,116,26,-1,6,8,81,-1,81,8,82,-1,81,82,122,-1,122,82,117,-1,122,117,123,-1,123,117,118,-1,123,118,124,-1,124,118,119,-1,124,119,125,-1,125,119,120,-1,125,120,126,-1,126,120,121,-1,126,121,26,-1,2,4,127,-1,127,4,81,-1,127,81,103,-1,103,81,122,-1,103,122,99,-1,99,122,123,-1,99,123,93,-1,93,123,124,-1,93,124,92,-1,92,124,125,-1,92,125,91,-1,91,125,126,-1,91,126,26,-1,47,49,103,-1,103,49,51,-1,103,51,127,-1,127,51,53,-1,127,53,2,-1,2,53,0,-1,60,62,128,-1,64,66,129,-1,68,70,130,-1,72,74,131,-1,76,78,132,-1,34,133,32,-1,134,38,133,-1,133,38,36,-1,133,36,32,-1,34,135,136,-1,136,135,137,-1,136,137,138,-1,137,139,138,-1,138,139,140,-1,138,140,141,-1,142,44,143,-1,143,44,42,-1,143,42,134,-1,134,42,40,-1,134,40,38,-1,140,144,141,-1,141,144,145,-1,141,145,146,-1,147,48,142,-1,142,48,46,-1,142,46,44,-1,145,148,146,-1,146,148,149,-1,146,149,150,-1,132,52,147,-1,147,52,50,-1,147,50,48,-1,78,55,132,-1,132,55,54,-1,132,54,52,-1,74,76,131,-1,131,76,132,-1,131,132,151,-1,151,132,147,-1,151,147,152,-1,152,147,142,-1,152,142,153,-1,153,142,143,-1,153,143,154,-1,154,143,134,-1,154,134,155,-1,155,134,133,-1,155,133,34,-1,70,72,130,-1,130,72,131,-1,130,131,156,-1,156,131,151,-1,156,151,157,-1,157,151,152,-1,157,152,158,-1,158,152,153,-1,158,153,159,-1,159,153,154,-1,159,154,160,-1,160,154,155,-1,160,155,34,-1,66,68,129,-1,129,68,130,-1,129,130,161,-1,161,130,156,-1,161,156,162,-1,162,156,157,-1,162,157,163,-1,163,157,158,-1,163,158,164,-1,164,158,159,-1,164,159,165,-1,165,159,160,-1,165,160,34,-1,62,64,128,-1,128,64,129,-1,128,129,166,-1,166,129,161,-1,166,161,167,-1,167,161,162,-1,167,162,168,-1,168,162,163,-1,168,163,169,-1,169,163,164,-1,169,164,170,-1,170,164,165,-1,170,165,34,-1,58,60,171,-1,171,60,128,-1,171,128,150,-1,150,128,166,-1,150,166,146,-1,146,166,167,-1,146,167,141,-1,141,167,168,-1,141,168,138,-1,138,168,169,-1,138,169,136,-1,136,169,170,-1,136,170,34,-1,149,172,150,-1,150,172,173,-1,150,173,171,-1,171,173,174,-1,171,174,58,-1,58,174,56,-1,175,176,177,-1,177,176,178,-1,177,178,179,-1,179,178,180,-1,179,180,181,-1,181,180,182,-1,181,182,183,-1,183,182,184,-1,183,184,185,-1,185,184,186,-1,185,186,187,-1,187,186,188,-1,187,188,189,-1,189,188,190,-1,189,190,191,-1,191,190,192,-1,191,192,193,-1,193,192,194,-1,193,194,195,-1,195,194,196,-1,195,196,197,-1,197,196,198,-1,197,198,199,-1,199,198,200,-1,201,26,87,-1,202,203,204,-1,201,87,205,-1,204,205,202,-1,202,205,87,-1,202,87,206,-1,206,87,90,-1,206,90,207,-1,207,90,89,-1,207,89,208,-1,208,89,98,-1,208,98,209,-1,209,98,97,-1,209,97,210,-1,210,97,95,-1,210,95,211,-1,211,95,102,-1,211,102,212,-1,212,102,101,-1,212,101,213,-1,213,101,105,-1,213,105,214,-1,214,105,104,-1,214,104,215,-1,215,104,106,-1,215,106,175,-1,175,106,24,-1,135,34,216,-1,217,218,219,-1,219,218,220,-1,216,220,135,-1,135,220,218,-1,135,218,137,-1,137,218,221,-1,137,221,139,-1,139,221,222,-1,139,222,140,-1,140,222,223,-1,140,223,144,-1,144,223,224,-1,144,224,145,-1,145,224,225,-1,145,225,148,-1,148,225,226,-1,148,226,149,-1,149,226,227,-1,149,227,172,-1,172,227,228,-1,172,228,173,-1,173,228,229,-1,173,229,174,-1,174,229,230,-1,174,230,56,-1,56,230,231,-1,232,233,234,-1,234,233,235,-1,234,235,236,-1,236,235,237,-1,236,237,238,-1,238,237,239,-1,238,239,240,-1,240,239,241,-1,240,241,242,-1,242,241,243,-1,242,243,244,-1,244,243,245,-1,244,245,246,-1,246,245,247,-1,246,247,248,-1,248,247,249,-1,248,249,250,-1,250,249,251,-1,250,251,252,-1,252,251,253,-1,252,253,254,-1,254,253,255,-1,254,255,231,-1,231,255,256,-1,179,181,257,-1,183,185,258,-1,187,189,259,-1,191,193,260,-1,195,197,261,-1,203,262,263,-1,264,265,262,-1,262,265,266,-1,262,266,263,-1,203,202,267,-1,267,202,206,-1,267,206,268,-1,206,207,268,-1,268,207,208,-1,268,208,269,-1,270,271,272,-1,272,271,273,-1,272,273,264,-1,264,273,274,-1,264,274,265,-1,208,209,269,-1,269,209,210,-1,269,210,275,-1,276,277,270,-1,270,277,278,-1,270,278,271,-1,210,211,275,-1,275,211,212,-1,275,212,279,-1,261,280,276,-1,276,280,281,-1,276,281,277,-1,197,199,261,-1,261,199,282,-1,261,282,280,-1,193,195,260,-1,260,195,261,-1,260,261,283,-1,283,261,276,-1,283,276,284,-1,284,276,270,-1,284,270,285,-1,285,270,272,-1,285,272,286,-1,286,272,264,-1,286,264,287,-1,287,264,262,-1,287,262,203,-1,189,191,259,-1,259,191,260,-1,259,260,288,-1,288,260,283,-1,288,283,289,-1,289,283,284,-1,289,284,290,-1,290,284,285,-1,290,285,291,-1,291,285,286,-1,291,286,292,-1,292,286,287,-1,292,287,203,-1,185,187,258,-1,258,187,259,-1,258,259,293,-1,293,259,288,-1,293,288,294,-1,294,288,289,-1,294,289,295,-1,295,289,290,-1,295,290,296,-1,296,290,291,-1,296,291,297,-1,297,291,292,-1,297,292,203,-1,181,183,257,-1,257,183,258,-1,257,258,298,-1,298,258,293,-1,298,293,299,-1,299,293,294,-1,299,294,300,-1,300,294,295,-1,300,295,301,-1,301,295,296,-1,301,296,302,-1,302,296,297,-1,302,297,203,-1,177,179,303,-1,303,179,257,-1,303,257,279,-1,279,257,298,-1,279,298,275,-1,275,298,299,-1,275,299,269,-1,269,299,300,-1,269,300,268,-1,268,300,301,-1,268,301,267,-1,267,301,302,-1,267,302,203,-1,212,213,279,-1,279,213,214,-1,279,214,303,-1,303,214,215,-1,303,215,177,-1,177,215,175,-1,236,238,304,-1,240,242,305,-1,244,246,306,-1,248,250,307,-1,252,254,308,-1,217,309,218,-1,310,222,309,-1,309,222,221,-1,309,221,218,-1,217,311,312,-1,312,311,313,-1,312,313,314,-1,313,315,314,-1,314,315,316,-1,314,316,317,-1,318,225,319,-1,319,225,224,-1,319,224,310,-1,310,224,223,-1,310,223,222,-1,316,320,317,-1,317,320,321,-1,317,321,322,-1,323,227,318,-1,318,227,226,-1,318,226,225,-1,321,324,322,-1,322,324,325,-1,322,325,326,-1,308,229,323,-1,323,229,228,-1,323,228,227,-1,254,231,308,-1,308,231,230,-1,308,230,229,-1,250,252,307,-1,307,252,308,-1,307,308,327,-1,327,308,323,-1,327,323,328,-1,328,323,318,-1,328,318,329,-1,329,318,319,-1,329,319,330,-1,330,319,310,-1,330,310,331,-1,331,310,309,-1,331,309,217,-1,246,248,306,-1,306,248,307,-1,306,307,332,-1,332,307,327,-1,332,327,333,-1,333,327,328,-1,333,328,334,-1,334,328,329,-1,334,329,335,-1,335,329,330,-1,335,330,336,-1,336,330,331,-1,336,331,217,-1,242,244,305,-1,305,244,306,-1,305,306,337,-1,337,306,332,-1,337,332,338,-1,338,332,333,-1,338,333,339,-1,339,333,334,-1,339,334,340,-1,340,334,335,-1,340,335,341,-1,341,335,336,-1,341,336,217,-1,238,240,304,-1,304,240,305,-1,304,305,342,-1,342,305,337,-1,342,337,343,-1,343,337,338,-1,343,338,344,-1,344,338,339,-1,344,339,345,-1,345,339,340,-1,345,340,346,-1,346,340,341,-1,346,341,217,-1,234,236,347,-1,347,236,304,-1,347,304,326,-1,326,304,342,-1,326,342,322,-1,322,342,343,-1,322,343,317,-1,317,343,344,-1,317,344,314,-1,314,344,345,-1,314,345,312,-1,312,345,346,-1,312,346,217,-1,325,348,326,-1,326,348,349,-1,326,349,347,-1,347,349,350,-1,347,350,234,-1,234,350,232,-1,217,351,311,-1,311,351,352,-1,353,354,263,-1,263,354,355,-1,263,355,203,-1,352,353,311,-1,311,353,263,-1,311,263,313,-1,313,263,266,-1,313,266,315,-1,315,266,265,-1,315,265,316,-1,316,265,274,-1,316,274,320,-1,320,274,273,-1,320,273,321,-1,321,273,271,-1,321,271,324,-1,324,271,278,-1,324,278,325,-1,325,278,277,-1,325,277,348,-1,348,277,281,-1,348,281,349,-1,349,281,280,-1,349,280,350,-1,350,280,282,-1,350,282,232,-1,232,282,199,-1,356,357,200,-1,200,198,356,-1,356,198,196,-1,356,196,358,-1,196,194,358,-1,358,194,192,-1,358,192,359,-1,359,192,190,-1,359,190,360,-1,360,190,188,-1,360,188,361,-1,188,186,361,-1,361,186,184,-1,361,184,362,-1,176,363,178,-1,178,363,364,-1,178,364,180,-1,180,364,362,-1,180,362,182,-1,182,362,184,-1,363,365,364,-1,364,365,366,-1,364,366,362,-1,362,366,367,-1,362,367,361,-1,361,367,368,-1,361,368,360,-1,360,368,369,-1,360,369,359,-1,359,369,370,-1,359,370,358,-1,358,370,371,-1,358,371,356,-1,356,371,372,-1,356,372,357,-1,357,372,373,-1,365,374,366,-1,366,374,375,-1,366,375,367,-1,367,375,376,-1,367,376,368,-1,368,376,377,-1,368,377,369,-1,369,377,378,-1,369,378,370,-1,370,378,379,-1,370,379,371,-1,371,379,380,-1,371,380,372,-1,372,380,381,-1,372,381,373,-1,373,381,382,-1,374,383,375,-1,375,383,384,-1,375,384,376,-1,376,384,385,-1,376,385,377,-1,377,385,386,-1,377,386,378,-1,378,386,387,-1,378,387,379,-1,379,387,388,-1,379,388,380,-1,380,388,389,-1,380,389,381,-1,381,389,390,-1,381,390,382,-1,382,390,391,-1,383,392,384,-1,384,392,393,-1,384,393,385,-1,385,393,394,-1,385,394,386,-1,386,394,395,-1,386,395,387,-1,387,395,396,-1,387,396,388,-1,388,396,397,-1,388,397,389,-1,389,397,398,-1,389,398,390,-1,390,398,399,-1,390,399,391,-1,391,399,400,-1,392,401,393,-1,393,401,402,-1,393,402,394,-1,394,402,403,-1,394,403,395,-1,395,403,404,-1,395,404,396,-1,396,404,405,-1,396,405,397,-1,397,405,406,-1,397,406,398,-1,398,406,407,-1,398,407,399,-1,399,407,408,-1,399,408,400,-1,400,408,409,-1,410,401,411,-1,411,401,392,-1,411,392,412,-1,412,392,383,-1,412,383,413,-1,413,383,374,-1,413,374,414,-1,414,374,365,-1,414,365,415,-1,415,365,363,-1,415,363,25,-1,25,363,176,-1,409,416,400,-1,400,416,417,-1,400,417,391,-1,391,417,418,-1,391,418,382,-1,382,418,419,-1,382,419,373,-1,373,419,420,-1,373,420,357,-1,357,420,421,-1,357,421,200,-1,200,421,233,-1,422,415,25,-1,25,23,422,-1,422,23,21,-1,422,21,423,-1,21,19,423,-1,423,19,17,-1,423,17,424,-1,424,17,15,-1,424,15,425,-1,425,15,13,-1,425,13,426,-1,13,11,426,-1,426,11,9,-1,426,9,427,-1,1,428,3,-1,3,428,429,-1,3,429,5,-1,5,429,427,-1,5,427,7,-1,7,427,9,-1,428,430,429,-1,429,430,431,-1,429,431,427,-1,427,431,432,-1,427,432,426,-1,426,432,433,-1,426,433,425,-1,425,433,434,-1,425,434,424,-1,424,434,435,-1,424,435,423,-1,423,435,436,-1,423,436,422,-1,422,436,437,-1,422,437,415,-1,415,437,414,-1,430,438,431,-1,431,438,439,-1,431,439,432,-1,432,439,440,-1,432,440,433,-1,433,440,441,-1,433,441,434,-1,434,441,442,-1,434,442,435,-1,435,442,443,-1,435,443,436,-1,436,443,444,-1,436,444,437,-1,437,444,445,-1,437,445,414,-1,414,445,413,-1,438,446,439,-1,439,446,447,-1,439,447,440,-1,440,447,448,-1,440,448,441,-1,441,448,449,-1,441,449,442,-1,442,449,450,-1,442,450,443,-1,443,450,451,-1,443,451,444,-1,444,451,452,-1,444,452,445,-1,445,452,453,-1,445,453,413,-1,413,453,412,-1,446,454,447,-1,447,454,455,-1,447,455,448,-1,448,455,456,-1,448,456,449,-1,449,456,457,-1,449,457,450,-1,450,457,458,-1,450,458,451,-1,451,458,459,-1,451,459,452,-1,452,459,460,-1,452,460,453,-1,453,460,461,-1,453,461,412,-1,412,461,411,-1,454,462,455,-1,455,462,463,-1,455,463,456,-1,456,463,464,-1,456,464,457,-1,457,464,465,-1,457,465,458,-1,458,465,466,-1,458,466,459,-1,459,466,467,-1,459,467,460,-1,460,467,468,-1,460,468,461,-1,461,468,469,-1,461,469,411,-1,411,469,410,-1,470,471,256,-1,256,255,470,-1,470,255,253,-1,470,253,472,-1,253,251,472,-1,472,251,249,-1,472,249,473,-1,473,249,247,-1,473,247,474,-1,474,247,245,-1,474,245,475,-1,245,243,475,-1,475,243,241,-1,475,241,476,-1,233,421,235,-1,235,421,477,-1,235,477,237,-1,237,477,476,-1,237,476,239,-1,239,476,241,-1,421,420,477,-1,477,420,478,-1,477,478,476,-1,476,478,479,-1,476,479,475,-1,475,479,480,-1,475,480,474,-1,474,480,481,-1,474,481,473,-1,473,481,482,-1,473,482,472,-1,472,482,483,-1,472,483,470,-1,470,483,484,-1,470,484,471,-1,471,484,485,-1,420,419,478,-1,478,419,486,-1,478,486,479,-1,479,486,487,-1,479,487,480,-1,480,487,488,-1,480,488,481,-1,481,488,489,-1,481,489,482,-1,482,489,490,-1,482,490,483,-1,483,490,491,-1,483,491,484,-1,484,491,492,-1,484,492,485,-1,485,492,493,-1,419,418,486,-1,486,418,494,-1,486,494,487,-1,487,494,495,-1,487,495,488,-1,488,495,496,-1,488,496,489,-1,489,496,497,-1,489,497,490,-1,490,497,498,-1,490,498,491,-1,491,498,499,-1,491,499,492,-1,492,499,500,-1,492,500,493,-1,493,500,501,-1,418,417,494,-1,494,417,502,-1,494,502,495,-1,495,502,503,-1,495,503,496,-1,496,503,504,-1,496,504,497,-1,497,504,505,-1,497,505,498,-1,498,505,506,-1,498,506,499,-1,499,506,507,-1,499,507,500,-1,500,507,508,-1,500,508,501,-1,501,508,509,-1,417,416,502,-1,502,416,510,-1,502,510,503,-1,503,510,511,-1,503,511,504,-1,504,511,512,-1,504,512,505,-1,505,512,513,-1,505,513,506,-1,506,513,514,-1,506,514,507,-1,507,514,515,-1,507,515,508,-1,508,515,516,-1,508,516,509,-1,509,516,517,-1,518,462,519,-1,519,462,454,-1,519,454,520,-1,520,454,446,-1,520,446,521,-1,521,446,438,-1,521,438,522,-1,522,438,430,-1,522,430,523,-1,523,430,428,-1,523,428,80,-1,80,428,1,-1,517,524,509,-1,509,524,525,-1,509,525,501,-1,501,525,526,-1,501,526,493,-1,493,526,527,-1,493,527,485,-1,485,527,528,-1,485,528,471,-1,471,528,529,-1,471,529,256,-1,256,529,57,-1,530,523,80,-1,80,79,530,-1,530,79,77,-1,530,77,531,-1,77,75,531,-1,531,75,73,-1,531,73,532,-1,532,73,71,-1,532,71,533,-1,533,71,69,-1,533,69,534,-1,69,67,534,-1,534,67,65,-1,534,65,535,-1,57,529,59,-1,59,529,536,-1,59,536,61,-1,61,536,535,-1,61,535,63,-1,63,535,65,-1,529,528,536,-1,536,528,537,-1,536,537,535,-1,535,537,538,-1,535,538,534,-1,534,538,539,-1,534,539,533,-1,533,539,540,-1,533,540,532,-1,532,540,541,-1,532,541,531,-1,531,541,542,-1,531,542,530,-1,530,542,543,-1,530,543,523,-1,523,543,522,-1,528,527,537,-1,537,527,544,-1,537,544,538,-1,538,544,545,-1,538,545,539,-1,539,545,546,-1,539,546,540,-1,540,546,547,-1,540,547,541,-1,541,547,548,-1,541,548,542,-1,542,548,549,-1,542,549,543,-1,543,549,550,-1,543,550,522,-1,522,550,521,-1,527,526,544,-1,544,526,551,-1,544,551,545,-1,545,551,552,-1,545,552,546,-1,546,552,553,-1,546,553,547,-1,547,553,554,-1,547,554,548,-1,548,554,555,-1,548,555,549,-1,549,555,556,-1,549,556,550,-1,550,556,557,-1,550,557,521,-1,521,557,520,-1,526,525,551,-1,551,525,558,-1,551,558,552,-1,552,558,559,-1,552,559,553,-1,553,559,560,-1,553,560,554,-1,554,560,561,-1,554,561,555,-1,555,561,562,-1,555,562,556,-1,556,562,563,-1,556,563,557,-1,557,563,564,-1,557,564,520,-1,520,564,519,-1,525,524,558,-1,558,524,565,-1,558,565,559,-1,559,565,566,-1,559,566,560,-1,560,566,567,-1,560,567,561,-1,561,567,568,-1,561,568,562,-1,562,568,569,-1,562,569,563,-1,563,569,570,-1,563,570,564,-1,564,570,571,-1,564,571,519,-1,519,571,518,-1,
        ]
    }
}
Shape{
    appearance Appearance {
        material  Material 	{
            diffuseColor 0.2235294117647059 0.2235294117647059 0.2235294117647059
            specularColor 0.11372549019607843 0.11372549019607843 0.11372549019607843
            ambientIntensity 0.2235
            transparency 0.0
            shininess 0.5
        }
    }
    geometry IndexedFaceSet {
        ccw TRUE
        solid FALSE
        coord DEF co Coordinate {
            point [
                0.2045 -0.0368 0.4331, 0.2506 -0.1549 0.4331, 0.2045 -0.0368 0.437, 0.2506 -0.1549 0.437, 0.2333 -0.1549 0.4331, 0.2333 -0.1549 0.437, 0.2213 -0.1218 0.4331, 0.2213 -0.1218 0.437, 0.1725 -0.1218 0.4331, 0.1725 -0.1218 0.437, 0.1613 -0.1549 0.4331, 0.1613 -0.1549 0.437, 0.144 -0.1549 0.4331, 0.144 -0.1549 0.437, 0.1886 -0.0368 0.4331, 0.1886 -0.0368 0.437, 0.1765 -0.1088 0.4331, 0.216 -0.1088 0.4331, 0.1942 -0.0595 0.4331, 0.1953 -0.0554 0.4331, 0.196 -0.0512 0.4331, 0.1964 -0.0512 0.4331, 0.1972 -0.0554 0.4331, 0.1982 -0.0595 0.4331, 0.1765 -0.1088 0.437, 0.216 -0.1088 0.437, 0.1942 -0.0595 0.437, 0.1953 -0.0554 0.437, 0.196 -0.0512 0.437, 0.1964 -0.0512 0.437, 0.1972 -0.0554 0.437, 0.1982 -0.0595 0.437, 0.1166 -0.0681 0.4331, 0.1166 -0.0681 0.437, 0.1159 -0.075 0.437, 0.1159 -0.075 0.4331, 0.1136 -0.0814 0.437, 0.1136 -0.0814 0.4331, 0.1091 -0.0879 0.437, 0.1091 -0.0879 0.4331, 0.0925 -0.1018 0.437, 0.0925 -0.1018 0.4331, 0.0939 -0.0483 0.4331, 0.0939 -0.0483 0.437, 0.1007 -0.049 0.437, 0.1007 -0.049 0.4331, 0.1063 -0.0508 0.437, 0.1063 -0.0508 0.4331, 0.1099 -0.0531 0.437, 0.1099 -0.0531 0.4331, 0.1127 -0.0558 0.437, 0.1127 -0.0558 0.4331, 0.1147 -0.0591 0.437, 0.1147 -0.0591 0.4331, 0.1161 -0.063 0.437, 0.1161 -0.063 0.4331, 0.0648 -0.0627 0.4331, 0.0648 -0.0627 0.437, 0.0688 -0.0588 0.437, 0.0688 -0.0588 0.4331, 0.0769 -0.0531 0.437, 0.0769 -0.0531 0.4331, 0.085 -0.0496 0.437, 0.085 -0.0496 0.4331, 0.0648 -0.0482 0.4331, 0.0648 -0.0482 0.437, 0.0953 -0.0354 0.4331, 0.0953 -0.0354 0.437, 0.0901 -0.0356 0.437, 0.0901 -0.0356 0.4331, 0.0878 -0.0361 0.437, 0.0808 -0.0376 0.4331, 0.0808 -0.0376 0.437, 0.0728 -0.0415 0.437, 0.0728 -0.0415 0.4331, 0.103 -0.0361 0.437, 0.1054 -0.0363 0.4331, 0.1054 -0.0363 0.437, 0.1133 -0.0388 0.4331, 0.1133 -0.0388 0.437, 0.1205 -0.0433 0.4331, 0.1205 -0.0433 0.437, 0.1252 -0.0482 0.4331, 0.1252 -0.0482 0.437, 0.1284 -0.0537 0.4331, 0.1284 -0.0537 0.437, 0.1304 -0.0599 0.4331, 0.1304 -0.0599 0.437, 0.131 -0.067 0.4331, 0.131 -0.067 0.437, 0.1046 -0.109 0.4331, 0.1046 -0.109 0.437, 0.1105 -0.1047 0.437, 0.1105 -0.1047 0.4331, 0.1218 -0.094 0.437, 0.1218 -0.094 0.4331, 0.1266 -0.0869 0.437, 0.1266 -0.0869 0.4331, 0.1299 -0.0778 0.437, 0.1299 -0.0778 0.4331, 0.0759 -0.1419 0.4331, 0.0759 -0.1419 0.437, 0.0765 -0.1364 0.437, 0.0765 -0.1364 0.4331, 0.0779 -0.1322 0.437, 0.0779 -0.1322 0.4331, 0.0805 -0.1281 0.437, 0.0805 -0.1281 0.4331, 0.0862 -0.1225 0.437, 0.0862 -0.1225 0.4331, 0.1339 -0.1419 0.4331, 0.1339 -0.1419 0.437, 0.1339 -0.1549 0.4331, 0.1339 -0.1549 0.437, 0.0604 -0.1549 0.4331, 0.0604 -0.1549 0.437, 0.0604 -0.149 0.4331, 0.0604 -0.149 0.437, 0.0912 -0.1027 0.437, 0.0912 -0.1027 0.4331, 0.0789 -0.1121 0.437, 0.0789 -0.1121 0.4331, 0.0692 -0.1217 0.437, 0.0692 -0.1217 0.4331, 0.0644 -0.1292 0.437, 0.0644 -0.1292 0.4331, 0.0615 -0.1379 0.437, 0.0615 -0.1379 0.4331, 0.0187 -0.1549 0.4331, 0.0043 -0.1549 0.4331, 0.0187 -0.1549 0.437, 0.0043 -0.1549 0.437, 0.0043 -0.0546 0.4331, 0.0043 -0.0546 0.437, -0.0231 -0.0685 0.4331, -0.0231 -0.0685 0.437, -0.0209 -0.0679 0.437, -0.0209 -0.0679 0.4331, -0.0066 -0.0619 0.437, -0.0066 -0.0619 0.4331, -0.0231 -0.0541 0.4331, -0.0231 -0.0541 0.437, -0.0041 -0.0464 0.4331, 0.0131 -0.0354 0.4331, 0.0131 -0.0354 0.437, 0.012 -0.0361 0.437, -0.0041 -0.0464 0.437, 0.0187 -0.0354 0.4331, 0.0187 -0.0354 0.437, 0.0187 -0.0361 0.437, -0.0476 -0.1358 0.4331, -0.0476 -0.1488 0.4331, -0.0476 -0.1358 0.437, -0.0476 -0.1488 0.437, -0.0602 -0.1539 0.4331, -0.0801 -0.1563 0.4331, -0.0801 -0.1563 0.437, -0.0769 -0.1563 0.437, -0.0769 -0.1563 0.4331, -0.0721 -0.1556 0.437, -0.0602 -0.1539 0.437, -0.1354 -0.0981 0.4331, -0.1354 -0.0981 0.437, -0.1343 -0.1118 0.437, -0.1343 -0.1118 0.4331, -0.1307 -0.1243 0.437, -0.1307 -0.1243 0.4331, -0.1245 -0.1355 0.437, -0.1245 -0.1355 0.4331, -0.1156 -0.1448 0.437, -0.1156 -0.1448 0.4331, -0.1061 -0.1509 0.437, -0.1061 -0.1509 0.4331, -0.0946 -0.1548 0.437, -0.0946 -0.1548 0.4331, -0.087 -0.1556 0.437, -0.0754 -0.0354 0.4331, -0.0754 -0.0354 0.437, -0.0872 -0.0363 0.4331, -0.0842 -0.0361 0.437, -0.0872 -0.0363 0.437, -0.1004 -0.0401 0.437, -0.1004 -0.0401 0.4331, -0.1116 -0.0466 0.437, -0.1116 -0.0466 0.4331, -0.1223 -0.0569 0.437, -0.1223 -0.0569 0.4331, -0.1292 -0.0679 0.437, -0.1292 -0.0679 0.4331, -0.1337 -0.0813 0.437, -0.1337 -0.0813 0.4331, -0.0649 -0.0361 0.437, -0.0612 -0.0363 0.4331, -0.0612 -0.0363 0.437, -0.0476 -0.04 0.4331, -0.0476 -0.04 0.437, -0.0476 -0.0559 0.4331, -0.0476 -0.0559 0.437, -0.0752 -0.0483 0.4331, -0.0752 -0.0483 0.437, -0.0609 -0.0502 0.437, -0.0609 -0.0502 0.4331, -0.1196 -0.0971 0.4331, -0.1196 -0.0971 0.437, -0.119 -0.0879 0.437, -0.119 -0.0879 0.4331, -0.1159 -0.0753 0.437, -0.1159 -0.0753 0.4331, -0.111 -0.0662 0.437, -0.111 -0.0662 0.4331, -0.1039 -0.0583 0.437, -0.1039 -0.0583 0.4331, -0.0957 -0.0528 0.437, -0.0957 -0.0528 0.4331, -0.0869 -0.0496 0.437, -0.0869 -0.0496 0.4331, -0.0779 -0.1434 0.4331, -0.0779 -0.1434 0.437, -0.0889 -0.1421 0.437, -0.0889 -0.1421 0.4331, -0.0975 -0.139 0.437, -0.0975 -0.139 0.4331, -0.1048 -0.1341 0.437, -0.1048 -0.1341 0.4331, -0.1103 -0.1282 0.437, -0.1103 -0.1282 0.4331, -0.1152 -0.1201 0.437, -0.1152 -0.1201 0.4331, -0.1184 -0.1099 0.437, -0.1184 -0.1099 0.4331, -0.0497 -0.137 0.437, -0.0497 -0.137 0.4331, -0.0622 -0.1416 0.437, -0.0622 -0.1416 0.4331, -0.1902 -0.0368 0.4331, -0.1441 -0.1549 0.4331, -0.1902 -0.0368 0.437, -0.1441 -0.1549 0.437, -0.1614 -0.1549 0.4331, -0.1614 -0.1549 0.437, -0.1733 -0.1218 0.4331, -0.1733 -0.1218 0.437, -0.2221 -0.1218 0.4331, -0.2221 -0.1218 0.437, -0.2334 -0.1549 0.4331, -0.2334 -0.1549 0.437, -0.2507 -0.1549 0.4331, -0.2507 -0.1549 0.437, -0.206 -0.0368 0.4331, -0.206 -0.0368 0.437, -0.2181 -0.1088 0.4331, -0.1786 -0.1088 0.4331, -0.2005 -0.0595 0.4331, -0.1994 -0.0554 0.4331, -0.1986 -0.0512 0.4331, -0.1982 -0.0512 0.4331, -0.1975 -0.0554 0.4331, -0.1964 -0.0595 0.4331, -0.2181 -0.1088 0.437, -0.1786 -0.1088 0.437, -0.2005 -0.0595 0.437, -0.1994 -0.0554 0.437, -0.1986 -0.0512 0.437, -0.1982 -0.0512 0.437, -0.1975 -0.0554 0.437, -0.1964 -0.0595 0.437
            ]
        }
        coordIndex [
            0,1,2,-1,2,1,3,-1,1,4,3,-1,3,4,5,-1,4,6,5,-1,5,6,7,-1,6,8,7,-1,7,8,9,-1,8,10,9,-1,9,10,11,-1,10,12,11,-1,11,12,13,-1,12,14,13,-1,13,14,15,-1,14,0,15,-1,15,0,2,-1,16,8,17,-1,17,8,6,-1,18,14,16,-1,16,14,12,-1,16,12,8,-1,8,12,10,-1,18,19,14,-1,14,19,20,-1,14,20,0,-1,0,20,21,-1,0,21,22,-1,22,23,0,-1,0,23,17,-1,0,17,1,-1,1,17,6,-1,1,6,4,-1,16,17,24,-1,24,17,25,-1,18,16,26,-1,26,16,24,-1,18,26,27,-1,18,27,19,-1,19,27,28,-1,19,28,20,-1,21,20,29,-1,29,20,28,-1,21,29,30,-1,21,30,22,-1,22,30,31,-1,22,31,23,-1,17,23,25,-1,25,23,31,-1,32,33,34,-1,32,34,35,-1,35,34,36,-1,35,36,37,-1,37,36,38,-1,37,38,39,-1,39,38,40,-1,39,40,41,-1,42,43,44,-1,42,44,45,-1,45,44,46,-1,45,46,47,-1,47,46,48,-1,47,48,49,-1,49,48,50,-1,49,50,51,-1,51,50,52,-1,51,52,53,-1,53,52,54,-1,53,54,55,-1,55,54,33,-1,55,33,32,-1,56,57,58,-1,56,58,59,-1,59,58,60,-1,59,60,61,-1,61,60,62,-1,61,62,63,-1,63,62,43,-1,63,43,42,-1,56,64,57,-1,57,64,65,-1,66,67,68,-1,66,68,69,-1,69,68,70,-1,69,70,71,-1,70,72,71,-1,71,72,73,-1,71,73,74,-1,74,73,65,-1,74,65,64,-1,67,66,75,-1,75,66,76,-1,75,76,77,-1,77,76,78,-1,77,78,79,-1,79,78,80,-1,79,80,81,-1,81,80,82,-1,81,82,83,-1,83,82,84,-1,83,84,85,-1,85,84,86,-1,85,86,87,-1,87,86,88,-1,87,88,89,-1,90,91,92,-1,90,92,93,-1,93,92,94,-1,93,94,95,-1,95,94,96,-1,95,96,97,-1,97,96,98,-1,97,98,99,-1,99,98,89,-1,99,89,88,-1,100,101,102,-1,100,102,103,-1,103,102,104,-1,103,104,105,-1,105,104,106,-1,105,106,107,-1,107,106,108,-1,107,108,109,-1,109,108,91,-1,109,91,90,-1,100,110,101,-1,101,110,111,-1,110,112,111,-1,111,112,113,-1,112,114,113,-1,113,114,115,-1,114,116,115,-1,115,116,117,-1,41,40,118,-1,41,118,119,-1,119,118,120,-1,119,120,121,-1,121,120,122,-1,121,122,123,-1,123,122,124,-1,123,124,125,-1,125,124,126,-1,125,126,127,-1,127,126,117,-1,127,117,116,-1,112,110,114,-1,114,110,100,-1,42,69,63,-1,63,69,71,-1,63,71,61,-1,61,71,74,-1,61,74,59,-1,59,74,64,-1,59,64,56,-1,39,41,90,-1,90,41,119,-1,90,119,109,-1,109,119,121,-1,109,121,107,-1,107,121,123,-1,107,123,105,-1,105,123,125,-1,105,125,103,-1,103,125,127,-1,103,127,100,-1,100,127,116,-1,100,116,114,-1,90,93,39,-1,39,93,95,-1,39,95,37,-1,37,95,97,-1,37,97,35,-1,35,97,99,-1,35,99,32,-1,32,99,88,-1,32,88,55,-1,55,88,86,-1,55,86,53,-1,53,86,84,-1,53,84,51,-1,51,84,82,-1,51,82,49,-1,49,82,80,-1,49,80,47,-1,47,80,78,-1,47,78,45,-1,45,78,76,-1,45,76,42,-1,42,76,66,-1,42,66,69,-1,128,129,130,-1,130,129,131,-1,129,132,131,-1,131,132,133,-1,134,135,136,-1,134,136,137,-1,137,136,138,-1,137,138,139,-1,139,138,133,-1,139,133,132,-1,134,140,135,-1,135,140,141,-1,141,140,142,-1,143,144,145,-1,143,145,142,-1,142,145,146,-1,142,146,141,-1,143,147,144,-1,144,147,148,-1,148,147,149,-1,149,147,128,-1,149,128,130,-1,129,128,132,-1,132,128,147,-1,147,143,132,-1,132,143,142,-1,132,142,139,-1,139,142,140,-1,139,140,137,-1,137,140,134,-1,150,151,152,-1,152,151,153,-1,153,151,154,-1,155,156,157,-1,155,157,158,-1,158,157,159,-1,158,159,154,-1,154,159,160,-1,154,160,153,-1,161,162,163,-1,161,163,164,-1,164,163,165,-1,164,165,166,-1,166,165,167,-1,166,167,168,-1,168,167,169,-1,168,169,170,-1,170,169,171,-1,170,171,172,-1,172,171,173,-1,172,173,174,-1,174,173,155,-1,155,173,175,-1,155,175,156,-1,176,177,178,-1,178,177,179,-1,179,180,178,-1,178,180,181,-1,178,181,182,-1,182,181,183,-1,182,183,184,-1,184,183,185,-1,184,185,186,-1,186,185,187,-1,186,187,188,-1,188,187,189,-1,188,189,190,-1,190,189,162,-1,190,162,161,-1,177,176,191,-1,191,176,192,-1,191,192,193,-1,193,192,194,-1,193,194,195,-1,194,196,195,-1,195,196,197,-1,198,199,200,-1,198,200,201,-1,201,200,197,-1,201,197,196,-1,202,203,204,-1,202,204,205,-1,205,204,206,-1,205,206,207,-1,207,206,208,-1,207,208,209,-1,209,208,210,-1,209,210,211,-1,211,210,212,-1,211,212,213,-1,213,212,214,-1,213,214,215,-1,215,214,199,-1,215,199,198,-1,216,217,218,-1,216,218,219,-1,219,218,220,-1,219,220,221,-1,221,220,222,-1,221,222,223,-1,223,222,224,-1,223,224,225,-1,225,224,226,-1,225,226,227,-1,227,226,228,-1,227,228,229,-1,229,228,203,-1,229,203,202,-1,150,152,230,-1,150,230,231,-1,231,230,232,-1,231,232,233,-1,233,232,217,-1,233,217,216,-1,219,155,216,-1,216,155,158,-1,216,158,233,-1,233,158,154,-1,233,154,231,-1,231,154,151,-1,231,151,150,-1,196,194,201,-1,201,194,192,-1,201,192,198,-1,198,192,176,-1,198,176,215,-1,215,176,178,-1,215,178,213,-1,213,178,182,-1,213,182,211,-1,211,182,184,-1,211,184,209,-1,209,184,186,-1,209,186,207,-1,207,186,188,-1,207,188,205,-1,205,188,190,-1,205,190,202,-1,202,190,161,-1,202,161,229,-1,229,161,164,-1,229,164,227,-1,227,164,166,-1,227,166,225,-1,225,166,168,-1,225,168,223,-1,223,168,170,-1,223,170,221,-1,221,170,172,-1,221,172,219,-1,219,172,174,-1,219,174,155,-1,234,235,236,-1,236,235,237,-1,235,238,237,-1,237,238,239,-1,238,240,239,-1,239,240,241,-1,240,242,241,-1,241,242,243,-1,242,244,243,-1,243,244,245,-1,244,246,245,-1,245,246,247,-1,246,248,247,-1,247,248,249,-1,248,234,249,-1,249,234,236,-1,250,242,251,-1,251,242,240,-1,252,248,250,-1,250,248,246,-1,250,246,242,-1,242,246,244,-1,252,253,248,-1,248,253,254,-1,248,254,234,-1,234,254,255,-1,234,255,256,-1,256,257,234,-1,234,257,251,-1,234,251,235,-1,235,251,240,-1,235,240,238,-1,250,251,258,-1,258,251,259,-1,252,250,260,-1,260,250,258,-1,252,260,261,-1,252,261,253,-1,253,261,262,-1,253,262,254,-1,255,254,263,-1,263,254,262,-1,255,263,264,-1,255,264,256,-1,256,264,265,-1,256,265,257,-1,251,257,259,-1,259,257,265,-1,
        ]
    }
}
Shape{
    appearance Appearance {
        material  Material 	{
            diffuseColor 0.8509803921568627 0.8509803921568627 0.8509803921568627
            specularColor 0.4235294117647059 0.4235294117647059 0.4235294117647059
            ambientIntensity 0.851
            transparency 0.0
            shininess 0.5
        }
    }
    geometry IndexedFaceSet {
        ccw TRUE
        solid FALSE
        coord DEF co Coordinate {
            point [
                0.1765 -0.1088 0.437, 0.216 -0.1088 0.437, 0.1942 -0.0595 0.437, 0.1982 -0.0595 0.437, 0.1953 -0.0554 0.437, 0.1972 -0.0554 0.437, 0.196 -0.0512 0.437, 0.1964 -0.0512 0.437, -0.2181 -0.1088 0.437, -0.1786 -0.1088 0.437, -0.2005 -0.0595 0.437, -0.1964 -0.0595 0.437, -0.1994 -0.0554 0.437, -0.1975 -0.0554 0.437, -0.1986 -0.0512 0.437, -0.1982 -0.0512 0.437
            ]
        }
        coordIndex [
            0,1,2,-1,2,1,3,-1,2,3,4,-1,4,3,5,-1,4,5,6,-1,6,5,7,-1,8,9,10,-1,10,9,11,-1,10,11,12,-1,12,11,13,-1,12,13,14,-1,14,13,15,-1,
        ]
    }
}
Shape{
    appearance Appearance {
        material  Material 	{
            diffuseColor 0.2235294117647059 0.2235294117647059 0.2235294117647059
            specularColor 0.11372549019607843 0.11372549019607843 0.11372549019607843
            ambientIntensity 0.2235
            transparency 0.0
            shininess 0.5
        }
    }
    geometry IndexedFaceSet {
        ccw TRUE
        solid FALSE
        coord DEF co Coordinate {
            point [
                -0.2003 0.058 0.0039, -0.2003 0.058 0.0079, -0.2246 -0.0045 0.0039, -0.2464 -0.0601 0.0079, -0.2464 -0.0601 0.0039, -0.2291 -0.0601 0.0079, -0.2291 -0.0601 0.0039, -0.2171 -0.027 0.0079, -0.2171 -0.027 0.0039, -0.1683 -0.027 0.0079, -0.1683 -0.027 0.0039, -0.1585 -0.0559 0.0039, -0.1571 -0.0601 0.0079, -0.1571 -0.0601 0.0039, -0.1398 -0.0601 0.0079, -0.1398 -0.0601 0.0039, -0.1844 0.058 0.0079, -0.1844 0.058 0.0039, -0.1608 -0.0045 0.0039, -0.1585 -0.0106 0.0039, -0.1723 -0.014 0.0079, -0.2118 -0.014 0.0079, -0.1899 0.0353 0.0079, -0.1911 0.0394 0.0079, -0.1918 0.0436 0.0079, -0.1922 0.0436 0.0079, -0.193 0.0394 0.0079, -0.194 0.0353 0.0079, -0.1723 -0.014 0.0039, -0.2118 -0.014 0.0039, -0.1899 0.0353 0.0039, -0.1911 0.0394 0.0039, -0.1918 0.0436 0.0039, -0.1922 0.0436 0.0039, -0.193 0.0394 0.0039, -0.194 0.0353 0.0039, -0.0682 -0.0601 0.0079, -0.0361 -0.0601 0.0079, -0.0682 -0.0601 0.0039, -0.0361 -0.0601 0.0039, -0.0361 -0.0045 0.0039, -0.0361 0.058 0.0079, -0.0361 0.058 0.0039, -0.0694 0.058 0.0079, -0.0694 0.058 0.0039, -0.1311 0.0004 0.0079, -0.1311 0.0004 0.0039, -0.1303 0.0115 0.0039, -0.1303 0.0115 0.0079, -0.1271 0.0231 0.0039, -0.1271 0.0231 0.0079, -0.1216 0.0333 0.0039, -0.1216 0.0333 0.0079, -0.1133 0.0426 0.0039, -0.1133 0.0426 0.0079, -0.1131 0.0427 0.0039, -0.1131 0.0427 0.0079, -0.1003 0.0513 0.0039, -0.1003 0.0513 0.0079, -0.0865 0.0561 0.0039, -0.0865 0.0561 0.0079, -0.0828 -0.0589 0.0039, -0.0828 -0.0589 0.0079, -0.0964 -0.0548 0.0039, -0.0964 -0.0548 0.0079, -0.1087 -0.0476 0.0039, -0.1087 -0.0476 0.0079, -0.1185 -0.0383 0.0039, -0.1185 -0.0383 0.0079, -0.1252 -0.0278 0.0039, -0.1252 -0.0278 0.0079, -0.1295 -0.0154 0.0039, -0.1295 -0.0154 0.0079, -0.1306 -0.0045 0.0039, -0.1074 0.0284 0.0079, -0.1017 0.0345 0.0079, -0.0931 0.0401 0.0079, -0.0833 0.0435 0.0079, -0.0693 0.045 0.0079, -0.0519 0.045 0.0079, -0.0519 -0.0472 0.0079, -0.0687 -0.0472 0.0079, -0.0811 -0.046 0.0079, -0.0911 -0.0429 0.0079, -0.0991 -0.0381 0.0079, -0.1057 -0.0316 0.0079, -0.1107 -0.0234 0.0079, -0.1142 -0.0123 0.0079, -0.1153 0.0001 0.0079, -0.1143 0.0118 0.0079, -0.1115 0.0212 0.0079, -0.0693 0.045 0.0039, -0.0519 0.045 0.0039, -0.0833 0.0435 0.0039, -0.0931 0.0401 0.0039, -0.1017 0.0345 0.0039, -0.1074 0.0284 0.0039, -0.1115 0.0212 0.0039, -0.1143 0.0118 0.0039, -0.1153 0.0001 0.0039, -0.1142 -0.0123 0.0039, -0.1107 -0.0234 0.0039, -0.1057 -0.0316 0.0039, -0.0991 -0.0381 0.0039, -0.0911 -0.0429 0.0039, -0.0811 -0.046 0.0039, -0.0687 -0.0472 0.0039, -0.0519 -0.0472 0.0039, -0.013 -0.0472 0.0079, -0.013 -0.0601 0.0079, -0.013 -0.0472 0.0039, -0.013 -0.0601 0.0039, 0.0504 -0.0601 0.0079, 0.0504 -0.0601 0.0039, 0.0504 -0.0045 0.0039, 0.0504 0.058 0.0079, 0.0504 0.058 0.0039, -0.0101 0.058 0.0079, -0.0101 0.058 0.0039, -0.0101 0.045 0.0079, -0.0101 0.045 0.0039, 0.0345 0.045 0.0079, 0.0345 0.045 0.0039, 0.0345 0.0061 0.0079, 0.0345 0.0061 0.0039, -0.0073 0.0061 0.0079, -0.0073 0.0061 0.0039, -0.0073 -0.0045 0.0039, -0.0073 -0.0068 0.0079, -0.0073 -0.0068 0.0039, 0.0345 -0.0068 0.0079, 0.0345 -0.0068 0.0039, 0.0345 -0.0472 0.0079, 0.0345 -0.0472 0.0039, 0.0734 -0.0411 0.0079, 0.0734 -0.054 0.0079, 0.0734 -0.0411 0.0039, 0.0734 -0.054 0.0039, 0.1059 -0.0616 0.0079, 0.1059 -0.0616 0.0039, 0.1027 -0.0615 0.0039, 0.1027 -0.0615 0.0079, 0.086 -0.0592 0.0039, 0.086 -0.0592 0.0079, 0.1613 -0.0033 0.0079, 0.1613 -0.0033 0.0039, 0.1612 -0.0045 0.0039, 0.1601 -0.017 0.0079, 0.1601 -0.017 0.0039, 0.1566 -0.0295 0.0039, 0.1566 -0.0295 0.0079, 0.1503 -0.0407 0.0039, 0.1503 -0.0407 0.0079, 0.1414 -0.0501 0.0039, 0.1414 -0.0501 0.0079, 0.1319 -0.0561 0.0039, 0.1319 -0.0561 0.0079, 0.1205 -0.0601 0.0039, 0.1205 -0.0601 0.0079, 0.1012 0.0594 0.0079, 0.1012 0.0594 0.0039, 0.1131 0.0584 0.0079, 0.11 0.0587 0.0039, 0.1131 0.0584 0.0039, 0.1262 0.0546 0.0039, 0.1262 0.0546 0.0079, 0.1375 0.0482 0.0039, 0.1375 0.0482 0.0079, 0.1481 0.0379 0.0039, 0.1481 0.0379 0.0079, 0.155 0.0269 0.0039, 0.155 0.0269 0.0079, 0.1596 0.0135 0.0039, 0.1596 0.0135 0.0079, 0.0908 0.0587 0.0039, 0.0871 0.0584 0.0079, 0.0871 0.0584 0.0039, 0.0734 0.0547 0.0079, 0.0734 0.0547 0.0039, 0.0734 0.0389 0.0079, 0.0734 0.0389 0.0039, 0.1011 0.0464 0.0079, 0.1011 0.0464 0.0039, 0.0867 0.0446 0.0039, 0.0867 0.0446 0.0079, 0.1454 -0.0023 0.0079, 0.1454 -0.0023 0.0039, 0.1449 0.0068 0.0039, 0.1449 0.0068 0.0079, 0.1417 0.0195 0.0039, 0.1417 0.0195 0.0079, 0.1368 0.0286 0.0039, 0.1368 0.0286 0.0079, 0.1297 0.0365 0.0039, 0.1297 0.0365 0.0079, 0.1215 0.0419 0.0039, 0.1215 0.0419 0.0079, 0.1127 0.0451 0.0039, 0.1127 0.0451 0.0079, 0.1452 -0.0045 0.0039, 0.1442 -0.0151 0.0079, 0.1442 -0.0151 0.0039, 0.141 -0.0253 0.0079, 0.141 -0.0253 0.0039, 0.1361 -0.0335 0.0079, 0.1361 -0.0335 0.0039, 0.1306 -0.0393 0.0079, 0.1306 -0.0393 0.0039, 0.1233 -0.0442 0.0079, 0.1233 -0.0442 0.0039, 0.1147 -0.0474 0.0079, 0.1147 -0.0474 0.0039, 0.1037 -0.0486 0.0079, 0.1037 -0.0486 0.0039, 0.0755 -0.0422 0.0039, 0.0755 -0.0422 0.0079, 0.088 -0.0469 0.0039, 0.088 -0.0469 0.0079, 0.1714 -0.0472 0.0079, 0.1714 -0.0601 0.0079, 0.1714 -0.0472 0.0039, 0.1714 -0.0601 0.0039, 0.2318 -0.0601 0.0079, 0.2318 -0.0601 0.0039, 0.1742 -0.0601 0.0039, 0.2318 -0.0045 0.0039, 0.2318 0.058 0.0079, 0.2318 0.058 0.0039, 0.216 0.058 0.0079, 0.216 0.058 0.0039, 0.216 -0.0045 0.0039, 0.216 -0.0472 0.0079, 0.216 -0.0472 0.0039, 0.1742 -0.0472 0.0039
            ]
        }
        coordIndex [
            0,1,2,-1,2,1,3,-1,2,3,4,-1,3,5,4,-1,4,5,6,-1,5,7,6,-1,6,7,8,-1,7,9,8,-1,8,9,10,-1,10,9,11,-1,11,9,12,-1,11,12,13,-1,12,14,13,-1,13,14,15,-1,16,17,18,-1,16,18,14,-1,14,18,19,-1,14,19,15,-1,16,1,17,-1,17,1,0,-1,20,9,21,-1,21,9,7,-1,22,16,20,-1,20,16,14,-1,20,14,9,-1,9,14,12,-1,22,23,16,-1,16,23,24,-1,16,24,1,-1,1,24,25,-1,1,25,26,-1,26,27,1,-1,1,27,21,-1,1,21,3,-1,3,21,7,-1,3,7,5,-1,20,21,28,-1,28,21,29,-1,22,20,30,-1,30,20,28,-1,22,30,31,-1,22,31,23,-1,23,31,32,-1,23,32,24,-1,25,24,33,-1,33,24,32,-1,25,33,34,-1,25,34,26,-1,26,34,35,-1,26,35,27,-1,21,27,29,-1,29,27,35,-1,36,37,38,-1,38,37,39,-1,39,37,40,-1,40,37,41,-1,40,41,42,-1,41,43,42,-1,42,43,44,-1,45,46,47,-1,45,47,48,-1,48,47,49,-1,48,49,50,-1,50,49,51,-1,50,51,52,-1,52,51,53,-1,52,53,54,-1,54,53,55,-1,54,55,56,-1,56,55,57,-1,56,57,58,-1,58,57,59,-1,58,59,60,-1,60,59,44,-1,60,44,43,-1,36,38,61,-1,36,61,62,-1,62,61,63,-1,62,63,64,-1,64,63,65,-1,64,65,66,-1,66,65,67,-1,66,67,68,-1,68,67,69,-1,68,69,70,-1,70,69,71,-1,70,71,72,-1,72,71,45,-1,45,71,73,-1,45,73,46,-1,50,52,74,-1,74,52,54,-1,74,54,75,-1,75,54,56,-1,75,56,76,-1,76,56,58,-1,76,58,77,-1,77,58,60,-1,77,60,78,-1,78,60,43,-1,78,43,79,-1,79,43,41,-1,79,41,80,-1,80,41,37,-1,80,37,81,-1,81,37,36,-1,81,36,82,-1,82,36,62,-1,82,62,83,-1,83,62,64,-1,83,64,84,-1,84,64,66,-1,84,66,85,-1,85,66,68,-1,85,68,86,-1,86,68,70,-1,86,70,87,-1,87,70,72,-1,87,72,88,-1,88,72,45,-1,88,45,89,-1,89,45,48,-1,89,48,90,-1,90,48,50,-1,90,50,74,-1,78,79,91,-1,91,79,92,-1,78,91,93,-1,78,93,77,-1,77,93,94,-1,77,94,76,-1,76,94,95,-1,76,95,75,-1,75,95,96,-1,75,96,74,-1,74,96,97,-1,74,97,90,-1,90,97,98,-1,90,98,89,-1,89,98,99,-1,89,99,88,-1,88,99,100,-1,88,100,87,-1,87,100,101,-1,87,101,86,-1,86,101,102,-1,86,102,85,-1,85,102,103,-1,85,103,84,-1,84,103,104,-1,84,104,83,-1,83,104,105,-1,83,105,82,-1,82,105,106,-1,82,106,81,-1,80,81,107,-1,107,81,106,-1,79,80,92,-1,92,80,107,-1,108,109,110,-1,110,109,111,-1,109,112,111,-1,111,112,113,-1,113,112,114,-1,114,112,115,-1,114,115,116,-1,115,117,116,-1,116,117,118,-1,117,119,118,-1,118,119,120,-1,119,121,120,-1,120,121,122,-1,121,123,122,-1,122,123,124,-1,123,125,124,-1,124,125,126,-1,126,125,127,-1,127,125,128,-1,127,128,129,-1,128,130,129,-1,129,130,131,-1,130,132,131,-1,131,132,133,-1,132,108,133,-1,133,108,110,-1,112,109,108,-1,108,132,112,-1,112,132,130,-1,112,130,115,-1,119,117,121,-1,121,117,115,-1,121,115,123,-1,123,115,130,-1,123,130,125,-1,125,130,128,-1,134,135,136,-1,136,135,137,-1,138,139,140,-1,138,140,141,-1,141,140,142,-1,141,142,143,-1,143,142,137,-1,143,137,135,-1,144,145,146,-1,144,146,147,-1,146,148,147,-1,147,148,149,-1,147,149,150,-1,150,149,151,-1,150,151,152,-1,152,151,153,-1,152,153,154,-1,154,153,155,-1,154,155,156,-1,156,155,157,-1,156,157,158,-1,158,157,139,-1,158,139,138,-1,159,160,161,-1,161,160,162,-1,162,163,161,-1,161,163,164,-1,161,164,165,-1,165,164,166,-1,165,166,167,-1,167,166,168,-1,167,168,169,-1,169,168,170,-1,169,170,171,-1,171,170,172,-1,171,172,173,-1,173,172,145,-1,173,145,144,-1,160,159,174,-1,174,159,175,-1,174,175,176,-1,176,175,177,-1,176,177,178,-1,177,179,178,-1,178,179,180,-1,181,182,183,-1,181,183,184,-1,184,183,180,-1,184,180,179,-1,185,186,187,-1,185,187,188,-1,188,187,189,-1,188,189,190,-1,190,189,191,-1,190,191,192,-1,192,191,193,-1,192,193,194,-1,194,193,195,-1,194,195,196,-1,196,195,197,-1,196,197,198,-1,198,197,182,-1,198,182,181,-1,186,185,199,-1,199,185,200,-1,199,200,201,-1,201,200,202,-1,201,202,203,-1,203,202,204,-1,203,204,205,-1,205,204,206,-1,205,206,207,-1,207,206,208,-1,207,208,209,-1,209,208,210,-1,209,210,211,-1,211,210,212,-1,211,212,213,-1,134,136,214,-1,134,214,215,-1,215,214,216,-1,215,216,217,-1,217,216,213,-1,217,213,212,-1,210,138,212,-1,212,138,141,-1,212,141,217,-1,217,141,143,-1,217,143,215,-1,215,143,135,-1,215,135,134,-1,179,177,184,-1,184,177,175,-1,184,175,181,-1,181,175,159,-1,181,159,198,-1,198,159,161,-1,198,161,196,-1,196,161,165,-1,196,165,194,-1,194,165,167,-1,194,167,192,-1,192,167,169,-1,192,169,190,-1,190,169,171,-1,190,171,188,-1,188,171,173,-1,188,173,185,-1,185,173,144,-1,185,144,200,-1,200,144,147,-1,200,147,202,-1,202,147,150,-1,202,150,204,-1,204,150,152,-1,204,152,206,-1,206,152,154,-1,206,154,208,-1,208,154,156,-1,208,156,210,-1,210,156,158,-1,210,158,138,-1,218,219,220,-1,220,219,221,-1,222,223,219,-1,219,223,224,-1,219,224,221,-1,223,222,225,-1,225,222,226,-1,225,226,227,-1,226,228,227,-1,227,228,229,-1,229,228,230,-1,230,228,231,-1,230,231,232,-1,232,231,233,-1,233,231,218,-1,233,218,220,-1,228,226,231,-1,231,226,222,-1,231,222,218,-1,218,222,219,-1,
        ]
    }
}
Shape{
    appearance Appearance {
        material  Material 	{
            diffuseColor 0.30980392156862746 0.8745098039215686 0.0
            specularColor 0.1568627450980392 0.4392156862745098 0.0
            ambientIntensity 0.606
            transparency 0.0
            shininess 0.5
        }
    }
    geometry IndexedFaceSet {
        ccw TRUE
        solid FALSE
        coord DEF co Coordinate {
            point [
                -0.1723 -0.014 0.0039, -0.2118 -0.014 0.0039, -0.1899 0.0353 0.0039, -0.194 0.0353 0.0039, -0.1911 0.0394 0.0039, -0.193 0.0394 0.0039, -0.1918 0.0436 0.0039, -0.1922 0.0436 0.0039, -0.0519 0.045 0.0039, -0.0519 -0.0472 0.0039, -0.0693 0.045 0.0039, -0.0687 -0.0472 0.0039, -0.0811 -0.046 0.0039, -0.1153 0.0001 0.0039, -0.1143 0.0118 0.0039, -0.1115 0.0212 0.0039, -0.0833 0.0435 0.0039, -0.0911 -0.0429 0.0039, -0.0991 -0.0381 0.0039, -0.1057 -0.0316 0.0039, -0.1107 -0.0234 0.0039, -0.1142 -0.0123 0.0039, -0.1074 0.0284 0.0039, -0.1017 0.0345 0.0039, -0.0931 0.0401 0.0039
            ]
        }
        coordIndex [
            0,1,2,-1,2,1,3,-1,2,3,4,-1,4,3,5,-1,4,5,6,-1,6,5,7,-1,8,9,10,-1,10,9,11,-1,10,11,12,-1,13,14,10,-1,10,14,15,-1,10,15,16,-1,12,17,10,-1,10,17,18,-1,10,18,19,-1,19,20,10,-1,10,20,21,-1,10,21,13,-1,22,23,15,-1,15,23,24,-1,15,24,16,-1,
        ]
    }
}
Shape{
    appearance Appearance {
        material  Material 	{
            diffuseColor 1.0 1.0 0.0
            specularColor 0.5019607843137255 0.5019607843137255 0.0
            ambientIntensity 0.886
            transparency 0.0
            shininess 0.5
        }
    }
    geometry IndexedFaceSet {
        ccw TRUE
        solid FALSE
        coord DEF co Coordinate {
            point [
                0.2167 0.3799 0.0, 0.1952 0.4111 0.0039, 0.1952 0.4111 0.0, 0.1817 0.4466 0.0039, 0.1817 0.4466 0.0, 0.1771 0.4843 0.0039, 0.1771 0.4843 0.0, 0.1817 0.522 0.0039, 0.1817 0.522 0.0, 0.1952 0.5575 0.0039, 0.1952 0.5575 0.0, 0.2167 0.5887 0.0039, 0.2167 0.5887 0.0, 0.2439 0.6128 0.0039, 0.2451 0.6139 0.0, 0.2451 0.6139 0.0039, 0.2788 0.6315 0.0039, 0.2788 0.6315 0.0, 0.3156 0.6406 0.0039, 0.3156 0.6406 0.0, 0.3536 0.6406 0.0039, 0.3536 0.6406 0.0, 0.3904 0.6315 0.0039, 0.3904 0.6315 0.0, 0.4241 0.6139 0.0039, 0.4241 0.6139 0.0, 0.4525 0.5887 0.0039, 0.4525 0.5887 0.0, 0.474 0.5575 0.0039, 0.474 0.5575 0.0, 0.4875 0.522 0.0039, 0.4875 0.522 0.0, 0.4921 0.4843 0.0039, 0.4921 0.4843 0.0, 0.4875 0.4466 0.0039, 0.4875 0.4466 0.0, 0.474 0.4111 0.0039, 0.474 0.4111 0.0, 0.4525 0.3799 0.0039, 0.4525 0.3799 0.0, 0.4241 0.3547 0.0039, 0.4241 0.3547 0.0, 0.3904 0.3371 0.0039, 0.3904 0.3371 0.0, 0.3536 0.328 0.0039, 0.3536 0.328 0.0, 0.3156 0.328 0.0039, 0.3156 0.328 0.0, 0.2788 0.3371 0.0039, 0.2788 0.3371 0.0, 0.2451 0.3547 0.0039, 0.2451 0.3547 0.0, 0.2439 0.3558 0.0039, 0.2167 0.3799 0.0039, 0.3346 0.4843 0.0, -0.3905 0.3371 0.0, -0.4242 0.3547 0.0039, -0.4242 0.3547 0.0, -0.4526 0.3799 0.0039, -0.4526 0.3799 0.0, -0.4741 0.4111 0.0039, -0.4741 0.4111 0.0, -0.4876 0.4466 0.0039, -0.4876 0.4466 0.0, -0.4922 0.4843 0.0039, -0.4922 0.4843 0.0, -0.4876 0.522 0.0039, -0.4876 0.522 0.0, -0.4741 0.5575 0.0039, -0.4741 0.5575 0.0, -0.4526 0.5887 0.0039, -0.4526 0.5887 0.0, -0.4242 0.6139 0.0039, -0.4242 0.6139 0.0, -0.3905 0.6315 0.0039, -0.3905 0.6315 0.0, -0.3693 0.6368 0.0039, -0.3537 0.6406 0.0, -0.3537 0.6406 0.0039, -0.3157 0.6406 0.0039, -0.3157 0.6406 0.0, -0.2789 0.6315 0.0039, -0.2789 0.6315 0.0, -0.2452 0.6139 0.0039, -0.2452 0.6139 0.0, -0.2168 0.5887 0.0039, -0.2168 0.5887 0.0, -0.1953 0.5575 0.0039, -0.1953 0.5575 0.0, -0.1818 0.522 0.0039, -0.1818 0.522 0.0, -0.1772 0.4843 0.0039, -0.1772 0.4843 0.0, -0.1818 0.4466 0.0039, -0.1818 0.4466 0.0, -0.1953 0.4111 0.0039, -0.1953 0.4111 0.0, -0.2168 0.3799 0.0039, -0.2168 0.3799 0.0, -0.2452 0.3547 0.0039, -0.2452 0.3547 0.0, -0.2789 0.3371 0.0039, -0.2789 0.3371 0.0, -0.3157 0.328 0.0039, -0.3157 0.328 0.0, -0.3537 0.328 0.0039, -0.3537 0.328 0.0, -0.3693 0.3318 0.0039, -0.3905 0.3371 0.0039, -0.3347 0.4843 0.0, 0.2167 -0.5886 0.0, 0.1952 -0.5574 0.0039, 0.1952 -0.5574 0.0, 0.1817 -0.5219 0.0039, 0.1817 -0.5219 0.0, 0.1771 -0.4842 0.0039, 0.1771 -0.4842 0.0, 0.1817 -0.4465 0.0039, 0.1817 -0.4465 0.0, 0.1952 -0.411 0.0039, 0.1952 -0.411 0.0, 0.2167 -0.3798 0.0039, 0.2167 -0.3798 0.0, 0.2439 -0.3557 0.0039, 0.2451 -0.3546 0.0, 0.2451 -0.3546 0.0039, 0.2788 -0.337 0.0039, 0.2788 -0.337 0.0, 0.3156 -0.3279 0.0039, 0.3156 -0.3279 0.0, 0.3536 -0.3279 0.0039, 0.3536 -0.3279 0.0, 0.3904 -0.337 0.0039, 0.3904 -0.337 0.0, 0.4241 -0.3546 0.0039, 0.4241 -0.3546 0.0, 0.4525 -0.3798 0.0039, 0.4525 -0.3798 0.0, 0.474 -0.411 0.0039, 0.474 -0.411 0.0, 0.4875 -0.4465 0.0039, 0.4875 -0.4465 0.0, 0.4921 -0.4842 0.0039, 0.4921 -0.4842 0.0, 0.4875 -0.5219 0.0039, 0.4875 -0.5219 0.0, 0.474 -0.5574 0.0039, 0.474 -0.5574 0.0, 0.4525 -0.5886 0.0039, 0.4525 -0.5886 0.0, 0.4241 -0.6138 0.0039, 0.4241 -0.6138 0.0, 0.3904 -0.6314 0.0039, 0.3904 -0.6314 0.0, 0.3536 -0.6405 0.0039, 0.3536 -0.6405 0.0, 0.3156 -0.6405 0.0039, 0.3156 -0.6405 0.0, 0.2788 -0.6314 0.0039, 0.2788 -0.6314 0.0, 0.2451 -0.6138 0.0039, 0.2451 -0.6138 0.0, 0.2439 -0.6127 0.0039, 0.2167 -0.5886 0.0039, 0.3346 -0.4842 0.0, -0.3905 -0.6314 0.0, -0.4242 -0.6138 0.0039, -0.4242 -0.6138 0.0, -0.4526 -0.5886 0.0039, -0.4526 -0.5886 0.0, -0.4741 -0.5574 0.0039, -0.4741 -0.5574 0.0, -0.4876 -0.5219 0.0039, -0.4876 -0.5219 0.0, -0.4922 -0.4842 0.0039, -0.4922 -0.4842 0.0, -0.4876 -0.4465 0.0039, -0.4876 -0.4465 0.0, -0.4741 -0.411 0.0039, -0.4741 -0.411 0.0, -0.4526 -0.3798 0.0039, -0.4526 -0.3798 0.0, -0.4242 -0.3546 0.0039, -0.4242 -0.3546 0.0, -0.3905 -0.337 0.0039, -0.3905 -0.337 0.0, -0.3693 -0.3317 0.0039, -0.3537 -0.3279 0.0, -0.3537 -0.3279 0.0039, -0.3157 -0.3279 0.0039, -0.3157 -0.3279 0.0, -0.2789 -0.337 0.0039, -0.2789 -0.337 0.0, -0.2452 -0.3546 0.0039, -0.2452 -0.3546 0.0, -0.2168 -0.3798 0.0039, -0.2168 -0.3798 0.0, -0.1953 -0.411 0.0039, -0.1953 -0.411 0.0, -0.1818 -0.4465 0.0039, -0.1818 -0.4465 0.0, -0.1772 -0.4842 0.0039, -0.1772 -0.4842 0.0, -0.1818 -0.5219 0.0039, -0.1818 -0.5219 0.0, -0.1953 -0.5574 0.0039, -0.1953 -0.5574 0.0, -0.2168 -0.5886 0.0039, -0.2168 -0.5886 0.0, -0.2452 -0.6138 0.0039, -0.2452 -0.6138 0.0, -0.2789 -0.6314 0.0039, -0.2789 -0.6314 0.0, -0.3157 -0.6405 0.0039, -0.3157 -0.6405 0.0, -0.3537 -0.6405 0.0039, -0.3537 -0.6405 0.0, -0.3693 -0.6367 0.0039, -0.3905 -0.6314 0.0039, -0.3347 -0.4842 0.0, 0.3142 0.0539 0.0039, 0.3346 0.0512 0.0, 0.3346 0.0512 0.0039, 0.355 0.0539 0.0, 0.3027 0.0587 0.0039, 0.2952 0.0618 0.0, 0.3142 0.0539 0.0, 0.2952 0.0618 0.0039, 0.2789 0.0743 0.0039, 0.2789 0.0743 0.0, 0.2664 0.0906 0.0039, 0.2664 0.0906 0.0, 0.2585 0.1096 0.0039, 0.2585 0.1096 0.0, 0.2559 0.13 0.0039, 0.2559 0.13 0.0, 0.2585 0.1504 0.0039, 0.2585 0.1504 0.0, 0.2664 0.1693 0.0039, 0.2664 0.1693 0.0, 0.2789 0.1856 0.0039, 0.2789 0.1856 0.0, 0.2952 0.1982 0.0039, 0.2952 0.1982 0.0, 0.3142 0.206 0.0039, 0.3142 0.206 0.0, 0.3346 0.2087 0.0039, 0.3346 0.2087 0.0, 0.355 0.206 0.0039, 0.355 0.206 0.0, 0.374 0.1982 0.0039, 0.374 0.1982 0.0, 0.3903 0.1856 0.0039, 0.3903 0.1856 0.0, 0.4028 0.1693 0.0039, 0.4028 0.1693 0.0, 0.4107 0.1504 0.0039, 0.4107 0.1504 0.0, 0.4133 0.13 0.0039, 0.4133 0.13 0.0, 0.4107 0.1096 0.0039, 0.4107 0.1096 0.0, 0.4028 0.0906 0.0039, 0.4028 0.0906 0.0, 0.3903 0.0743 0.0039, 0.3903 0.0743 0.0, 0.374 0.0618 0.0039, 0.374 0.0618 0.0, 0.3665 0.0587 0.0039, 0.355 0.0539 0.0039, 0.3346 0.13 0.0
            ]
        }
        coordIndex [
            0,1,2,-1,2,1,3,-1,2,3,4,-1,4,3,5,-1,4,5,6,-1,6,5,7,-1,6,7,8,-1,8,7,9,-1,8,9,10,-1,10,9,11,-1,10,11,12,-1,12,11,13,-1,12,13,14,-1,13,15,14,-1,14,15,16,-1,14,16,17,-1,17,16,18,-1,17,18,19,-1,19,18,20,-1,19,20,21,-1,21,20,22,-1,21,22,23,-1,23,22,24,-1,23,24,25,-1,25,24,26,-1,25,26,27,-1,27,26,28,-1,27,28,29,-1,29,28,30,-1,29,30,31,-1,31,30,32,-1,31,32,33,-1,33,32,34,-1,33,34,35,-1,35,34,36,-1,35,36,37,-1,37,36,38,-1,37,38,39,-1,39,38,40,-1,39,40,41,-1,41,40,42,-1,41,42,43,-1,43,42,44,-1,43,44,45,-1,45,44,46,-1,45,46,47,-1,47,46,48,-1,47,48,49,-1,49,48,50,-1,49,50,51,-1,51,50,52,-1,51,52,0,-1,0,52,53,-1,0,53,1,-1,6,8,54,-1,6,54,4,-1,51,0,54,-1,54,0,2,-1,54,2,4,-1,45,47,54,-1,54,47,49,-1,54,49,51,-1,39,41,54,-1,54,41,43,-1,54,43,45,-1,33,35,54,-1,54,35,37,-1,54,37,39,-1,27,29,54,-1,54,29,31,-1,54,31,33,-1,21,23,54,-1,54,23,25,-1,54,25,27,-1,14,17,54,-1,54,17,19,-1,54,19,21,-1,8,10,54,-1,54,10,12,-1,54,12,14,-1,55,56,57,-1,57,56,58,-1,57,58,59,-1,59,58,60,-1,59,60,61,-1,61,60,62,-1,61,62,63,-1,63,62,64,-1,63,64,65,-1,65,64,66,-1,65,66,67,-1,67,66,68,-1,67,68,69,-1,69,68,70,-1,69,70,71,-1,71,70,72,-1,71,72,73,-1,73,72,74,-1,73,74,75,-1,75,74,76,-1,75,76,77,-1,76,78,77,-1,77,78,79,-1,77,79,80,-1,80,79,81,-1,80,81,82,-1,82,81,83,-1,82,83,84,-1,84,83,85,-1,84,85,86,-1,86,85,87,-1,86,87,88,-1,88,87,89,-1,88,89,90,-1,90,89,91,-1,90,91,92,-1,92,91,93,-1,92,93,94,-1,94,93,95,-1,94,95,96,-1,96,95,97,-1,96,97,98,-1,98,97,99,-1,98,99,100,-1,100,99,101,-1,100,101,102,-1,102,101,103,-1,102,103,104,-1,104,103,105,-1,104,105,106,-1,106,105,107,-1,106,107,55,-1,55,107,108,-1,55,108,56,-1,65,67,109,-1,65,109,63,-1,57,59,109,-1,109,59,61,-1,109,61,63,-1,104,106,109,-1,109,106,55,-1,109,55,57,-1,98,100,109,-1,109,100,102,-1,109,102,104,-1,92,94,109,-1,109,94,96,-1,109,96,98,-1,86,88,109,-1,109,88,90,-1,109,90,92,-1,80,82,109,-1,109,82,84,-1,109,84,86,-1,73,75,109,-1,109,75,77,-1,109,77,80,-1,67,69,109,-1,109,69,71,-1,109,71,73,-1,110,111,112,-1,112,111,113,-1,112,113,114,-1,114,113,115,-1,114,115,116,-1,116,115,117,-1,116,117,118,-1,118,117,119,-1,118,119,120,-1,120,119,121,-1,120,121,122,-1,122,121,123,-1,122,123,124,-1,123,125,124,-1,124,125,126,-1,124,126,127,-1,127,126,128,-1,127,128,129,-1,129,128,130,-1,129,130,131,-1,131,130,132,-1,131,132,133,-1,133,132,134,-1,133,134,135,-1,135,134,136,-1,135,136,137,-1,137,136,138,-1,137,138,139,-1,139,138,140,-1,139,140,141,-1,141,140,142,-1,141,142,143,-1,143,142,144,-1,143,144,145,-1,145,144,146,-1,145,146,147,-1,147,146,148,-1,147,148,149,-1,149,148,150,-1,149,150,151,-1,151,150,152,-1,151,152,153,-1,153,152,154,-1,153,154,155,-1,155,154,156,-1,155,156,157,-1,157,156,158,-1,157,158,159,-1,159,158,160,-1,159,160,161,-1,161,160,162,-1,161,162,110,-1,110,162,163,-1,110,163,111,-1,116,118,164,-1,116,164,114,-1,161,110,164,-1,164,110,112,-1,164,112,114,-1,155,157,164,-1,164,157,159,-1,164,159,161,-1,149,151,164,-1,164,151,153,-1,164,153,155,-1,143,145,164,-1,164,145,147,-1,164,147,149,-1,137,139,164,-1,164,139,141,-1,164,141,143,-1,131,133,164,-1,164,133,135,-1,164,135,137,-1,124,127,164,-1,164,127,129,-1,164,129,131,-1,118,120,164,-1,164,120,122,-1,164,122,124,-1,165,166,167,-1,167,166,168,-1,167,168,169,-1,169,168,170,-1,169,170,171,-1,171,170,172,-1,171,172,173,-1,173,172,174,-1,173,174,175,-1,175,174,176,-1,175,176,177,-1,177,176,178,-1,177,178,179,-1,179,178,180,-1,179,180,181,-1,181,180,182,-1,181,182,183,-1,183,182,184,-1,183,184,185,-1,185,184,186,-1,185,186,187,-1,186,188,187,-1,187,188,189,-1,187,189,190,-1,190,189,191,-1,190,191,192,-1,192,191,193,-1,192,193,194,-1,194,193,195,-1,194,195,196,-1,196,195,197,-1,196,197,198,-1,198,197,199,-1,198,199,200,-1,200,199,201,-1,200,201,202,-1,202,201,203,-1,202,203,204,-1,204,203,205,-1,204,205,206,-1,206,205,207,-1,206,207,208,-1,208,207,209,-1,208,209,210,-1,210,209,211,-1,210,211,212,-1,212,211,213,-1,212,213,214,-1,214,213,215,-1,214,215,216,-1,216,215,217,-1,216,217,165,-1,165,217,218,-1,165,218,166,-1,175,177,219,-1,175,219,173,-1,167,169,219,-1,219,169,171,-1,219,171,173,-1,214,216,219,-1,219,216,165,-1,219,165,167,-1,208,210,219,-1,219,210,212,-1,219,212,214,-1,202,204,219,-1,219,204,206,-1,219,206,208,-1,196,198,219,-1,219,198,200,-1,219,200,202,-1,190,192,219,-1,219,192,194,-1,219,194,196,-1,183,185,219,-1,219,185,187,-1,219,187,190,-1,177,179,219,-1,219,179,181,-1,219,181,183,-1,220,221,222,-1,222,221,223,-1,224,225,220,-1,220,225,226,-1,220,226,221,-1,224,227,225,-1,225,227,228,-1,225,228,229,-1,229,228,230,-1,229,230,231,-1,231,230,232,-1,231,232,233,-1,233,232,234,-1,233,234,235,-1,235,234,236,-1,235,236,237,-1,237,236,238,-1,237,238,239,-1,239,238,240,-1,239,240,241,-1,241,240,242,-1,241,242,243,-1,243,242,244,-1,243,244,245,-1,245,244,246,-1,245,246,247,-1,247,246,248,-1,247,248,249,-1,249,248,250,-1,249,250,251,-1,251,250,252,-1,251,252,253,-1,253,252,254,-1,253,254,255,-1,255,254,256,-1,255,256,257,-1,257,256,258,-1,257,258,259,-1,259,258,260,-1,259,260,261,-1,261,260,262,-1,261,262,263,-1,263,262,264,-1,263,264,265,-1,265,264,266,-1,265,266,267,-1,267,266,268,-1,267,268,223,-1,223,268,269,-1,223,269,222,-1,231,233,270,-1,270,233,235,-1,270,235,237,-1,226,225,270,-1,270,225,229,-1,270,229,231,-1,267,223,270,-1,270,223,221,-1,270,221,226,-1,261,263,270,-1,270,263,265,-1,270,265,267,-1,255,257,270,-1,270,257,259,-1,270,259,261,-1,249,251,270,-1,270,251,253,-1,270,253,255,-1,243,245,270,-1,270,245,247,-1,270,247,249,-1,237,239,270,-1,270,239,241,-1,270,241,243,-1,
        ]
    }
}